<?xml version="1.0" encoding="utf-8"?>
<!-- Generator: Adobe Illustrator 23.0.1, SVG Export Plug-In . SVG Version: 6.00 Build 0)  -->
<svg version="1.1" id="Layer_1" xmlns="http://www.w3.org/2000/svg" xmlns:xlink="http://www.w3.org/1999/xlink" x="0px" y="0px"
	 viewBox="0 0 460 460" style="enable-background:new 0 0 460 460;" xml:space="preserve">
<style type="text/css">
	.st0{fill:#EEF9FF;}
	.st1{fill:none;stroke:#003EB0;stroke-miterlimit:10;stroke-dasharray:6;}
	.st2{fill:#023EA1;}
	.st3{fill:none;stroke:#FFFFFF;stroke-linecap:round;stroke-linejoin:round;stroke-miterlimit:10;}
	.st4{fill:none;stroke:#DE051F;stroke-miterlimit:10;}
	.st5{fill:#FCBE42;}
	.st6{fill:#D7DDEA;}
	.st7{fill:#FF7D8E;}
	.st8{fill:#FFA6B2;}
	.st9{fill:#EE384E;}
	.st10{fill:#ECECEC;}
	.st11{fill:#BD4149;}
	.st12{fill:#0064E1;}
	.st13{fill:#003EB0;}
	.st14{fill:#BDBDBD;}
	.st15{fill:#BA3E45;}
	.st16{fill:#E9E8EE;}
	.st17{fill:#DE051F;}
	.st18{fill:#FFBF99;}
	.st19{fill:#FFB48F;}
	.st20{fill:none;stroke:#FFBF99;stroke-width:0.25;stroke-miterlimit:10;}
	.st21{fill:#0064B7;}
	.st22{fill:#0083F9;}
	.st23{fill:#170856;}
	.st24{fill:#FFFFFF;}
	.st25{fill:#90A7CB;}
	.st26{fill:#EA4E59;}
	.st27{fill:#F79F03;}
	.st28{fill:#000036;}
	.st29{fill:#180756;}
	.st30{fill:none;stroke:#003EB0;stroke-miterlimit:10;}
	.st31{fill:#E9E8ED;}
	.st32{fill:#649EEA;}
	.st33{fill:none;stroke:#023EA1;stroke-miterlimit:10;}
	.st34{fill:none;stroke:#649EEA;stroke-miterlimit:10;}
	.st35{fill:#0054A5;}
	.st36{fill:#006AD5;}
	.st37{fill:none;stroke:#FCBE42;stroke-miterlimit:10;}
</style>
<g>
	<path class="st0" d="M247.01,35.35c0,0,34.68,15.72,69.88-5.03s85.49-27.54,113.78,32.44s-16.34,100.83-37.09,106.49
		c-20.75,5.66-50.29,10.06-47.15,48.4c3.15,38.34-35.21,42.74-44.63,52.95c-9.43,10.22-13.52,24.22-15.72,35.13
		c-2.2,10.91-27.47,46.43-59.94,44.86s-17.7-33.94-49.44-47.46s-47.46-4.92-52.49-28.55s-10.71-52.54-44.01-59.77
		c-33.3-7.23-63.47-20.12-53.42-61.92s45.59-65.37,54.39-72.6c8.8-7.23,19.45-30.49,19.79-42.43c0.34-11.94-0.92-43.07,45.59-35.52
		S247.01,35.35,247.01,35.35z"/>
	<circle class="st1" cx="145.46" cy="147.28" r="64.51"/>
	<circle class="st1" cx="279.86" cy="172.9" r="86.92"/>
	<path class="st2" d="M430.06,339.92c0,0-2.04,6.13,0.79,11.32c2.83,5.19,4.47,8.64-0.75,10.06c-5.22,1.42-10.41,2.51-10.41,8.33
		s6.28,19.64-3.15,23.42c-9.43,3.77-24.2,6.75-27.66-5.19c-3.46-11.94-7.34-13.05-4.92-21.84c2.41-8.8,11.53-3.92,13.41-11.63
		c1.88-7.7-2.51-12.1,6.28-12.73c8.8-0.63,9.43,2.36,9.11-7.23s10.69-7.07,14.93-3.77C431.93,333.98,430.06,339.92,430.06,339.92z"
		/>
	<path class="st3" d="M417.65,347.93c0,0-20.43,26.87-27.66,47.3"/>
	<g>
		<path class="st4" d="M400.09,321.79c0,0-6.91,6.07,0,8.38c6.91,2.31,9.85,5.44,6.5,11.94c-3.35,6.5-2.25,11.53,1.38,13.82
			c3.63,2.3,10.97,5.44,5.94,14.04c-5.03,8.59-13.62,25.98-23.68,21.59c-10.06-4.4-15.72-20.32-11.94-26.82
			c3.77-6.5,10.06-8.59,6.5-16.13c-3.56-7.54-10.27-3.15-10.9-11.94c-0.63-8.8-2.05-17.68,9.74-21.05
			C394.22,312.57,403.03,317.49,400.09,321.79z"/>
		<g>
			<path class="st4" d="M391.09,327.66c0,0,3.56,55.32,7.75,69.15"/>
			<polyline class="st4" points="404.92,362.23 394.97,372.69 383.96,367.47 			"/>
			<polyline class="st4" points="400.52,336.67 392.22,343.16 382.49,339.92 			"/>
		</g>
	</g>
	<path class="st2" d="M132.58,335.87c0,0-2.99-6.58,2.2-9.41s12.89,1.57,12.57,6.75s-3.94,6.89-0.86,9.41s10.56,10.86,6.57,14.8
		c-3.98,3.92-9.46,1.11-10.1,8.65c-0.64,7.54,9.91,14.93,0,20.28c-9.91,5.35-28.92,9.9-28.61-8.8c0.32-18.7,13.67-7.54,10.22-21.53
		c-3.45-13.98,3.3-10.57,7.07-13.38C135.4,339.81,132.58,335.87,132.58,335.87z"/>
	<path class="st3" d="M138.86,346.42c0,0-7.23,17.76-8.33,35.21c-1.11,17.44,1.25,21.37,1.25,21.37"/>
	<g>
		<path class="st4" d="M140.21,394.62c0,0,11.65-33.52,27.99-51.92"/>
		<path class="st4" d="M180.13,332.83c0,0-2.2,10.69-13.58,11.81C166.54,344.64,166.92,335.07,180.13,332.83z"/>
		<path class="st4" d="M155.17,361.64c0,0,6.34-7.82,17.55-3.27C172.73,358.36,169.24,366.98,155.17,361.64z"/>
		<path class="st4" d="M144.85,382.94c0,0,4.7-8.92,16.58-6.65C161.43,376.31,159.71,385.43,144.85,382.94z"/>
		<path class="st4" d="M144.44,382.88c0,0,4.13-9.18-4.99-17.15C139.45,365.74,133.32,372.73,144.44,382.88z"/>
		<path class="st4" d="M155.31,361.6c0,0,5.26-8.59-2.76-17.64C152.55,343.96,145.59,350.11,155.31,361.6z"/>
	</g>
	<path class="st5" d="M45.2,335.87c0,0,14.46-4.86,14.61,3.63c0.16,8.49,3.62,9.27,7.23,9.9c3.61,0.63,10.53-0.95,10.22,8.02
		c-0.32,8.95-3.92,13.42-1.11,17.24c2.83,3.81,9.14,22.98,1.11,23.46c-8.03,0.47-14.63-8.95-16.35-13.67
		c-1.73-4.71-8.02-6.91-13.2-7.39c-5.19-0.47-10.85-4.99-6.91-10.75c3.92-5.76,2.72-13.3-1.31-16.12
		C35.45,347.35,35.45,339.31,45.2,335.87z"/>
	<line class="st3" x1="49.44" y1="345.47" x2="77.73" y2="405.19"/>
	<polyline class="st3" points="68.46,356.16 60.93,369.73 45.99,368.06 	"/>
	<path class="st6" d="M421.33,380.25c-18.02-9.85-36.88,5.44-36.88,5.44c-22.43-18.85-51.34-3.15-51.34-3.15
		c-7.96-10.27-22.21-4.19-22.21-4.19c-8.59-10.06-26.08-8.27-26.08-8.27c-7.86-17.29-25.78-13.52-25.78-13.52
		c0-15.09-14.77-16.04-14.77-16.04v-53.1l-19.23,8.95l-14.14-8.95v53.11c0,0-14.77,0.95-14.77,16.04c0,0-17.92-3.77-25.78,13.52
		c0,0-17.49-1.79-26.08,8.27c0,0-14.25-6.07-22.21,4.19c0,0-28.91-15.72-51.34,3.15c0,0-18.85-15.29-36.88-5.44
		c-18.02,9.85-17.18,30.52-3.35,30.76h394.21C438.5,410.76,439.34,390.1,421.33,380.25z"/>
	<path class="st7" d="M201.28,254.13l14.47,64.64c0,0,4.82,16.4,12.54,16.4s11.58-13.51,12.54-19.29
		c0.96-5.78,13.51-63.67,13.51-63.67L201.28,254.13z"/>
	<path class="st8" d="M211.46,257.73l6.11,27.31l1.92,8.59c0,0,1.41,5.38,2.37,7.06c1.32,2.31,3.49,5.05,6.24,5.05
		c4.76,0,7.13-6.39,7.73-9.96s8.32-39.24,8.32-39.24L211.46,257.73z"/>
	<g>
		<path class="st9" d="M175.56,230.01c-7.71,28.94-8.69,49.2-8.69,49.2s0,10.62,5.78,3.86c3.85-4.49,14.54-13.27,23.26-19.76
			c-2.08-18.36-3.29-52.66-3.78-68.87C187.84,199.79,180.65,210.9,175.56,230.01z"/>
		<path class="st9" d="M204.5,213.61l-8.69-23.15c0,0-1.45,1.23-3.67,3.98c0.49,16.21,1.7,50.51,3.78,68.87
			c4.37-3.27,8.25-5.95,10.51-7.25C213.18,252.19,204.5,213.61,204.5,213.61z"/>
	</g>
	<g>
		<path class="st9" d="M281.41,230.01c7.71,28.94,8.69,49.2,8.69,49.2s0,10.62-5.78,3.86c-3.85-4.49-14.54-13.27-23.26-19.76
			c2.08-18.36,3.29-52.66,3.78-68.87C269.12,199.79,276.32,210.9,281.41,230.01z"/>
		<path class="st9" d="M252.47,213.61l8.69-23.15c0,0,1.45,1.23,3.67,3.98c-0.49,16.21-1.7,50.51-3.78,68.87
			c-4.37-3.27-8.25-5.95-10.51-7.25C243.78,252.19,252.47,213.61,252.47,213.61z"/>
	</g>
	<path class="st10" d="M242.84,76.62h-35.99c-6.65,12.2-13.08,28.31-15.7,47.75c-4.37,32.65,3.46,88.9,8.08,117.22h52.04
		c9.11-49.19,9.43-71.86,10.27-88.37C263.07,123.17,252.8,95.67,242.84,76.62z"/>
	<circle class="st9" cx="229.25" cy="130.64" r="25.09"/>
	<path class="st9" d="M223.73,61.76l-11.83,6.32c-1.65,2.59-3.37,5.44-5.05,8.55h41.46c-0.17-0.32-0.33-0.62-0.5-0.92
		c-4.77-4.35-11.25-10.28-13.96-12.93C229.31,58.32,223.73,61.76,223.73,61.76z"/>
	<path class="st11" d="M225.89,50.09c0,0-6.51,6.3-13.98,17.98l11.83-6.32c0,0,5.59-3.44,10.13,1.01
		c2.71,2.66,9.18,8.59,13.96,12.93c-7.9-14.91-15.46-24.44-16.63-25.61C228.54,47.44,225.89,50.09,225.89,50.09z"/>
	<path class="st12" d="M210.01,129.84l17.88-18.42C218.14,112.1,210.41,120.01,210.01,129.84z"/>
	<path class="st12" d="M236.13,112.63l-24.68,25.41c0.24,0.57,0.51,1.13,0.8,1.68l25.58-26.35
		C237.27,113.1,236.71,112.84,236.13,112.63z"/>
	<path class="st12" d="M238.95,113.97l-26.06,26.84c3.4,5.47,9.45,9.12,16.38,9.12c10.65,0,19.29-8.64,19.29-19.29
		C248.56,123.52,244.68,117.31,238.95,113.97z"/>
	<path class="st13" d="M229.25,111.35c-0.46,0-0.91,0.04-1.37,0.07L210,129.84c-0.01,0.27-0.04,0.53-0.04,0.8
		c0,2.62,0.53,5.13,1.48,7.4l24.68-25.41C233.99,111.81,231.68,111.35,229.25,111.35z"/>
	<path class="st13" d="M237.83,113.38l-25.58,26.35c0.19,0.38,0.43,0.73,0.64,1.09l26.06-26.84
		C238.58,113.77,238.21,113.56,237.83,113.38z"/>
	<path class="st12" d="M250.95,241.59h-51.71c1.12,6.85,2.04,12.06,2.56,14.92c0.29,1.59,0.45,2.44,0.45,2.44h50.63l-4.92-0.49
		C249.03,252.7,250.03,247.07,250.95,241.59z"/>
	<path class="st14" d="M248.31,76.62h-5.47c9.95,19.05,20.23,46.55,18.7,76.61c-0.74,14.58-3.66,47.11-10.59,88.37h5.49
		c6.89-41.12,9.83-73.85,10.57-88.37C268.54,123.17,258.26,95.67,248.31,76.62z"/>
	<path class="st2" d="M247.88,258.95h5.01c1.09-5.93,2.61-11.72,3.56-17.36h-5.49C250.03,247.07,248.95,253.18,247.88,258.95z"/>
	<path class="st15" d="M231.62,200.29c-0.01-0.07-0.02-0.15-0.05-0.22c-0.24-1.21-1.35-5.75-3.28-5.75c-0.91,0-1.6,0.01-2.19,0.51
		c1.26,1.21,2,4.28,2.2,5.24c0.01,0.07,0.02,0.15,0.05,0.22c1.32,6.71,5.2,27.98,4.4,43.24c-0.96,18.33-3.88,32.9-4.82,37.62
		c-0.56,2.78-1.12,4.28-1.86,5.04c0.36,0.45,0.78,0.74,1.26,0.74c1.93,0,2.89-0.96,3.86-5.78c0.95-4.73,3.86-19.29,4.82-37.62
		C236.81,228.26,232.93,206.99,231.62,200.29z"/>
	<path class="st9" d="M227.93,281.14c0.95-4.73,3.86-19.29,4.82-37.62c0.8-15.26-3.07-36.53-4.4-43.24
		c-0.01-0.07-0.02-0.15-0.05-0.22c-0.19-0.96-0.94-4.02-2.2-5.24c-0.66,0.57-1.17,1.76-1.68,4.31c0,0-6.75,27.98-4.82,47.27
		c1.45,14.47,3.44,27.31,4.34,32.84c0.3,1.83,0.49,2.87,0.49,2.87s0.55,2.72,1.64,4.08C226.81,285.42,227.37,283.93,227.93,281.14z"
		/>
	<ellipse class="st16" cx="86.31" cy="444.51" rx="58.37" ry="6.78"/>
	<ellipse class="st16" cx="336.25" cy="445.45" rx="73.22" ry="8.5"/>
	<path class="st17" d="M108.34,317.25c0,0-4.32,60.28-4.94,70.97c-0.63,10.69-2.9,46.7-2.9,46.7H89.89l-7.16-118.33L108.34,317.25z"
		/>
	<path class="st9" d="M68.42,317.88c0,0,1.25,30.37,1.81,38.07c0.55,7.7-5.5,34.03-8.95,45.73c-3.46,11.71-8.33,24.67-8.33,24.67
		l8.33,4.8c0,0,17.99-32.22,24.44-51.23c6.44-19.01,11.24-47.46,10.45-63.49L68.42,317.88z"/>
	<path class="st18" d="M113.57,274.75l8.09,10.76c0,0,0.63,0.86,2.13,0.47c1.49-0.39,17.06-6.05,17.06-6.05s2.17-0.97,2.75-2.7
		c0.57-1.73,0.84-2.15,1.18-2.62c0.34-0.47,0.84-0.41,0.55-1.57c-0.29-1.15-0.45-1.63-0.45-1.63s-0.34-0.81,0.34-0.81
		c0.68,0,1.41,0.16,1.79,0.95c0.36,0.79,0.27,2.7,0.27,2.7l3.33,0.13c0,0,2.04,0.07,2.04,2.2s0,5.69,0,5.69s0.29,1.11-1.2,1.11
		c-1.49,0-3.06-0.05-3.06-0.05s-1.25-0.13-3.3,1.36c-2.05,1.49-17.65,10.42-17.65,10.42s-5.39,3.22-8.93-0.16
		c-3.54-3.38-11.31-11.74-11.31-11.74l-0.39-2.65L113.57,274.75z"/>
	<path class="st19" d="M87.53,245.93c0,0-0.96,4.82-2.89,9.65s-2.89,6.75-2.89,6.75s5.78,6.75,11.58,5.78
		c5.78-0.96,5.78-4.82,5.78-4.82s-5.31-4.34-5.31-10.13s0-5.78,0-5.78L87.53,245.93z"/>
	<path class="st20" d="M101.43,264.17"/>
	<path class="st21" d="M100.29,262.18c0,0,4.8,2.67,6.79,4.36c2,1.69,7.77,8.33,7.77,8.33l-7.9,7.67l-5.5-6.24L100.29,262.18z"/>
	<path class="st22" d="M84.19,259.92c0,0,2.89,3.86,6.75,4.82c3.86,0.96,5.78-1.93,5.78-1.93l1.06-1.38c0,0,1.07-0.84,2.25,0.15
		c1.18,0.97,3.43,3.47,5.38,7.51c1.96,4.03,2.53,9.55,2.94,22.44c0.41,12.89,0,26.8,0,26.8H68.46l-0.47-20.03
		c0,0,4.24-26.64,8.41-32.06c4.17-5.42,5.38-6.6,5.38-6.6S82.74,258.32,84.19,259.92z"/>
	<path class="st18" d="M99.6,232.9c0,0,2.89,3.86,2.89,10.62c0,6.75-0.96,11.58-3.86,11.58s-8.69-1.93-9.65-3.86
		s-2.89-1.93-2.89-5.78c0-3.85,4.82-12.54,8.69-12.54C98.64,232.92,99.6,232.9,99.6,232.9z"/>
	<path class="st23" d="M102.49,232.9c0,0,2.89-7.71,0.96-8.69c-1.93-0.96-5.78,0.96-6.75,1.93c-0.96,0.96-2.89,0.96-3.86,0.96
		c0,0-9.65,0-11.58,1.93c-1.93,1.93-1.93,2.89-1.93,3.86c0,0.96-0.01,4.75-0.96,6.75c-0.41,0.87-0.96,4.82,0.96,8.69
		c1.92,3.86,3.86,4.82,4.82,4.82s1.83,0,1.93-0.96c0.11-1.04,0.49-2.51,0.96-3.86c0.46-1.29,0.96-3.86,0.96-3.86
		s0.96-4.82,2.89-6.75c1.93-1.93,1.93-1.93,5.78-2.89C100.56,233.88,101.53,235.79,102.49,232.9z"/>
	<path class="st18" d="M89.48,239.95c1.43,1.64-0.5,4.53-0.5,4.53s-2.89,0.96-2.89-1.93C86.09,239.66,88.04,238.3,89.48,239.95z"/>
	<path class="st18" d="M70.16,280.55c0,0-3.62,13.93-2.99,22.66c0.63,8.72,3.22,16.28,5.1,21.54c1.88,5.26,2.99,6.52,3.06,9.83
		s1.62,7.23,3.54,9.2s3.46,2.95,3.46,2.95s2.28,1.06,1.92-1.06c0,0,1.53,0.12,0.95-1.06c0,0,2.04,0.04,0.55-1.57
		c-1.49-1.62-4.24-3.18-4.24-3.18s-1.57-2.51,0.67-1.25c2.24,1.25,4.2,1.3,2.13-0.74c-2.08-2.04-4.48-5.61-6.24-12.14
		c-1.76-6.52-3.85-19.41-1.36-29.31c2.49-9.9,5.64-13.2,5.64-13.2L70.16,280.55z"/>
	<path class="st23" d="M61.63,430.5c0,0,1.92,5.39,4.05,7.87c2.13,2.48,3.81,4.29,3.81,4.29s2.48,3.97-0.32,2.79
		c-2.79-1.18-18.23-11.55-18.23-11.55s-2.2-1.14-1.18-3.02c1.02-1.88,3.61-5.52,3.61-5.52L61.63,430.5z"/>
	<path class="st23" d="M89.99,442.53c0,0-0.57,1.57,2.67,1.57c3.24,0,20.91,0,20.91,0s3.4-0.68,0.27-2.2
		c-3.15-1.52-12.57-5.76-12.57-5.76s-0.72-0.19-0.7-2h-10.7L89.99,442.53z"/>
	<path class="st21" d="M85.27,271.27c0,0,0.68-6.47-4.03-7.09c-4.71-0.62-7.7,5.66-9.27,9.74c-1.57,4.08-2.36,7.07-2.36,7.07
		s10.13,4.08,12.8,4.08C82.42,285.07,84.67,278.29,85.27,271.27z"/>
	<g>
		<path class="st12" d="M379.93,273.92c0,0,3.62-2.04,1.41-10.61c-2.2-8.56-4.4-9.99-1.41-16.11c2.99-6.13,12.57-7.87,26.24-7.31
			c13.67,0.56,17.29,14.04,15.72,19.95c-1.57,5.92-13.99,12.67-21.54,11.72s-10.99-1.41-10.99-1.41S386.84,274.39,379.93,273.92z"/>
		<circle class="st24" cx="395.15" cy="255.4" r="2.02"/>
		<circle class="st24" cx="401.32" cy="255.4" r="2.02"/>
		<circle class="st24" cx="407.45" cy="255.4" r="2.02"/>
	</g>
	<polygon class="st18" points="354.18,351.36 334.84,363.68 356.87,355.21 	"/>
	<path class="st25" d="M363.19,381.15c0,0,21.6,1.28,12.2,2.54c-9.4,1.28-22.35,1.28-26.93,0.77
		C343.88,383.94,359.64,381.4,363.19,381.15z"/>
	<path class="st13" d="M359.12,358.33l-6.04-2.1l-39.81,14.63c0,0-5.08,2.79-5.47,8.64c-0.39,5.84-2.28,57.8-2.28,57.8h7.5
		l5.08-41.79l2.03-15.76l9.15-5.21l23.37-11.94L359.12,358.33z"/>
	<path class="st12" d="M375.23,359.21c1.32,4.65,3.35,18.31-3.29,21.48c-0.28,0.13-0.58,0.23-0.89,0.28l-36.51,5.73
		c-0.17,0.02-0.33,0.05-0.5,0.05c-0.63,0-2.58,0.21-1.71,2.67c0.86,2.49,11.63,32.07,14.77,40.71c0.5,1.38,2.44,5.35,1.21,6.16
		l-3.58,3.5c-1.54,1.02-4.26-4.23-5.16-5.84l-23.9-42.82c-0.07-0.13-0.15-0.28-0.19-0.44c-0.56-1.48-2.99-9.2,4.8-13.08
		c7.79-3.9,31.27-15.94,35.81-18.28c0.5-0.26,2.61-1.49,3.17-1.47l12.94,1.96C373.54,359.89,374.85,357.9,375.23,359.21z"/>
	<path class="st21" d="M291.55,354.64c0-0.02-0.01-0.05-0.01-0.07c-0.05-0.3-0.39-2.5,1.15-2.5h7.98c0.29,0,0.52-0.23,0.52-0.52
		v-5.61c0-0.33-0.27-0.6-0.6-0.6l-15.38-0.12c-0.04,0-0.06,0-0.1-0.01c-0.3-0.05-1.79-0.44-2.36-3.15c0-0.01,0-0.02-0.01-0.05
		l-3.12-21.5c-0.06-0.46-0.05-0.92,0.1-1.36c0.28-0.89,1.09-2.02,3.41-2.02c3.4,0,28.18-0.1,33.54-0.12c1.19,0,2.31,0.62,2.88,1.66
		c0.39,0.7,0.74,1.73,0.94,3.16c0.58,4.15,2.51,17.54,2.87,19.95c0.04,0.29,0.04,0.58-0.02,0.87c-0.21,0.94-0.89,2.83-3.1,2.93
		c-2.54,0.11-12.56-0.26-15.14-0.35c-0.34-0.01-0.61,0.26-0.62,0.58l-0.05,5.9c0,0.33,0.27,0.6,0.6,0.6l8.56,0.06
		c0.04,0,0.09,0,0.12,0.01c0.23,0.06,0.96,0.35,0.95,1.25c-0.02,1.68-0.06,1.34-0.06,1.34l-22.47,0.18c-0.29,0-0.53-0.22-0.57-0.51
		L291.55,354.64z"/>
	<path class="st23" d="M371.67,305.35c0,0,6.01-2.62,8.64,5.42c0,0,1.77,5.5,3.05,7.12c1.28,1.6,4.65,2.71,4.65,2.71
		s3.13,1.6,2.96,6.27c-0.17,4.65-0.6,8.89-2.28,11.77c-1.28,2.16-0.58,3.61-0.17,4.19c0.21,0.29,0.29,0.64,0.27,1
		c-0.07,0.91-0.56,2.38-2.89,2.44c-3.39,0.09-7.77,1.48-7.09-1.81c0.68-3.3,1.92-19.69,1.92-19.69l-2.54-6.44l-3.9-2.54l-1.86-1.28
		c0,0-4.47-5.76-4.47-7.09C367.96,306.07,371.67,305.35,371.67,305.35"/>
	<path id="face_2_" class="st18" d="M367.6,305.52l-4.82-2.45l-0.17-7.62l-2.2-2.71l-4.07,1.19l-5.42-0.17h-4.24
		c0,0,0.51,11.69,4.74,16.25c0,0,4.99,1.02,6.86-0.26c0,0,2.2-1.94,2.2,1.45s0.34,7.37,0.34,7.37s1.52,2.71,7.29,0.17
		c0,0,3.13-1.69,4.32-4.24"/>
	<path class="st23" d="M349.73,284.73c0,0,11.31-9.4,18.3,0c6.99,9.4,5.72,16.39,3.81,18.42c0,0-6.06,6.51-10.74-0.45
		c0,0-0.91-1.17-0.32-3.54c0,0,1.77-5.21-2.67-3.98c-4.45,1.23-8.26,1.19-9.91-0.63c-1.65-1.82-2.33,0.17-2.25,0.77
		c0.09,0.6-0.68,4.41-2.93,0.94c-2.25-3.47,0.6-9.66,3.09-11.31C346.13,284.95,348.28,283.76,349.73,284.73z"/>
	<path class="st26" d="M371.29,303.25c0,0,0.6,1.91,0.46,2.28c0,0-2.59,1.91-3.26,1.99c0,0-0.97-1.57-0.8-2.2
		C367.68,305.33,370.99,303.34,371.29,303.25z"/>
	<path class="st5" d="M372.26,314.49c0.07-0.07,0.19,0.01,0.29,0c1.06-0.12,8.04-0.52,8.87,8.87c0.78,8.84-4.43,32.14-5.81,37.51
		l-24.72-3.8c0.46-2.27,1.13-7.47,1.13-8.49c0,0,1.09-10.01,1.3-12.91c0.04-0.44-0.12-0.87-0.43-1.19c-1.12-1.2-3.72-4.64-1.32-8.37
		c0,0,5.21-8.64,8.89-10.48C360.47,315.6,364.3,322.26,372.26,314.49z"/>
	<path class="st18" d="M368.23,336.47L368.23,336.47c0.29-1.08,1.48-1.65,2.5-1.18l3.96,1.8c0.52,0.23,0.9,0.69,1.02,1.25l0.17,0.72
		c0.1,0.4,0.05,0.83-0.13,1.2l-4.2,8.69c-0.12,0.26-0.22,0.52-0.28,0.79c-0.21,0.86-1.13,2.96-5.02,1.94l-24.53-6.2
		c-0.07-0.02-5.31-1.92-5.37-1.94c-0.53-0.21-1.04,0-1.18,1.7c-0.06,0.72-1.9-1.42-1.47-2.93c0,0,1.29-2.95,8.15-1.3l18.84,3.79
		c0.05,0.01,0.1,0.02,0.15,0.04c0.5,0.15,3.56,0.91,4.37-1.54l2.9-6.56C368.17,336.64,368.19,336.55,368.23,336.47z"/>
	<path class="st27" d="M379.44,317.71c0.47,0.34,0.74,0.9,0.87,1.45c0.33,1.25,0.39,2.78,0.11,4.05c-0.5,2.28-3.11,14.03-4.41,16.47
		c0,0-4.17-2.98-7.81-3.15c0,0,1.99-8.18,4-13.7C372.21,322.81,375.26,314.67,379.44,317.71z"/>
	<path class="st23" d="M313.01,437.3l0.26,6.41c0,0,0.18,0.97-3.75,0.97c-3.94,0-14.15-0.01-14.15-0.01s-2.42-1.02,0.38-1.91
		c0,0,6.22-1.91,9.78-5.47L313.01,437.3L313.01,437.3z"/>
	<path class="st9" d="M340.52,351.3l-9.78,0.06v-4.32c0,0-0.45-1.2,1.46-1.34c1.91-0.12,6.99,0.12,6.99,0.12s1.4,0.12,1.4,1.77
		C340.58,349.25,340.52,351.3,340.52,351.3z"/>
	<path class="st28" d="M339.78,351c0,0,3.64-0.32,3.91,1.51c0.32,2.08-0.69,2.58-2.47,2.64c-1.77,0.06-12.39-0.16-12.39-0.16
		s-2.05-0.29-1.97-1.77c0.09-1.52,0.51-2.1,2.48-2.1S339.78,351,339.78,351z"/>
	<path class="st2" d="M315.35,354.81l27.31,0.17c0.11,0,0.21,0.01,0.32,0.02c0.73,0.01,2.7,0.44,2.7,2.02
		c0,1.86-1.36,2.37-3.73,2.37h-62.88c-0.74,0-1.45-0.28-2-0.78c-0.72-0.64-1.52-2.59,0.05-3.57c0.44-0.28,0.96-0.39,1.48-0.39
		L315.35,354.81z"/>
	<path class="st2" d="M298.4,359.21l-17.95,15.76c0,0-3.22,2.88-3.39,9.49s-1.19,60.63-1.19,60.63s-0.34,3.05,5.59,3.05h38.62
		c0,0,1.52,0,1.69-1.86c0.17-1.86-1.36-1.69-2.54-1.69l-39.47,0.17l0.34-59.45c0,0-1.02-5.08,6.27-11.01l16.28-15.05L298.4,359.21z"
		/>
	<path class="st2" d="M361.35,384.65l0.06,55.7c0,0,8.64,0.26,10.17,2.28c1.52,2.03-0.26,3.3-9.15,3.05
		c-8.89-0.26-14.23-0.26-14.23-0.26s-4.32-0.51,0.77-3.05c5.08-2.54,9.15-1.77,9.15-1.77l0.51-55.89L361.35,384.65z"/>
	<path class="st29" d="M347.95,432.47c0,0,4.96,4.7,2.03,6.86l-12.96,10.29c0,0-1.91,0.51-1.52-1.65l5.72-11.05L347.95,432.47z"/>
	<g>
		<circle class="st30" cx="166.7" cy="40.85" r="8.13"/>
		<line class="st30" x1="163.16" y1="33.6" x2="136.78" y2="26.22"/>
		<line class="st30" x1="158.5" y1="41.64" x2="130.48" y2="43.45"/>
		<line class="st30" x1="163.35" y1="48.47" x2="137.97" y2="60.49"/>
	</g>
	<g>
		<circle class="st4" cx="361.1" cy="147.13" r="11.78"/>
		<path class="st4" d="M352.99,138.43c0,0-20.57-5.49-13.45,1.75c7.12,7.24,31.11,17.66,35.93,18.76c4.82,1.08,7.84-0.9,6.33-3.5
			c-1.51-2.59-9.05-6.82-9.05-6.82"/>
	</g>
	<polygon class="st13" points="289.61,164.95 292.18,158.92 295.64,164.22 301.18,165.03 297.82,169.13 298.29,175.39 
		293.07,172.66 287.93,175.88 288.49,169.37 283.58,165.43 	"/>
	<polygon class="st4" points="298.66,6.03 301.22,0 304.68,5.31 310.23,6.11 306.86,10.2 307.33,16.48 302.11,13.75 296.97,16.96 
		297.53,10.45 292.62,6.51 	"/>
	<g>
		<circle class="st4" cx="86.31" cy="112.63" r="9.71"/>
		<circle class="st4" cx="83.31" cy="116.01" r="2.21"/>
		<circle class="st4" cx="88.83" cy="111.07" r="1.66"/>
		<circle class="st4" cx="83.71" cy="108.32" r="1.3"/>
	</g>
	<g>
		<circle class="st30" cx="144.48" cy="147.28" r="15.77"/>
		<path class="st30" d="M135.99,133.96c0,0,0.96,3.62,5.31-0.49c0,0,2.42-2.05,2.89,0.36c0.49,2.42-0.96,3.01-1.45,3.26
			c-0.49,0.24-3.26,0.73-3.26,0.73s-2.17,2.05-0.24,2.89s2.65-0.49,2.65-0.49s2.05-0.36,2.42,0.96s1.69,1.51,2.77,0.06
			c1.08-1.45,1.69,0,1.93,1.02c0.24,1.02,0.67,1.26,1.63,0.84c0.96-0.43,1.38-0.96,1.63-0.79c0.24,0.18,0.9,0.67,1.14,1.81
			c0.24,1.14,2.17,0,2.71-0.3c0.55-0.3,1.93-0.96,1.93-0.96l0.84-1.08l0.24-0.55"/>
		<path class="st30" d="M129.71,142.22c0,0,1.45,1.87,2.36,2.11c0.9,0.24,1.93-0.55,2.24-0.73c0.3-0.18,1.63,0.06,1.87,1.02
			c0.24,0.96,0.84,1.38,1.69,1.02c0.84-0.36,1.32-1.93,2.53-1.14c1.2,0.79,1.38,1.38,1.2,2.05c-0.18,0.67-2.71,1.99-3.5,2.11
			c-0.79,0.12-1.99,0.96-1.99,0.96s-1.45,1.02-0.3,2.3s2.11,0.73,2.11,0.73s1.69-1.51,2.65-1.81c0.96-0.3,2.42-0.84,2.83,0.43
			c0.41,1.26-0.24,2.36-1.26,2.71c-1.02,0.36-2.65,0.61-3.07,0.9c-0.43,0.3-2.36,0.55-1.81,2.05c0.55,1.51,2.05,1.63,3.26,1.38
			c1.2-0.24,1.2-0.06,1.2,1.08c0,1.14-0.12,3.07-0.12,3.07"/>
		<path class="st30" d="M160.26,147.28c0,0-6.73,1.75-7.34,2.83c0,0-1.51,1.08-0.67,2.17c0,0,0.36,1.69,2.3,0.73
			c1.93-0.96,4.15-0.84,4.34-0.3c0.18,0.55,0.43-0.06,0.43-0.06"/>
	</g>
	<g>
		<g>
			<path class="st30" d="M388.92,73.84c-7.14-2.6-12.25-9.45-12.25-17.49"/>
			<path class="st30" d="M413.54,52.61c0.24,1.2,0.38,2.45,0.38,3.73c0,8.95-6.32,16.42-14.74,18.21"/>
			<path class="st30" d="M379.29,46.81c3.26-5.44,9.2-9.09,16-9.09c5.41,0,10.27,2.3,13.67,5.98"/>
		</g>
		<g>
			<path class="st30" d="M383.96,59.06c-1.19-4.63,0.55-9.71,4.71-12.57"/>
			<path class="st30" d="M403.71,64.28c-0.53,0.56-1.14,1.07-1.8,1.52c-4.64,3.18-10.76,2.56-14.67-1.15"/>
			<path class="st30" d="M394.54,44.46c3.97-0.26,7.98,1.53,10.4,5.07c1.92,2.79,2.45,6.13,1.76,9.21"/>
		</g>
		<circle class="st30" cx="395.29" cy="56.14" r="7.18"/>
	</g>
	<g>
		<ellipse class="st31" cx="247.09" cy="454.24" rx="17.81" ry="5.76"/>
		<path class="st32" d="M214.4,391.59c0,0,4.24-1.73,3.92-6.6c-0.32-4.87-2.83-8.32,2.36-6.91s6.92,2.04,10.69,1.25
			c3.77-0.79,6.9-2.36,5.25,2.51c-1.65,4.87-3.43,8.95,0.45,9.74c3.88,0.79,8.03-2.15,8.54,5.48c0.5,7.63-5.65,16.19-15.6,16.51
			c-9.95,0.32-14.35-3.8-14.35-3.8s-2.67-3.77,1.49-4.69c4.17-0.92,8.41-2.7,6.28-4.64c-2.13-1.94-9.03-2.1-9.03-2.1
			S205.76,396.62,214.4,391.59z"/>
		<path class="st2" d="M259.88,392.86c-0.7-4.86-0.16-8.36,8.87-9.68c9.03-1.31,14.3,4.11,14.84,9.68c0.55,5.58-7.3,7.6-7.3,7.6
			s-5.58,1.59-2.75,6.46c2.83,4.87,4.11,9.58-2.31,10.29c-6.41,0.7-13.44-0.98-17.35-3.6c-3.91-2.61-7.92-9.21-3.44-12.66
			c0,0,1.25-0.86,5.58-1.11C260.34,399.61,259.88,392.86,259.88,392.86z"/>
		<path class="st33" d="M228.1,392.07c0,0,7.5,16.96,8.53,28.51"/>
		<path class="st34" d="M269.79,394.85c0,0-13.28,19.72-16.41,26.31"/>
		<path class="st35" d="M231.99,419.24h30.47c0,0,3.34,0.23,3.06,4.79c-0.26,4.19-5.58,3.29-8.32,3.29s-25.86,0-25.86,0
			s-3.74,0.64-3.74-3.61C227.59,419.47,229,419.24,231.99,419.24z"/>
		<polygon class="st35" points="231.33,427.32 235.95,454.24 256.4,454.24 259.88,434.04 231.37,427.32 		"/>
		<polygon class="st36" points="231.37,427.32 259.88,434.04 261.02,427.32 		"/>
		<g>
			<path class="st37" d="M244.48,420.26c0,0,1.54-29.87,10.45-48.62"/>
			<path class="st5" d="M262.25,360.86c0,0,0.74,9.17-8.22,12.76C254.04,373.61,252.09,365.79,262.25,360.86z"/>
			<path class="st5" d="M248.82,390.05c0,0,3.29-7.82,13.44-6.78C262.27,383.27,261.47,391.07,248.82,390.05z"/>
			<path class="st5" d="M245.48,409.73c0,0,1.7-8.32,11.86-9.27C257.34,400.46,258.09,408.26,245.48,409.73z"/>
			<path class="st5" d="M245.14,409.78c0,0,1.18-8.41-8.07-12.71C237.06,397.07,233.76,404.18,245.14,409.78z"/>
			<path class="st5" d="M248.93,389.99c0,0,2.24-8.19-6.39-13.63C242.54,376.36,238.35,382.98,248.93,389.99z"/>
		</g>
	</g>
</g>
</svg>
