<?xml version="1.0" encoding="utf-8"?>
<!-- Generator: Adobe Illustrator 23.0.1, SVG Export Plug-In . SVG Version: 6.00 Build 0)  -->
<svg version="1.1" id="Layer_1" xmlns="http://www.w3.org/2000/svg" xmlns:xlink="http://www.w3.org/1999/xlink" x="0px" y="0px"
	 viewBox="0 0 460 460" style="enable-background:new 0 0 460 460;" xml:space="preserve">
<style type="text/css">
	.st0{fill:#3A77FD;}
	.st1{fill:#1F4BAF;}
	.st2{fill:#FED125;}
	.st3{fill:#B5950B;}
	.st4{fill:#00A95B;}
	.st5{fill:#007541;}
	.st6{fill:none;stroke:#003EB0;stroke-miterlimit:10;stroke-dasharray:6;}
	.st7{fill:none;}
	.st8{fill:#EE384E;}
	.st9{fill:#003EB0;}
	.st10{fill:#023EA1;}
	.st11{fill:none;stroke:#FFFFFF;stroke-linecap:round;stroke-linejoin:round;stroke-miterlimit:10;}
	.st12{fill:none;stroke:#FCBE42;stroke-miterlimit:10;}
	.st13{fill:#E9E8EE;}
	.st14{fill:none;stroke:#B70B28;stroke-width:0.25;stroke-miterlimit:10;}
	.st15{fill:#00A457;}
	.st16{fill:none;stroke:#1B45C9;stroke-miterlimit:10;}
	.st17{fill:#78D0A8;}
	.st18{fill:#FFFFFF;}
	.st19{opacity:0.7;fill:#00743E;enable-background:new    ;}
	.st20{fill:#DD4435;}
	.st21{fill:#EF9D95;}
	.st22{fill:#BB3527;}
	.st23{fill:#F9DAD6;}
	.st24{opacity:0.5;fill:#B80C00;enable-background:new    ;}
	.st25{fill:#00A75B;}
	.st26{fill:#00723D;}
	.st27{fill:#00A357;}
	.st28{fill:#F6B500;}
	.st29{fill:#00733D;}
	.st30{fill:#377FFC;}
	.st31{fill:#9FC2FF;}
	.st32{fill:#1E53B0;}
	.st33{fill:#FDC09B;}
	.st34{fill:#180857;}
	.st35{fill:#FFB07E;}
	.st36{fill:#160758;}
	.st37{fill:#0064E1;}
	.st38{fill:#0064B7;}
	.st39{fill:#F79F03;}
	.st40{fill:#FFBE9B;}
	.st41{fill:#FCBE42;}
	.st42{fill:#DDDDDD;}
</style>
<g>
	<g>
		<path class="st0" d="M215.16,38.86l7.73-13.39h30.93l-7.73,13.39H215.16z"/>
		<path class="st1" d="M215.16,38.86l7.73-13.39h7.24L215.16,38.86z"/>
		<path class="st2" d="M238.36,25.47h15.47L238.36-1.31h-15.47L238.36,25.47z"/>
		<path class="st3" d="M238.36,25.47h15.47l-19.03-6.16L238.36,25.47z"/>
		<path class="st4" d="M207.42,25.47l7.73,13.39l15.47-26.78l-7.73-13.39L207.42,25.47z"/>
		<path class="st5" d="M226.91,18.5l3.71-6.42l-7.73-13.39L226.91,18.5z"/>
	</g>
	<circle class="st6" cx="352.69" cy="259.13" r="107.31"/>
	<circle class="st7" cx="230.62" cy="234.13" r="210.44"/>
	<circle class="st6" cx="123.81" cy="215.53" r="107.31"/>
	
		<rect x="18.33" y="388.1" transform="matrix(0.7071 -0.7071 0.7071 0.7071 -270.9396 131.1685)" class="st8" width="9.08" height="9.08"/>
	
		<rect x="303.51" y="117.45" transform="matrix(0.7071 -0.7071 0.7071 0.7071 3.9687 253.5519)" class="st9" width="9.08" height="9.08"/>
	
		<rect x="432.49" y="388.1" transform="matrix(0.7071 -0.7071 0.7071 0.7071 -149.6367 424.0283)" class="st9" width="9.08" height="9.08"/>
	<g>
		<path class="st8" d="M416.31,279.22c0,0,6.72-18.28,22.02-13.9s21.75,27.37,11.34,36.73s-20.56,5.76-19.44,16.42
			c1.11,10.66-0.28,40.8-15.35,40.8c-15.07,0.01-20.22-15.77-35.71-2.52s-9.21,47.38-38.33,38.89
			c-29.11-8.49-74.21-35.7-38.25-70.98s40.49,11.37,60.3-21.98c19.82-33.37,26.31-14.03,38.85-12.29
			C414.28,292.12,416.31,279.22,416.31,279.22z"/>
		<path class="st8" d="M408.44,311.32c0,0-47.45,20.39-82.53,51.78s-38,43.38-38,43.38"/>
	</g>
	<g>
		<path class="st10" d="M93.23,135.62c0,0,37.97-12.77,38.39,9.53c0.42,22.28,9.5,24.35,18.99,26.01
			c9.5,1.65,27.65-2.48,26.83,21.06c-0.82,23.54-10.32,35.27-2.89,45.29c7.43,10.02,24,60.37,2.92,61.61
			c-21.08,1.24-38.41-23.53-42.96-35.91c-4.55-12.38-21.06-18.16-34.67-19.4s-28.48-13.13-18.16-28.23
			c10.32-15.11,7.14-34.92-3.44-42.36C67.64,165.79,67.64,144.66,93.23,135.62z"/>
		<line class="st11" x1="104.37" y1="160.84" x2="178.67" y2="317.69"/>
		<polyline class="st11" points="154.32,188.9 134.56,224.57 95.29,220.17 		"/>
	</g>
	<g>
		<path class="st12" d="M155.07,339.01c0,0-42.42-69.82-88.12-103.35"/>
		<path class="st12" d="M35.35,219.22c0,0,10.12,23,36.29,20.01C71.64,239.23,66.14,217.9,35.35,219.22z"/>
		<path class="st12" d="M105.45,272c0,0-18.06-14.54-41.1,1.12C64.35,273.12,76.36,290.84,105.45,272z"/>
		<path class="st12" d="M138.98,314.99c0,0-14.88-17.79-40.52-6.93C98.45,308.05,106.76,327.78,138.98,314.99z"/>
		<path class="st12" d="M139.9,314.66c0,0-13.73-18.69,2.93-41.01C142.83,273.65,160,286.43,139.9,314.66z"/>
		<path class="st12" d="M105.12,272c0,0-16-16.79-2.32-41.06C102.81,230.95,121.46,241.43,105.12,272z"/>
	</g>
	<g>
		<path class="st10" d="M370.07,165.07c0,0-4.71,14.12,1.81,26.06s10.3,19.9-1.73,23.15c-12.02,3.26-23.97,5.79-23.97,19.18
			c0,13.39,14.47,45.23-7.24,53.91c-21.71,8.68-55.72,15.56-63.69-11.94c-7.97-27.5-16.88-30.03-11.34-50.3
			c5.55-20.27,26.54-9.04,30.88-26.77s-5.79-27.86,14.47-29.31c20.27-1.45,21.71,5.43,20.99-16.65
			c-0.72-22.08,24.6-16.28,34.38-8.68C374.41,151.33,370.07,165.07,370.07,165.07z"/>
		<path class="st11" d="M341.48,183.53c0,0-47.04,61.88-63.69,108.92"/>
	</g>
	<g>
		<path class="st12" d="M410.44,245.14c0,0-17.44-1-11.17,11.33c6.27,12.33,6.05,20.48-7.12,24.79
			c-13.18,4.31-18.39,12.58-16.53,20.53c1.86,7.97,7.58,21.97-10.66,26.89c-18.24,4.92-53,16.97-60.73-2.37
			c-7.73-19.34,5.82-48.4,19.57-52.15c13.75-3.76,25.03,1.79,30.26-13.16c5.23-14.95-9.69-17.91,1.18-30.64
			c10.86-12.73,20.77-26.61,41.21-15.49C414.79,224.88,420.13,243.25,410.44,245.14z"/>
		<g>
			<path class="st12" d="M390.46,241.08c0,0-68.84,79.5-81.59,103.77"/>
			<polyline class="st12" points="363.1,306.22 335.73,307.1 327.82,285.39 			"/>
			<polyline class="st12" points="391.2,265.82 371.35,263.53 362.52,246.2 			"/>
		</g>
	</g>
	<g>
		<path class="st8" d="M38.44,279.22c0,0-6.72-18.28-22.02-13.9s-21.75,27.37-11.34,36.73s20.56,5.76,19.44,16.42
			c-1.11,10.66,0.28,40.8,15.35,40.8c15.07,0.01,20.22-15.77,35.71-2.52s9.21,47.38,38.33,38.89c29.11-8.49,74.21-35.7,38.25-70.98
			s-40.49,11.37-60.3-21.98s-26.31-14.03-38.85-12.29C40.47,292.12,38.44,279.22,38.44,279.22z"/>
		<path class="st11" d="M46.32,311.32c0,0,47.45,20.39,82.53,51.78s38,43.38,38,43.38"/>
	</g>
	<ellipse class="st13" cx="227.11" cy="441.79" rx="168.13" ry="19.53"/>
	<path class="st14" d="M222.5,81.47"/>
	<g>
		<g id="drive-file_2_">
			<path class="st15" d="M334.55,29.66c-2.01,0-3.64,1.66-3.64,3.7v29.55c0,2.03,1.63,3.7,3.64,3.7h21.86c2.01,0,3.64-1.66,3.64-3.7
				V38.74l-8.93-9.09h-16.57V29.66z"/>
		</g>
		<path class="st16" d="M359.88,38.96"/>
		<polygon class="st17" points="351.1,29.66 351.22,38.96 360.03,38.74 		"/>
		<polygon class="st18" points="330.89,58.63 339.89,49.61 345.23,55.61 360.03,40.95 360.03,43.62 345.23,58.27 339.89,52.28 
			330.89,61.3 		"/>
		<polygon class="st19" points="360.03,48.03 360.03,38.75 351.1,38.96 		"/>
	</g>
	<g>
		<g id="drive-file_4_">
			<path class="st20" d="M404.26,102.15c-2.01,0-3.64,1.66-3.64,3.7v29.55c0,2.03,1.63,3.7,3.64,3.7h21.86
				c2.01,0,3.64-1.66,3.64-3.7v-24.17l-8.93-9.09h-16.57V102.15z"/>
		</g>
		<polygon class="st21" points="420.83,102.15 420.95,111.43 429.76,111.23 		"/>
		<polygon class="st22" points="429.76,120.52 429.76,111.23 420.95,111.43 		"/>
		<circle class="st23" cx="411.88" cy="118.47" r="7.17"/>
		<rect x="411.64" y="118.47" class="st24" width="13.69" height="13.69"/>
	</g>
	<g>
		<g id="drive-file_5_">
			<path class="st25" d="M123.65,27.58c-2.01,0-3.64,1.66-3.64,3.7v29.55c0,2.03,1.63,3.7,3.64,3.7h21.86c2.01,0,3.64-1.66,3.64-3.7
				V36.67l-8.93-9.09C140.22,27.58,123.65,27.58,123.65,27.58z"/>
		</g>
		<polygon class="st17" points="140.22,27.58 140.33,36.88 149.15,36.67 		"/>
		<polygon class="st26" points="149.15,45.96 149.14,36.67 140.33,36.88 		"/>
		<g>
			<rect x="130.16" y="41.23" class="st18" width="13.95" height="2.23"/>
			<circle class="st18" cx="125.84" cy="42.34" r="2.04"/>
		</g>
		<g>
			<rect x="130.16" y="47.01" class="st18" width="13.95" height="2.23"/>
			<circle class="st18" cx="125.84" cy="48.13" r="2.04"/>
		</g>
		<g>
			<rect x="130.16" y="52.8" class="st18" width="13.95" height="2.23"/>
			<circle class="st18" cx="125.84" cy="53.91" r="2.04"/>
		</g>
	</g>
	<g>
		<g id="drive-file_6_">
			<path class="st20" d="M42.56,98.96c-2.01,0-3.64,1.66-3.64,3.7v29.55c0,2.03,1.63,3.7,3.64,3.7h21.86c2.01,0,3.64-1.66,3.64-3.7
				v-24.17l-8.93-9.09H42.56V98.96z"/>
		</g>
		<polygon class="st21" points="59.13,98.96 59.24,108.26 68.06,108.04 		"/>
		<polygon class="st22" points="68.06,117.34 68.06,108.04 59.23,108.26 		"/>
		<polygon class="st18" points="48.32,118.34 52.01,122.88 57.16,116.07 63.8,125.14 43.17,125.16 		"/>
	</g>
	<g>
		<g>
			<g id="drive-file_8_">
				<path class="st27" d="M423.45,170.38c-2.01,0-3.64,1.66-3.64,3.7v29.55c0,2.03,1.63,3.7,3.64,3.7h21.86
					c2.01,0,3.64-1.66,3.64-3.7v-24.16l-8.93-9.09L423.45,170.38L423.45,170.38z"/>
			</g>
			<path class="st28" d="M448.79,179.68"/>
			<polygon class="st17" points="440.02,170.38 440.13,179.68 448.95,179.47 			"/>
			<polygon class="st29" points="448.95,188.77 448.95,179.47 440.13,179.68 			"/>
		</g>
		<g>
			<rect x="423.76" y="183.44" class="st18" width="19.92" height="1.33"/>
			<rect x="423.7" y="183.44" class="st18" width="1.4" height="15.3"/>
			<rect x="429.67" y="183.44" class="st18" width="1.4" height="15.3"/>
			<rect x="442.25" y="183.45" class="st18" width="1.4" height="15.3"/>
			<rect x="423.76" y="188.11" class="st18" width="19.92" height="1.33"/>
			<rect x="423.76" y="192.77" class="st18" width="19.88" height="1.33"/>
			<rect x="423.76" y="197.43" class="st18" width="19.9" height="1.33"/>
		</g>
	</g>
	<g>
		<g>
			<g id="drive-file_9_">
				<path class="st30" d="M11.94,170.47c-2.01,0-3.64,1.66-3.64,3.7v29.55c0,2.03,1.63,3.7,3.64,3.7h21.86
					c2.01,0,3.64-1.66,3.64-3.7v-24.16l-8.93-9.09H11.94z"/>
			</g>
			<path class="st28" d="M37.27,179.77"/>
			<polygon class="st31" points="28.51,170.47 28.61,179.77 37.44,179.56 			"/>
			<polygon class="st32" points="37.44,188.85 37.44,179.56 28.61,179.77 			"/>
		</g>
		<g>
			<rect x="11.79" y="183.61" class="st18" width="19.79" height="2.04"/>
			<rect x="11.79" y="188.32" class="st18" width="19.79" height="1.98"/>
			<rect x="11.79" y="192.98" class="st18" width="19.76" height="1.98"/>
			<rect x="11.79" y="197.65" class="st18" width="11.84" height="1.98"/>
		</g>
	</g>
	<path class="st33" d="M283.89,298.38l33.42,50.84c0,0,6.59,10.24,15.87,7.41c10.45-3.19,75.6-28.57,82.57-31.69
		c6.97-3.13,21.16-9.86,23.44-19.71c2.28-9.86-4.93-13.58-4.93-13.58s-2.28-1.68-4.32,1.57s-6.61,12.26-6.61,12.26
		s-3.36,3.61-2.53-1.21c0.85-4.81,1.68-9.74-2.17-5.41c-3.85,4.32-5.04,11.9-17.91,16.1s-60.22,16.46-60.22,16.46
		s-4.81,2.28-9.14-2.89c-4.32-5.17-24.41-43.99-24.41-43.99L283.89,298.38z"/>
	<path class="st33" d="M159.07,296.8l-33.23,50.31c0,0-6.55,10.13-15.79,7.34c-10.4-3.15-75.18-28.27-82.11-31.35
		s-21.04-9.75-23.31-19.5c-2.27-9.75,4.9-13.44,4.9-13.44s2.27-1.67,4.3,1.54c2.03,3.21,6.57,12.13,6.57,12.13s3.35,3.57,2.52-1.19
		c-0.83-4.75-1.67-9.64,2.16-5.36s5.02,11.77,17.81,15.93c12.79,4.16,59.89,16.29,59.89,16.29s4.78,2.26,9.09-2.85
		c4.3-5.11,24.27-43.53,24.27-43.53L159.07,296.8z"/>
	<path class="st34" d="M159.78,172.95c0,0,8.84-2.53,7.57-16.95c-1.26-14.42-9.91-26.32,3.06-33.72s17.22-10.1,23.21-16.23
		s9.6-11,30.34-9.02c0,0,16.41-13.35,31.02-1.44s10.02,42.91,13.22,47.78c3.2,4.87,22.85,24.16,25.01,40.74
		c2.16,16.58-8.92,26.68-25.01,25.96s-37.73,0-37.73,0h-59.32c0,0-19.76,1.18-21.46-18.39C148.6,179.26,159.78,172.95,159.78,172.95
		z"/>
	<path class="st35" d="M208.77,190.39c0,0,0.32,16.17-3.19,21.5c-3.51,5.32-10.01,7.3-10.01,7.3s7.03,22.35,18.57,21.82
		c11.54-0.54,24.34-7.57,28.94-10.19c4.6-2.61,3.42-10.27,3.42-10.27s-8.02-2.17-11.36-11.99c-3.34-9.83-3.25-24.43-3.25-24.43
		L208.77,190.39z"/>
	<path class="st36" d="M298.96,415.37c0,0,16.04,0.79,27.66,0.79c11.63,0,30.08,2.38,30.08,2.38s4.81,0,5.22,5.96
		c0.41,5.96,0.41,8.34,0.41,8.34s0.41,7.14-5.22,7.14s-41.3,3.97-49.32,3.97s-14.03,1.59-14.03-3.97
		C293.75,434.42,293.35,414.97,298.96,415.37z"/>
	<line class="st14" x1="223.49" y1="389.73" x2="164.81" y2="370.74"/>
	<path class="st9" d="M110.52,353.84c0,0,149.96,46.45,182.84,57.96c0,0,10.83,2.78,11.22,8.34c0.41,5.55-0.8,13.5-2.01,17.47
		c-1.21,3.97-4.81,7.14-10.83,5.96c-6.02-1.18-140.34-27.79-193.66-41.68l-15.24-4.77c0,0-11.22-5.16-9.22-18.66
		c2.01-13.5,12.02-25.4,19.25-26.2C100.08,351.45,110.52,353.84,110.52,353.84z"/>
	<path class="st36" d="M96.88,419.73c0,0,18.84-3.18,30.08-3.57c11.22-0.39,26.06-1.59,28.46,0c2.4,1.59,4.41,23.03,4.41,23.03
		s2.01,5.96-12.84,4.77c-14.84-1.19-48.92-2.38-48.92-2.38s-7.62-0.39-8.02-7.14s0.8-9.92,0.8-9.92S92.07,420.53,96.88,419.73z"/>
	<path class="st37" d="M186.29,400.68c0,0,91.02-27.39,123.49-36.92s50.52-18.26,60.94-3.18c10.42,15.08,9.62,31.76-2.4,36.52
		c-12.02,4.77-106.66,26.6-145.95,34.54c-39.29,7.94-64.95,13.1-68.56,11.51c-3.61-1.59-7.62-13.1-6.82-19.46
		c0.8-6.35,1.21-8.73,8.82-11.91C163.43,408.63,186.29,400.68,186.29,400.68z"/>
	<polygon class="st38" points="267.66,357.76 175.58,357.76 164.81,370.74 224.04,389.34 277.42,373.36 	"/>
	<path class="st14" d="M173.3,298.26"/>
	<path class="st14" d="M244.53,218.02"/>
	<path class="st39" d="M309.98,284.74l-21.28-42.73c0,0-12.78-28.65-44.98-25.51l6.57,15.22l33.17,69.42L309.98,284.74z"/>
	<path class="st39" d="M133.14,283.29l21.16-42.27c0,0,12.71-28.35,44.73-25.23l-6.54,15.06l-33,68.67L133.14,283.29z"/>
	<ellipse class="st40" cx="220.51" cy="158.35" rx="26.89" ry="45.25"/>
	<path class="st14" d="M220.29,115.26"/>
	<path class="st34" d="M220.51,110.56c0,0-4.94,14.24-14.95,28.49c-10.01,14.24-21.82,21.99-23.07,24.52
		c-1.26,2.53-10.27-4.68-6.85-16.05c3.42-11.36,22.18-42.73,41.83-43.27c19.65-0.54,23.98-11.72,33.17,11s7.57,48.82,7.57,48.82
		L220.51,110.56z"/>
	<path class="st40" d="M195.57,152.8c0,0-10.19-1.08-11.63,5.04c-1.44,6.13,3.25,11.72,11.63,12.99
		C203.96,172.1,195.57,152.8,195.57,152.8z"/>
	<path class="st41" d="M175.58,357.76h92.07c0,0,1.92-80.55-1.54-102.4c-2.32-14.62-7.04-29.13-16.37-36.79c0,0-2.81-2.71-6.03-2.06
		c-1.1,0.22-2.25,0.82-3.35,2.06c-4.32,4.87-11.36,13.52-23.44,12.08c-12.08-1.44-14.78-11.36-14.78-11.36s-3.06-7.21-8.84-1.62
		c-5.77,5.59-20.92,11.54-20.92,57.34L175.58,357.76z"/>
	<g>
		<polygon class="st18" points="223.49,291.61 207.5,282.6 207.5,264.73 223.49,256.15 		"/>
		<polygon class="st42" points="223.49,274.11 239.48,264.73 223.49,256.16 		"/>
	</g>
</g>
</svg>
