<?xml version="1.0" encoding="utf-8"?>
<!-- Generator: Adobe Illustrator 23.0.1, SVG Export Plug-In . SVG Version: 6.00 Build 0)  -->
<svg version="1.1" id="Layer_1" xmlns="http://www.w3.org/2000/svg" xmlns:xlink="http://www.w3.org/1999/xlink" x="0px" y="0px"
	 viewBox="0 0 460 460" style="enable-background:new 0 0 460 460;" xml:space="preserve">
<style type="text/css">
	.st0{fill:#EEF9FF;}
	.st1{fill:none;stroke:#023EA1;stroke-miterlimit:10;}
	.st2{fill:none;stroke:#DE051F;stroke-miterlimit:10;}
	.st3{fill:none;stroke:#FCBE42;stroke-miterlimit:10;}
	.st4{fill:#FCBE42;}
	.st5{fill:#B0E6FF;}
	.st6{fill:#0064B7;}
	.st7{clip-path:url(#SVGID_3_);}
	.st8{fill:#FFBF99;}
	.st9{fill:#FFB07E;}
	.st10{fill:#243641;}
	.st11{fill:#8EAACF;}
	.st12{fill:#915F41;}
	.st13{clip-path:url(#SVGID_6_);}
	.st14{fill:#772635;}
	.st15{fill:#3E4753;}
	.st16{fill:#9DCAD1;}
	.st17{fill:#FDCBA7;}
	.st18{fill:#EE2A7B;}
	.st19{clip-path:url(#SVGID_8_);}
	.st20{fill:#F7A600;}
	.st21{fill:#070707;}
	.st22{fill:#52331D;}
	.st23{fill:#6B4732;}
	.st24{fill:none;stroke:#2626DB;stroke-miterlimit:10;stroke-dasharray:6;}
	.st25{fill:#003EB0;}
	.st26{fill:none;stroke:#FFFFFF;stroke-width:2;stroke-miterlimit:10;}
	.st27{fill:#FFFFFF;}
	.st28{fill:#EE384E;}
	.st29{fill:none;stroke:#0064B7;stroke-miterlimit:10;}
	.st30{clip-path:url(#SVGID_11_);}
	.st31{fill:#1B3A62;}
	.st32{fill:#021E34;}
	.st33{clip-path:url(#SVGID_14_);}
	.st34{fill:#00AEEF;}
	.st35{fill:#BB8B6C;}
	.st36{clip-path:url(#SVGID_16_);}
	.st37{fill:#4B2C61;}
	.st38{fill:#F8E1CC;}
	.st39{fill:#CCB4AA;}
	.st40{fill:#355D75;}
	.st41{fill:#170856;}
	.st42{fill:#F05051;}
	.st43{fill:#FFBE97;}
	.st44{fill:#F79F03;}
	.st45{fill:#FEBD96;}
	.st46{fill:#0064E1;}
	.st47{fill:#130452;}
	.st48{fill:#0083F9;}
	.st49{fill:#BC0A28;}
	.st50{fill:#DE051F;}
	.st51{fill:#569ED4;}
</style>
<g>
	<path class="st0" d="M186.78,86.61c0,0,45.52,36.41,96.5,7.29c70.23-40.13,140.99-14.25,157.38,31.28
		c16.38,45.52,23.53,141.75,16.86,195.97c-8.24,66.91-96.83,120.07-166.55,124.7c-51.26,3.4-68.35-25.05-146.53-14.58
		c-28.1,3.76-79.18-25.56-86.47-71.08s39.14-63.72,35.5-110.15S43.39,220.9,48.86,147.16S161.75,57.03,186.78,86.61z"/>
	<g>
		<g>
			<path class="st1" d="M238.01,308.36c0,0,0.14-5.41,4.54-5.61c4.4-0.21,8.16,5.25,6.26,8.64s-4.89,3.35-3.64,6.05
				c1.25,2.7,3.57,10.74-0.39,12.09c-3.95,1.35-6.72-2.34-9.6,2.52c-2.88,4.87,1.81,13.27-6.59,13.64
				c-8.4,0.37-22.68-2.74-16.38-15.23c6.29-12.47,11.66-0.62,13.87-11.16c2.21-10.54,5.66-6.03,9.11-6.7
				C238.64,311.93,238.01,308.36,238.01,308.36z"/>
			<path class="st1" d="M238.82,317.5c0,0-10.64,9.59-17.05,20.97s-6.11,14.79-6.11,14.79"/>
		</g>
		<g>
			<path class="st2" d="M208.26,297.57c0,0,0.02,4.13,2.8,6.69c2.78,2.56,4.48,4.31,1.61,6.24c-2.87,1.93-5.78,3.67-4.58,7.18
				c1.2,3.52,7.84,10.58,2.92,14.8c-4.92,4.22-13.25,9.06-17.79,2.55c-4.54-6.51-7.11-6.38-7.47-12.2s6.16-4.75,5.72-9.79
				c-0.44-5.05-4.01-6.8,1.19-8.99c5.19-2.19,6.19-0.52,4.02-6.25c-2.16-5.73,5-6.48,8.25-5.35
				C208.17,293.57,208.26,297.57,208.26,297.57z"/>
			<path class="st2" d="M202.4,304.97c0,0-6.83,20.45-7,34.3"/>
		</g>
		<g>
			<path class="st3" d="M207.24,350.89c0,0,5.18-28.75,16.11-45.83"/>
			<path class="st4" d="M231.78,295.52c0,0-0.42,8.98-9.53,11.34C222.24,306.86,221.33,299.03,231.78,295.52z"/>
			<path class="st4" d="M215.18,322.15c0,0,4.16-7.17,13.86-4.91C229.03,317.24,227.3,324.69,215.18,322.15z"/>
			<path class="st4" d="M209.52,340.8c0,0,2.67-7.85,12.64-7.53C222.15,333.27,221.91,340.93,209.52,340.8z"/>
			<path class="st4" d="M209.17,340.81c0,0,2.18-8-6.26-13.3C202.92,327.51,198.83,333.98,209.17,340.81z"/>
			<path class="st4" d="M215.29,322.1c0,0,3.18-7.67-4.51-14C210.78,308.11,205.91,314.01,215.29,322.1z"/>
		</g>
	</g>
	<path class="st5" d="M274.07,336.33H140.23c-3.18,0-5.76,2.58-5.76,5.76v40.03c0,3.18,2.58,5.76,5.76,5.76h139.6v-45.79
		C279.83,338.91,277.25,336.33,274.07,336.33z"/>
	<g>
		<g>
			<g>
				<circle id="SVGID_1_" class="st6" cx="166.45" cy="363.04" r="14.94"/>
			</g>
		</g>
		<g>
			<g>
				<defs>
					<circle id="SVGID_2_" cx="166.45" cy="363.04" r="14.94"/>
				</defs>
				<clipPath id="SVGID_3_">
					<use xlink:href="#SVGID_2_"  style="overflow:visible;"/>
				</clipPath>
				<g class="st7">
					<path class="st8" d="M178.81,377.59c0,0,1.45,8.01,1.56,10.13c0.12,2.11,0.33,3.72-1.06,4.57c-1.4,0.83-3.68,1.61-3.68,1.61
						l-2.84-14.31v-1.67L178.81,377.59z"/>
					<path class="st8" d="M154.26,377.14c0,0-0.78,3.62-1,5.45c-0.22,1.83-0.73,5.4-0.78,6.24c-0.06,0.83-0.16,2.23,1.34,3.29
						s3.11,1.67,3.11,1.67l3.07-16.65L154.26,377.14L154.26,377.14z"/>
					<path class="st9" d="M165.26,365.63c0,0,0,1.67-0.71,2.39s-1.67,1.9-1.67,1.9s1.67,2.62,5,2.26c3.33-0.36,3.93-2.74,3.93-2.74
						s-3.16-0.42-3.52-3.39c-0.36-2.97-0.83-2.97-0.83-2.97L165.26,365.63z"/>
					<path class="st10" d="M163.25,368.71c0,0-2.28-0.28-3.5,0.06c-1.22,0.33-1.61,0.12-1.28,1.06s2.01,5.29,1.22,8.01
						c-0.78,2.73-1.83,16.69-1.83,16.69s8.46,0.33,11.75,0.5c3.29,0.16,5.73-0.45,5.73-0.45s0.73-6.01,0-8.62
						c-0.73-2.62-1.67-7.07-1.67-7.07s-0.61-6.12,0.22-7.62c0.83-1.5,1.45-1.56,0.39-1.95c-1.06-0.39-2.23-0.73-3.07-0.73
						c-0.84,0-1.28,0-1.78,0.5c-0.5,0.5-1.5,1.5-2.89,1.28c-1.4-0.22-2.44-1.16-2.44-1.16S163.64,368.77,163.25,368.71z"/>
					<path class="st11" d="M159.21,369.19c0,0-0.78-0.39-1.95,0.61c-1.26,1.07-2.17,3.39-2.62,4.84c-0.45,1.45-0.73,2.89-0.73,2.89
						s1.61,0.83,3.29,0.89c1.67,0.06,2.78,0.16,2.78,0.16s0.73-4.35,0.55-6.29C160.37,370.34,160.1,369.68,159.21,369.19z"/>
					<path class="st11" d="M173.25,370.8c0,0,0.67-1.83,2.17-1s2.62,4.01,2.95,5.02c0.33,1,0.78,3.01,0.78,3.01
						s-1.78,0.78-3.29,0.89c-1.51,0.1-2.56,0.22-2.56,0.22s-0.61-3.95-0.5-5.51C172.91,371.86,173.25,370.8,173.25,370.8z"/>
					<path class="st8" d="M170.78,361.96c0.2-2.49,0.16-6.29-4.12-6.29h-0.01h-0.01c-4.29,0-4.31,3.8-4.12,6.29
						c-0.3-0.59-1.16-0.4-1.1,0.52c0.07,0.9,1.29,1.36,1.28,1.26c0.35,2.05,2.36,3.23,3.93,3.23h0.01h0.01
						c1.57,0,3.59-1.19,3.93-3.23c-0.01,0.1,1.21-0.36,1.28-1.26C171.94,361.54,171.07,361.37,170.78,361.96z"/>
					<g>
						<path class="st12" d="M162.56,361.89c0-0.01,0-0.02,0-0.03c0,0.01,0,0.01-0.01,0.02
							C162.55,361.87,162.56,361.89,162.56,361.89z"/>
						<path class="st12" d="M171.69,358.17c-0.07-0.86-0.4-1.91-0.9-2.59c-0.22-0.29-1.14-1.38-0.45-1.68
							c-0.32-0.4-0.78,0.07-0.86,0.43c-0.02,0.12-0.18,0.42-0.17,0.51c-0.13-0.83-0.02-1.46-0.81-1.94
							c-1.27-0.76-2.55,1.03-3.79,1.08c-0.6,0.03-1.68,0.27-1.84-0.61c-0.01-0.03-0.25,0.31-0.27,0.36
							c-0.06,0.15-0.08,0.33-0.05,0.48c0.05,0.29,0.28,0.8,0.6,0.8c-0.42,0-0.67-0.02-0.89-0.44c-0.09,0.25,0.09,0.42,0.2,0.6
							c-0.22,0.02-0.63-0.39-0.7-0.61c-0.23,0.28-0.09,0.69,0.06,0.98c0.05,0.09,0.7,0.65,0.71,0.56c-0.09,0.83-0.45,1.64-0.63,2.46
							c-0.1,0.44,0.24,1.6,0.36,1.44c0.01,0.25,0.28,1.61,0.3,1.86c0.14-0.35,0.25-0.71,0.33-1.1c0.03-0.17,0.09-0.35,0.13-0.52
							c0.05-0.3,0.09-0.54,0.16-0.84c0.01-0.03,0.01-0.07,0.02-0.09c0.35-1.25,1.34-1.39,2.48-1.16c0.03,0.01,0.08,0.01,0.12,0.02
							c0.69,0.1,1.45-0.05,2.04-0.42c0.35-0.22,0.66-0.43,0.92-0.75c0.01-0.02,0.03-0.05,0.05-0.07c0.09-0.14,0.2-0.31,0.3-0.38
							c0.07,0.36-0.01,0.68,0.21,0.99c0.22,0.29,0.39,0.6,0.53,0.92c0.29,0.65,0.71,2.09,0.8,2.11c0.07,0.46,0.12,0.91,0.14,1.28
							l0.01,0.12c0-0.03,0.01-0.07,0.01-0.1c0.03-0.38,0.22-1.45,0.24-1.88C171.25,360.07,171.75,358.92,171.69,358.17z"/>
					</g>
				</g>
			</g>
		</g>
	</g>
	<path class="st5" d="M181.82,225.33h113.99c3.18,0,5.76,2.58,5.76,5.76v45.68c0,3.18-2.58,5.76-5.76,5.76H176.06v-51.44
		C176.06,227.91,178.64,225.33,181.82,225.33z"/>
	<g>
		<g>
			<g>
				<circle id="SVGID_5_" class="st6" cx="202.93" cy="254.97" r="16.58"/>
			</g>
		</g>
		<g>
			<g>
				<defs>
					<circle id="SVGID_4_" cx="202.93" cy="254.97" r="16.58"/>
				</defs>
				<clipPath id="SVGID_6_">
					<use xlink:href="#SVGID_4_"  style="overflow:visible;"/>
				</clipPath>
				<g class="st13">
					<path class="st14" d="M198.4,249.08c0.01,0.01,0.02,0.03,0.03,0.05c0.24-0.17,0.52-0.32,0.83-0.45l0,0
						c0.09-0.03,0.18-0.07,0.28-0.1h0.01c0.08-0.02,0.17-0.06,0.25-0.08c0.02-0.01,0.05-0.01,0.07-0.02
						c0.09-0.02,0.18-0.05,0.28-0.07c0.01,0,0.01,0,0.02,0c0.09-0.02,0.2-0.05,0.29-0.06c0.03-0.01,0.08-0.01,0.12-0.02
						c0.07-0.01,0.13-0.02,0.2-0.03c0.05-0.01,0.09-0.01,0.13-0.02c0.09-0.01,0.2-0.02,0.29-0.03c0.06,0,0.13-0.01,0.18-0.01
						c0.05,0,0.09-0.01,0.14-0.01c0.07,0,0.15-0.01,0.22-0.01c0.02,0,0.05,0,0.08,0c0.08,0,0.16,0,0.25,0
						c0.22,0,0.42,0.01,0.62,0.02c0,0,0,0,0.01,0c4.08,0.24,4.89,2.92,4.93,5.6c0.43,0.09,0.93,0.31,0.98,0.89
						c0.12,1.48-0.22,1.11-1.11,2.89c-0.15,0.31-0.37,0.39-0.59,0.37c-0.48,1.03-1.3,1.74-3,2.91l0.3,3.79
						c1.15-0.38,1.46-0.24,1.8-0.09c2.23,1,4.96,1,3.75,1.23c-1.63,0.31,0.18,0.91,1.53-0.2c2.49-2.1,0.36-5.34,0.36-5.34
						c-0.17,2.39-3.12,2.51-2.91,0.24c0.22-2.27,4.65-6.76,2.91-12.47c-1.74-5.71-11.02-6.35-13.28-3.37
						C196.04,247.8,198.4,249.08,198.4,249.08z"/>
					<path class="st8" d="M216.79,274.72c0,0,1.74,9.65,1.88,12.19c0.14,2.55,0.4,4.48-1.27,5.49c-1.67,1-4.42,1.94-4.42,1.94
						l-3.41-17.21v-2.01L216.79,274.72z"/>
					<path class="st8" d="M187.25,274.18c0,0-0.93,4.36-1.21,6.56c-0.27,2.21-0.88,6.5-0.93,7.51c-0.06,1-0.2,2.67,1.6,3.95
						c1.81,1.27,3.75,2.01,3.75,2.01l3.69-20.03H187.25z"/>
					<path class="st9" d="M200.48,260.31c0,0,0,2.01-0.86,2.87c-0.86,0.86-2.01,2.29-2.01,2.29s2.01,3.16,6.02,2.72
						c4.01-0.43,4.73-3.3,4.73-3.3s-3.8-0.51-4.23-4.08c-0.43-3.59-1-3.59-1-3.59L200.48,260.31z"/>
					<path class="st15" d="M198.07,264.03c0,0-2.74-0.33-4.22,0.07c-1.48,0.4-1.94,0.14-1.54,1.27c0.39,1.13,2.41,6.36,1.48,9.65
						s-2.21,20.09-2.21,20.09s10.18,0.4,14.13,0.6s6.89-0.53,6.89-0.53s0.88-7.24,0-10.39s-2.01-8.51-2.01-8.51
						s-0.74-7.37,0.27-9.18c1-1.81,1.74-1.88,0.47-2.34s-2.67-0.88-3.69-0.88c-1.01,0-1.54,0-2.14,0.6c-0.6,0.6-1.81,1.81-3.48,1.54
						c-1.67-0.27-2.95-1.41-2.95-1.41S198.54,264.1,198.07,264.03z"/>
					<path class="st16" d="M193.21,264.6c0,0-0.93-0.47-2.34,0.74c-1.51,1.29-2.62,4.08-3.15,5.83c-0.53,1.75-0.88,3.48-0.88,3.48
						s1.94,1,3.95,1.07c2.01,0.07,3.35,0.2,3.35,0.2s0.88-5.22,0.67-7.57C194.62,265.99,194.29,265.2,193.21,264.6z"/>
					<path class="st16" d="M210.09,266.55c0,0,0.81-2.21,2.62-1.21c1.81,1,3.15,4.82,3.55,6.03s0.93,3.62,0.93,3.62
						s-2.14,0.93-3.95,1.07s-3.08,0.27-3.08,0.27s-0.74-4.76-0.6-6.63C209.69,267.81,210.09,266.55,210.09,266.55z"/>
					<path class="st9" d="M197.19,254.03l0.25,0.01l0.47,3.55c0,0-0.92,0.9-1.34,0.05c-0.88-1.78-1.21-1.42-1.08-2.89
						c0.08-0.98,1.53-0.95,1.53-0.95L197.19,254.03z"/>
					<path class="st9" d="M206.93,254l-0.25,0.02l-0.5,3.55c0,0,0.91,0.89,1.34,0.03c0.88-1.79,1.21-1.42,1.11-2.89
						c-0.08-0.98-1.53-0.95-1.53-0.95L206.93,254z"/>
					<path class="st17" d="M202.09,248.19c-5.56,0-5.72,4.04-5.51,7.31c0.21,3.26,2.77,6.25,5.51,6.25c2.48,0,5.3-2.99,5.51-6.25
						C207.81,252.23,207.65,248.19,202.09,248.19z"/>
					<path class="st18" d="M198.16,248.4c0,0-0.74-2.25,3.37-2.5c4.1-0.24,5.79,1.68,5.29,2.92L198.16,248.4z"/>
					<path class="st14" d="M204.72,251.41c0,0-3.91,4.09-8.43,4.68c0,0-1.88-6.84,2.71-8.95c4.6-2.11,7.42,1.05,7.42,1.05
						s3.82,0.89,1.75,7.39C208.18,255.58,204.72,253.3,204.72,251.41z"/>
				</g>
			</g>
		</g>
	</g>
	<path class="st5" d="M307.61,212.11H142.73c-6.36,0-11.53-5.16-11.53-11.53v-44.2c0-6.36,5.16-11.53,11.53-11.53h176.43v55.73
		C319.14,206.95,313.99,212.11,307.61,212.11z"/>
	<g>
		<g>
			<g>
				<circle id="SVGID_9_" class="st6" cx="166.73" cy="178.49" r="22.78"/>
			</g>
		</g>
		<g>
			<g>
				<defs>
					<circle id="SVGID_7_" cx="166.73" cy="178.49" r="22.78"/>
				</defs>
				<clipPath id="SVGID_8_">
					<use xlink:href="#SVGID_7_"  style="overflow:visible;"/>
				</clipPath>
				<g class="st19">
					<path class="st8" d="M188.52,204.73c0,0,2.55,14.13,2.74,17.87c0.2,3.74,0.59,6.58-1.87,8.05c-2.46,1.46-6.48,2.85-6.48,2.85
						l-5-25.24v-2.95L188.52,204.73z"/>
					<path class="st8" d="M145.22,203.94c0,0-1.37,6.39-1.76,9.63c-0.39,3.24-1.28,9.52-1.37,11c-0.1,1.48-0.3,3.93,2.35,5.8
						c2.65,1.87,5.5,2.95,5.5,2.95l5.4-29.36h-10.11V203.94z"/>
					<path class="st9" d="M164.61,183.62c0,0,0,2.94-1.26,4.21c-1.26,1.26-2.94,3.37-2.94,3.37s2.94,4.62,8.83,3.99
						c5.88-0.63,6.94-4.83,6.94-4.83s-5.57-0.74-6.2-6s-1.48-5.26-1.48-5.26L164.61,183.62z"/>
					<path class="st20" d="M161.08,189.07c0,0-4.02-0.5-6.19,0.1c-2.17,0.6-2.85,0.2-2.26,1.87s3.54,9.33,2.16,14.13
						c-1.37,4.81-3.24,29.46-3.24,29.46s14.93,0.59,20.72,0.89c5.8,0.3,10.11-0.78,10.11-0.78s1.28-10.61,0-15.22
						s-2.95-12.47-2.95-12.47s-1.08-10.8,0.39-13.45c1.48-2.65,2.55-2.74,0.69-3.44c-1.87-0.69-3.93-1.28-5.4-1.28
						s-2.26,0-3.15,0.89c-0.89,0.89-2.65,2.65-5.11,2.26c-2.46-0.39-4.32-2.06-4.32-2.06S161.77,189.16,161.08,189.07z"/>
					<path class="st21" d="M153.96,189.9c0,0-1.37-0.69-3.44,1.08c-2.21,1.9-3.83,6-4.61,8.54c-0.78,2.55-1.28,5.11-1.28,5.11
						s2.85,1.48,5.8,1.57c2.95,0.1,4.91,0.3,4.91,0.3s1.28-7.66,0.98-11.09C156.02,191.97,155.54,190.79,153.96,189.9z"/>
					<path class="st21" d="M178.71,192.75c0,0,1.18-3.24,3.83-1.76c2.65,1.48,4.61,7.07,5.2,8.84c0.59,1.78,1.37,5.3,1.37,5.3
						s-3.15,1.37-5.8,1.57c-2.65,0.2-4.52,0.39-4.52,0.39s-1.08-6.97-0.89-9.72C178.1,194.63,178.71,192.75,178.71,192.75z"/>
					<path class="st8" d="M175.95,177.99c0.22,0.61-0.85,2.36-1.28,2.96c0.18-0.96,0.38-2.28,0.52-3.83
						C175.19,177.13,175.74,177.4,175.95,177.99z"/>
					<path class="st8" d="M175.39,170.12c-0.25-5.59-7.74-5.66-7.74-5.66h-0.01c0,0-7.49,0.07-7.74,5.66c-0.12,2.49,0,4.95,0.2,7.01
						c0.14,1.56,0.33,2.88,0.52,3.83c0.12,0.62,0.23,1.07,0.32,1.34c0.16,0.44,0.48,0.97,0.88,1.52c0.82,1.13,1.98,2.33,2.8,2.81
						c0.66,0.4,2.25,0.7,3.02,0.66h0.01c0.75,0.05,2.26-0.24,2.95-0.62c0.02-0.01,0.05-0.02,0.07-0.03c0.82-0.5,1.98-1.68,2.8-2.81
						c0.4-0.55,0.71-1.08,0.88-1.52c0.09-0.25,0.21-0.71,0.32-1.34c0.18-0.96,0.38-2.28,0.52-3.83
						C175.39,175.06,175.49,172.6,175.39,170.12z"/>
					<path class="st8" d="M160.09,177.13c0.14,1.56,0.33,2.88,0.52,3.83c-0.43-0.6-1.5-2.34-1.28-2.96
						C159.55,177.4,160.09,177.13,160.09,177.13L160.09,177.13z"/>
					<g>
						<path class="st22" d="M176.65,170.12c-0.14-1.52-0.75-3.35-1.68-4.57c-0.4-0.52-2.13-2.43-0.83-2.96
							c-0.6-0.71-1.46,0.12-1.6,0.76c-0.05,0.2-0.35,0.74-0.31,0.9c-0.23-1.45-0.03-2.58-1.5-3.4c-2.35-1.34-4.74,1.8-7.06,1.9
							c-1.12,0.06-3.12,0.46-3.44-1.06c-0.01-0.06-0.46,0.54-0.5,0.62c-0.09,0.25-0.14,0.59-0.09,0.85
							c0.09,0.51,0.52,1.38,1.11,1.41c-0.77,0-1.25-0.03-1.66-0.76c-0.16,0.45,0.16,0.71,0.37,1.06c-0.4,0.05-1.18-0.68-1.3-1.07
							c-0.43,0.5-0.17,1.22,0.12,1.72c0.09,0.16,1.3,1.14,1.33,1c-0.16,1.46-0.84,2.88-1.18,4.31c-0.18,0.77-0.36,1.61-0.24,2.42
							c0.13,0.92,0.44,1.98,0.7,2.87c0.43,1.42,0.98,2.11,1.13,2.41c0.09-0.33,0.33-1,0.42-1.35c0.4-1.59-0.03-3.26,0.37-4.85
							c0.6-2.35,2.49-2.64,4.67-2.21c1.35,0.25,2.87-0.01,4.04-0.69c0.65-0.38,1.21-0.75,1.71-1.31c0.21-0.23,0.43-0.65,0.66-0.78
							c0.13,0.62-0.02,1.2,0.39,1.74c1.8,2.31,2.01,5.08,2.41,7.89c0.02,0.15,0.45,1.57,0.44,1.58c0.8-1.04,0.95-2.74,1.33-3.94
							C176.83,173.3,176.77,171.43,176.65,170.12z"/>
						<path class="st22" d="M175.19,182.52c-0.17-1.12-0.2-2.72-0.2-3.8l0,0c-0.1,0.82-0.92,1.84-1.46,2.21
							c-0.5,0.33-1.34,0.75-1.97,0.55l0,0c-0.24-0.17-0.47-0.37-0.73-0.52c-0.69-0.44-1.36-0.89-2.19-0.77
							c-0.36,0.05-1.04,0.33-1.08,0.74h-0.14c-0.05-0.4-0.73-0.68-1.08-0.74c-0.83-0.12-1.5,0.35-2.19,0.77
							c-0.25,0.16-0.48,0.35-0.73,0.52l0,0c-0.65,0.18-1.49-0.23-1.97-0.55c-0.54-0.37-1.36-1.38-1.46-2.21l0,0
							c0,1.1-0.02,2.69-0.2,3.8c-0.22-0.05-0.45-0.13-0.67-0.24c0,0.31,0.28,0.54,0.6,0.69c0.01,0,0.01,0.01,0.02,0.01
							c0.16,1.45,3.22,5.4,3.26,5.56c0.14,0.5,1.81,1.53,2.47,1.9c0.7,0.4,1.29,0.48,1.98,0.48h0.08c0.69,0,1.28-0.08,1.98-0.48
							c0.67-0.37,2.33-1.41,2.47-1.9c0.05-0.16,3.1-4.1,3.26-5.56c0.01,0,0.01-0.01,0.02-0.01c0.32-0.15,0.6-0.38,0.6-0.69
							C175.64,182.4,175.42,182.48,175.19,182.52z M172.21,183.36c-0.36-0.07-0.7-0.25-1.03-0.46c-0.59,0.3-1.46,0.62-2.05,0.32
							c-0.02-0.01-0.05-0.02-0.07-0.05c-0.5-0.33-0.93-0.05-1.45-0.02v0.06c0.56,0.22,0.59,0.23,0,0c-0.02-0.01-0.03-0.01-0.06-0.02
							h-0.14c-0.59,0.18-0.56,0.17,0,0v-0.03c-0.54,0-0.99-0.31-1.5,0.02c-0.02,0.01-0.05,0.02-0.07,0.05
							c-0.59,0.3-1.46-0.02-2.05-0.32c-0.33,0.21-0.67,0.39-1.03,0.46c-0.2,0.03-0.39,0.05-0.6,0.05c0.18,0,0.36-0.02,0.53-0.05
							c0.38-0.07,0.75-0.25,1.11-0.46c0.3-0.17,0.59-0.36,0.86-0.51c0.58-0.31,1.25-0.6,1.89-0.63c0.31-0.02,0.61,0.08,0.88-0.03
							h0.14c0.25,0.12,0.56,0.01,0.88,0.03c0.65,0.03,1.3,0.33,1.89,0.63c0.28,0.15,0.56,0.33,0.86,0.51
							c0.36,0.21,0.73,0.39,1.11,0.46c0.17,0.03,0.35,0.05,0.53,0.05C172.6,183.41,172.4,183.4,172.21,183.36z"/>
					</g>
					<g>
						<path class="st23" d="M175.19,182.49c-0.53,0.1-1.07,0.02-1.66-0.15c-0.59-0.17-1.16-0.35-1.68-0.68
							c-0.1-0.07-0.2-0.14-0.3-0.21l0,0c-0.24-0.17-0.47-0.37-0.73-0.52c-0.69-0.44-1.36-0.89-2.19-0.77
							c-0.36,0.05-1.04,0.33-1.08,0.74h-0.14c-0.05-0.4-0.73-0.68-1.08-0.74c-0.83-0.12-1.5,0.35-2.19,0.77
							c-0.25,0.16-0.48,0.35-0.73,0.52l0,0c-0.09,0.07-0.2,0.14-0.3,0.21c-0.52,0.33-1.1,0.52-1.68,0.68
							c-0.6,0.17-1.13,0.25-1.66,0.15c-0.22-0.05-0.45-0.13-0.67-0.24c0,0.31,0.28,0.54,0.6,0.69c0.28,0.14,0.6,0.21,0.78,0.25
							c0.69,0.14,1.49,0.27,2.2,0.14c0.38-0.07,0.75-0.25,1.11-0.46c0.3-0.17,0.59-0.36,0.86-0.51c0.58-0.31,1.25-0.6,1.89-0.63
							c0.31-0.02,0.61,0.08,0.88-0.03h0.14c0.25,0.12,0.56,0.01,0.88,0.03c0.65,0.03,1.3,0.33,1.89,0.63
							c0.28,0.15,0.56,0.33,0.86,0.51c0.36,0.21,0.73,0.39,1.11,0.46c0.71,0.13,1.5-0.01,2.2-0.14c0.2-0.03,0.51-0.12,0.78-0.25
							c0.32-0.15,0.6-0.38,0.6-0.69C175.64,182.36,175.41,182.44,175.19,182.49z"/>
					</g>
				</g>
			</g>
		</g>
	</g>
	<g>
		<g>
			<path class="st1" d="M295.45,84.57c0,0-13.58-4.57-13.73,3.41c-0.15,7.97-3.4,8.7-6.79,9.3c-3.4,0.59-9.89-0.89-9.59,7.53
				s3.69,12.61,1.04,16.2c-2.65,3.59-8.58,21.59-1.04,22.03s13.74-8.42,15.37-12.84c1.63-4.43,7.53-6.49,12.41-6.94
				c4.88-0.44,10.19-4.69,6.49-10.1c-3.69-5.41-2.56-12.49,1.23-15.15C304.59,95.36,304.59,87.81,295.45,84.57z"/>
			<line class="st1" x1="291.46" y1="93.59" x2="264.89" y2="149.69"/>
			<polyline class="st1" points="273.59,103.63 280.66,116.38 294.71,114.81 			"/>
		</g>
		<g>
			<path class="st2" d="M279.75,142.92c0,0,15.17-24.97,31.52-36.96"/>
			<path class="st2" d="M322.57,100.08c0,0-3.62,8.23-12.98,7.16C309.6,107.23,311.56,99.6,322.57,100.08z"/>
			<path class="st2" d="M297.5,118.95c0,0,6.47-5.2,14.7,0.4C312.2,119.36,307.9,125.69,297.5,118.95z"/>
			<path class="st2" d="M285.5,134.33c0,0,5.33-6.36,14.49-2.48C300.01,131.85,297.03,138.9,285.5,134.33z"/>
			<path class="st2" d="M285.18,134.21c0,0,4.91-6.69-1.05-14.66C284.13,119.54,278,124.12,285.18,134.21z"/>
			<path class="st2" d="M297.62,118.95c0,0,5.72-6.01,0.83-14.68C298.45,104.26,291.77,108.02,297.62,118.95z"/>
		</g>
	</g>
	<circle class="st24" cx="320.43" cy="256.98" r="107.55"/>
	<circle class="st24" cx="117.85" cy="213.28" r="107.55"/>
	
		<ellipse transform="matrix(0.0161 -0.9999 0.9999 0.0161 -235.3438 267.4055)" class="st25" cx="18.2" cy="253.29" rx="18.2" ry="18.2"/>
	<circle class="st4" cx="426.29" cy="281.75" r="18.2"/>
	<polyline class="st26" points="11.83,249.64 19.11,260.57 24.58,251.47 	"/>
	<polygon class="st27" points="421.74,274.47 433.57,282.66 421.74,289.04 	"/>
	
		<rect x="171.69" y="43.82" transform="matrix(0.7071 -0.7071 0.7071 0.7071 17.4166 138.7895)" class="st28" width="9.11" height="9.11"/>
	
		<rect x="13.12" y="376.22" transform="matrix(0.7071 -0.7071 0.7071 0.7071 -264.0689 124.022)" class="st28" width="9.11" height="9.11"/>
	
		<rect x="317.05" y="119.72" transform="matrix(0.7071 -0.7071 0.7071 0.7071 6.3217 263.8102)" class="st25" width="9.11" height="9.11"/>
	
		<rect x="392.96" y="379.28" transform="matrix(0.7071 -0.7071 0.7071 0.7071 -154.9838 393.5069)" class="st25" width="9.11" height="9.11"/>
	<g>
		<path class="st29" d="M301.92,167.95h-99.34c-1.27,0-2.31-1.04-2.31-2.31v-7.3c0-1.27,1.04-2.31,2.31-2.31h99.34
			c1.27,0,2.31,1.04,2.31,2.31v7.3C304.23,166.92,303.19,167.95,301.92,167.95z"/>
		<path class="st29" d="M301.92,184.44h-99.34c-1.27,0-2.31-1.04-2.31-2.31v-7.3c0-1.27,1.04-2.31,2.31-2.31h99.34
			c1.27,0,2.31,1.04,2.31,2.31v7.3C304.23,183.41,303.19,184.44,301.92,184.44z"/>
		<path class="st29" d="M301.92,200.92h-99.34c-1.27,0-2.31-1.04-2.31-2.31v-7.3c0-1.27,1.04-2.31,2.31-2.31h99.34
			c1.27,0,2.31,1.04,2.31,2.31v7.3C304.23,199.89,303.19,200.92,301.92,200.92z"/>
	</g>
	<path class="st6" d="M286.41,245.49H229c-1.27,0-2.31-1.04-2.31-2.31v-2.49c0-1.27,1.04-2.31,2.31-2.31h57.41
		c1.27,0,2.31,1.04,2.31,2.31v2.49C288.72,244.46,287.69,245.49,286.41,245.49z"/>
	<path class="st6" d="M286.41,257.1H229c-1.27,0-2.31-1.04-2.31-2.31v-2.49c0-1.27,1.04-2.31,2.31-2.31h57.41
		c1.27,0,2.31,1.04,2.31,2.31v2.49C288.72,256.07,287.69,257.1,286.41,257.1z"/>
	<path class="st6" d="M286.41,268.71H229c-1.27,0-2.31-1.04-2.31-2.31v-2.49c0-1.27,1.04-2.31,2.31-2.31h57.41
		c1.27,0,2.31,1.04,2.31,2.31v2.49C288.72,267.69,287.69,268.71,286.41,268.71z"/>
	<g>
		<path class="st5" d="M389.39,144.43h-42.61c-1.27,0-2.31,1.04-2.31,2.31v16.91c0,1.27,1.04,2.31,2.31,2.31h44.92v-19.22
			C391.7,145.46,390.66,144.43,389.39,144.43z"/>
		<g>
			<g>
				<circle id="SVGID_13_" class="st6" cx="354.79" cy="155.58" r="6.24"/>
			</g>
		</g>
		<g>
			<g>
				<defs>
					<circle id="SVGID_10_" cx="354.79" cy="155.58" r="6.24"/>
				</defs>
				<clipPath id="SVGID_11_">
					<use xlink:href="#SVGID_10_"  style="overflow:visible;"/>
				</clipPath>
				<g class="st30">
					<path class="st8" d="M360.76,162.76c0,0,0.7,3.87,0.75,4.89c0.06,1.03,0.16,1.8-0.51,2.2s-1.78,0.78-1.78,0.78l-1.37-6.91
						v-0.81L360.76,162.76z"/>
					<path class="st8" d="M348.9,162.54c0,0-0.38,1.75-0.48,2.64c-0.1,0.89-0.35,2.61-0.38,3.01c-0.03,0.4-0.08,1.07,0.65,1.59
						c0.73,0.52,1.51,0.81,1.51,0.81l1.48-8.04h-2.77V162.54z"/>
					<path class="st8" d="M354.21,156.99c0,0,0,0.81-0.35,1.15s-0.81,0.92-0.81,0.92s0.81,1.27,2.42,1.1
						c1.61-0.17,1.9-1.33,1.9-1.33s-1.52-0.2-1.69-1.64c-0.17-1.44-0.4-1.44-0.4-1.44L354.21,156.99z"/>
					<path class="st31" d="M353.25,158.47c0,0-1.11-0.14-1.69,0.02c-0.59,0.16-0.78,0.06-0.62,0.51c0.16,0.46,0.97,2.56,0.59,3.87
						c-0.38,1.31-0.89,8.07-0.89,8.07s4.08,0.16,5.67,0.24c1.59,0.08,2.77-0.22,2.77-0.22s0.35-2.91,0-4.16
						c-0.35-1.27-0.81-3.41-0.81-3.41s-0.3-2.96,0.1-3.68c0.4-0.71,0.7-0.75,0.18-0.95c-0.51-0.18-1.07-0.35-1.48-0.35
						c-0.4,0-0.62,0-0.86,0.24c-0.24,0.24-0.73,0.73-1.39,0.62c-0.67-0.1-1.19-0.56-1.19-0.56S353.43,158.5,353.25,158.47z"/>
					<path class="st32" d="M351.3,158.7c0,0-0.38-0.18-0.95,0.3c-0.61,0.52-1.05,1.64-1.27,2.34c-0.22,0.7-0.35,1.4-0.35,1.4
						s0.78,0.4,1.59,0.43c0.81,0.02,1.35,0.08,1.35,0.08s0.35-2.1,0.27-3.04C351.86,159.27,351.72,158.95,351.3,158.7z"/>
					<path class="st32" d="M358.08,159.48c0,0,0.32-0.89,1.05-0.48c0.73,0.4,1.27,1.94,1.43,2.42c0.16,0.48,0.38,1.45,0.38,1.45
						s-0.86,0.38-1.59,0.43c-0.73,0.06-1.23,0.1-1.23,0.1s-0.3-1.91-0.24-2.66C357.92,160,358.08,159.48,358.08,159.48z"/>
					<g>
						<path class="st27" d="M354.85,156.23h-0.97c0,0,0.08,0.78,0.97,0.78c0.89,0,0.97-0.78,0.97-0.78H354.85z"/>
					</g>
					<g>
						<path class="st8" d="M357.52,154.63c0.07,0.2-0.27,0.74-0.4,0.93c0.06-0.3,0.12-0.71,0.16-1.2
							C357.28,154.36,357.45,154.45,357.52,154.63z"/>
					</g>
					<path class="st8" d="M357.34,152.17c-0.08-1.75-2.43-1.78-2.43-1.78l0,0c0,0-2.35,0.02-2.43,1.78c-0.03,0.78,0,1.56,0.06,2.2
						c0.05,0.48,0.1,0.9,0.16,1.2c0.03,0.2,0.07,0.33,0.1,0.42c0.05,0.14,0.15,0.3,0.28,0.47c0.25,0.36,0.62,0.73,0.88,0.89
						c0.21,0.13,0.7,0.22,0.95,0.21l0,0c0.23,0.01,0.7-0.08,0.92-0.2c0.01,0,0.01-0.01,0.02-0.01c0.25-0.15,0.62-0.53,0.88-0.89
						c0.13-0.17,0.23-0.35,0.28-0.47c0.03-0.08,0.07-0.22,0.1-0.42c0.06-0.3,0.12-0.71,0.16-1.2
						C357.35,153.71,357.37,152.94,357.34,152.17z"/>
					<g>
						<path class="st8" d="M352.54,154.36c0.05,0.48,0.1,0.9,0.16,1.2c-0.14-0.18-0.47-0.74-0.4-0.93
							C352.37,154.45,352.54,154.36,352.54,154.36L352.54,154.36z"/>
					</g>
					<path class="st12" d="M356.27,157.07l0.01,0.01c-0.16,0.17-0.32,0.32-0.46,0.4c-0.2,0.12-0.61,0.37-0.83,0.36h-0.09
						c-0.22,0.01-0.63-0.24-0.83-0.36c-0.14-0.08-0.3-0.23-0.46-0.4l0.01-0.01c0.27-0.02,0.15-0.37,0.22-0.52
						c0.07-0.14,0.29-0.17,0.42-0.24c0.1-0.06,0.2-0.08,0.3-0.13c0.12-0.06,0.22-0.06,0.33-0.06h0.09c0.13,0,0.22,0,0.33,0.06
						c0.1,0.05,0.2,0.07,0.3,0.13c0.13,0.07,0.35,0.1,0.42,0.24C356.12,156.7,356,157.04,356.27,157.07z M355.83,156.91
						c0.15-0.25-0.02-0.27-0.23-0.33c-0.16-0.06-0.47-0.2-0.63-0.21h-0.03c-0.16,0-0.47,0.15-0.63,0.21
						c-0.2,0.07-0.38,0.09-0.23,0.33c0.08,0.14,0.29,0.38,0.47,0.36c0.21-0.02,0.3-0.29,0.39-0.42h0.03
						c0.09,0.13,0.18,0.39,0.39,0.42C355.54,157.29,355.74,157.04,355.83,156.91z"/>
					<g>
						<g>
							<path class="st23" d="M354.94,153.86c0.06,0,0.2,0,0.24,0.01c0.12,0,0.09-0.09,0.16-0.18c0.09-0.12,0.3-0.09,0.43-0.09
								c0.18-0.01,0.36-0.02,0.54-0.02c0.13,0,0.51-0.02,0.54-0.01c0.01,0,0.16,0.08,0.21,0.15c0.02,0.03,0.03,0.07,0.05,0.1
								c0.02,0.13-0.01,0.28-0.02,0.38c-0.02,0.16-0.05,0.32-0.16,0.42c-0.03,0.02-0.08,0.03-0.12,0.03
								c-0.06,0.01-0.28,0.01-0.33,0.02c-0.18,0.01-0.37,0.02-0.55,0.01c-0.21-0.01-0.45,0.01-0.53-0.31
								c-0.02-0.08-0.05-0.36-0.08-0.39c-0.07-0.07-0.27-0.08-0.35-0.08C354.93,153.87,354.93,153.89,354.94,153.86z M355.53,154.55
								c0.05,0.03,0.23,0.06,0.23,0.06c0.05,0,0.66,0.01,0.91-0.03c0.05-0.01,0.13-0.03,0.16-0.06c0.08-0.06,0.15-0.59,0.09-0.67
								c-0.03-0.05-0.13-0.12-0.16-0.15c-0.14-0.12-1.25-0.06-1.29,0c-0.06,0.07-0.06,0.13-0.06,0.21c0.07-0.05,0.1,0.02,0.12,0.1
								c0,0.05,0.02,0.23-0.06,0.15c-0.01-0.01-0.02-0.05-0.05-0.02c-0.03,0.03-0.02,0.14-0.02,0.17
								C355.45,154.48,355.52,154.54,355.53,154.55z"/>
						</g>
						<g>
							<path class="st23" d="M354.93,153.86c-0.06,0-0.2,0-0.24,0.01c-0.12,0-0.09-0.09-0.16-0.18c-0.09-0.12-0.3-0.09-0.43-0.09
								c-0.18-0.01-0.36-0.02-0.54-0.02c-0.13,0-0.51-0.02-0.54-0.01c-0.01,0-0.16,0.08-0.21,0.15c-0.02,0.03-0.03,0.07-0.05,0.1
								c-0.02,0.13,0.01,0.28,0.02,0.38c0.02,0.16,0.05,0.32,0.16,0.42c0.03,0.02,0.08,0.03,0.12,0.03
								c0.06,0.01,0.28,0.01,0.33,0.02c0.18,0.01,0.37,0.02,0.55,0.01c0.21-0.01,0.45,0.01,0.53-0.31c0.02-0.08,0.05-0.36,0.08-0.39
								c0.07-0.07,0.27-0.08,0.35-0.08C354.93,153.87,354.94,153.89,354.93,153.86z M354.34,154.55c-0.05,0.03-0.23,0.06-0.23,0.06
								c-0.05,0-0.66,0.01-0.91-0.03c-0.05-0.01-0.13-0.03-0.16-0.06c-0.08-0.06-0.15-0.59-0.09-0.67c0.03-0.05,0.13-0.12,0.16-0.15
								c0.14-0.12,1.25-0.06,1.29,0c0.06,0.07,0.06,0.13,0.06,0.21c-0.07-0.05-0.1,0.02-0.12,0.1c0,0.05-0.02,0.23,0.06,0.15
								c0.01-0.01,0.02-0.05,0.05-0.02c0.03,0.03,0.02,0.14,0.02,0.17C354.41,154.48,354.35,154.54,354.34,154.55z"/>
						</g>
					</g>
				</g>
			</g>
		</g>
		<path class="st6" d="M386.5,152.01h-22.18c-0.32,0-0.58-0.25-0.58-0.58v-1.52c0-0.32,0.25-0.58,0.58-0.58h22.18
			c0.32,0,0.58,0.25,0.58,0.58v1.52C387.07,151.75,386.81,152.01,386.5,152.01z"/>
		<path class="st6" d="M386.5,156.38h-22.18c-0.32,0-0.58-0.25-0.58-0.58v-1.52c0-0.32,0.25-0.58,0.58-0.58h22.18
			c0.32,0,0.58,0.25,0.58,0.58v1.52C387.07,156.12,386.81,156.38,386.5,156.38z"/>
		<path class="st6" d="M386.5,160.74h-22.18c-0.32,0-0.58-0.25-0.58-0.58v-1.52c0-0.32,0.25-0.58,0.58-0.58h22.18
			c0.32,0,0.58,0.25,0.58,0.58v1.52C387.07,160.49,386.81,160.74,386.5,160.74z"/>
	</g>
	<g>
		<path class="st5" d="M72.34,121.22h-45.6c-1.27,0-2.31,1.04-2.31,2.31v18.27c0,1.27,1.04,2.31,2.31,2.31h47.91v-20.58
			C74.65,122.26,73.62,121.22,72.34,121.22z"/>
		<g>
			<g>
				<g>
					<circle id="SVGID_17_" class="st6" cx="35.41" cy="133.09" r="6.63"/>
				</g>
			</g>
			<g>
				<g>
					<defs>
						<circle id="SVGID_12_" cx="35.41" cy="133.09" r="6.63"/>
					</defs>
					<clipPath id="SVGID_14_">
						<use xlink:href="#SVGID_12_"  style="overflow:visible;"/>
					</clipPath>
					<g class="st33">
						<path class="st8" d="M41.76,140.72c0,0,0.74,4.12,0.8,5.2s0.17,1.91-0.54,2.34c-0.71,0.43-1.89,0.83-1.89,0.83l-1.45-7.34
							v-0.85L41.76,140.72z"/>
						<path class="st8" d="M29.15,140.5c0,0-0.4,1.86-0.52,2.8s-0.37,2.78-0.4,3.21c-0.02,0.43-0.08,1.14,0.69,1.68
							c0.77,0.54,1.6,0.85,1.6,0.85l1.57-8.54C32.08,140.5,29.15,140.5,29.15,140.5z"/>
						<path class="st9" d="M34.79,134.57c0,0,0,0.85-0.37,1.22c-0.37,0.37-0.85,0.98-0.85,0.98s0.85,1.35,2.57,1.16
							c1.72-0.18,2.02-1.41,2.02-1.41s-1.63-0.22-1.81-1.74c-0.18-1.53-0.43-1.53-0.43-1.53L34.79,134.57z"/>
						<path class="st31" d="M33.77,136.17c0,0-1.18-0.14-1.8,0.02c-0.62,0.16-0.83,0.06-0.66,0.54c0.17,0.48,1.03,2.72,0.63,4.12
							c-0.4,1.41-0.95,8.58-0.95,8.58s4.35,0.17,6.03,0.25c1.68,0.08,2.94-0.23,2.94-0.23s0.37-3.09,0-4.43
							c-0.37-1.35-0.85-3.63-0.85-3.63s-0.31-3.15,0.12-3.92c0.43-0.77,0.74-0.8,0.2-1c-0.54-0.2-1.14-0.37-1.57-0.37
							c-0.43,0-0.66,0-0.91,0.25c-0.25,0.25-0.77,0.77-1.49,0.66c-0.71-0.12-1.26-0.6-1.26-0.6S33.96,136.19,33.77,136.17z"/>
						<path class="st34" d="M31.69,136.41c0,0-0.4-0.2-1,0.31c-0.65,0.55-1.12,1.74-1.35,2.49c-0.23,0.74-0.37,1.49-0.37,1.49
							s0.83,0.43,1.68,0.46c0.85,0.02,1.43,0.08,1.43,0.08s0.37-2.23,0.29-3.23C32.29,137.01,32.15,136.66,31.69,136.41z"/>
						<path class="st34" d="M38.9,137.24c0,0,0.35-0.95,1.12-0.52c0.77,0.43,1.35,2.06,1.51,2.57s0.4,1.54,0.4,1.54
							s-0.91,0.4-1.68,0.46c-0.77,0.06-1.31,0.12-1.31,0.12s-0.31-2.03-0.25-2.84C38.73,137.78,38.9,137.24,38.9,137.24z"/>
						<path class="st9" d="M38.36,131.75c0,0,0.18,0.09,0.27,0.3c0.08,0.22-0.3,0.82-0.44,1.03"/>
						<path class="st9" d="M38.43,129.32c-0.09-1.94-2.69-1.97-2.69-1.97l0,0c0,0-2.61,0.02-2.69,1.97c-0.03,0.86,0,1.72,0.07,2.43
							c0.05,0.54,0.12,1,0.18,1.33c0.05,0.22,0.08,0.37,0.12,0.46c0.06,0.15,0.16,0.33,0.3,0.53c0.29,0.39,0.69,0.81,0.97,0.98
							c0.23,0.14,0.78,0.24,1.05,0.23l0,0c0.27,0.01,0.82-0.09,1.05-0.23c0.29-0.17,0.69-0.59,0.97-0.98
							c0.14-0.2,0.25-0.38,0.3-0.53c0.03-0.09,0.07-0.25,0.12-0.46c0.06-0.33,0.13-0.8,0.18-1.33
							C38.43,131.03,38.46,130.18,38.43,129.32z"/>
						<path class="st9" d="M33.11,131.75c0.05,0.54,0.12,1,0.18,1.33c-0.15-0.21-0.52-0.82-0.44-1.03
							C32.93,131.84,33.11,131.75,33.11,131.75L33.11,131.75z"/>
						<g>
							<g>
								<path class="st12" d="M33.88,128.94l-0.06,0.07c0,0.48-0.02,0.78-0.28,1.19c-0.2,0.31-0.48,0.73-0.42,1.12
									c-0.05-0.24-0.02-0.48-0.17-0.69c-0.16-0.24-0.22-0.4-0.2-0.73c0.03-0.36,0.03-0.78,0.23-1.11
									c0.09-0.15,0.25-0.24,0.32-0.38c0.03-0.08,0.01-0.23,0.07-0.35c0.38-0.71,1.65-0.69,2.35-0.71l0,0c0,0,2.61,0.02,2.69,1.97
									c0.05,0.95-0.01,1.87-0.08,2.63c-0.03-0.25-0.24-0.45-0.37-0.68c-0.14-0.28-0.2-0.54-0.42-0.78c-0.28-0.32-0.8-0.47-1.2-0.6
									C35.49,129.63,34.56,129.49,33.88,128.94z"/>
							</g>
							<g>
								<path class="st35" d="M35.06,128.78c0.16,0.12,0.3,0.24,0.44,0.38c0.14,0.13,0.28,0.28,0.42,0.39
									c0.15,0.12,0.32,0.2,0.5,0.27c0.09,0.03,0.18,0.07,0.27,0.1c0.09,0.03,0.17,0.08,0.25,0.14c-0.17-0.09-0.36-0.15-0.53-0.21
									c-0.09-0.03-0.18-0.07-0.27-0.1c-0.09-0.05-0.17-0.09-0.24-0.16c-0.15-0.13-0.28-0.27-0.42-0.4
									C35.34,129.04,35.21,128.91,35.06,128.78z"/>
							</g>
							<g>
								<path class="st35" d="M36.41,129.11c0.01,0.08,0.05,0.16,0.09,0.23c0.05,0.07,0.09,0.14,0.14,0.21
									c0.1,0.13,0.22,0.27,0.33,0.38c0.12,0.12,0.25,0.22,0.39,0.32c0.07,0.05,0.14,0.1,0.2,0.16s0.12,0.13,0.16,0.2
									c-0.05-0.07-0.12-0.13-0.17-0.18c-0.07-0.06-0.14-0.1-0.21-0.15c-0.14-0.09-0.29-0.18-0.4-0.31s-0.23-0.25-0.32-0.39
									c-0.05-0.07-0.09-0.14-0.13-0.22C36.44,129.27,36.42,129.19,36.41,129.11z"/>
							</g>
						</g>
					</g>
				</g>
			</g>
		</g>
		<path class="st6" d="M69.16,129.29H45.49c-0.32,0-0.58-0.25-0.58-0.58v-1.69c0-0.32,0.25-0.58,0.58-0.58h23.66
			c0.32,0,0.58,0.25,0.58,0.58v1.69C69.74,129.03,69.47,129.29,69.16,129.29z"/>
		<path class="st6" d="M69.16,133.94H45.49c-0.32,0-0.58-0.25-0.58-0.58v-1.69c0-0.32,0.25-0.58,0.58-0.58h23.66
			c0.32,0,0.58,0.25,0.58,0.58v1.69C69.74,133.67,69.47,133.94,69.16,133.94z"/>
		<path class="st6" d="M69.16,138.59H45.49c-0.32,0-0.58-0.25-0.58-0.58v-1.69c0-0.32,0.25-0.58,0.58-0.58h23.66
			c0.32,0,0.58,0.25,0.58,0.58v1.69C69.74,138.32,69.47,138.59,69.16,138.59z"/>
	</g>
	<path class="st29" d="M269.2,354.5h-80.74c-0.32,0-0.58-0.25-0.58-0.58v-5.25c0-0.32,0.25-0.58,0.58-0.58h80.74
		c0.32,0,0.58,0.25,0.58,0.58v5.25C269.78,354.25,269.51,354.5,269.2,354.5z"/>
	<path class="st29" d="M269.2,364.97h-80.74c-0.32,0-0.58-0.25-0.58-0.58v-5.25c0-0.32,0.25-0.58,0.58-0.58h80.74
		c0.32,0,0.58,0.25,0.58,0.58v5.25C269.78,364.71,269.51,364.97,269.2,364.97z"/>
	<path class="st29" d="M269.2,375.44h-80.74c-0.32,0-0.58-0.25-0.58-0.58v-5.25c0-0.32,0.25-0.58,0.58-0.58h80.74
		c0.32,0,0.58,0.25,0.58,0.58v5.25C269.78,375.18,269.51,375.44,269.2,375.44z"/>
	<g>
		<g>
			<path class="st5" d="M108.67,178.15H64.76c-0.63,0-1.15,0.52-1.15,1.15v18.76c0,0.63,0.52,1.15,1.15,1.15h45.07v-19.91
				C109.82,178.67,109.31,178.15,108.67,178.15z"/>
			<g>
				<g>
					<circle id="SVGID_21_" class="st6" cx="73.7" cy="189.06" r="6.11"/>
				</g>
			</g>
			<g>
				<g>
					<defs>
						<circle id="SVGID_15_" cx="73.7" cy="189.06" r="6.11"/>
					</defs>
					<clipPath id="SVGID_16_">
						<use xlink:href="#SVGID_15_"  style="overflow:visible;"/>
					</clipPath>
					<g class="st36">
						<path class="st37" d="M76.34,189.96c-0.28-1.06,0.12-1.45,0.23-2.89l-2.78-0.09l0,0l0,0l0,0l0,0l-2.78,0.09
							c0.12,1.44,0.51,1.83,0.23,2.89c-0.4,1.57-1.51,3.64,2.55,3.64l0,0l0,0l0,0l0,0C77.85,193.6,76.75,191.53,76.34,189.96z"/>
						<path class="st8" d="M79.55,196.09c0,0,0.68,3.79,0.74,4.78s0.16,1.76-0.5,2.16c-0.66,0.39-1.74,0.76-1.74,0.76l-1.34-6.77
							v-0.78L79.55,196.09z"/>
						<path class="st8" d="M67.95,195.88c0,0-0.37,1.71-0.47,2.58c-0.1,0.86-0.35,2.55-0.37,2.95s-0.08,1.05,0.63,1.56
							c0.71,0.51,1.48,0.78,1.48,0.78l1.45-7.86h-2.72V195.88z"/>
						<path class="st38" d="M73.14,190.44c0,0,0,0.78-0.33,1.13c-0.33,0.33-0.78,0.9-0.78,0.9s0.78,1.23,2.36,1.07
							c1.58-0.16,1.86-1.29,1.86-1.29s-1.49-0.2-1.66-1.6s-0.39-1.41-0.39-1.41L73.14,190.44z"/>
						<path class="st39" d="M72.19,191.9c0,0-1.08-0.13-1.66,0.02c-0.58,0.16-0.76,0.06-0.6,0.5c0.16,0.45,0.95,2.5,0.58,3.79
							s-0.86,7.9-0.86,7.9s4,0.16,5.56,0.24c1.56,0.08,2.71-0.21,2.71-0.21s0.35-2.84,0-4.08c-0.35-1.23-0.78-3.34-0.78-3.34
							s-0.29-2.89,0.1-3.61c0.39-0.71,0.68-0.74,0.18-0.92c-0.5-0.18-1.05-0.35-1.45-0.35s-0.6,0-0.84,0.24s-0.71,0.71-1.37,0.6
							c-0.66-0.1-1.15-0.55-1.15-0.55S72.38,191.93,72.19,191.9z"/>
						<path class="st40" d="M70.29,192.13c0,0-0.37-0.18-0.92,0.29c-0.6,0.51-1.03,1.6-1.23,2.29c-0.21,0.68-0.35,1.37-0.35,1.37
							s0.76,0.39,1.56,0.43c0.78,0.02,1.31,0.08,1.31,0.08s0.35-2.05,0.27-2.97C70.85,192.69,70.71,192.36,70.29,192.13z"/>
						<path class="st40" d="M76.92,192.89c0,0,0.31-0.86,1.03-0.47c0.71,0.39,1.23,1.89,1.39,2.36c0.16,0.47,0.37,1.42,0.37,1.42
							s-0.84,0.37-1.56,0.43c-0.71,0.06-1.21,0.1-1.21,0.1s-0.29-1.87-0.24-2.61C76.75,193.38,76.92,192.89,76.92,192.89z"/>
						<g>
							<g>
								<path class="st38" d="M71.78,188.2c0,0-0.22-0.22-0.35-0.17c-0.12,0.05-0.22,0.31-0.13,0.58c0.09,0.27,0.18,0.48,0.27,0.54
									c0.08,0.06,0.37,0.1,0.37,0.08C71.95,189.2,71.78,188.2,71.78,188.2z"/>
							</g>
							<g>
								<path class="st38" d="M75.87,188.2c0,0,0.23-0.22,0.35-0.17c0.12,0.05,0.22,0.31,0.13,0.58c-0.09,0.27-0.18,0.48-0.27,0.54
									s-0.37,0.1-0.37,0.08C75.7,189.2,75.87,188.2,75.87,188.2z"/>
							</g>
						</g>
						<g>
							<path class="st38" d="M75.92,186.4c-0.38-1.15-1.45-1.42-2.09-1.42s-1.72,0.27-2.1,1.42c-0.38,1.15,0.14,2.8,0.48,3.39
								c0.35,0.59,1.11,1.18,1.61,1.18c0.51,0,1.27-0.58,1.61-1.18C75.78,189.21,76.3,187.56,75.92,186.4z"/>
						</g>
						<path class="st37" d="M71.68,188.34c0,0,0.2-1.11,0.7-1.74c0,0,0.3,0.85,1.18,1.2c0,0,0-0.45-0.1-0.78c0,0,0.7,0.67,1.54,0.81
							c0,0-0.05-0.37-0.18-0.63c0,0,0.8,0.59,1.14,1.13c0,0,0.68-0.56,0.63-1.68c-0.06-1.12-1.05-2.44-2.63-2.48
							c-1.58-0.03-2.31,1.19-2.31,1.19s-0.58,0.37-0.63,1.15C70.95,187.28,71.16,187.79,71.68,188.34z"/>
					</g>
				</g>
			</g>
		</g>
		<path class="st6" d="M104.73,185.58H83.04c-0.32,0-0.58-0.25-0.58-0.58v-1.46c0-0.32,0.25-0.58,0.58-0.58h21.69
			c0.32,0,0.58,0.25,0.58,0.58V185C105.31,185.31,105.04,185.58,104.73,185.58z"/>
		<path class="st6" d="M104.73,189.86H83.04c-0.32,0-0.58-0.25-0.58-0.58v-1.46c0-0.32,0.25-0.58,0.58-0.58h21.69
			c0.32,0,0.58,0.25,0.58,0.58v1.46C105.31,189.59,105.04,189.86,104.73,189.86z"/>
		<path class="st6" d="M104.73,194.13H83.04c-0.32,0-0.58-0.25-0.58-0.58v-1.46c0-0.32,0.25-0.58,0.58-0.58h21.69
			c0.32,0,0.58,0.25,0.58,0.58v1.46C105.31,193.87,105.04,194.13,104.73,194.13z"/>
	</g>
	<path class="st41" d="M164.9,237.25c0,0,11.72-4.17,13.03,6.78c0,0,3,7.95,6,9.38c3,1.43,10.42,4.17,8.6,14.47
		c-1.82,10.3-4.69,9.65-3.52,15.64c1.18,6-1.69,6.65-5.87,6.78s-5.34-3.78-5.34-3.78l1.18-13.29l-2.73-21.37l-8.87-3.52
		c0,0-4.57-5.73-4.96-7.95C162.03,238.16,164.9,237.25,164.9,237.25z"/>
	<path class="st42" d="M166.47,234.29c0,0,1.86,1.93,1.42,2.27c-0.44,0.35-5.5,2.99-5.5,2.99s-1.46-2.84-1.31-3.67
		C161.21,235.05,166.47,234.29,166.47,234.29z"/>
	<path class="st43" d="M135.44,219.98c-0.27,0.03-0.45,0.27-0.45,0.53c0.07,2.55,0.66,14.83,5.46,19.38c0,0,2.54,3.32,7.42,1.96
		c0,0,4.4-2.64,3.71,2.73c-0.68,5.37,1.57,10.65,3.32,11.44c1.76,0.78,8.99-1.18,10.65-4.21c1.11-2.02,1.69-3.04,1.96-3.49
		c0.12-0.2,0.09-0.43-0.06-0.59c-0.99-1.14-4.72-5.72-6.44-12.04c-2.01-7.33-0.93-14.37-7.68-15.84
		C147.42,218.55,137.66,219.69,135.44,219.98z"/>
	<path class="st41" d="M129.14,219.38c0.01-0.1,0.03-0.22,0.03-0.32c0.06-0.71-0.01-1.44,0.06-2.17c0.23-2.24,0.96-4.6,2.71-6.11
		c1.3-1.13,3.01-1.57,4.7-1.57c0.38,0,0.75-0.14,1-0.43c1.15-1.3,4.89-5.03,10.05-5.03c6.25,0,16.92,3.38,19.81,14.04
		c0.01,0.02,0.01,0.03,0.01,0.06c0.17,0.71,4.24,17.45-3.92,17.96c-8.35,0.52-11.72-3.59-11.47-7.3c0,0,4.1-7.37-2.87-5.48
		c0,0-7.18,1.35-12.17-1.58c-0.62-0.37-1.41-0.14-1.76,0.48c-0.99,1.72-2.97,4.37-4.83,2.14c-0.68-0.82-1.34-1.76-1.53-2.84
		C128.85,220.58,129.03,220,129.14,219.38z"/>
	<path class="st4" d="M167.61,247.83c0,0-4.07,6.55-9.87,6.48c-5.8-0.07-6.17-6.08-6.17-6.08s-11.82,10.64-11.69,17.67
		c0.13,7.03,2.48,5.87,3.12,8.21c0.66,2.34-3.91,27.24-3.91,27.24l-0.68,1.46l33.4,4.53c0,0,1.3-5.34,2.21-7.03
		c0.91-1.69,5.6-45.35,5.6-45.35l-2.21-2.34C177.42,252.63,173.51,248.19,167.61,247.83z"/>
	<path class="st44" d="M182.36,274.26c0,0,3.32-21.61-5.08-22.68c-8.21-1.04-8.35,5.73-8.6,15.77c-0.27,10.03-0.13,12.26-0.13,12.26
		l13.03,2.34L182.36,274.26z"/>
	<path class="st45" d="M168.93,279.68c-0.21-0.03-0.39,0.12-0.42,0.32l-0.68,8.28c0.05,1.26-0.18,2.42-1.35,1.95
		c-0.65-0.27-1.46-0.66-2.49-1.23c-3.72-2.08-14.98-7.56-18.49-9.26c-0.62-0.3-1.08-0.85-1.33-1.5c-0.38-1.04-1.29-2.59-3.39-3.18
		c-3.26-0.91-8.87-0.78-8.99-0.39c-0.13,0.39-0.78,3.12-0.52,4.04c0.27,0.91,3,0.13,3,0.13s5.08-0.91,3.65,0.91
		c-0.83,1.06-2.02,1.2-2.86,1.13c-0.35-0.02-0.51,0.42-0.24,0.63c0.7,0.55,1.96,1.22,4.01,1.51c3.78,0.52,30.49,17.99,30.49,17.99
		s5.21,4.04,8.21-6.65c2.28-8.15,3.42-11.04,3.84-11.98c0.09-0.21-0.03-0.44-0.27-0.48L168.93,279.68z"/>
	<polygon class="st45" points="124.54,291.3 139.78,297.6 141.4,288.06 135.19,287.68 	"/>
	<polygon class="st6" points="114.08,260.84 89.96,259.4 114.99,290.94 138.06,291.72 	"/>
	<path class="st45" d="M113.94,288.73c0,0,0.91-5.73-1.04-6.65c-1.95-0.92-3.22,1.22-3.1,2.26c0.14,1.16,3.97,5.04,3.97,5.04
		L113.94,288.73z"/>
	<path class="st46" d="M138.42,302.84L91.4,320.72c0,0-5.87,1.18-7.3,17.01c-1.43,15.84-2.61,68.3-2.61,68.3l-0.07,1.69l11.72,0.2
		L99.02,352l27.83-33.56l22.55-14.15L138.42,302.84z"/>
	<path class="st25" d="M172.1,306.35l-22.83-2.05l-48.06,24.01c0,0-12.98,7.64-4.65,21.51s31.58,56.15,31.58,56.15l8-5.98
		l-20.53-56.85c0,0-0.5-2.93,6.35-3.44c6.4-0.47,36.66-3.41,40.57-3.79c0.33-0.03,0.65-0.1,0.96-0.22
		c2.36-0.88,11.61-5.35,8.67-21.5l-0.35-6.84L172.1,306.35z"/>
	<path class="st47" d="M81.43,407.72l-10.21,5.61c-0.52,0.29-1.1,0.5-1.68,0.59c-1.11,0.17-3.03,0.68-3.03,2.27
		c0,0-0.27,1.82,4.69,1.43c4.96-0.39,20.59-0.27,20.59-0.27s2.02-0.46,1.69-4.96l-0.32-4.5L81.43,407.72z"/>
	<path class="st47" d="M128.14,405.96c0,0-0.09,2.65-2.73,6.31c-1.46,2.03-3.04,3.97-4.68,5.86c-0.44,0.5-0.9,0.91-1.12,1.53
		c-0.15,0.42-0.27,0.84-0.28,1.28c-0.01,0.43,0.07,0.88,0.45,1.13c0.56,0.38,1.4,0.18,1.99,0.01c0.17-0.05,0.35-0.1,0.52-0.17
		c4.02-1.43,16-11.19,18.55-13.29c0.32-0.27,0.52-0.66,0.52-1.08c0.01-0.9-0.15-2.5-1.21-3.75c-1.57-1.82-3.99-3.82-3.99-3.82
		L128.14,405.96z"/>
	<g>
		<path class="st41" d="M255.18,151.45c0,0,6.24,0.31,10.76,0.31s11.69,0.93,11.69,0.93s1.87,0,2.03,2.34
			c0.16,2.34,0.16,3.27,0.16,3.27s0.16,2.8-2.03,2.8c-2.18,0-16.06,1.56-19.17,1.56c-3.11,0-5.45,0.62-5.45-1.56
			C253.16,158.93,253,151.29,255.18,151.45z"/>
		<path class="st8" d="M260.33,85.51c0,0,4.06,22.45,4.37,28.37c0.31,5.93,0.93,10.45-2.96,12.79c-3.9,2.34-10.28,4.52-10.28,4.52
			l-7.95-40.06v-4.67L260.33,85.51z"/>
		<path class="st8" d="M191.59,84.26c0,0-2.18,10.13-2.8,15.28c-0.62,5.14-2.03,15.13-2.18,17.45c-0.16,2.34-0.47,6.24,3.75,9.2
			c4.21,2.96,8.73,4.68,8.73,4.68l8.58-46.61H191.59z"/>
		<path class="st9" d="M222.36,52c0,0,0,4.67-2.01,6.68c-2.01,2.01-4.67,5.34-4.67,5.34s4.67,7.34,14.01,6.34
			c9.34-1,11.01-7.68,11.01-7.68s-8.84-1.16-9.85-9.51c-1-8.34-2.34-8.34-2.34-8.34L222.36,52z"/>
		<path class="st8" d="M215.52,33.49c0,0,0.33,10.68,5.34,19.01s11.01,3.67,13.35-0.67c2.34-4.33,8.67-18.35,7.34-22.02
			c-1.34-3.67-19.68-5.34-19.68-5.34L215.52,33.49z"/>
		<path class="st8" d="M239.2,39.48c0,0,2.67-2.01,2.67,0c0,2.01-1.34,5-3,5.34c-1.67,0.33-1.34-0.67-1-2.01
			C238.21,41.49,239.2,39.48,239.2,39.48z"/>
		<path class="st8" d="M216.33,43.67c0.73,0.32,1.53,0.43,1.53-0.67c0-2.01-1.34-5-3-5.34c-1.67-0.33-1.34,0.67-1,2.01
			c0.12,0.46,0.31,0.99,0.51,1.5C214.75,42.14,215.73,43.4,216.33,43.67z"/>
		<path class="st41" d="M216.02,38.32l-0.33-3.33c0,0,3,0.33,6.34-3c0,0,6.51,1.46,11.68,1c5.5-0.5,7.89-2.01,7.89-2.01
			s-0.92,6.31-1.83,8.14c0,0,2.65-1.11,3.65-4.12s0.81-6.19,0.81-6.19s3.67-3,4.67-6.34c0,0-10.01-2.34-13.02-4.33
			s-4.67-3.33-4.67-3.33s-4.67-2.67-9.34,1c-4.67,3.68-7.68,5.67-7.68,12.01C214.18,27.82,209.85,33.81,216.02,38.32z"/>
		<path class="st48" d="M216.76,60.65c0,0-6.39-0.78-9.82,0.16c-3.44,0.95-4.52,0.31-3.59,2.96c0.93,2.65,5.61,14.8,3.42,22.45
			c-2.18,7.64-5.14,46.76-5.14,46.76s23.69,0.93,32.89,1.41s16.06-1.25,16.06-1.25s2.03-16.83,0-24.16
			c-2.03-7.33-4.68-19.8-4.68-19.8s-1.72-17.14,0.62-21.35c2.34-4.21,4.06-4.37,1.1-5.45c-2.96-1.1-6.24-2.03-8.58-2.03
			c-2.34,0-3.59,0-4.99,1.41c-1.41,1.41-4.21,4.21-8.1,3.59c-3.9-0.62-6.86-3.27-6.86-3.27S217.85,60.8,216.76,60.65z"/>
		<path class="st6" d="M205.46,61.98c0,0-2.18-1.1-5.45,1.72c-3.52,3.02-6.08,9.51-7.32,13.56c-1.25,4.05-2.03,8.1-2.03,8.1
			s4.52,2.34,9.2,2.49c4.68,0.15,7.79,0.47,7.79,0.47s2.03-12.16,1.56-17.62C208.73,65.25,207.96,63.37,205.46,61.98z"/>
		<path class="st6" d="M244.74,66.5c0,0,1.87-5.14,6.08-2.8c4.21,2.34,7.32,11.23,8.27,14.03c0.95,2.8,2.18,8.42,2.18,8.42
			s-4.99,2.18-9.2,2.49c-4.21,0.31-7.17,0.62-7.17,0.62s-1.72-11.07-1.41-15.44C243.8,69.46,244.74,66.5,244.74,66.5z"/>
		<polygon class="st49" points="210.36,136.31 242.33,136.31 225.84,141.39 		"/>
		<path class="st28" d="M181.93,127.29c0,0,58.3,18.24,71.09,22.76c0,0,4.21,1.1,4.37,3.27c0.16,2.18-0.31,5.3-0.78,6.86
			c-0.47,1.56-1.87,2.8-4.21,2.34c-2.34-0.47-54.55-10.91-75.3-16.37l-5.93-1.87c0,0-4.37-2.03-3.59-7.32
			c0.78-5.3,4.68-9.97,7.48-10.28C177.87,126.35,181.93,127.29,181.93,127.29z"/>
		<path class="st41" d="M176.62,153.17c0,0,7.32-1.25,11.69-1.41c4.37-0.16,10.13-0.62,11.07,0c0.93,0.62,1.72,9.04,1.72,9.04
			s0.78,2.34-4.99,1.87c-5.76-0.47-19.02-0.93-19.02-0.93s-2.96-0.16-3.11-2.8c-0.15-2.64,0.31-3.9,0.31-3.9
			S174.76,153.48,176.62,153.17z"/>
		<path class="st50" d="M211.38,145.69c0,0,35.38-10.76,48.01-14.49c12.62-3.75,19.65-7.17,23.69-1.25
			c4.06,5.93,3.75,12.47-0.93,14.34c-4.68,1.87-41.47,10.45-56.75,13.56s-25.25,5.14-26.65,4.52s-2.96-5.14-2.65-7.64
			c0.31-2.49,0.47-3.42,3.42-4.68C202.49,148.8,211.38,145.69,211.38,145.69z"/>
		<path class="st6" d="M207.32,94.25h42.55c0,0,2.34-0.31,2.34,2.8c0,3.11,0,36.79,0,36.79s0.16,2.49-1.72,2.49
			c-1.87,0-50.04,0-50.04,0s-2.03,0.62-2.03-2.8c0-3.42,0-37.41,0-37.41s-0.16-1.87,2.34-1.87S207.32,94.25,207.32,94.25z"/>
		
			<rect x="223.41" y="113.37" transform="matrix(0.6249 -0.7807 0.7807 0.6249 -5.4886 219.1704)" class="st51" width="3.85" height="3.85"/>
	</g>
	<g>
		<g>
			<path class="st9" d="M163.72,190.96c2.23,0,2.23-3.46,0-3.46C161.5,187.5,161.49,190.96,163.72,190.96L163.72,190.96z"/>
		</g>
	</g>
</g>
</svg>
