<?xml version="1.0" encoding="utf-8"?>
<!-- Generator: Adobe Illustrator 23.0.1, SVG Export Plug-In . SVG Version: 6.00 Build 0)  -->
<svg version="1.1" id="Layer_1" xmlns="http://www.w3.org/2000/svg" xmlns:xlink="http://www.w3.org/1999/xlink" x="0px" y="0px"
	 viewBox="0 0 460 460" style="enable-background:new 0 0 460 460;" xml:space="preserve">
<style type="text/css">
	.st0{fill:#E4F8FF;}
	.st1{fill:none;stroke:#023EA1;stroke-miterlimit:10;}
	.st2{fill:none;stroke:#DE051F;stroke-miterlimit:10;}
	.st3{fill:none;stroke:#FCBE42;stroke-miterlimit:10;}
	.st4{fill:#FCBE42;}
	.st5{fill:none;stroke:#003EB0;stroke-miterlimit:10;stroke-dasharray:6;}
	.st6{fill:#B0E6FF;}
	.st7{fill:#0064B7;}
	.st8{clip-path:url(#SVGID_3_);}
	.st9{fill:#772635;}
	.st10{fill:#FFBF99;}
	.st11{fill:#FFB07E;}
	.st12{fill:#3E4753;}
	.st13{fill:#9DCAD1;}
	.st14{fill:#FDCBA7;}
	.st15{fill:#EE2A7B;}
	.st16{fill:none;stroke:#569ED4;stroke-miterlimit:10;}
	.st17{fill:none;stroke:#63C1F1;stroke-width:1.5;stroke-miterlimit:10;stroke-dasharray:6;}
	.st18{fill:#003EB0;}
	.st19{fill:none;stroke:#FFFFFF;stroke-width:2;stroke-miterlimit:10;}
	.st20{fill:#FFFFFF;}
	.st21{opacity:0.5;fill:#E9E8EE;enable-background:new    ;}
	.st22{fill:#023EA1;}
	.st23{fill:#0064E1;}
	.st24{fill:#170856;}
	.st25{fill:#EA4E59;}
	.st26{fill:#F79F03;}
	.st27{fill:#000036;}
	.st28{fill:#180756;}
	.st29{fill:#649EEA;}
	.st30{fill:none;stroke:#83DAFF;stroke-linecap:round;stroke-linejoin:round;stroke-miterlimit:10;}
	.st31{fill:none;stroke:#579FD5;stroke-linecap:round;stroke-linejoin:round;stroke-miterlimit:10;}
	.st32{fill:#0054A5;}
	.st33{fill:#006AD5;}
	.st34{fill:#DE051F;}
	.st35{fill:none;stroke:#003EB0;stroke-miterlimit:10;}
	.st36{clip-path:url(#SVGID_6_);}
	.st37{fill:#F7A600;}
	.st38{fill:#070707;}
	.st39{fill:#52331D;}
	.st40{fill:#6B4732;}
	.st41{fill:none;stroke:#0064B7;stroke-miterlimit:10;}
	.st42{clip-path:url(#SVGID_8_);}
	.st43{fill:#1B3A62;}
	.st44{fill:#021E34;}
	.st45{fill:#915F41;}
	.st46{clip-path:url(#SVGID_11_);}
	.st47{fill:#4B2C61;}
	.st48{fill:#F8E1CC;}
	.st49{fill:#CCB4AA;}
	.st50{fill:#355D75;}
	.st51{fill:#0083F9;}
	.st52{fill:#2626DB;}
	.st53{fill:#CC092A;}
	.st54{fill:#EE384E;}
	.st55{fill:#569ED4;}
	.st56{fill:#2C2477;}
	.st57{fill:#FFBF9C;}
	.st58{fill:#2B2377;}
</style>
<path d="M1967.76-1590.71c-2,4.13-3.73,8.41-6.04,12.35c-7.57,12.92-14.51,26.11-19.83,41.24c3.08,0.43,5.51,1.04,7.95,1.07
	c10.66,0.11,21.33-0.03,31.99,0.09c4.32,0.05,8.68,0.25,12.94,0.89c32.72,4.93,47.46,39.93,28.22,66.87
	c-1.16,1.62-2.46,3.15-3.79,4.64c-41.4,46.59-82.84,93.13-124.19,139.76c-10.4,11.73-22.87,16.85-38.42,13.04
	c-7.35-1.8-13.4-5.78-18.35-11.47c-41.1-47.29-82.31-94.49-123.21-141.95c-11.01-12.77-14.38-27.9-8.4-43.94
	c6.04-16.2,18.83-24.91,35.6-26.74c12.2-1.33,24.6-0.91,36.91-1.11c8.62-0.14,17.24-0.03,25.43-0.03
	c6.21-17.47,11.99-34.03,18.1-50.48c0.55-1.48,3.2-2.18,5.41-3.58c-1.36-0.99-2.39-1.74-4.08-2.97c2.28-1.99,4.42-3.84,5.52-4.8
	c2.3-14.69,7.02-26.7,19.01-35.59c-0.04-8.53-0.04-8.53,6.28-16.19c14.82,18.21,26.97,23.04,42.09,16.72
	c12.06-5.03,18.42-16.05,17.18-29.72c-1.3-14.37-10.3-22.64-30.43-26.99c1.87-2.64,3.24-5.01,5.02-7.03
	c56.81-64.81,127.38-106.19,211.71-124.01c26.5-5.6,53.34-7.87,80.42-7.93c38.32-0.08,76.64-0.28,114.96-0.56
	c121.34-0.9,222.85-84.52,247.12-203.49c27.19-133.28-62.04-267.69-195.41-294.45c-18.37-3.69-36.88-5.51-55.59-5.51
	c-22.66,0-45.33,0-67.99,0c-3.26,0-6.52,0-10.31,0c-3.39-12.28-6.79-23.73-9.71-35.3c-12.23-48.5-32.89-92.92-64.75-131.66
	c-56.93-69.23-129.78-110.55-218.9-121.59c-166.06-20.58-318.83,86.68-360.58,243.74c-3.92,14.74-8.13,29.41-12.39,44.8
	c-4.14,0-7.75,0-11.37,0c-23.33,0-46.66-0.1-69.99,0.02c-120.02,0.62-221.44,81.64-246.79,198.8
	c-30.6,141.41,62.47,272.78,195.31,299.12c13.3,2.64,27.06,3.88,40.62,4.03c43.65,0.49,87.36,1.36,130.97-0.07
	c100.19-3.28,173.79-50.41,221.87-138.02c1.44-2.62,2.57-5.41,3.74-8.16c0.23-0.53-0.04-1.27-0.13-2.74
	c-2.34-0.26-4.81-0.75-7.29-0.77c-12-0.09-24,0.05-35.99-0.09c-4.65-0.06-9.41-0.1-13.91-1.09c-31.95-7.03-43.97-43.62-22.55-69.11
	c11.36-13.52,23.43-26.43,35.17-39.64c30.33-34.13,60.61-68.3,91.01-102.37c11.71-13.12,26.63-17.2,41.39-11.7
	c7.08,2.64,12.42,7.52,17.3,13.15c28.8,33.26,57.68,66.44,86.53,99.65c10.93,12.58,21.79,25.22,32.81,37.71
	c6.1,6.92,10.41,14.67,11.84,23.82c4.1,26.18-13.58,47.75-41.09,49.3c-14.62,0.82-29.32,0.27-43.98,0.33c-3.62,0.01-7.25,0-11.31,0
	c-1.31,3.64-2.52,6.66-3.48,9.76c-42.22,135.88-153.64,236.18-293.03,263.02c-18.57,3.58-37.62,5.83-56.52,6.4
	c-43.6,1.31-87.24,1.59-130.87,1.61c-78.8,0.05-151.58-21.05-216.44-66.02c-91.49-63.42-147-150.37-163.16-260.78
	c-21.02-143.57,40-283.01,158.68-366.74c5.97-4.22,11.48-8.74,19.76-6.12c2.93,0.93,6.52-0.25,10.24-0.49
	c0.2-5.08-3.42-11.84,5.18-14.88c0.65,3.28,1.24,6.3,1.84,9.33l-0.25-0.29c3.06,10.41,11.46,4.67,17.83,6.55
	c0.32-6.29,0.61-11.87,0.89-17.34c-3.32-0.74-6.65-1.48-11.45-2.55c2.68-1.81,3.88-2.91,5.29-3.52
	c18.54-8.12,36.3-18.25,56.99-20.75c4.57-0.55,8.66-4.36,13.26-5.64c24.47-6.81,49.39-11.31,74.8-12.01
	c7.98-0.22,11.34-3.47,14.46-10.46c65.56-146.85,176.84-239.45,333.99-272.51c213.23-44.86,428.58,69.18,514.56,269.33
	c4.36,10.16,9.59,13.68,20.43,13.98c25.38,0.71,50.42,5.29,74.62,12.89c19.53,6.13,38.51,14.02,57.69,21.25
	c3.06,1.15,5.88,2.95,8.67,4.39c-4.68,21.35,4.31,26.61,22.8,20.54c0.59-1.76,1.28-3.84,2.07-6.22c1.14,0.58,2.29,0.78,2.69,1.43
	c2.76,4.54,6.5,7.04,11.91,8.05c3.38,0.63,6.58,3.07,9.51,5.19c86.9,62.65,140.5,146.38,157.89,252.31
	c30.72,187.15-84.13,370.31-265.73,424.7c-29.17,8.74-58.82,14.21-89.44,14.54c-46.32,0.5-92.64,2.05-138.96,2.49
	c-54.63,0.52-104.34,15.77-148.87,47.56c-1.07,0.76-2.23,1.39-4.36,2.71c-4.37-4.16-8.81-8.38-14.11-13.43
	c8.26-7.8,15.91-15.03,23.72-22.41c-8.55-4.31-14.89-3.69-21.06,1.76c-4.45,3.93-8.85,7.93-14.9,13.36
	c-2.46-15.01-0.15-28.52-1.65-41.86c-1.84-0.47-3.07-1.02-4.32-1.05c-2.29-0.04-4.59,0.24-6.76,0.38
	c-2.75,8.03-3.03,69.91-0.34,79.9c1.4,0.18,3,0.56,4.59,0.56c1.95,0,3.9-0.31,6.8-0.57c0.33-7.23,0.65-14.29,0.96-21.34
	c0.69-0.28,1.38-0.55,2.07-0.83c4.59,4.47,9.19,8.93,13.52,13.15c-4.86,5.21-9.12,9.78-13.38,14.35
	c-4.55,4.87-9.27,9.59-13.61,14.64c-3.18,3.7-6.17,6.58-11.76,5.57c-4.27-0.77-7.91,0.96-8.94,5.88l0.3-0.42
	c-2.61,4.15-2,7.66,2.08,10.47L1967.76-1590.71z M1863.25-1595.96c0.03-3.58,0.99-7.42-3.66-9.68c1.26,3.17,2.52,6.34,3.78,9.51
	c0.76,4.78,1.53,9.56,2.33,14.58c-0.33-0.05,0.25,0.1,0.28,0.03c2.25-5.48,4.46-10.97,6.61-16.54c1.03-2.61,2.06-5.22,3.56-9.02
	c-6.44,2.52-3.52,6.28-3.35,9.29C1869.76-1596.36,1867.28-1592.05,1863.25-1595.96z M2447.36-2409.36c-2.9,1.86-5.8,3.73-8.42,5.41
	c0,3.83,0,7.36,0,12.52c3.28-7.16,5.78-12.6,8.17-18.15c0.71-2.63,1.42-5.25,2.12-7.88
	C2443.81-2415.71,2446.01-2412.45,2447.36-2409.36z M1909.44-1605.08c-1.52-0.42-3.04-0.85-4.55-1.27c0,6.5,0,12.42,0,20.67
	c1.73-2.91,2.76-3.91,2.9-5.01c0.61-4.84,0.96-9.71,1.44-14.54c8,1.34,8.91,2.3,9.03,9.63c0.04,2.47,0.01,4.94,0.01,7.41
	c0.57-0.03,1.14-0.06,1.71-0.09c0-4.99,0-9.99,0-15.21C1916.83-1606.31,1913.46-1607.61,1909.44-1605.08z M2423.38-2400.4
	c5.33-2.08,6.66-6.05,4.89-11.13c-1.91-5.5-5.78-6.9-16.03-6.01c-0.3-1.16-0.52-2.42-0.97-3.59c-0.38-0.99-1.03-1.88-2.44-4.36
	c0.41,5.84,0.89,9.71,0.91,13.57c0.02,4.11-0.4,8.23-0.67,12.9c5.18-0.6,9.9-1.14,14.62-1.69L2423.38-2400.4z M1965.72-1649.46
	c-3.13,1.86-5.54,3.65-8.22,4.82c-7.11,3.12-15.3,1.09-19.82-4.65c-4.58-5.8-4.5-14.48,0.18-20.34c4.56-5.7,12.61-7.54,19.86-4.39
	c2.37,1.03,4.59,2.4,7.03,3.7c2.07-1.69,3.91-3.06,5.59-4.62c0.93-0.86,1.58-2.01,2.32-2.97c-11.43-13.2-31.07-14.12-43.45-2.27
	c-11.9,11.39-11.81,30.73,0.19,41.83c12.69,11.74,34.11,10.04,45.45-4.27C1971.77-1644.91,1968.69-1647.23,1965.72-1649.46z
	 M1958.35-1605.82c-2.77-0.24-5.69-0.59-8.62-0.72c-7.02-0.31-11.29,3.37-11.11,9.47c0.18,6.29,5.31,10.02,12.46,9.05
	c2.48-0.34,4.95-0.67,7.27-0.99C1958.35-1594.55,1958.35-1599.76,1958.35-1605.82z M1326.83-2408.35c-0.78-6.04-3.68-9.17-8.87-9.66
	c-4.42-0.42-7.63,1.91-9.3,5.99c-1.68,4.11-0.11,9.26,3.28,11.52c3.56,2.37,6.89,1.91,11.62-1.63c-8.47,2.52-8.47,2.52-12.54-4.55
	C1316.35-2407.24,1321.35-2407.77,1326.83-2408.35z M1895.1-1612.28c-0.84,0-1.69-0.01-2.53-0.01c0,4.47,0.02,8.94-0.01,13.41
	c-0.06,9.37-0.07,9.37,2.54,10.43C1895.1-1596.36,1895.1-1604.32,1895.1-1612.28z M1849.11-1588.42c0.46-0.16,0.92-0.32,1.39-0.48
	c0.28-5.01,0.7-10.02,0.77-15.04c0.03-2.05-0.71-4.11-1.09-6.16c-0.75,0.17-1.5,0.33-2.25,0.5
	C1848.32-1602.54,1848.71-1595.48,1849.11-1588.42z M1839.7-1609.54c-0.82-0.07-1.63-0.14-2.45-0.21
	c-2.14,6.96,1.27,13.58,2.45,20.33C1839.7-1596.12,1839.7-1602.83,1839.7-1609.54z M1934.17-1586.62
	c-0.87-6.36-1.47-10.7-2.06-15.04C1930.47-1590.21,1930.47-1590.21,1934.17-1586.62z M1337.72-2407.15
	c0.91-0.65,1.35-0.82,1.37-1.01c0.02-0.27-0.22-0.66-0.46-0.83c-2.06-1.45-4.14-2.85-6.22-4.27c-0.32,0.47-0.64,0.95-0.95,1.43
	C1333.6-2410.23,1335.76-2408.62,1337.72-2407.15z M2435.26-2412.39c1.05-4.91,1.05-4.91-3.65-4.62
	C2432.78-2415.53,2433.69-2414.38,2435.26-2412.39z M1332.21-2401.59c-0.1,0.51-0.2,1.02-0.3,1.53c2.07,0.3,4.14,0.59,6.21,0.89
	c0.05-0.26,0.1-0.53,0.15-0.79C1336.25-2400.51,1334.23-2401.05,1332.21-2401.59z M1288.59-2393.64c-0.02,0.62-0.03,1.23-0.05,1.85
	c1.43,0.1,2.86,0.21,4.29,0.31c0.04-0.28,0.08-0.57,0.12-0.85C1291.5-2392.76,1290.04-2393.2,1288.59-2393.64z"/>
<g>
	<path class="st0" d="M123.04,60.68c-45.19-15.53-85.77,29.23-100.7,53.46s-6.12,58.95,17.23,92.3s-6.13,65.79-6.13,65.79
		S0.91,304.2,20.44,344.41c19.52,40.21,91.49,61.69,111.78,50.72s36.37-16.9,80.4-5.94c44.03,10.96,111.41-0.92,116.39-29.26
		c4.98-28.33,28.34-68.06,51.69-65.78s57.42-0.46,66.61-21.02s31.01-90.48-19.14-153.52s-89.18-58.49-140.11-35.18
		s-92.8,7.31-92.8,7.31C162.19,75.29,145.98,68.55,123.04,60.68z"/>
	<g>
		<g>
			<path class="st1" d="M276.06,281.38c0,0-17.41-5.86-17.61,4.38c-0.19,10.22-4.37,11.16-8.71,11.93
				c-4.37,0.76-12.68-1.15-12.29,9.65c0.39,10.8,4.72,16.18,1.34,20.77c-3.41,4.6-11,27.69-1.34,28.24
				c9.67,0.57,17.62-10.8,19.71-16.47c2.08-5.68,9.65-8.32,15.9-8.9c6.25-0.57,13.07-6.02,8.32-12.95
				c-4.72-6.94-3.29-16.01,1.58-19.42C287.79,295.22,287.79,285.53,276.06,281.38z"/>
			<line class="st1" x1="270.95" y1="292.95" x2="236.87" y2="364.86"/>
			<polyline class="st1" points="248.03,305.82 257.09,322.17 275.12,320.16 			"/>
		</g>
		<g>
			<path class="st2" d="M255.92,356.2c0,0,19.45-32.02,40.41-47.38"/>
			<path class="st2" d="M310.83,301.27c0,0-4.64,10.56-16.64,9.18C294.2,310.43,296.71,300.64,310.83,301.27z"/>
			<path class="st2" d="M278.69,325.46c0,0,8.3-6.66,18.84,0.51C297.54,325.98,292.03,334.1,278.69,325.46z"/>
			<path class="st2" d="M263.31,345.19c0,0,6.83-8.16,18.57-3.18C281.9,342,278.08,351.03,263.31,345.19z"/>
			<path class="st2" d="M262.89,345.02c0,0,6.29-8.57-1.35-18.81C261.55,326.22,253.69,332.09,262.89,345.02z"/>
			<path class="st2" d="M278.84,325.46c0,0,7.33-7.71,1.07-18.82C279.91,306.63,271.35,311.44,278.84,325.46z"/>
		</g>
	</g>
	<g>
		<g>
			<path class="st2" d="M164.61,298.62c4.87,3.42,6.31,12.49,1.58,19.42c-4.76,6.94,2.07,12.39,8.32,12.95
				c6.25,0.58,13.83,3.22,15.9,8.9c2.07,5.68,10.04,17.03,19.71,16.47c9.67-0.57,2.07-23.65-1.34-28.24
				c-3.41-4.6,0.95-9.98,1.34-20.77c0.39-10.8-7.93-8.9-12.29-9.65c-4.35-0.77-8.51-1.71-8.71-11.93
				c-0.19-10.23-17.61-4.38-17.61-4.38C159.8,285.53,159.8,295.22,164.61,298.62z"/>
			<line class="st2" x1="210.7" y1="364.86" x2="176.63" y2="292.95"/>
			<polyline class="st2" points="172.45,320.16 190.48,322.17 199.54,305.82 			"/>
		</g>
		<g>
			<path class="st3" d="M151.24,308.79c20.97,15.37,40.41,47.38,40.41,47.38"/>
			<path class="st4" d="M153.38,310.44c-12,1.37-16.64-9.18-16.64-9.18C150.86,300.64,153.37,310.43,153.38,310.44z"/>
			<path class="st4" d="M150.03,325.98c10.56-7.19,18.84-0.51,18.84-0.51C155.55,334.1,150.03,325.98,150.03,325.98z"/>
			<path class="st4" d="M165.69,342c11.75-4.98,18.57,3.18,18.57,3.18C169.49,351.03,165.68,342,165.69,342z"/>
			<path class="st4" d="M186.02,326.22c-7.64,10.23-1.35,18.81-1.35,18.81C193.9,332.09,186.02,326.22,186.02,326.22z"/>
			<path class="st4" d="M167.66,306.65c-6.27,11.11,1.07,18.82,1.07,18.82C176.22,311.44,167.66,306.63,167.66,306.65z"/>
		</g>
	</g>
	<circle class="st5" cx="298.56" cy="305.32" r="72.49"/>
	<circle class="st5" cx="144.18" cy="288.24" r="72.49"/>
	<circle class="st5" cx="234.77" cy="178.86" r="94.54"/>
	<g>
		<path class="st6" d="M283.47,212.08h39.12c3.54,0,6.41,2.87,6.41,6.41v10.84c0,3.54-2.87,6.41-6.41,6.41h-45.53v-17.25
			C277.06,214.94,279.93,212.08,283.47,212.08z"/>
		<g>
			<g>
				<g>
					<circle id="SVGID_1_" class="st7" cx="288.17" cy="224.34" r="6.87"/>
				</g>
			</g>
			<g>
				<g>
					<g>
						<g>
							<defs>
								<circle id="SVGID_2_" cx="288.17" cy="224.34" r="6.87"/>
							</defs>
							<clipPath id="SVGID_3_">
								<use xlink:href="#SVGID_2_"  style="overflow:visible;"/>
							</clipPath>
							<g class="st8">
								<path class="st9" d="M286.3,221.9L286.3,221.9c0.11-0.07,0.23-0.11,0.36-0.18l0,0c0.03-0.01,0.08-0.02,0.11-0.03
									c0,0,0,0,0.01,0c0.03-0.01,0.07-0.02,0.1-0.03c0.01,0,0.01,0,0.02-0.01c0.03-0.01,0.08-0.02,0.11-0.02c0,0,0,0,0.01,0
									c0.03-0.01,0.08-0.01,0.11-0.02c0.01,0,0.02,0,0.06-0.01c0.02,0,0.06-0.01,0.08-0.01c0.01,0,0.03,0,0.06-0.01
									c0.03,0,0.08-0.01,0.11-0.01c0.02,0,0.06,0,0.08,0c0.02,0,0.03,0,0.07,0c0.02,0,0.07,0,0.09,0c0.01,0,0.02,0,0.02,0
									c0.03,0,0.07,0,0.1,0c0.09,0,0.18,0,0.26,0.01l0,0c1.69,0.1,2.03,1.2,2.04,2.33c0.18,0.03,0.39,0.13,0.41,0.37
									c0.06,0.6-0.09,0.47-0.47,1.19c-0.07,0.13-0.16,0.17-0.24,0.16c-0.19,0.42-0.53,0.72-1.24,1.2l0.13,1.57
									c0.48-0.16,0.6-0.1,0.75-0.03c0.92,0.41,2.05,0.41,1.55,0.51c-0.67,0.13,0.08,0.37,0.62-0.08c1.02-0.87,0.14-2.2,0.14-2.2
									c-0.08,0.99-1.29,1.04-1.2,0.1c0.09-0.94,1.93-2.8,1.2-5.16c-0.72-2.36-4.57-2.63-5.49-1.4
									C285.32,221.37,286.3,221.9,286.3,221.9z"/>
								<path class="st10" d="M293.92,232.51c0,0,0.72,4,0.77,5.04c0.06,1.06,0.17,1.86-0.52,2.27c-0.69,0.41-1.84,0.81-1.84,0.81
									l-1.41-7.13v-0.84L293.92,232.51z"/>
								<path class="st10" d="M281.69,232.3c0,0-0.39,1.79-0.5,2.72c-0.11,0.92-0.36,2.69-0.39,3.11c-0.02,0.41-0.08,1.1,0.67,1.63
									c0.75,0.52,1.55,0.84,1.55,0.84l1.53-8.3L281.69,232.3L281.69,232.3z"/>
								<path class="st11" d="M287.16,226.55c0,0,0,0.84-0.36,1.18c-0.36,0.35-0.84,0.95-0.84,0.95s0.84,1.31,2.49,1.12
									c1.66-0.18,1.96-1.36,1.96-1.36s-1.57-0.2-1.75-1.69c-0.18-1.49-0.41-1.49-0.41-1.49L287.16,226.55z"/>
								<path class="st12" d="M286.16,228.08c0,0-1.15-0.14-1.75,0.02c-0.61,0.17-0.81,0.06-0.65,0.52c0.17,0.48,1,2.63,0.61,4
									c-0.39,1.36-0.91,8.32-0.91,8.32s4.21,0.17,5.86,0.24c1.63,0.08,2.85-0.22,2.85-0.22s0.36-3,0-4.3
									c-0.36-1.31-0.84-3.52-0.84-3.52s-0.31-3.05,0.11-3.8s0.72-0.77,0.19-0.98c-0.52-0.2-1.1-0.36-1.53-0.36s-0.65,0-0.89,0.24
									c-0.24,0.24-0.75,0.75-1.44,0.65c-0.69-0.1-1.22-0.58-1.22-0.58S286.37,228.12,286.16,228.08z"/>
								<path class="st13" d="M284.15,228.33c0,0-0.39-0.19-0.98,0.31c-0.62,0.53-1.08,1.69-1.31,2.42
									c-0.23,0.72-0.36,1.44-0.36,1.44s0.81,0.41,1.63,0.45c0.84,0.02,1.39,0.08,1.39,0.08s0.36-2.16,0.28-3.13
									C284.73,228.91,284.6,228.57,284.15,228.33z"/>
								<path class="st13" d="M291.15,229.13c0,0,0.33-0.91,1.08-0.5c0.75,0.41,1.31,2,1.46,2.49c0.17,0.5,0.39,1.5,0.39,1.5
									s-0.89,0.39-1.63,0.45c-0.75,0.07-1.27,0.11-1.27,0.11s-0.31-1.96-0.24-2.75C290.98,229.65,291.15,229.13,291.15,229.13z"/>
								<path class="st11" d="M285.8,223.95l0.1,0.01l0.19,1.46c0,0-0.39,0.37-0.56,0.01c-0.36-0.73-0.5-0.59-0.45-1.19
									c0.03-0.41,0.62-0.4,0.62-0.4L285.8,223.95z"/>
								<path class="st11" d="M289.83,223.94l-0.1,0.01l-0.2,1.46c0,0,0.39,0.37,0.56,0.01c0.36-0.75,0.5-0.59,0.47-1.19
									c-0.02-0.41-0.62-0.39-0.62-0.39L289.83,223.94z"/>
								<path class="st14" d="M287.83,221.53c-2.29,0-2.36,1.67-2.28,3.03c0.09,1.35,1.15,2.58,2.28,2.58
									c1.02,0,2.19-1.24,2.28-2.58C290.19,223.2,290.12,221.53,287.83,221.53z"/>
								<path class="st15" d="M286.2,221.61c0,0-0.31-0.94,1.4-1.04c1.69-0.1,2.41,0.69,2.19,1.2L286.2,221.61z"/>
								<path class="st9" d="M288.92,222.87c0,0-1.61,1.69-3.5,1.94c0,0-0.78-2.83,1.11-3.7c1.9-0.87,3.07,0.43,3.07,0.43
									s1.58,0.36,0.73,3.05C290.34,224.6,288.92,223.65,288.92,222.87z"/>
							</g>
						</g>
					</g>
				</g>
			</g>
		</g>
		<path class="st7" d="M322.23,220.42h-22.74c-0.81,0-1.48-0.66-1.48-1.48l0,0c0-0.81,0.66-1.48,1.48-1.48h22.74
			c0.81,0,1.48,0.66,1.48,1.48l0,0C323.69,219.75,323.03,220.42,322.23,220.42z"/>
		<path class="st7" d="M322.23,225.22h-22.74c-0.81,0-1.48-0.66-1.48-1.48l0,0c0-0.81,0.66-1.48,1.48-1.48h22.74
			c0.81,0,1.48,0.66,1.48,1.48l0,0C323.69,224.57,323.03,225.22,322.23,225.22z"/>
		<path class="st7" d="M322.23,230.02h-22.74c-0.81,0-1.48-0.66-1.48-1.48l0,0c0-0.81,0.66-1.48,1.48-1.48h22.74
			c0.81,0,1.48,0.66,1.48,1.48l0,0C323.69,229.37,323.03,230.02,322.23,230.02z"/>
	</g>
	<path class="st16" d="M132.78,225.04"/>
	<path class="st17" d="M284.11,141.75"/>
	<g>
		<circle class="st18" cx="310.49" cy="117.88" r="9"/>
		<polyline class="st19" points="307.34,116.09 310.93,121.48 313.63,116.99 		"/>
	</g>
	<g>
		<circle class="st4" cx="141.36" cy="156.49" r="9"/>
		<polygon class="st20" points="139.11,152.89 144.97,156.94 139.11,160.1 		"/>
	</g>
	
		<rect x="316.87" y="140.5" transform="matrix(0.7071 -0.7071 0.7071 0.7071 -6.6708 265.5332)" class="st18" width="0.65" height="0.65"/>
	<g>
		<ellipse class="st21" cx="393.81" cy="349.35" rx="60.86" ry="7.06"/>
		<polygon class="st10" points="408.71,271.16 392.63,281.4 410.95,274.36 		"/>
		<path class="st22" d="M416.2,295.92c0,0,17.95,1.06,10.14,2.1c-7.82,1.06-18.57,1.06-22.37,0.62
			C400.15,298.25,413.24,296.13,416.2,295.92z"/>
		<path class="st23" d="M412.81,276.95l-5.02-1.75l-33.08,12.16c0,0-4.22,2.33-4.54,7.17s-1.9,48.04-1.9,48.04h6.22l4.22-34.74
			l1.69-13.1l7.59-4.33l19.42-9.92L412.81,276.95z"/>
		<path class="st18" d="M426.2,277.68c1.09,3.88,2.78,15.21-2.74,17.86c-0.23,0.11-0.48,0.19-0.73,0.23l-30.33,4.77
			c-0.14,0.02-0.28,0.03-0.41,0.03c-0.52,0-2.15,0.17-1.43,2.22c0.72,2.07,9.67,26.66,12.27,33.84c0.42,1.15,2.03,4.44,1.01,5.11
			l-2.97,2.92c-1.28,0.85-3.54-3.52-4.3-4.86l-19.86-35.59c-0.07-0.11-0.11-0.23-0.17-0.36c-0.47-1.24-2.48-7.64,4-10.87
			c6.47-3.24,25.98-13.25,29.77-15.19c0.42-0.22,2.17-1.25,2.63-1.22l10.76,1.63C424.8,278.25,425.89,276.6,426.2,277.68z"/>
		<path class="st7" d="M356.66,273.88c0-0.02,0-0.03-0.01-0.07c-0.03-0.26-0.32-2.08,0.95-2.08h6.64c0.24,0,0.43-0.19,0.43-0.43
			v-4.68c0-0.27-0.22-0.49-0.49-0.5l-12.78-0.1c-0.02,0-0.06,0-0.08-0.01c-0.26-0.03-1.48-0.36-1.95-2.62c0-0.01,0-0.02-0.01-0.03
			l-2.59-17.87c-0.06-0.39-0.03-0.77,0.08-1.12c0.23-0.73,0.91-1.67,2.84-1.67c2.83,0,23.43-0.09,27.87-0.1
			c0.99,0,1.92,0.51,2.38,1.39c0.32,0.59,0.61,1.43,0.78,2.63c0.48,3.45,2.09,14.59,2.38,16.58c0.03,0.24,0.02,0.49-0.02,0.73
			c-0.17,0.77-0.75,2.35-2.57,2.43c-2.1,0.09-10.43-0.22-12.58-0.3c-0.28-0.01-0.51,0.2-0.51,0.49l-0.03,4.9
			c0,0.27,0.22,0.5,0.49,0.5l7.12,0.06c0.03,0,0.07,0,0.1,0.01c0.19,0.06,0.79,0.3,0.79,1.04c-0.01,1.4-0.06,1.1-0.06,1.1
			l-18.67,0.16C356.9,274.31,356.69,274.13,356.66,273.88L356.66,273.88z"/>
		<path class="st24" d="M423.23,232.93c0,0,4.99-2.18,7.17,4.51c0,0,1.48,4.57,2.53,5.91c1.06,1.34,3.88,2.25,3.88,2.25
			s2.61,1.34,2.46,5.21c-0.14,3.88-0.49,7.39-1.9,9.78c-1.06,1.79-0.49,3-0.14,3.47c0.17,0.24,0.24,0.53,0.22,0.82
			c-0.07,0.76-0.47,1.98-2.41,2.03c-2.81,0.07-6.46,1.24-5.89-1.51c0.57-2.75,1.6-16.37,1.6-16.37l-2.1-5.36l-3.24-2.1l-1.55-1.06
			c0,0-3.71-4.79-3.71-5.89S423.23,232.93,423.23,232.93"/>
		<path id="face_1_" class="st10" d="M419.85,233.07l-4.02-2.04l-0.14-6.33l-1.84-2.25l-3.37,0.99l-4.51-0.14h-3.52
			c0,0,0.42,9.72,3.94,13.52c0,0,4.14,0.85,5.7-0.2c0,0,1.84-1.61,1.84,1.19c0,2.81,0.28,6.12,0.28,6.12s1.27,2.25,6.06,0.14
			c0,0,2.61-1.41,3.6-3.52"/>
		<path class="st24" d="M405,215.79c0,0,9.4-7.82,15.2,0s4.75,13.62,3.17,15.3c0,0-5.04,5.4-8.92-0.37c0,0-0.76-0.96-0.27-2.94
			c0,0,1.48-4.33-2.22-3.31c-3.7,1.02-6.87,0.99-8.23-0.52c-1.36-1.51-1.94,0.14-1.86,0.62c0.08,0.49-0.57,3.66-2.43,0.77
			c-1.86-2.88,0.49-8.03,2.57-9.4C402.01,215.96,403.81,214.98,405,215.79z"/>
		<path class="st25" d="M422.93,231.18c0,0,0.49,1.58,0.39,1.9c0,0-2.15,1.58-2.71,1.66c0,0-0.81-1.29-0.67-1.84
			C419.93,232.9,422.68,231.24,422.93,231.18z"/>
		<path class="st4" d="M423.74,240.51c0.07-0.06,0.16,0,0.24,0c0.87-0.1,6.69-0.43,7.37,7.37c0.65,7.36-3.69,26.71-4.82,31.18
			l-20.56-3.15c0.39-1.88,0.94-6.21,0.94-7.06c0,0,0.91-8.32,1.08-10.73c0.02-0.37-0.1-0.72-0.35-0.99c-0.92-1-3.1-3.86-1.1-6.96
			c0,0,4.33-7.17,7.39-8.71C413.93,241.43,417.13,246.98,423.74,240.51z"/>
		<path class="st10" d="M420.38,258.78L420.38,258.78c0.24-0.9,1.24-1.37,2.08-0.99l3.3,1.49c0.42,0.19,0.75,0.58,0.85,1.04
			l0.14,0.6c0.08,0.33,0.03,0.68-0.11,1l-3.5,7.23c-0.1,0.2-0.18,0.43-0.23,0.67c-0.18,0.72-0.94,2.46-4.18,1.61l-20.39-5.14
			c-0.06-0.01-4.4-1.6-4.47-1.61c-0.45-0.18-0.86,0-0.98,1.41c-0.06,0.6-1.58-1.18-1.22-2.44c0,0,1.08-2.45,6.78-1.08l15.66,3.16
			c0.03,0.01,0.08,0.02,0.13,0.02c0.41,0.11,2.96,0.76,3.63-1.28l2.42-5.46C420.33,258.93,420.36,258.86,420.38,258.78z"/>
		<path class="st26" d="M429.7,243.19c0.4,0.28,0.61,0.75,0.73,1.19c0.27,1.04,0.32,2.32,0.09,3.36c-0.41,1.9-2.58,11.66-3.66,13.69
			c0,0-3.46-2.48-6.49-2.62c0,0,1.66-6.79,3.33-11.39C423.7,247.44,426.23,240.67,429.7,243.19z"/>
		<path class="st24" d="M374.5,342.59l0.2,5.32c0,0,0.16,0.81-3.12,0.81s-11.76-0.01-11.76-0.01s-2-0.85,0.32-1.58
			c0,0,5.18-1.58,8.13-4.54H374.5L374.5,342.59z"/>
		<path class="st25" d="M397.35,271.11l-8.13,0.06v-3.6c0,0-0.37-1,1.22-1.1c1.58-0.1,5.8,0.1,5.8,0.1s1.16,0.1,1.16,1.48
			C397.4,269.41,397.35,271.11,397.35,271.11z"/>
		<path class="st27" d="M396.74,270.87c0,0,3.03-0.27,3.26,1.25c0.26,1.71-0.58,2.15-2.05,2.19s-10.31-0.13-10.31-0.13
			s-1.7-0.24-1.63-1.48c0.08-1.27,0.42-1.75,2.05-1.75C389.69,270.96,396.74,270.87,396.74,270.87z"/>
		<path class="st22" d="M376.42,274.03l22.69,0.14c0.09,0,0.17,0.01,0.26,0.01c0.61,0.01,2.25,0.36,2.25,1.67
			c0,1.55-1.12,1.98-3.1,1.98h-52.25c-0.61,0-1.2-0.23-1.67-0.66c-0.59-0.52-1.26-2.15,0.03-2.96c0.36-0.23,0.79-0.32,1.24-0.32
			L376.42,274.03z"/>
		<path class="st22" d="M362.35,277.69l-14.92,13.1c0,0-2.67,2.38-2.81,7.88c-0.14,5.49-0.99,50.4-0.99,50.4s-0.28,2.53,4.64,2.53
			h32.09c0,0,1.27,0,1.41-1.55c0.14-1.55-1.12-1.41-2.1-1.41l-32.81,0.14l0.28-49.41c0,0-0.85-4.22,5.21-9.15l13.53-12.52h-3.54
			V277.69z"/>
		<path class="st22" d="M414.66,298.83l0.06,46.29c0,0,7.17,0.2,8.45,1.9c1.27,1.69-0.2,2.75-7.59,2.53
			c-7.39-0.22-11.83-0.2-11.83-0.2s-3.6-0.42,0.62-2.53s7.59-1.48,7.59-1.48l0.42-46.46L414.66,298.83z"/>
		<path class="st28" d="M403.53,338.57c0,0,4.12,3.9,1.69,5.7l-10.77,8.55c0,0-1.58,0.42-1.27-1.37l4.76-9.18L403.53,338.57z"/>
	</g>
	<g>
		<ellipse class="st21" cx="88.44" cy="394.21" rx="18.27" ry="4.39"/>
		<g>
			<path class="st29" d="M61.4,342.16c0,0,3.54-1.44,3.29-5.52c-0.26-4.06-2.36-6.96,1.96-5.78c4.33,1.18,5.79,1.7,8.93,1.06
				c3.14-0.66,5.77-1.96,4.39,2.1c-1.37,4.06-2.86,7.48,0.37,8.14c3.24,0.66,6.71-1.79,7.14,4.59c0.42,6.38-4.72,13.54-13.04,13.8
				s-11.99-3.18-11.99-3.18s-2.24-3.14,1.25-3.92c3.47-0.77,7.03-2.25,5.26-3.88c-1.77-1.63-7.55-1.76-7.55-1.76
				S54.18,346.36,61.4,342.16z"/>
			<path class="st22" d="M99.42,343.19c-0.59-4.05-0.14-6.98,7.42-8.08c7.55-1.1,11.95,3.43,12.41,8.08
				c0.47,4.65-6.11,6.36-6.11,6.36s-4.65,1.33-2.29,5.39c2.36,4.06,3.44,8.01-1.93,8.6c-5.37,0.59-11.24-0.82-14.5-3.01
				c-3.26-2.18-6.61-7.69-2.87-10.58c0,0,1.06-0.72,4.65-0.92C99.8,348.84,99.42,343.19,99.42,343.19z"/>
			<path class="st30" d="M72.84,342.54c0,0,6.27,14.19,7.13,23.83"/>
			<path class="st31" d="M107.71,344.86c0,0-11.09,16.47-13.72,21.99"/>
			<g>
				<path class="st32" d="M76.1,365.26h25.47c0,0,2.78,0.19,2.55,4.01c-0.2,3.51-4.65,2.75-6.96,2.75c-2.29,0-21.61,0-21.61,0
					s-3.13,0.53-3.13-3.02C72.43,365.45,73.61,365.26,76.1,365.26z"/>
				<polygon class="st32" points="75.56,372.01 79.42,394.51 96.51,394.51 99.42,377.63 75.59,372.01 				"/>
				<polygon class="st33" points="75.59,372.01 99.42,377.63 100.38,372.01 				"/>
			</g>
			<g>
				<path class="st4" d="M86.54,366.11c0,0,1.29-24.97,8.73-40.63"/>
				<path class="st4" d="M101.39,316.46c0,0,0.61,7.66-6.87,10.66C94.52,327.12,92.91,320.58,101.39,316.46z"/>
				<path class="st4" d="M90.18,340.85c0,0,2.76-6.54,11.24-5.66C101.4,335.2,100.76,341.7,90.18,340.85z"/>
				<path class="st4" d="M87.39,357.3c0,0,1.43-6.96,9.91-7.75C97.3,349.55,97.93,356.07,87.39,357.3z"/>
				<path class="st4" d="M87.09,357.34c0,0,0.99-7.03-6.74-10.61C80.36,346.72,77.58,352.66,87.09,357.34z"/>
				<path class="st4" d="M90.27,340.81c0,0,1.87-6.84-5.35-11.4C84.93,329.41,81.44,334.94,90.27,340.81z"/>
			</g>
		</g>
	</g>
	<g>
		<path class="st18" d="M102.81,120.87c-0.09-0.08-0.22-0.11-0.33-0.1l-2.17,0.27c-0.28,0.03-0.53-0.16-0.6-0.43
			c-0.23-0.99-0.62-1.93-1.16-2.8c-0.16-0.24-0.09-0.57,0.13-0.73l1.57-1.22c0.09-0.08,0.16-0.19,0.17-0.31
			c0.01-0.12-0.03-0.24-0.13-0.32l-2.41-2.41c-0.09-0.09-0.2-0.13-0.32-0.13c-0.11,0.01-0.23,0.07-0.31,0.17l-1.22,1.57
			c-0.17,0.22-0.49,0.27-0.73,0.13c-0.86-0.52-1.82-0.91-2.8-1.16c-0.28-0.07-0.47-0.33-0.43-0.6l0.27-2.17
			c0.01-0.11-0.02-0.24-0.1-0.33s-0.19-0.14-0.32-0.14h-3.39c-0.11,0-0.24,0.06-0.32,0.14c-0.08,0.09-0.11,0.22-0.1,0.33l0.27,2.17
			c0.03,0.28-0.16,0.53-0.43,0.6c-0.99,0.23-1.93,0.62-2.8,1.16c-0.24,0.16-0.57,0.1-0.73-0.13l-1.22-1.57
			c-0.08-0.09-0.19-0.16-0.31-0.17c-0.13-0.01-0.24,0.03-0.32,0.13l-2.41,2.41c-0.09,0.09-0.13,0.2-0.13,0.32
			c0.01,0.11,0.07,0.23,0.17,0.31l1.57,1.22c0.22,0.17,0.27,0.49,0.13,0.73c-0.52,0.86-0.91,1.82-1.16,2.8
			c-0.07,0.28-0.33,0.47-0.6,0.43l-2.17-0.27c-0.11-0.01-0.24,0.02-0.33,0.1s-0.14,0.19-0.14,0.32v3.39c0,0.11,0.06,0.24,0.14,0.32
			c0.09,0.08,0.22,0.11,0.33,0.1l2.17-0.27c0.28-0.03,0.53,0.16,0.6,0.43c0.23,0.99,0.62,1.93,1.16,2.8
			c0.16,0.24,0.1,0.57-0.13,0.73l-1.57,1.22c-0.09,0.08-0.16,0.19-0.17,0.31c-0.01,0.11,0.03,0.24,0.13,0.32l2.41,2.41
			c0.09,0.09,0.2,0.13,0.32,0.13c0.11-0.01,0.23-0.07,0.31-0.17l1.22-1.57c0.17-0.22,0.49-0.27,0.73-0.13
			c0.86,0.52,1.82,0.91,2.8,1.16c0.28,0.07,0.47,0.33,0.43,0.6l-0.27,2.17c-0.01,0.11,0.02,0.24,0.1,0.33
			c0.08,0.09,0.19,0.14,0.32,0.14h3.39c0.11,0,0.24-0.06,0.32-0.14c0.08-0.09,0.11-0.22,0.1-0.33l-0.27-2.17
			c-0.03-0.28,0.16-0.53,0.43-0.6c0.99-0.23,1.93-0.62,2.8-1.16c0.24-0.16,0.57-0.09,0.73,0.13l1.22,1.57
			c0.08,0.09,0.19,0.16,0.31,0.17c0.11,0.01,0.24-0.03,0.32-0.13l2.41-2.41c0.09-0.09,0.13-0.2,0.13-0.32
			c-0.01-0.11-0.07-0.23-0.17-0.31l-1.57-1.22c-0.22-0.17-0.27-0.49-0.13-0.73c0.52-0.86,0.91-1.82,1.16-2.8
			c0.07-0.28,0.33-0.47,0.6-0.43l2.17,0.27c0.11,0.01,0.24-0.02,0.33-0.1s0.14-0.19,0.14-0.32v-3.39
			C102.95,121.06,102.9,120.94,102.81,120.87L102.81,120.87z M102.1,124.08l-1.69-0.2c-0.7-0.09-1.37,0.37-1.54,1.08
			c-0.22,0.9-0.57,1.76-1.06,2.55c-0.37,0.61-0.23,1.4,0.33,1.84l1.19,0.92l-1.71,1.71l-0.92-1.19c-0.43-0.57-1.24-0.7-1.84-0.33
			c-0.79,0.49-1.65,0.84-2.55,1.06c-0.7,0.17-1.17,0.84-1.08,1.54l0.2,1.69h-2.43l0.2-1.69c0.09-0.7-0.37-1.37-1.08-1.54
			c-0.9-0.22-1.76-0.57-2.55-1.06c-0.61-0.37-1.4-0.23-1.84,0.33l-0.92,1.19l-1.71-1.71l1.19-0.92c0.57-0.43,0.7-1.24,0.33-1.84
			c-0.49-0.79-0.84-1.65-1.06-2.55c-0.17-0.7-0.84-1.17-1.54-1.08l-1.69,0.2v-2.43l1.69,0.2c0.7,0.09,1.37-0.37,1.54-1.08
			c0.22-0.9,0.57-1.76,1.06-2.55c0.37-0.61,0.23-1.4-0.33-1.84l-1.19-0.92l1.71-1.71l0.92,1.19c0.43,0.57,1.24,0.7,1.84,0.33
			c0.79-0.49,1.65-0.84,2.55-1.06c0.7-0.17,1.17-0.84,1.08-1.54l-0.2-1.69h2.43l-0.2,1.69c-0.09,0.7,0.37,1.37,1.08,1.54
			c0.9,0.22,1.76,0.57,2.55,1.06c0.61,0.37,1.4,0.23,1.85-0.33l0.92-1.19l1.71,1.71l-1.19,0.92c-0.57,0.43-0.7,1.24-0.33,1.84
			c0.49,0.79,0.84,1.65,1.06,2.55c0.17,0.7,0.84,1.17,1.54,1.08l1.69-0.2v2.43C102.12,124.08,102.1,124.08,102.1,124.08z"/>
		<path class="st18" d="M90.21,116.94c-3.27,0-5.95,2.67-5.95,5.95c0,3.27,2.67,5.95,5.95,5.95s5.95-2.67,5.95-5.95
			C96.16,119.6,93.49,116.94,90.21,116.94L90.21,116.94z M90.21,127.96c-2.81,0-5.1-2.28-5.1-5.1c0-2.81,2.28-5.1,5.1-5.1
			c2.81,0,5.1,2.28,5.1,5.1C95.31,125.68,93.03,127.96,90.21,127.96L90.21,127.96z"/>
	</g>
	<g>
		<path class="st34" d="M249.84,202.46c-0.08-0.07-0.18-0.1-0.28-0.09l-1.86,0.23c-0.24,0.02-0.47-0.13-0.52-0.37
			c-0.2-0.85-0.53-1.66-0.99-2.41c-0.13-0.2-0.08-0.48,0.1-0.62l1.35-1.06c0.08-0.07,0.13-0.17,0.14-0.27
			c0.01-0.1-0.03-0.2-0.1-0.28l-2.07-2.07c-0.08-0.08-0.18-0.11-0.28-0.1c-0.1,0-0.2,0.06-0.27,0.14l-1.06,1.35
			c-0.14,0.19-0.42,0.23-0.62,0.1c-0.75-0.45-1.55-0.78-2.41-0.99c-0.24-0.07-0.4-0.28-0.37-0.52l0.23-1.86
			c0.01-0.1-0.02-0.2-0.09-0.28c-0.07-0.08-0.17-0.13-0.27-0.13h-2.92c-0.1,0-0.2,0.03-0.27,0.13c-0.07,0.08-0.1,0.18-0.09,0.28
			l0.23,1.86c0.02,0.24-0.13,0.47-0.37,0.52c-0.85,0.2-1.66,0.53-2.41,0.99c-0.2,0.13-0.48,0.08-0.62-0.1l-1.06-1.35
			c-0.07-0.08-0.17-0.13-0.27-0.14c-0.1-0.01-0.2,0.03-0.28,0.1l-2.07,2.07c-0.08,0.08-0.11,0.18-0.1,0.28
			c0.01,0.1,0.06,0.2,0.14,0.27l1.35,1.06c0.19,0.14,0.23,0.42,0.1,0.62c-0.45,0.75-0.78,1.55-0.99,2.41
			c-0.06,0.24-0.28,0.4-0.52,0.37l-1.86-0.23c-0.1-0.01-0.2,0.01-0.28,0.09c-0.08,0.07-0.13,0.17-0.13,0.27v2.92
			c0,0.1,0.03,0.2,0.13,0.27c0.08,0.07,0.18,0.1,0.28,0.09l1.86-0.23c0.24-0.02,0.47,0.13,0.52,0.37c0.2,0.85,0.53,1.66,0.99,2.41
			c0.13,0.2,0.08,0.48-0.1,0.62l-1.35,1.06c-0.08,0.07-0.13,0.17-0.14,0.27c-0.01,0.1,0.03,0.2,0.1,0.28l2.07,2.07
			c0.08,0.08,0.18,0.11,0.28,0.1c0.1,0,0.2-0.06,0.27-0.14l1.06-1.35c0.14-0.19,0.41-0.23,0.62-0.1c0.75,0.45,1.55,0.78,2.41,0.99
			c0.24,0.07,0.4,0.28,0.37,0.52l-0.23,1.86c-0.01,0.1,0.01,0.2,0.09,0.28c0.07,0.08,0.17,0.13,0.27,0.13h2.92
			c0.1,0,0.2-0.03,0.27-0.13c0.07-0.08,0.1-0.18,0.09-0.28l-0.23-1.86c-0.02-0.24,0.13-0.47,0.37-0.52c0.85-0.2,1.66-0.53,2.41-0.99
			c0.2-0.13,0.48-0.08,0.62,0.1l1.06,1.35c0.07,0.08,0.17,0.13,0.27,0.14c0.1,0.01,0.2-0.03,0.28-0.1l2.07-2.07
			c0.08-0.08,0.11-0.18,0.1-0.28c0-0.1-0.06-0.2-0.14-0.27l-1.35-1.06c-0.19-0.14-0.23-0.42-0.1-0.62c0.45-0.75,0.78-1.55,0.99-2.41
			c0.06-0.24,0.28-0.4,0.52-0.37l1.86,0.23c0.1,0.01,0.2-0.02,0.28-0.09c0.08-0.07,0.13-0.17,0.13-0.27v-2.92
			C249.97,202.63,249.92,202.53,249.84,202.46L249.84,202.46z M249.24,205.24l-1.45-0.18c-0.61-0.08-1.18,0.32-1.33,0.92
			c-0.18,0.77-0.49,1.51-0.9,2.19c-0.32,0.52-0.2,1.2,0.28,1.58l1.02,0.79l-1.48,1.48l-0.79-1.02c-0.37-0.49-1.06-0.6-1.58-0.28
			c-0.68,0.41-1.41,0.72-2.19,0.9c-0.6,0.14-1,0.72-0.92,1.33l0.18,1.45h-2.09l0.18-1.45c0.08-0.6-0.32-1.18-0.92-1.33
			c-0.77-0.18-1.51-0.49-2.19-0.91c-0.52-0.32-1.2-0.2-1.58,0.28l-0.79,1.02l-1.48-1.48l1.02-0.79c0.49-0.37,0.6-1.06,0.28-1.58
			c-0.41-0.68-0.72-1.41-0.9-2.19c-0.14-0.6-0.72-1-1.33-0.92l-1.45,0.18v-2.09l1.45,0.18c0.6,0.08,1.18-0.32,1.33-0.92
			c0.18-0.77,0.49-1.51,0.9-2.19c0.32-0.52,0.2-1.2-0.28-1.58l-1.02-0.79l1.48-1.48l0.79,1.02c0.37,0.49,1.06,0.6,1.58,0.28
			c0.68-0.41,1.41-0.72,2.19-0.9c0.6-0.14,1-0.72,0.92-1.33l-0.18-1.45h2.09l-0.18,1.45c-0.08,0.6,0.32,1.18,0.92,1.33
			c0.77,0.18,1.51,0.49,2.19,0.9c0.52,0.32,1.2,0.2,1.58-0.28l0.79-1.02l1.48,1.48l-1.02,0.79c-0.49,0.37-0.6,1.06-0.28,1.58
			c0.41,0.68,0.72,1.41,0.9,2.19c0.14,0.6,0.72,1,1.33,0.92l1.45-0.18V205.24z"/>
		<path class="st34" d="M239.02,199.08c-2.81,0-5.11,2.29-5.11,5.11c0,2.81,2.29,5.11,5.11,5.11s5.11-2.29,5.11-5.11
			S241.83,199.08,239.02,199.08L239.02,199.08z M239.02,208.57c-2.42,0-4.38-1.96-4.38-4.38s1.96-4.38,4.38-4.38
			s4.38,1.96,4.38,4.38S241.44,208.57,239.02,208.57L239.02,208.57z"/>
	</g>
	<g>
		<g>
			<path class="st18" d="M390.6,169.52h-13.59c-0.22,0-0.4,0.18-0.4,0.4v5.6c0,0.1,0.03,0.2,0.11,0.28l1.6,1.6
				c0.08,0.08,0.18,0.11,0.28,0.11H389c0.1,0,0.2-0.03,0.28-0.11l1.6-1.6c0.08-0.08,0.11-0.18,0.11-0.28v-5.6
				C391,169.7,390.81,169.52,390.6,169.52L390.6,169.52z M390.2,175.34l-1.36,1.36h-10.07l-1.36-1.36v-5.03h12.78V175.34z"/>
			<path class="st18" d="M391.38,171.11l-15.19,0.79c-0.22,0.01-0.39,0.2-0.37,0.42c0.01,0.22,0.19,0.39,0.4,0.39
				c0.01,0,0.01,0,0.02,0l15.19-0.79c0.22-0.01,0.39-0.2,0.37-0.42C391.78,171.28,391.6,171.1,391.38,171.11L391.38,171.11z"/>
			<path class="st18" d="M391.38,173.52l-15.19,0.79c-0.22,0.01-0.39,0.2-0.37,0.42c0.01,0.22,0.19,0.39,0.4,0.39
				c0.01,0,0.01,0,0.02,0l15.19-0.79c0.22-0.01,0.39-0.2,0.37-0.42C391.78,173.68,391.6,173.49,391.38,173.52L391.38,173.52z"/>
			<path class="st18" d="M383.81,142.34c-7.49,0-13.59,6.1-13.59,13.59c0,4.72,2.38,9,6.39,11.51v2.48c0,0.22,0.18,0.4,0.4,0.4
				h13.59c0.22,0,0.4-0.18,0.4-0.4v-2.48c4.01-2.51,6.39-6.79,6.39-11.51C397.39,148.44,391.29,142.34,383.81,142.34L383.81,142.34z
				 M390.39,166.88c-0.11,0.08-0.19,0.2-0.19,0.35v2.29h-12.78v-2.29c0-0.14-0.08-0.27-0.19-0.35c-3.88-2.34-6.2-6.44-6.2-10.95
				c0-7.05,5.73-12.78,12.78-12.78c7.05,0,12.78,5.73,12.78,12.78C396.59,160.44,394.28,164.54,390.39,166.88L390.39,166.88z"/>
			<path class="st18" d="M387.58,176.76c-0.19-0.1-0.43-0.02-0.53,0.17c-0.02,0.06-0.76,1.39-3.24,1.39s-3.21-1.33-3.24-1.39
				c-0.1-0.19-0.33-0.27-0.53-0.18c-0.19,0.1-0.28,0.33-0.18,0.53c0.03,0.08,0.95,1.83,3.95,1.83s3.92-1.75,3.95-1.83
				C387.85,177.09,387.77,176.86,387.58,176.76L387.58,176.76z"/>
		</g>
		<g>
			<path class="st34" d="M366.61,155.52h-8c-0.22,0-0.4,0.18-0.4,0.4c0,0.22,0.18,0.4,0.4,0.4h8c0.22,0,0.4-0.18,0.4-0.4
				C367.01,155.7,366.84,155.52,366.61,155.52L366.61,155.52z"/>
			<path class="st34" d="M408.99,155.52h-8c-0.22,0-0.4,0.18-0.4,0.4c0,0.22,0.18,0.4,0.4,0.4h8c0.22,0,0.4-0.18,0.4-0.4
				C409.39,155.7,409.2,155.52,408.99,155.52L408.99,155.52z"/>
			<path class="st34" d="M369.26,164.32c-0.11-0.19-0.36-0.26-0.53-0.14l-6.92,4c-0.19,0.11-0.26,0.36-0.14,0.56
				c0.08,0.13,0.2,0.2,0.35,0.2c0.07,0,0.14-0.01,0.2-0.06l6.92-4C369.31,164.75,369.38,164.51,369.26,164.32L369.26,164.32z"/>
			<path class="st34" d="M405.96,143.14c-0.11-0.19-0.36-0.26-0.56-0.14l-6.92,4c-0.19,0.11-0.26,0.36-0.14,0.56
				c0.08,0.13,0.2,0.2,0.35,0.2c0.07,0,0.14-0.01,0.2-0.06l6.92-4C406,143.57,406.07,143.33,405.96,143.14L405.96,143.14z"/>
			<path class="st34" d="M396.59,133.77c-0.19-0.1-0.43-0.03-0.53,0.14l-4,6.92c-0.11,0.19-0.03,0.43,0.14,0.56
				c0.07,0.03,0.13,0.06,0.2,0.06c0.14,0,0.27-0.08,0.35-0.2l4-6.92C396.85,134.14,396.78,133.9,396.59,133.77L396.59,133.77z"/>
			<path class="st34" d="M383.81,130.35c-0.22,0-0.4,0.18-0.4,0.4v8c0,0.22,0.18,0.4,0.4,0.4c0.22,0,0.4-0.18,0.4-0.4v-8
				C384.21,130.53,384.03,130.35,383.81,130.35L383.81,130.35z"/>
			<path class="st34" d="M375.56,140.84l-4-6.92c-0.11-0.19-0.36-0.26-0.53-0.14c-0.19,0.11-0.26,0.36-0.14,0.56l4,6.92
				c0.08,0.13,0.2,0.2,0.35,0.2c0.07,0,0.14-0.01,0.2-0.06C375.6,141.28,375.67,141.03,375.56,140.84L375.56,140.84z"/>
			<path class="st34" d="M405.81,168.17l-6.92-4c-0.19-0.1-0.43-0.03-0.53,0.14c-0.11,0.19-0.06,0.43,0.14,0.53l6.92,4
				c0.07,0.03,0.13,0.06,0.2,0.06c0.14,0,0.27-0.08,0.35-0.2C406.07,168.53,406,168.28,405.81,168.17L405.81,168.17z"/>
			<path class="st34" d="M369.12,146.99l-6.92-4c-0.19-0.1-0.43-0.03-0.53,0.14c-0.11,0.19-0.06,0.43,0.14,0.56l6.92,4
				c0.07,0.03,0.13,0.06,0.2,0.06c0.14,0,0.27-0.08,0.35-0.2C369.38,147.35,369.31,147.1,369.12,146.99L369.12,146.99z"/>
		</g>
		<g>
			<path class="st35" d="M384.97,169.52v-12.91c0,0-0.18-6.08,3.13-6.08s1.78,6.33-4.61,6.33"/>
			<path class="st35" d="M382.03,169.52v-12.91c0,0,0.18-6.08-3.13-6.08s-1.78,6.33,4.61,6.33"/>
		</g>
	</g>
	<g>
		<path class="st6" d="M266.91,105.93h-64.34c-7.08,0-12.84-5.75-12.84-12.84v-6.54c0-7.08,5.75-12.84,12.84-12.84h77.18v19.38
			C279.75,100.2,274.01,105.93,266.91,105.93z"/>
		<g>
			<g>
				<g>
					<circle id="SVGID_5_" class="st7" cx="206.76" cy="89.83" r="10.91"/>
				</g>
			</g>
			<g>
				<g>
					<g>
						<g>
							<defs>
								<circle id="SVGID_4_" cx="206.76" cy="89.83" r="10.91"/>
							</defs>
							<clipPath id="SVGID_6_">
								<use xlink:href="#SVGID_4_"  style="overflow:visible;"/>
							</clipPath>
							<g class="st36">
								<path class="st10" d="M217.19,102.4c0,0,1.22,6.77,1.33,8.56c0.09,1.78,0.28,3.14-0.9,3.85c-1.18,0.7-3.11,1.36-3.11,1.36
									l-2.41-12.08v-1.41L217.19,102.4z"/>
								<path class="st10" d="M196.46,102.02c0,0-0.66,3.05-0.85,4.61c-0.19,1.55-0.61,4.55-0.66,5.27
									c-0.06,0.7-0.14,1.88,1.12,2.77c1.27,0.9,2.63,1.41,2.63,1.41l2.58-14.05h-4.83V102.02z"/>
								<path class="st11" d="M205.75,92.3c0,0,0,1.41-0.6,2.02c-0.6,0.6-1.41,1.6-1.41,1.6s1.41,2.2,4.22,1.92
									c2.81-0.3,3.33-2.32,3.33-2.32s-2.67-0.35-2.96-2.86c-0.3-2.52-0.7-2.52-0.7-2.52L205.75,92.3z"/>
								<path class="st37" d="M204.05,94.91c0,0-1.93-0.23-2.96,0.06c-1.04,0.28-1.36,0.09-1.08,0.9c0.28,0.79,1.69,4.47,1.04,6.77
									c-0.66,2.29-1.55,14.11-1.55,14.11s7.15,0.28,9.92,0.42c2.77,0.14,4.84-0.37,4.84-0.37s0.61-5.09,0-7.29
									c-0.61-2.2-1.41-5.97-1.41-5.97s-0.51-5.18,0.19-6.45c0.7-1.27,1.22-1.33,0.33-1.65c-0.9-0.33-1.88-0.61-2.58-0.61
									c-0.7,0-1.08,0-1.5,0.42c-0.42,0.42-1.27,1.27-2.44,1.08c-1.18-0.19-2.07-0.99-2.07-0.99S204.39,94.94,204.05,94.91z"/>
								<path class="st38" d="M200.65,95.3c0,0-0.66-0.33-1.65,0.51c-1.07,0.91-1.84,2.86-2.2,4.1c-0.37,1.22-0.61,2.44-0.61,2.44
									s1.36,0.7,2.77,0.76c1.41,0.06,2.35,0.14,2.35,0.14s0.61-3.67,0.48-5.31C201.64,96.29,201.39,95.72,200.65,95.3z"/>
								<path class="st38" d="M212.49,96.67c0,0,0.57-1.55,1.84-0.85s2.2,3.39,2.49,4.23c0.28,0.85,0.66,2.54,0.66,2.54
									s-1.5,0.66-2.77,0.76c-1.27,0.09-2.16,0.19-2.16,0.19s-0.51-3.34-0.42-4.65C212.22,97.56,212.49,96.67,212.49,96.67z"/>
								<path class="st10" d="M211.17,89.6c0.1,0.3-0.41,1.12-0.61,1.41c0.09-0.47,0.18-1.09,0.24-1.84
									C210.81,89.17,211.07,89.32,211.17,89.6z"/>
								<path class="st10" d="M210.9,85.83c-0.11-2.68-3.71-2.71-3.71-2.71l0,0c0,0-3.6,0.03-3.71,2.71c-0.06,1.19,0,2.36,0.09,3.35
									c0.07,0.75,0.17,1.37,0.24,1.84c0.06,0.3,0.11,0.51,0.16,0.65c0.08,0.2,0.23,0.47,0.42,0.73c0.4,0.53,0.95,1.11,1.35,1.35
									c0.32,0.19,1.08,0.33,1.45,0.32l0,0c0.36,0.02,1.08-0.11,1.41-0.3c0.01,0,0.02-0.01,0.02-0.01c0.4-0.23,0.95-0.81,1.35-1.35
									c0.19-0.27,0.35-0.52,0.42-0.73c0.06-0.13,0.1-0.35,0.16-0.65c0.09-0.47,0.18-1.09,0.24-1.84
									C210.9,88.19,210.96,87.01,210.9,85.83z"/>
								<path class="st10" d="M203.57,89.17c0.07,0.75,0.17,1.37,0.24,1.84c-0.2-0.28-0.72-1.11-0.61-1.41
									C203.32,89.32,203.57,89.17,203.57,89.17L203.57,89.17z"/>
								<g>
									<path class="st39" d="M211.5,85.83c-0.07-0.73-0.36-1.6-0.81-2.18c-0.19-0.24-1.01-1.17-0.4-1.43
										c-0.28-0.35-0.69,0.06-0.77,0.36c-0.02,0.09-0.17,0.36-0.16,0.43c-0.1-0.69-0.01-1.24-0.72-1.63
										c-1.12-0.65-2.27,0.86-3.37,0.91c-0.53,0.02-1.5,0.22-1.65-0.51c0-0.02-0.22,0.26-0.23,0.3c-0.06,0.11-0.07,0.28-0.06,0.41
										c0.03,0.24,0.24,0.67,0.52,0.67c-0.37,0-0.6-0.01-0.79-0.36c-0.08,0.22,0.08,0.35,0.18,0.51
										c-0.19,0.02-0.57-0.33-0.62-0.51c-0.2,0.23-0.09,0.59,0.06,0.82c0.06,0.08,0.62,0.56,0.62,0.48
										c-0.08,0.7-0.4,1.39-0.57,2.07c-0.09,0.37-0.18,0.77-0.11,1.16c0.07,0.43,0.2,0.95,0.33,1.37c0.2,0.68,0.48,1.01,0.53,1.16
										c0.03-0.17,0.16-0.49,0.2-0.65c0.19-0.76-0.02-1.57,0.18-2.33c0.28-1.12,1.19-1.26,2.24-1.07
										c0.65,0.13,1.37-0.01,1.93-0.33c0.31-0.18,0.58-0.36,0.82-0.62c0.1-0.11,0.2-0.31,0.31-0.37c0.07,0.3-0.01,0.58,0.19,0.84
										c0.86,1.1,0.96,2.44,1.16,3.78c0.01,0.08,0.22,0.75,0.2,0.76c0.39-0.5,0.45-1.31,0.62-1.88
										C211.59,87.35,211.57,86.46,211.5,85.83z"/>
									<path class="st39" d="M210.81,91.77c-0.08-0.53-0.09-1.29-0.09-1.83l0,0c-0.06,0.4-0.43,0.89-0.7,1.06
										c-0.23,0.16-0.65,0.36-0.95,0.27l0,0c-0.11-0.09-0.23-0.18-0.35-0.26c-0.33-0.2-0.66-0.42-1.06-0.37
										c-0.17,0.02-0.5,0.17-0.51,0.35h-0.07c-0.02-0.19-0.35-0.32-0.51-0.35c-0.4-0.06-0.72,0.17-1.06,0.37
										c-0.11,0.08-0.23,0.17-0.35,0.26l0,0c-0.31,0.09-0.7-0.1-0.95-0.27c-0.26-0.18-0.66-0.67-0.7-1.06l0,0
										c0,0.52-0.01,1.28-0.09,1.83c-0.1-0.02-0.22-0.07-0.32-0.11c0,0.16,0.13,0.26,0.28,0.33h0.01
										c0.08,0.69,1.54,2.58,1.57,2.66c0.07,0.24,0.86,0.73,1.18,0.91c0.33,0.19,0.61,0.23,0.95,0.23h0.03
										c0.33,0,0.61-0.03,0.95-0.23c0.32-0.18,1.11-0.67,1.18-0.91c0.02-0.08,1.49-1.96,1.57-2.66h0.01
										c0.16-0.08,0.28-0.18,0.28-0.33C211.04,91.71,210.91,91.75,210.81,91.77z M209.38,92.17c-0.17-0.03-0.33-0.13-0.49-0.22
										c-0.28,0.14-0.7,0.3-0.99,0.16c-0.01-0.01-0.02-0.01-0.02-0.02c-0.23-0.16-0.45-0.02-0.69-0.01v0.02
										c0.27,0.1,0.28,0.11,0,0c-0.01,0-0.01-0.01-0.02-0.01h-0.07c-0.28,0.09-0.27,0.09,0,0v-0.01c-0.26,0-0.48-0.16-0.72,0.01
										c-0.01,0.01-0.02,0.01-0.02,0.02c-0.28,0.14-0.7-0.01-0.99-0.16c-0.16,0.1-0.32,0.19-0.49,0.22
										c-0.09,0.01-0.19,0.02-0.3,0.02c0.09,0,0.17-0.01,0.26-0.02c0.18-0.03,0.36-0.13,0.52-0.22c0.14-0.08,0.28-0.17,0.41-0.24
										c0.28-0.14,0.59-0.28,0.9-0.31c0.16-0.01,0.3,0.03,0.42-0.01h0.07c0.13,0.06,0.27,0.01,0.42,0.01
										c0.31,0.01,0.62,0.16,0.9,0.31c0.13,0.07,0.27,0.16,0.41,0.24c0.17,0.1,0.35,0.19,0.52,0.22c0.08,0.01,0.17,0.02,0.26,0.02
										C209.57,92.19,209.48,92.18,209.38,92.17z"/>
								</g>
								<g>
									<path class="st40" d="M210.81,91.75c-0.26,0.06-0.51,0.01-0.79-0.08c-0.28-0.08-0.56-0.17-0.81-0.33
										c-0.06-0.02-0.09-0.07-0.14-0.1l0,0c-0.11-0.09-0.23-0.18-0.35-0.26c-0.33-0.2-0.66-0.42-1.06-0.37
										c-0.17,0.02-0.5,0.17-0.51,0.35h-0.07c-0.02-0.19-0.35-0.32-0.51-0.35c-0.4-0.06-0.72,0.17-1.06,0.37
										c-0.11,0.08-0.23,0.17-0.35,0.26l0,0c-0.06,0.03-0.09,0.07-0.14,0.1c-0.24,0.16-0.52,0.24-0.81,0.33
										c-0.28,0.08-0.53,0.11-0.79,0.08c-0.1-0.02-0.22-0.07-0.32-0.11c0,0.16,0.13,0.26,0.28,0.33c0.13,0.07,0.28,0.1,0.37,0.11
										c0.33,0.07,0.7,0.13,1.06,0.07c0.18-0.03,0.36-0.13,0.52-0.22c0.14-0.08,0.28-0.17,0.41-0.24c0.28-0.14,0.59-0.28,0.9-0.31
										c0.16-0.01,0.3,0.03,0.42-0.01h0.07c0.13,0.06,0.27,0.01,0.42,0.01c0.31,0.01,0.62,0.16,0.9,0.31
										c0.13,0.07,0.27,0.16,0.41,0.24c0.17,0.1,0.35,0.19,0.52,0.22c0.35,0.07,0.72,0,1.06-0.07c0.09-0.01,0.24-0.06,0.37-0.11
										c0.16-0.08,0.28-0.18,0.28-0.33C211.02,91.69,210.91,91.74,210.81,91.75z"/>
								</g>
							</g>
						</g>
					</g>
				</g>
			</g>
		</g>
		<g>
			<path class="st41" d="M270.03,84.79h-44.65c-1.41,0-2.57-1.16-2.57-2.57v-0.57c0-1.41,1.16-2.57,2.57-2.57h44.65
				c1.41,0,2.57,1.16,2.57,2.57v0.57C272.61,83.65,271.46,84.79,270.03,84.79z"/>
			<path class="st41" d="M270.03,92.68h-44.65c-1.41,0-2.57-1.16-2.57-2.57v-0.57c0-1.41,1.16-2.57,2.57-2.57h44.65
				c1.41,0,2.57,1.16,2.57,2.57v0.57C272.61,91.55,271.46,92.68,270.03,92.68z"/>
			<path class="st41" d="M270.03,100.58h-44.65c-1.41,0-2.57-1.16-2.57-2.57v-0.57c0-1.41,1.16-2.57,2.57-2.57h44.65
				c1.41,0,2.57,1.16,2.57,2.57V98C272.61,99.44,271.46,100.58,270.03,100.58z"/>
		</g>
	</g>
	<g>
		<path class="st6" d="M331.81,365.54h-30.88c-1.41,0-2.57,1.16-2.57,2.57v11.27c0,1.41,1.16,2.57,2.57,2.57h33.44v-13.84
			C334.38,366.7,333.23,365.54,331.81,365.54z"/>
		<g>
			<g>
				<circle id="SVGID_9_" class="st7" cx="306.24" cy="374.04" r="4.75"/>
			</g>
		</g>
		<g>
			<g>
				<g>
					<g>
						<defs>
							<circle id="SVGID_7_" cx="306.24" cy="374.04" r="4.75"/>
						</defs>
						<clipPath id="SVGID_8_">
							<use xlink:href="#SVGID_7_"  style="overflow:visible;"/>
						</clipPath>
						<g class="st42">
							<path class="st10" d="M310.78,379.53c0,0,0.53,2.95,0.58,3.73c0.03,0.78,0.13,1.37-0.39,1.68c-0.52,0.31-1.35,0.59-1.35,0.59
								l-1.04-5.27v-0.61L310.78,379.53z"/>
							<path class="st10" d="M301.75,379.36c0,0-0.28,1.34-0.37,2c-0.09,0.67-0.27,1.99-0.28,2.29c-0.02,0.31-0.07,0.82,0.49,1.2
								c0.56,0.39,1.15,0.61,1.15,0.61l1.12-6.12L301.75,379.36L301.75,379.36z"/>
							<path class="st10" d="M305.8,375.12c0,0,0,0.61-0.27,0.87c-0.27,0.27-0.61,0.7-0.61,0.7s0.61,0.96,1.85,0.84
								c1.24-0.13,1.45-1.01,1.45-1.01s-1.17-0.16-1.29-1.25c-0.13-1.09-0.31-1.09-0.31-1.09L305.8,375.12z"/>
							<path class="st43" d="M305.05,376.27c0,0-0.84-0.1-1.29,0.02c-0.45,0.13-0.59,0.03-0.48,0.39c0.13,0.35,0.73,1.95,0.45,2.95
								c-0.29,1-0.68,6.15-0.68,6.15s3.12,0.13,4.33,0.18c1.2,0.06,2.1-0.17,2.1-0.17s0.27-2.2,0-3.18
								c-0.27-0.96-0.61-2.61-0.61-2.61s-0.23-2.26,0.08-2.81c0.31-0.56,0.53-0.58,0.14-0.72c-0.39-0.14-0.82-0.27-1.12-0.27
								c-0.31,0-0.48,0-0.66,0.18c-0.18,0.18-0.56,0.56-1.07,0.48c-0.51-0.08-0.9-0.43-0.9-0.43S305.2,376.28,305.05,376.27z"/>
							<path class="st44" d="M303.57,376.43c0,0-0.28-0.14-0.72,0.23c-0.47,0.4-0.79,1.25-0.96,1.78c-0.17,0.53-0.27,1.07-0.27,1.07
								s0.59,0.31,1.2,0.33s1.02,0.07,1.02,0.07s0.27-1.6,0.2-2.32C304.01,376.87,303.91,376.61,303.57,376.43z"/>
							<path class="st44" d="M308.74,377.02c0,0,0.24-0.68,0.79-0.37c0.55,0.31,0.96,1.48,1.09,1.85c0.13,0.37,0.28,1.1,0.28,1.1
								s-0.66,0.28-1.2,0.33c-0.56,0.03-0.94,0.08-0.94,0.08s-0.23-1.45-0.18-2.03C308.62,377.41,308.74,377.02,308.74,377.02z"/>
							<g>
								<path class="st20" d="M306.29,374.54h-0.75c0,0,0.07,0.59,0.75,0.59c0.68,0,0.75-0.59,0.75-0.59H306.29z"/>
							</g>
							<g>
								<path class="st10" d="M308.32,373.34c0.06,0.14-0.2,0.57-0.31,0.7c0.03-0.23,0.09-0.56,0.13-0.92
									C308.14,373.12,308.26,373.19,308.32,373.34z"/>
							</g>
							<path class="st10" d="M308.2,371.44c-0.07-1.34-1.85-1.36-1.85-1.36l0,0c0,0-1.79,0.01-1.85,1.36
								c-0.02,0.59,0,1.18,0.06,1.68c0.03,0.37,0.08,0.69,0.13,0.92c0.02,0.16,0.06,0.26,0.08,0.32c0.03,0.1,0.11,0.23,0.2,0.36
								c0.19,0.27,0.48,0.56,0.67,0.68c0.16,0.09,0.53,0.17,0.72,0.16l0,0c0.18,0.01,0.53-0.07,0.7-0.16c0,0,0.01,0,0.01-0.01
								c0.19-0.11,0.48-0.4,0.67-0.68c0.09-0.13,0.17-0.26,0.2-0.36c0.02-0.07,0.06-0.17,0.08-0.32c0.03-0.23,0.09-0.56,0.13-0.92
								C308.2,372.63,308.22,372.03,308.2,371.44z"/>
							<g>
								<path class="st10" d="M304.52,373.12c0.03,0.37,0.08,0.69,0.13,0.92c-0.1-0.14-0.36-0.57-0.31-0.7
									C304.39,373.19,304.52,373.12,304.52,373.12L304.52,373.12z"/>
							</g>
							<path class="st45" d="M307.36,375.19l0.01,0.01c-0.13,0.13-0.24,0.24-0.35,0.31c-0.14,0.09-0.47,0.28-0.62,0.27h-0.07
								c-0.17,0.01-0.49-0.18-0.62-0.27c-0.1-0.07-0.23-0.17-0.35-0.31l0.01-0.01c0.19-0.01,0.11-0.28,0.17-0.4
								c0.06-0.1,0.22-0.13,0.32-0.19c0.08-0.03,0.14-0.07,0.23-0.1s0.17-0.03,0.26-0.03h0.07c0.09,0,0.17,0,0.26,0.03
								c0.08,0.03,0.16,0.06,0.23,0.1c0.09,0.06,0.27,0.08,0.32,0.19C307.25,374.91,307.16,375.18,307.36,375.19z M307.03,375.07
								c0.11-0.19-0.02-0.2-0.17-0.26c-0.11-0.03-0.36-0.16-0.49-0.16h-0.02c-0.13,0-0.36,0.11-0.49,0.16
								c-0.16,0.06-0.28,0.07-0.17,0.26c0.07,0.1,0.22,0.28,0.36,0.27c0.16-0.01,0.23-0.22,0.3-0.32h0.02
								c0.07,0.1,0.14,0.31,0.3,0.32C306.8,375.35,306.96,375.18,307.03,375.07z"/>
							<g>
								<g>
									<path class="st40" d="M306.36,372.74c0.03,0,0.14,0,0.18,0c0.09,0,0.08-0.08,0.13-0.14c0.07-0.09,0.23-0.07,0.32-0.08
										c0.14-0.01,0.27-0.01,0.41-0.01c0.1,0,0.39-0.02,0.41-0.01c0.01,0,0.11,0.07,0.16,0.11c0.01,0.02,0.02,0.06,0.03,0.08
										c0.01,0.09-0.01,0.2-0.02,0.3c-0.01,0.13-0.03,0.24-0.13,0.32c-0.02,0.02-0.07,0.02-0.09,0.02
										c-0.03,0.01-0.2,0.01-0.26,0.01c-0.14,0.01-0.28,0.01-0.42,0.01c-0.16-0.01-0.35,0.01-0.4-0.23
										c-0.01-0.07-0.03-0.27-0.07-0.3c-0.06-0.06-0.2-0.07-0.27-0.07C306.35,372.75,306.35,372.76,306.36,372.74z M306.8,373.27
										c0.03,0.02,0.17,0.03,0.18,0.03c0.03,0,0.5,0,0.69-0.02c0.03-0.01,0.09-0.02,0.13-0.06c0.07-0.06,0.11-0.45,0.08-0.51
										c-0.02-0.03-0.09-0.09-0.13-0.11c-0.1-0.09-0.95-0.06-0.99,0s-0.06,0.09-0.03,0.16c0.06-0.02,0.08,0.01,0.09,0.08
										c0,0.03,0.02,0.18-0.03,0.11c-0.01-0.01-0.01-0.03-0.03-0.01c-0.02,0.02-0.02,0.1-0.01,0.13
										C306.74,373.22,306.79,373.26,306.8,373.27z"/>
								</g>
								<g>
									<path class="st40" d="M306.35,372.74c-0.03,0-0.14,0-0.18,0c-0.09,0-0.08-0.08-0.13-0.14c-0.07-0.09-0.23-0.07-0.32-0.08
										c-0.14-0.01-0.27-0.01-0.41-0.01c-0.1,0-0.39-0.02-0.41-0.01c-0.01,0-0.11,0.07-0.16,0.11c-0.01,0.02-0.02,0.06-0.03,0.08
										c-0.01,0.09,0.01,0.2,0.02,0.3c0.01,0.13,0.03,0.24,0.13,0.32c0.02,0.02,0.07,0.02,0.09,0.02c0.03,0.01,0.2,0.01,0.26,0.01
										c0.14,0.01,0.28,0.01,0.42,0.01c0.16-0.01,0.35,0.01,0.4-0.23c0.01-0.07,0.03-0.27,0.07-0.3c0.06-0.06,0.2-0.07,0.27-0.07
										C306.35,372.75,306.36,372.76,306.35,372.74z M305.89,373.27c-0.03,0.02-0.17,0.03-0.18,0.03c-0.03,0-0.5,0-0.69-0.02
										c-0.03-0.01-0.09-0.02-0.13-0.06c-0.07-0.06-0.11-0.45-0.08-0.51c0.02-0.03,0.09-0.09,0.13-0.11c0.1-0.09,0.95-0.06,0.99,0
										c0.03,0.06,0.06,0.09,0.03,0.16c-0.06-0.02-0.08,0.01-0.09,0.08c0,0.03-0.02,0.18,0.03,0.11c0.01-0.01,0.01-0.03,0.03-0.01
										c0.02,0.02,0.02,0.1,0.01,0.13C305.96,373.22,305.9,373.26,305.89,373.27z"/>
								</g>
							</g>
						</g>
					</g>
				</g>
			</g>
		</g>
		<path class="st7" d="M330.21,371.33H313.7c-0.36,0-0.65-0.28-0.65-0.65v-0.76c0-0.36,0.28-0.65,0.65-0.65h16.51
			c0.36,0,0.65,0.28,0.65,0.65v0.76C330.85,371.04,330.57,371.33,330.21,371.33z"/>
		<path class="st7" d="M330.21,374.66H313.7c-0.36,0-0.65-0.28-0.65-0.65v-0.76c0-0.36,0.28-0.65,0.65-0.65h16.51
			c0.36,0,0.65,0.28,0.65,0.65v0.76C330.85,374.37,330.57,374.66,330.21,374.66z"/>
		<path class="st7" d="M330.21,377.99H313.7c-0.36,0-0.65-0.28-0.65-0.65v-0.76c0-0.36,0.28-0.65,0.65-0.65h16.51
			c0.36,0,0.65,0.28,0.65,0.65v0.76C330.85,377.7,330.57,377.99,330.21,377.99z"/>
	</g>
	<path class="st6" d="M159.55,204.63h-40.67c-1.41,0-2.57,1.16-2.57,2.57v15.73c0,1.41,1.16,2.57,2.57,2.57h43.24V207.2
		C162.12,205.78,160.97,204.63,159.55,204.63z"/>
	<g>
		<g>
			<circle id="SVGID_17_" class="st7" cx="126.32" cy="215.44" r="6.05"/>
		</g>
	</g>
	<g>
		<g>
			<g>
				<g>
					<defs>
						<circle id="SVGID_10_" cx="126.32" cy="215.44" r="6.05"/>
					</defs>
					<clipPath id="SVGID_11_">
						<use xlink:href="#SVGID_10_"  style="overflow:visible;"/>
					</clipPath>
					<g class="st46">
						<path class="st47" d="M128.93,216.32c-0.27-1.06,0.11-1.44,0.23-2.86l-2.75-0.09l0,0l0,0l0,0l0,0l-2.75,0.09
							c0.11,1.44,0.5,1.82,0.23,2.86c-0.4,1.55-1.5,3.61,2.53,3.61l0,0l0,0l0,0l0,0C130.43,219.93,129.33,217.88,128.93,216.32z"/>
						<path class="st10" d="M132.12,222.41c0,0,0.68,3.76,0.73,4.75c0.06,0.99,0.16,1.75-0.5,2.15c-0.66,0.39-1.71,0.76-1.71,0.76
							l-1.34-6.7v-0.78L132.12,222.41z"/>
						<path class="st10" d="M120.61,222.2c0,0-0.36,1.69-0.48,2.55c-0.1,0.86-0.33,2.53-0.36,2.93c-0.02,0.39-0.08,1.04,0.62,1.54
							c0.7,0.5,1.46,0.78,1.46,0.78l1.44-7.8H120.61L120.61,222.2z"/>
						<path class="st48" d="M125.76,216.8c0,0,0,0.78-0.33,1.11s-0.78,0.9-0.78,0.9s0.78,1.24,2.35,1.07
							c1.57-0.17,1.84-1.28,1.84-1.28s-1.48-0.19-1.65-1.59c-0.17-1.4-0.39-1.4-0.39-1.4L125.76,216.8z"/>
						<path class="st49" d="M124.82,218.25c0,0-1.07-0.13-1.65,0.02c-0.58,0.16-0.76,0.06-0.6,0.5c0.16,0.45,0.94,2.48,0.58,3.76
							c-0.36,1.28-0.86,7.82-0.86,7.82s3.96,0.16,5.51,0.23s2.68-0.2,2.68-0.2s0.33-2.81,0-4.04c-0.33-1.22-0.78-3.31-0.78-3.31
							s-0.28-2.86,0.1-3.56c0.39-0.7,0.68-0.73,0.18-0.91c-0.5-0.18-1.04-0.33-1.44-0.33c-0.4,0-0.6,0-0.84,0.23
							c-0.23,0.23-0.7,0.7-1.36,0.6c-0.66-0.1-1.15-0.56-1.15-0.56S125,218.28,124.82,218.25z"/>
						<path class="st50" d="M122.94,218.47c0,0-0.36-0.18-0.91,0.28c-0.59,0.5-1.01,1.59-1.22,2.27c-0.2,0.68-0.33,1.36-0.33,1.36
							s0.76,0.39,1.54,0.42c0.78,0.02,1.31,0.08,1.31,0.08s0.33-2.03,0.26-2.95C123.47,219.02,123.35,218.72,122.94,218.47z"/>
						<path class="st50" d="M129.5,219.23c0,0,0.31-0.86,1.01-0.48c0.7,0.39,1.22,1.87,1.39,2.35c0.16,0.48,0.36,1.41,0.36,1.41
							s-0.84,0.36-1.54,0.42c-0.7,0.07-1.19,0.1-1.19,0.1s-0.28-1.85-0.23-2.58C129.34,219.73,129.5,219.23,129.5,219.23z"/>
						<g>
							<g>
								<path class="st48" d="M124.41,214.59c0,0-0.22-0.22-0.35-0.18c-0.11,0.03-0.22,0.31-0.13,0.58
									c0.09,0.27,0.18,0.49,0.26,0.53c0.08,0.04,0.36,0.1,0.37,0.08C124.58,215.57,124.41,214.59,124.41,214.59z"/>
							</g>
							<g>
								<path class="st48" d="M128.46,214.59c0,0,0.22-0.22,0.35-0.18c0.11,0.03,0.22,0.31,0.13,0.58
									c-0.09,0.27-0.18,0.49-0.26,0.53c-0.08,0.04-0.36,0.1-0.37,0.08C128.3,215.57,128.46,214.59,128.46,214.59z"/>
							</g>
						</g>
						<g>
							<path class="st48" d="M128.51,212.79c-0.39-1.15-1.44-1.41-2.07-1.41c-0.62,0-1.69,0.27-2.08,1.41s0.14,2.77,0.48,3.36
								c0.35,0.59,1.1,1.16,1.6,1.16c0.5,0,1.26-0.58,1.59-1.16C128.36,215.59,128.9,213.95,128.51,212.79z"/>
						</g>
						<path class="st47" d="M124.3,214.72c0,0,0.19-1.1,0.7-1.71c0,0,0.3,0.85,1.17,1.19c0,0,0-0.45-0.1-0.77
							c0,0,0.7,0.67,1.53,0.79c0,0-0.06-0.37-0.19-0.62c0,0,0.78,0.58,1.12,1.11c0,0,0.68-0.56,0.62-1.67
							c-0.06-1.1-1.04-2.43-2.61-2.46s-2.28,1.18-2.28,1.18s-0.58,0.37-0.62,1.15C123.6,213.68,123.8,214.18,124.3,214.72z"/>
					</g>
				</g>
			</g>
		</g>
	</g>
	<path class="st7" d="M156.98,212.43h-21.35c-0.36,0-0.65-0.28-0.65-0.65v-1.31c0-0.36,0.28-0.65,0.65-0.65h21.35
		c0.36,0,0.65,0.28,0.65,0.65v1.31C157.63,212.15,157.34,212.43,156.98,212.43z"/>
	<path class="st7" d="M156.98,216.66h-21.35c-0.36,0-0.65-0.28-0.65-0.65v-1.31c0-0.36,0.28-0.65,0.65-0.65h21.35
		c0.36,0,0.65,0.28,0.65,0.65v1.31C157.63,216.38,157.34,216.66,156.98,216.66z"/>
	<path class="st7" d="M156.98,220.9h-21.35c-0.36,0-0.65-0.28-0.65-0.65v-1.31c0-0.36,0.28-0.65,0.65-0.65h21.35
		c0.36,0,0.65,0.28,0.65,0.65v1.31C157.63,220.61,157.34,220.9,156.98,220.9z"/>
	<ellipse class="st21" cx="219.95" cy="394.26" rx="71.21" ry="8.26"/>
	<path class="st24" d="M248.91,385.89c0,0,5.99,0.3,10.35,0.3s11.25,0.9,11.25,0.9s1.79,0,1.95,2.25s0.16,3.14,0.16,3.14
		s0.16,2.69-1.95,2.69s-15.45,1.5-18.45,1.5s-5.26,0.6-5.26-1.5C246.95,393.08,246.8,385.74,248.91,385.89z"/>
	<path class="st10" d="M253.85,322.46c0,0,3.9,21.59,4.2,27.29c0.3,5.7,0.9,10.06-2.85,12.29c-3.75,2.25-9.9,4.35-9.9,4.35
		l-7.65-38.54v-4.5L253.85,322.46z"/>
	<path class="st10" d="M187.72,321.27c0,0-2.1,9.74-2.69,14.7c-0.6,4.94-1.95,14.54-2.1,16.79s-0.45,5.99,3.6,8.84
		c4.04,2.85,8.4,4.5,8.4,4.5l8.24-44.83H187.72L187.72,321.27z"/>
	<path class="st11" d="M217.33,290.22c0,0,0,4.5-1.93,6.41c-1.93,1.93-4.5,5.13-4.5,5.13s4.5,7.06,13.49,6.1
		c8.99-0.96,10.59-7.38,10.59-7.38s-8.5-1.11-9.47-9.14c-0.96-8.03-2.25-8.03-2.25-8.03L217.33,290.22z"/>
	<path class="st10" d="M210.75,272.41c0,0,0.32,10.27,5.13,18.3s10.59,3.53,12.84-0.65c2.25-4.18,8.34-17.65,7.06-21.18
		s-18.93-5.13-18.93-5.13L210.75,272.41z"/>
	<path class="st10" d="M233.53,278.19c0,0,2.57-1.93,2.57,0s-1.28,4.81-2.88,5.13c-1.6,0.32-1.28-0.65-0.96-1.93
		C232.56,280.12,233.53,278.19,233.53,278.19z"/>
	<path class="st10" d="M211.53,282.21c0.69,0.31,1.48,0.41,1.48-0.65c0-1.93-1.28-4.81-2.88-5.13c-1.6-0.32-1.28,0.65-0.96,1.93
		c0.11,0.43,0.3,0.96,0.49,1.45C210,280.73,210.95,281.96,211.53,282.21z"/>
	<path class="st24" d="M211.22,277.07l-0.32-3.21c0,0,2.88,0.32,6.1-2.88c0,0,6.27,1.41,11.24,0.96c5.29-0.48,7.58-1.93,7.58-1.93
		s-0.89,6.07-1.77,7.83c0,0,2.55-1.07,3.52-3.95c0.96-2.88,0.78-5.96,0.78-5.96s3.53-2.88,4.5-6.1c0,0-9.63-2.25-12.52-4.18
		c-2.88-1.93-4.5-3.21-4.5-3.21s-4.5-2.57-8.99,0.96c-4.5,3.53-7.38,5.46-7.38,11.56C209.46,266.96,205.29,272.74,211.22,277.07z"/>
	<path class="st51" d="M211.95,298.54c0,0-6.15-0.75-9.45,0.16s-4.35,0.3-3.45,2.85c0.9,2.55,5.39,14.25,3.3,21.59
		c-2.1,7.34-4.94,44.99-4.94,44.99s22.78,0.9,31.64,1.35c8.84,0.45,15.45-1.19,15.45-1.19s1.95-16.19,0-23.24
		c-1.95-7.05-4.5-19.04-4.5-19.04s-1.65-16.49,0.6-20.55c2.25-4.04,3.9-4.2,1.06-5.26c-2.85-1.06-5.99-1.95-8.24-1.95
		c-2.25,0-3.45,0-4.8,1.35c-1.35,1.35-4.04,4.04-7.8,3.45c-3.75-0.6-6.6-3.14-6.6-3.14S212.98,298.69,211.95,298.54z"/>
	<path class="st52" d="M201.07,299.81c0,0-2.1-1.06-5.26,1.65c-3.39,2.91-5.86,9.14-7.05,13.04c-1.19,3.9-1.95,7.8-1.95,7.8
		s4.35,2.25,8.84,2.41c4.5,0.16,7.49,0.45,7.49,0.45s1.95-11.69,1.5-16.95C204.22,302.97,203.47,301.18,201.07,299.81z"/>
	<path class="st52" d="M238.85,304.16c0,0,1.79-4.94,5.86-2.69c4.04,2.25,7.05,10.8,7.95,13.5c0.9,2.69,2.1,8.1,2.1,8.1
		s-4.8,2.1-8.84,2.41s-6.89,0.6-6.89,0.6s-1.65-10.65-1.35-14.84C237.95,307.01,238.85,304.16,238.85,304.16z"/>
	<polygon class="st53" points="205.78,371.33 236.52,371.33 220.68,376.2 	"/>
	<path class="st54" d="M178.42,362.65c0,0,56.08,17.55,68.37,21.89c0,0,4.04,1.06,4.2,3.14c0.16,2.1-0.3,5.1-0.75,6.6
		c-0.45,1.5-1.79,2.69-4.04,2.25c-2.25-0.45-52.48-10.5-72.42-15.73l-5.7-1.79c0,0-4.2-1.95-3.45-7.05s4.5-9.59,7.2-9.9
		C174.52,361.75,178.42,362.65,178.42,362.65z"/>
	<path class="st24" d="M173.33,387.54c0,0,7.05-1.19,11.25-1.35s9.74-0.6,10.65,0c0.9,0.6,1.65,8.69,1.65,8.69s0.75,2.25-4.8,1.79
		c-5.55-0.46-18.3-0.9-18.3-0.9s-2.85-0.16-3.01-2.69c-0.16-2.55,0.3-3.75,0.3-3.75S171.53,387.83,173.33,387.54z"/>
	<path class="st34" d="M206.77,380.33c0,0,34.03-10.35,46.18-13.94c12.15-3.6,18.9-6.89,22.78-1.19c3.89,5.7,3.6,11.99-0.9,13.8
		c-4.5,1.79-39.89,10.06-54.58,13.04c-14.7,3.01-24.29,4.94-25.63,4.35c-1.35-0.59-2.85-4.94-2.55-7.34s0.45-3.3,3.3-4.5
		C198.22,383.34,206.77,380.33,206.77,380.33z"/>
	<path class="st7" d="M202.86,330.85h40.94c0,0,2.25-0.3,2.25,2.69c0,3.01,0,35.38,0,35.38s0.16,2.41-1.65,2.41s-48.13,0-48.13,0
		s-1.95,0.6-1.95-2.69s0-35.98,0-35.98s-0.16-1.79,2.25-1.79C198.96,330.85,202.86,330.85,202.86,330.85z"/>
	
		<rect x="218.33" y="349.27" transform="matrix(0.6249 -0.7807 0.7807 0.6249 -191.5334 303.6039)" class="st55" width="3.71" height="3.71"/>
	<g>
		<g>
			<ellipse class="st21" cx="56.2" cy="304.4" rx="56.2" ry="6.53"/>
			<path class="st52" d="M62.33,304.42H41.09c-8.47,0-15.4-6.94-15.4-15.4v-15.23c0-8.47,6.94-15.4,15.4-15.4h21.24
				c8.47,0,15.4,6.94,15.4,15.4v15.23C77.74,297.49,70.8,304.42,62.33,304.42z"/>
			<path class="st56" d="M49.21,186.83c0,0-2.05-5.71,3-7.24c0,0,1.46-8.63,8.33-4.72c0.51,0.3,1.11,0.33,1.65,0.07
				c1.83-0.91,5.86-5.28,8.66,1.43c0.22,0.52,0.76,0.73,1.25,0.76c2.07,0.09,7.04,0.9,2.96,7.05c0,0-1.88,2.28-5.04,2.48
				c0,0-14.67,10.1-18.91,8.39C46.85,193.32,47,188.75,49.21,186.83z"/>
			<path class="st57" d="M63.18,183.93c0.2-0.07,8.01-2.57,6.78,4.38c0,0,0,0,0,0.01c0.01,0.19,0.23,6.41-4.75,10
				c-0.08,0.06-0.14,0.1-0.2,0.18c-0.31,0.33-1.67,1.53-3.86-0.47c-2.03-1.85-2.71-0.58-2.93-0.03c-0.07,0.14-0.14,0.28-0.22,0.42
				c-0.32,0.57-1.27,1.93-0.65,2.85c0.68,0.98,1.51,2.18,1.75,2.52c0.02,0.03,0,0.08-0.03,0.08c-1.15-0.07-12.54-0.82-12.27-3.35
				c0,0,0.68-2.8,0.68-2.81l0.22-0.06c0.03-0.01,0.07-0.02,0.1-0.06l3.56-2.63c0.01,0,0.01-0.01,0.02-0.01
				c0.23,0.02,3.66,0.33,4.88-1.15c0,0,1.53-1.74,2.24-4c0.2-0.67,0.1-1.43-0.3-1.95c-0.59-0.78-1.2-2.22,0.26-3.25
				c0,0,1.17-0.86,2.22,0.42l0.14,0.17c0.1,0.13,0.26,0.16,0.39,0.07L63.18,183.93L63.18,183.93z"/>
			<path class="st34" d="M47.47,197.71c0,0,5.2,4.82,11.1,5.37c0,0,3.24,3.6,3.7,11.4c0.47,7.81,0.78,25.35,0.32,26.48
				c-0.48,1.15-28.21,0.95-28.21,0.95s2.05-28.4,5.36-34.3C39.74,207.61,44.63,199.03,47.47,197.71z"/>
			<path class="st57" d="M44.99,218.85c0,0,0.48,10.48,1.41,14.29c0.94,3.81,1.41,5.52,5.36,6.1c3.94,0.58,14.34,1.34,16.39,0.95
				c2.05-0.39,8.66,1.33,8.66,1.33s2.05,0.58,2.2-0.76c0.16-1.34,2.36-0.19,2.52,0.39c0.16,0.58,1.26,1.34,1.58-0.19
				c0.32-1.53,0.16-3.43-2.52-4.01c-2.68-0.58-5.2,0-8.04,0.22c-2.53,0.19-4.22-0.59-4.72-0.59l-12.76-2.86c0,0-1.58-0.58-1.88-2.86
				c-0.32-2.28-0.32-12.19-0.32-12.19L44.99,218.85z"/>
			<path class="st54" d="M43.73,220h10.06c0.11-7.42-0.59-14.48-4.54-14.5C49.23,205.52,43.73,204.26,43.73,220z"/>
			<path class="st18" d="M90.97,255.83c0,0,2.92,17.53,3.33,21.94c0.4,4.37,2.51,18.46,2.51,18.46l-6.46-0.19l-5.52-24.01
				L90.97,255.83z"/>
			<path class="st23" d="M34.53,240.08c-0.11,0.78-0.81,12.58,0.33,15.57c1.06,2.74,3.79,3.62,8.66,4.01
				c4.13,0.32,25.55-0.78,32.05-1.16c0.87-0.06,1.51,0.99,1.24,1.99l-9.63,34.23l5.68,3.05c0,0,13.08-24.01,15.13-29.73
				c2.05-5.71,4.89-15.62,4.72-17.91c0,0,0.48-4.38-4.42-4.96c-4.79-0.57-20.07-3.51-20.63-3.62c-0.01,0-0.02,0-0.03,0l-5.01-0.57
				c-0.01,0-0.02,0-0.03,0L34.53,240.08z"/>
			<path class="st7" d="M68.06,240.29c-0.43-0.09-1.85-0.01-1.84,1.07c0.01,0.98,1.74,1.1,2.05,1.15
				c0.24,0.03,19.79,2.85,21.06,3.04c0.03,0,0.08,0.01,0.11,0.02c0.32,0.08,2.12,0.36,3.26-1.54c1.19-1.98,10.7-16.43,11.74-17.97
				c0.06-0.08,0.1-0.14,0.16-0.2c0.19-0.24,0.76-1.07,0.09-2.03c-0.78-1.15-2.05,0.76-2.05,0.76l-11.48,18.21
				c-0.26,0.41-0.62,0.73-1.06,0.86h-0.01c-0.17,0.06-0.35,0.06-0.52,0.02"/>
			<path class="st58" d="M72.84,297.76c0,0,3,7.63,5.04,9.33c1.57,1.31,1.1,2.41,0.79,2.84c-0.09,0.14-0.24,0.2-0.39,0.19
				c-0.37-0.06-1.18-0.24-1.99-0.94c-1.1-0.95-11.98-8.96-11.98-8.96s-0.48-1.15,0.32-2.28c0.79-1.15,2.52-3.24,2.52-3.24
				L72.84,297.76z"/>
		</g>
		<path class="st58" d="M96.66,296.01c0.01,0,0.02,0,0.03,0.01c0.35,0.32,5.62,5.2,8.36,6.3c0.26,0.1,0.52,0.22,0.78,0.35
			c0.2,0.1,0.41,0.2,0.6,0.32c0.16,0.09,0.31,0.18,0.45,0.28c0.1,0.08,0.22,0.17,0.31,0.26c0.08,0.07,0.14,0.14,0.2,0.22
			c0.03,0.06,0.09,0.11,0.11,0.18c0.02,0.03,0.03,0.09,0.06,0.14c0.01,0.06,0.01,0.1,0,0.17c0,0.06,0,0.1,0,0.16
			c0,0.07,0,0.11,0,0.18c0,0.02-0.02,0.06-0.03,0.03l-17.39-2.27c-0.06,0-0.09-0.02-0.13-0.06c-0.19-0.13-0.69-0.59-0.57-1.67
			c0.14-1.22,0.69-4.04,0.77-4.51c0.01-0.03,0.03-0.07,0.07-0.07L96.66,296.01z"/>
	</g>
</g>
</svg>
