<?xml version="1.0" encoding="utf-8"?>
<!-- Generator: Adobe Illustrator 23.0.1, SVG Export Plug-In . SVG Version: 6.00 Build 0)  -->
<svg version="1.1" id="Layer_1" xmlns="http://www.w3.org/2000/svg" xmlns:xlink="http://www.w3.org/1999/xlink" x="0px" y="0px"
	 viewBox="0 0 460 460" style="enable-background:new 0 0 460 460;" xml:space="preserve">
<style type="text/css">
	.st0{fill:#EEF9FF;}
	.st1{fill:none;stroke:#003EB0;stroke-miterlimit:10;stroke-dasharray:6;}
	.st2{fill:none;stroke:#2626DB;stroke-miterlimit:10;stroke-dasharray:6;}
	.st3{fill:#FCBE42;}
	.st4{fill:none;stroke:#FFFFFF;stroke-width:2;stroke-miterlimit:10;}
	.st5{fill:none;stroke:#DE051F;stroke-miterlimit:10;stroke-dasharray:6;}
	.st6{fill:#023EA1;}
	.st7{fill:none;stroke:#FFFFFF;stroke-linecap:round;stroke-linejoin:round;stroke-miterlimit:10;}
	.st8{fill:#EE384E;}
	.st9{fill:none;stroke:#DE051F;stroke-miterlimit:10;}
	.st10{fill:none;stroke:#FCBE42;stroke-miterlimit:10;}
	.st11{fill:#003EB0;}
	.st12{fill:#FFFFFF;}
	.st13{fill:#DE051F;}
	.st14{fill:none;stroke:#003EB0;stroke-miterlimit:10;}
	.st15{fill:#E9E8ED;}
	.st16{fill:#E9EEF2;}
	.st17{fill:#0064B7;}
	.st18{fill:#DBE9F8;}
	.st19{fill:#395196;}
	.st20{fill:#3D83D9;}
	.st21{fill:#00A9FF;}
	.st22{fill:#DD4B39;}
	.st23{fill:#2626DB;}
	.st24{fill:#FDC09B;}
	.st25{fill:#180857;}
	.st26{fill:#170856;}
	.st27{fill:none;stroke:#B70B28;stroke-width:0.25;stroke-miterlimit:10;}
	.st28{fill:#0064E1;}
	.st29{fill:#0054A3;}
	.st30{fill:#FFBE9B;}
	.st31{fill:#FFFFFF;stroke:#0055DB;stroke-width:3;stroke-miterlimit:10;}
	.st32{fill:#FEBE9A;}
	.st33{fill:#160C56;}
	.st34{fill:#0083F9;}
	.st35{fill:none;stroke:#96AABE;stroke-width:3;stroke-miterlimit:10;}
	.st36{fill:none;stroke:#2626DB;stroke-width:3;stroke-miterlimit:10;}
	.st37{fill:#F79F03;}
	.st38{fill:#649EEA;}
	.st39{fill:none;stroke:#023EA1;stroke-miterlimit:10;}
	.st40{fill:none;stroke:#649EEA;stroke-miterlimit:10;}
	.st41{fill:#0054A5;}
	.st42{fill:#006AD5;}
	.st43{fill:#C6D7F0;}
</style>
<g>
	<path class="st0" d="M217.7,97.5c0,0,45.79,25.97,79.7,0s42.08-36.89,104.36-23.77c43.69,9.2,69.56,68.25,53.27,88.51
		c-16.29,20.26-39.19,52.84-18.05,75.29s34.78,60.76,8.81,92.02s-84.03,43.2-122.4,38.31c-34.69-4.43-88.78-15.7-138.09-6.46
		c-49.31,9.25-121.85,0.71-146.5-55.64S24.84,180.29,64.92,165.31s72.65-38.32,77.5-62.09C147.25,79.43,171.91,61.4,217.7,97.5z"/>
	<circle class="st1" cx="204.46" cy="130.18" r="63.34"/>
	<circle class="st2" cx="83.92" cy="193.45" r="72.56"/>
	<circle class="st3" cx="15.66" cy="168.9" r="12.28"/>
	<polyline class="st4" points="11.36,166.44 16.27,173.81 19.96,167.66 	"/>
	<circle class="st5" cx="382.94" cy="260.24" r="46.52"/>
	<path class="st6" d="M443.99,192.87c0,0-6.48,16.99-14.41,10.71c-7.93-6.28-11.28-3.69-14.6-0.84c-3.32,2.85-7.1,10.41-15.11,3.34
		c-8.01-7.08-9.4-13.79-15.05-14.08c-5.66-0.29-28.08-8.99-22.45-16.74c5.64-7.75,19.32-6.69,24.97-4.7
		c5.65,1.98,12.44-2.14,16.8-6.56s12.81-6.2,15.14,1.78c2.33,7.98,10.19,12.58,15.84,11C440.79,175.19,448.19,181.28,443.99,192.87z
		"/>
	<g>
		<line class="st7" x1="431.94" y1="189.5" x2="355.51" y2="170.33"/>
		<polyline class="st7" points="407.69,198.92 400.88,181.71 413.75,169.21 		"/>
	</g>
	<path class="st8" d="M427.94,135.58c0,0,8.84-0.15,9.25-7.37c0.4-7.21-8.5-13.41-14.05-10.34c-5.57,3.07-5.55,7.95-9.94,5.89
		c-4.39-2.06-17.54-5.97-19.78,0.5c-2.25,6.46,3.75,11.02-4.25,15.69c-8,4.66-21.69-3.12-22.39,10.63
		c-0.7,13.75,4.23,37.15,24.72,26.99c20.49-10.15,1.16-19.06,18.42-22.57c17.26-3.52,9.94-9.19,11.07-14.83
		C422.1,134.53,427.94,135.58,427.94,135.58z"/>
	<path class="st7" d="M413,134.16c0,0-15.83,17.29-34.52,27.66s-24.27,9.81-24.27,9.81"/>
	<g>
		<path class="st9" d="M129.68,63.49c0,0-5.99,10.18,3.35,10.21s14.18,2.69,12.7,11.96c-1.48,9.26,1.88,14.94,7.24,16.3
			c5.36,1.35,15.55,2.24,12.88,14.72c-2.67,12.49-6.18,37.12-20.2,35.8c-14.02-1.33-27.3-18.47-25.31-27.9
			c1.99-9.43,8.81-14.5,1.44-22.26c-7.37-7.76-13.78,0.29-18.07-10.19s-9.58-20.72,3.44-29.57
			C118.83,54.61,131.52,57.08,129.68,63.49z"/>
		<g>
			<path class="st9" d="M121.04,74.26c0,0,26.52,65.98,37.17,81.15"/>
			<polyline class="st9" points="151.75,110.84 143.82,127.58 128.33,125.62 			"/>
			<polyline class="st9" points="136.14,81.45 128.64,92.69 115.48,92.63 			"/>
		</g>
	</g>
	<g>
		<path class="st10" d="M381.58,183.59c0,0,30.39-21.26,55.51-26.85"/>
		<path class="st10" d="M453.23,155.69c0,0-8.4,7.71-18.73,1.68C434.49,157.37,440.68,149.51,453.23,155.69z"/>
		<path class="st10" d="M414.45,164.8c0,0,10.17-2.74,16.88,7.98C431.33,172.78,423.1,177.95,414.45,164.8z"/>
		<path class="st10" d="M392.66,176.54c0,0,9.43-4.67,18.11,4.53C410.77,181.07,403.72,187.75,392.66,176.54z"/>
		<path class="st10" d="M392.34,176.24c0,0,9.12-5.26,6.27-17.58C398.62,158.66,389.14,160.84,392.34,176.24z"/>
		<path class="st10" d="M414.59,164.86c0,0,9.72-4.06,8.46-16.64C423.05,148.23,413.39,149.17,414.59,164.86z"/>
	</g>
	<g>
		<path class="st3" d="M154.27,67.95c0,0,22.31-2.25,19.76,9.97c-2.55,12.22,2.16,14.47,7.14,16.56c4.98,2.08,15.4,2.09,12.02,14.83
			c-3.38,12.74-10.02,17.96-7.21,24.36c2.81,6.4,5.59,35.94-6.06,33.99c-11.66-1.95-18.04-17.62-18.98-24.94s-9.23-12.53-16.51-14.9
			c-7.27-2.36-13.92-10.7-6.4-17.66c7.51-6.96,8.23-18.17,3.38-23.54C136.56,81.23,139.18,69.72,154.27,67.95z"/>
		<line class="st7" x1="157.22" y1="83.1" x2="178.28" y2="177.94"/>
		<polyline class="st7" points="180.99,104.62 165.77,121.63 144.89,114.35 		"/>
	</g>
	<circle class="st11" cx="426.44" cy="245.83" r="7.86"/>
	<polygon class="st12" points="424.47,242.68 429.59,246.22 424.47,248.98 	"/>
	
		<rect x="407" y="94.91" transform="matrix(0.7071 -0.7071 0.7071 0.7071 50.8201 318.6624)" class="st11" width="6.14" height="6.14"/>
	
		<rect x="24.87" y="280.18" transform="matrix(0.7071 -0.7071 0.7071 0.7071 -192.1067 102.7191)" class="st11" width="6.14" height="6.14"/>
	
		<rect x="209.2" y="103.86" transform="matrix(0.7071 -0.7071 0.7071 0.7071 -13.4414 181.4208)" class="st8" width="6.14" height="6.14"/>
	<g>
		<path class="st11" d="M265.91,64.75h-13.6c-0.22,0-0.4,0.17-0.4,0.4v5.6c0,0.1,0.05,0.21,0.12,0.28l1.6,1.6
			c0.07,0.07,0.17,0.12,0.29,0.12h10.4c0.1,0,0.21-0.05,0.28-0.12l1.6-1.6c0.07-0.07,0.12-0.17,0.12-0.28v-5.61
			C266.32,64.92,266.13,64.75,265.91,64.75L265.91,64.75z M265.51,70.58l-1.36,1.36h-10.06l-1.36-1.36v-5.04h12.8v5.04H265.51z"/>
		<path class="st11" d="M266.7,66.34l-15.21,0.8c-0.22,0.01-0.39,0.2-0.38,0.42s0.18,0.38,0.4,0.38c0.01,0,0.01,0,0.02,0l15.21-0.8
			c0.22-0.01,0.39-0.2,0.38-0.42C267.1,66.5,266.91,66.33,266.7,66.34L266.7,66.34z"/>
		<path class="st11" d="M266.7,68.75l-15.21,0.8c-0.22,0.01-0.39,0.2-0.38,0.42s0.18,0.38,0.4,0.38c0.01,0,0.01,0,0.02,0l15.21-0.8
			c0.22-0.01,0.39-0.2,0.38-0.42C267.1,68.9,266.91,68.72,266.7,68.75L266.7,68.75z"/>
		<path class="st11" d="M259.11,37.54c-7.51,0-13.6,6.1-13.6,13.6c0,4.73,2.39,9.02,6.4,11.52v2.48c0,0.22,0.18,0.4,0.4,0.4h13.6
			c0.22,0,0.4-0.18,0.4-0.4v-2.48c4.01-2.51,6.4-6.8,6.4-11.52C272.71,43.64,266.61,37.54,259.11,37.54L259.11,37.54z M265.7,62.09
			c-0.12,0.07-0.2,0.21-0.2,0.35v2.31h-12.8v-2.31c0-0.14-0.07-0.27-0.2-0.35c-3.89-2.34-6.2-6.44-6.2-10.95
			c0-7.06,5.74-12.8,12.8-12.8c7.06,0,12.8,5.74,12.8,12.8C271.91,55.66,269.59,59.75,265.7,62.09L265.7,62.09z"/>
		<path class="st11" d="M262.89,71.99c-0.2-0.1-0.44-0.02-0.54,0.17c-0.03,0.06-0.75,1.38-3.24,1.38c-2.49,0-3.22-1.33-3.24-1.38
			c-0.1-0.2-0.33-0.28-0.53-0.17c-0.2,0.1-0.28,0.33-0.18,0.53c0.03,0.08,0.95,1.82,3.95,1.82s3.92-1.75,3.95-1.82
			C263.17,72.32,263.09,72.09,262.89,71.99L262.89,71.99z"/>
	</g>
	<g>
		<path class="st13" d="M241.91,50.74h-8c-0.22,0-0.4,0.17-0.4,0.4c0,0.22,0.18,0.4,0.4,0.4h8c0.22,0,0.4-0.18,0.4-0.4
			C242.31,50.92,242.13,50.74,241.91,50.74L241.91,50.74z"/>
		<path class="st13" d="M284.31,50.74h-8c-0.22,0-0.4,0.18-0.4,0.4c0,0.22,0.18,0.4,0.4,0.4h8c0.22,0,0.4-0.18,0.4-0.4
			C284.72,50.92,284.53,50.74,284.31,50.74L284.31,50.74z"/>
		<path class="st13" d="M244.56,59.54c-0.12-0.2-0.36-0.25-0.54-0.15l-6.93,4c-0.2,0.12-0.25,0.36-0.15,0.54
			c0.07,0.13,0.21,0.2,0.35,0.2c0.07,0,0.14-0.01,0.2-0.06l6.93-4C244.61,59.97,244.68,59.73,244.56,59.54L244.56,59.54z"/>
		<path class="st13" d="M281.28,38.33c-0.12-0.2-0.36-0.25-0.54-0.15l-6.93,4.01c-0.2,0.12-0.25,0.36-0.15,0.54
			c0.07,0.13,0.21,0.2,0.35,0.2c0.07,0,0.14-0.02,0.2-0.06l6.93-4C281.33,38.77,281.39,38.53,281.28,38.33L281.28,38.33z"/>
		<path class="st13" d="M271.91,28.97c-0.2-0.1-0.44-0.05-0.54,0.15l-4,6.93c-0.12,0.2-0.05,0.44,0.15,0.54
			c0.07,0.03,0.14,0.06,0.2,0.06c0.14,0,0.28-0.07,0.35-0.2l4-6.93C272.17,29.32,272.1,29.08,271.91,28.97L271.91,28.97z"/>
		<path class="st13" d="M259.11,25.54c-0.22,0-0.4,0.18-0.4,0.4v8c0,0.22,0.18,0.4,0.4,0.4s0.4-0.18,0.4-0.4v-8
			C259.51,25.72,259.33,25.54,259.11,25.54L259.11,25.54z"/>
		<path class="st13" d="M250.86,36.04l-4-6.93c-0.12-0.2-0.36-0.25-0.54-0.15c-0.2,0.12-0.25,0.36-0.15,0.54l4,6.93
			c0.07,0.13,0.21,0.2,0.35,0.2c0.07,0,0.14-0.01,0.2-0.06C250.9,36.48,250.97,36.24,250.86,36.04L250.86,36.04z"/>
		<path class="st13" d="M281.14,63.4l-6.93-4c-0.2-0.1-0.44-0.05-0.54,0.15c-0.12,0.2-0.05,0.44,0.15,0.54l6.93,4
			c0.07,0.03,0.14,0.06,0.2,0.06c0.14,0,0.28-0.07,0.35-0.2C281.39,63.74,281.33,63.5,281.14,63.4L281.14,63.4z"/>
		<path class="st13" d="M244.41,42.18l-6.93-4c-0.2-0.1-0.44-0.05-0.54,0.15c-0.12,0.2-0.05,0.44,0.15,0.54l6.93,4
			c0.07,0.03,0.13,0.06,0.2,0.06c0.14,0,0.28-0.07,0.35-0.2C244.68,42.54,244.61,42.3,244.41,42.18L244.41,42.18z"/>
	</g>
	<g>
		<path class="st14" d="M260.27,64.75V51.83c0,0-0.18-6.09,3.14-6.09c3.32,0,1.79,6.33-4.61,6.33"/>
		<path class="st14" d="M257.32,64.75V51.83c0,0,0.18-6.09-3.14-6.09c-3.32,0-1.79,6.33,4.61,6.33"/>
	</g>
	<ellipse class="st15" cx="65.14" cy="388.9" rx="65.14" ry="8.85"/>
	<ellipse class="st15" cx="250.32" cy="382.16" rx="122.61" ry="11.36"/>
	<polygon id="computer_bg_2_" class="st16" points="100.6,135.91 390.08,135.91 389.66,328.2 99.36,327.79 	"/>
	<path class="st17" d="M277.11,333.61c-0.02,0-0.12,0.48-0.13,0.51c-0.1,0.48-0.2,0.97-0.28,1.45c-0.13,0.75-0.22,1.51-0.3,2.26
		c-0.09,0.98-0.15,1.96-0.17,2.94c-0.02,1.16,0.01,2.32,0.09,3.47c0.09,1.3,0.27,2.59,0.51,3.89c0.27,1.41,0.61,2.79,1.05,4.15
		c0.47,1.46,1.06,2.91,1.74,4.29c0.74,1.5,1.6,2.93,2.57,4.29c1.06,1.48,2.25,2.87,3.54,4.15c1.44,1.43,3,2.72,4.66,3.89
		c0.93,0.66,1.88,1.33,2.88,1.88c0.32,0.17,0.68,0.31,1.03,0.43c0.06,0.02,0.68,0.2,0.68,0.23v11.48H193.59l-0.06-10.8
		c0,0,15.85-3.18,19.17-37.24C212.74,334.85,277.11,333.61,277.11,333.61z"/>
	<path class="st6" d="M277.38,351.88l-65.11-13.24l0.46-3.79l64.79-0.83C277.52,334.02,273.92,338.17,277.38,351.88z"/>
	<polygon class="st6" points="295,372.09 193.56,372.09 193.55,382.89 295,382.89 	"/>
	<path class="st17" d="M387.59,120.97h-287.4c-12.05-0.42-12.05,9.56-12.05,9.56v47.75v103.42v47.75c0,0,0,9.97,12.05,9.56h287.39
		c0,0,12.88,0.42,12.88-12.05c0-0.31,0-0.73,0-1.23v-5.81c0,0,0-144.48,0-179.84c0-2.52,0-4.5,0-5.81c0-0.51,0-0.92,0-1.23
		C400.45,120.56,387.59,120.97,387.59,120.97z M387.17,321.56l-285.74,1.65l-0.42-93.23l0.42-93.23l285.74,1.65l0.42,91.58
		L387.17,321.56z"/>
	<path class="st1" d="M113.32,226.54h74.48c3.18,0,5.76-2.58,5.76-5.76v-71.16c0-3.18-2.58-5.76-5.76-5.76h-74.48
		c-3.18,0-5.76,2.58-5.76,5.76v71.16C107.55,223.96,110.13,226.54,113.32,226.54z"/>
	<path class="st12" d="M206.69,226.54h167.67c3.18,0,5.76-2.58,5.76-5.76v-71.16c0-3.18-2.58-5.76-5.76-5.76H206.69
		c-3.18,0-5.76,2.58-5.76,5.76v71.16C200.92,223.96,203.51,226.54,206.69,226.54z"/>
	<path class="st8" d="M364.6,168.83H212.42c-3.04,0-5.51-2.47-5.51-5.51l0,0c0-3.04,2.47-5.51,5.51-5.51H364.6
		c3.04,0,5.51,2.47,5.51,5.51l0,0C370.11,166.36,367.64,168.83,364.6,168.83z"/>
	<path class="st18" d="M301.65,181.34h-91.67c-1.69,0-3.07-1.37-3.07-3.07l0,0c0-1.69,1.37-3.07,3.07-3.07h91.67
		c1.69,0,3.07,1.37,3.07,3.07l0,0C304.71,179.97,303.33,181.34,301.65,181.34z"/>
	<g>
		<circle class="st19" cx="216.57" cy="200.94" r="7.62"/>
		<circle class="st20" cx="237.1" cy="200.94" r="7.62"/>
		<circle class="st21" cx="256.69" cy="200.94" r="7.62"/>
		<circle class="st22" cx="277.22" cy="200.94" r="7.62"/>
	</g>
	<path class="st12" d="M380.13,235.82c0-1.25-1-2.25-2.25-2.25H109.8c-1.25,0-2.25,1-2.25,2.25v42.01c0,0.14,0.01,0.27,0.03,0.4
		c-0.02,0.13-0.03,0.27-0.03,0.4v33.02c0,1.25,1,2.25,2.25,2.25h268.08c1.25,0,2.25-1,2.25-2.25v-33.02c0-0.14-0.01-0.27-0.03-0.4
		c0.02-0.13,0.03-0.27,0.03-0.4V235.82z"/>
	<g>
		<path class="st18" d="M185.79,293.49h-40.32c-0.99,0-1.8-0.81-1.8-1.8l0,0c0-0.99,0.81-1.8,1.8-1.8h40.32c0.99,0,1.8,0.81,1.8,1.8
			l0,0C187.6,292.68,186.79,293.49,185.79,293.49z"/>
		<path class="st18" d="M166.34,301.49h-20.86c-0.99,0-1.8-0.81-1.8-1.8l0,0c0-0.99,0.81-1.8,1.8-1.8h20.86c0.99,0,1.8,0.81,1.8,1.8
			l0,0C168.14,300.68,167.33,301.49,166.34,301.49z"/>
		<g>
			<path class="st18" d="M132.9,290.72c-0.61-0.59-1.27-1.12-2.03-1.51c-1.1-0.55-2.27-0.8-3.47-0.89c-1.3-0.1-2.61-0.08-3.91,0.08
				c-1.8,0.23-3.37,0.93-4.67,2.21c-0.24,0.24-0.47,0.51-0.58,0.84c-0.03,0.1-0.06,0.22-0.09,0.32c0,0.47,0,0.93,0,1.41
				c0.25,0.65,0.47,0.81,1.19,0.81c0.52,0,1.05,0,1.57,0c0.68,0,1.06-0.38,1.07-1.06c0-0.42,0.12-0.81,0.33-1.16
				c0.39-0.63,0.95-1.05,1.64-1.3c0.75-0.27,1.52-0.29,2.29-0.25c0.63,0.02,1.25,0.13,1.81,0.43c0.97,0.52,1.59,1.28,1.6,2.43
				c0,0.51,0.44,0.91,0.96,0.91c0.62,0,1.23,0,1.86,0c0.59,0,0.98-0.39,0.98-0.99c0-0.3-0.01-0.61,0-0.91
				C133.47,291.55,133.28,291.09,132.9,290.72z"/>
			<path class="st18" d="M129.89,294.37c-0.17-0.25-0.44-0.36-0.75-0.37c-0.15,0-0.3,0-0.47,0c0-0.38-0.01-0.75,0-1.11
				c0.01-0.32-0.14-0.53-0.4-0.67c-0.23-0.13-0.48-0.16-0.74-0.12c-0.54,0.09-0.76,0.36-0.77,0.9c0,0.32,0,0.66,0,0.99
				c-0.65,0-1.27,0-1.91,0c0-0.38-0.01-0.74,0-1.11c0.01-0.3-0.14-0.51-0.39-0.66c-0.24-0.13-0.5-0.17-0.76-0.13
				c-0.53,0.09-0.75,0.36-0.75,0.9c0,0.32,0,0.66,0,1c-0.16,0-0.29,0-0.43,0c-0.35,0-0.62,0.15-0.82,0.44
				c-0.13,0.18-0.24,0.37-0.36,0.55c-0.68,1.07-1.34,2.17-1.84,3.34c-0.27,0.61-0.42,1.23-0.38,1.9c0.02,0.46,0,0.91,0,1.37
				c0,0.6,0.4,1,1,1c3.79,0,7.57,0,11.37,0c0.6,0,1.01-0.4,1.01-1.01c0-0.48-0.01-0.97,0-1.45c0.02-0.62-0.1-1.22-0.33-1.79
				C131.61,296.9,130.78,295.61,129.89,294.37z M125.79,301.64c-1.57-0.01-2.85-1.3-2.85-2.87c0.01-1.59,1.3-2.87,2.91-2.86
				c1.57,0.01,2.85,1.3,2.84,2.88C128.67,300.37,127.38,301.65,125.79,301.64z"/>
			<path class="st18" d="M125.81,296.86c-1.06,0-1.91,0.85-1.91,1.93c0,1.04,0.86,1.9,1.9,1.9c1.06,0,1.91-0.85,1.91-1.93
				C127.72,297.72,126.86,296.86,125.81,296.86z"/>
		</g>
		<path class="st23" d="M133.46,284.47c-2.23,0-4.02,1.8-4.02,4.02s1.8,4.02,4.02,4.02c2.23,0,4.02-1.8,4.02-4.02
			C137.48,286.28,135.68,284.47,133.46,284.47z M133.46,290.04c-0.85,0-1.53-0.69-1.53-1.53c0-0.85,0.69-1.53,1.53-1.53
			c0.84,0,1.53,0.69,1.53,1.53C134.99,289.35,134.31,290.04,133.46,290.04z"/>
	</g>
	<g>
		<path class="st18" d="M276.3,293.49h-40.32c-0.99,0-1.8-0.81-1.8-1.8l0,0c0-0.99,0.81-1.8,1.8-1.8h40.32c0.99,0,1.8,0.81,1.8,1.8
			l0,0C278.11,292.68,277.3,293.49,276.3,293.49z"/>
		<path class="st18" d="M256.84,301.49h-20.86c-0.99,0-1.8-0.81-1.8-1.8l0,0c0-0.99,0.81-1.8,1.8-1.8h20.86c0.99,0,1.8,0.81,1.8,1.8
			l0,0C258.65,300.68,257.84,301.49,256.84,301.49z"/>
		<g>
			<path class="st18" d="M204.46,291.02v9.25c0,1.25,1,2.25,2.25,2.25h18.23c1.25,0,2.25-1,2.25-2.25v-9.25l-11.37,5.75
				L204.46,291.02z"/>
			<polygon class="st18" points="227.19,288.19 204.46,288.19 215.83,293.94 			"/>
		</g>
		<path class="st23" d="M227.6,284.47c-2.23,0-4.02,1.8-4.02,4.02s1.8,4.02,4.02,4.02s4.02-1.8,4.02-4.02
			C231.64,286.28,229.83,284.47,227.6,284.47z M227.6,290.04c-0.85,0-1.53-0.69-1.53-1.53c0-0.85,0.69-1.53,1.53-1.53
			c0.85,0,1.53,0.69,1.53,1.53S228.45,290.04,227.6,290.04z"/>
	</g>
	<g>
		<path class="st18" d="M366.78,293.49h-40.32c-0.99,0-1.8-0.81-1.8-1.8l0,0c0-0.99,0.81-1.8,1.8-1.8h40.32c0.99,0,1.8,0.81,1.8,1.8
			l0,0C368.58,292.68,367.77,293.49,366.78,293.49z"/>
		<path class="st18" d="M347.32,301.49h-20.86c-0.99,0-1.8-0.81-1.8-1.8l0,0c0-0.99,0.81-1.8,1.8-1.8h20.86c0.99,0,1.8,0.81,1.8,1.8
			l0,0C349.12,300.68,348.31,301.49,347.32,301.49z"/>
		<g>
			<path class="st18" d="M313.33,294.87c-0.23-3.57-3.09-6.44-6.68-6.68v-0.01h-0.47h-0.47v0.01c-3.57,0.23-6.44,3.1-6.68,6.68
				h-0.01v0.47v0.47h0.01c0.23,3.57,3.1,6.43,6.68,6.68v0.01h0.47h0.47v-0.01c3.57-0.23,6.43-3.09,6.68-6.68h0.01v-0.47v-0.47
				H313.33z M303.5,289.75c-0.46,0.61-0.84,1.38-1.13,2.26h-1.43C301.56,291.03,302.45,290.25,303.5,289.75z M300.44,292.97h1.68
				c-0.13,0.6-0.21,1.25-0.23,1.91h-1.9C300.04,294.2,300.19,293.56,300.44,292.97z M299.98,295.83h1.9c0.02,0.67,0.1,1.3,0.23,1.91
				h-1.68C300.19,297.16,300.04,296.51,299.98,295.83z M300.94,298.7h1.43c0.28,0.88,0.66,1.65,1.13,2.26
				C302.45,300.46,301.56,299.68,300.94,298.7z M305.7,301.51c-0.98-0.27-1.83-1.31-2.34-2.8h2.34V301.51z M305.7,297.74h-2.61
				c-0.14-0.6-0.22-1.23-0.24-1.91h2.86v1.91H305.7z M305.7,294.87h-2.86c0.02-0.67,0.12-1.31,0.24-1.91h2.61v1.91H305.7z
				 M305.7,292.01h-2.34c0.52-1.49,1.36-2.55,2.34-2.8V292.01z M311.42,292.01h-1.43c-0.28-0.88-0.66-1.65-1.13-2.26
				C309.91,290.25,310.79,291.03,311.42,292.01z M306.65,289.2c0.98,0.27,1.83,1.31,2.34,2.8h-2.34V289.2z M306.65,292.97h2.61
				c0.14,0.6,0.22,1.23,0.25,1.91h-2.86V292.97z M306.65,295.83h2.86c-0.02,0.67-0.12,1.31-0.25,1.91h-2.61V295.83z M306.65,301.51
				v-2.8h2.34C308.49,300.19,307.63,301.25,306.65,301.51z M308.86,300.96c0.46-0.61,0.84-1.38,1.13-2.26h1.43
				C310.79,299.68,309.91,300.46,308.86,300.96z M311.91,297.74h-1.68c0.13-0.6,0.21-1.25,0.23-1.91h1.9
				C312.33,296.51,312.17,297.16,311.91,297.74z M310.47,294.87c-0.02-0.67-0.1-1.3-0.23-1.91h1.68c0.25,0.6,0.4,1.23,0.46,1.91
				H310.47z"/>
		</g>
		<path class="st6" d="M313.54,284.47c-2.23,0-4.02,1.8-4.02,4.02s1.8,4.02,4.02,4.02c2.23,0,4.02-1.8,4.02-4.02
			C317.57,286.28,315.76,284.47,313.54,284.47z M313.54,290.04c-0.85,0-1.53-0.69-1.53-1.53c0-0.85,0.69-1.53,1.53-1.53
			c0.85,0,1.53,0.69,1.53,1.53C315.08,289.35,314.39,290.04,313.54,290.04z"/>
	</g>
	<polyline class="st8" points="70.51,226.54 60.43,310.38 53.23,309.66 52.19,224.36 70.51,226.54 	"/>
	<polygon class="st13" points="59.53,226.54 78.45,310.38 85.67,309.66 80.71,224.36 	"/>
	<path class="st24" d="M344.69,92.21l6.8,10.35c0,0,1.34,2.09,3.23,1.51c2.12-0.65,15.38-5.81,16.8-6.44
		c1.42-0.63,4.3-2.01,4.77-4.01c0.46-2.01-1-2.77-1-2.77s-0.46-0.35-0.88,0.32c-0.42,0.66-1.35,2.49-1.35,2.49s-0.68,0.74-0.52-0.24
		c0.16-0.98,0.35-1.98-0.44-1.1c-0.78,0.88-1.03,2.42-3.64,3.27c-2.62,0.85-12.26,3.35-12.26,3.35s-0.98,0.46-1.86-0.59
		c-0.88-1.05-4.97-8.96-4.97-8.96L344.69,92.21z"/>
	<path class="st24" d="M319.29,91.89l-6.77,10.24c0,0-1.34,2.06-3.22,1.49c-2.11-0.65-15.3-5.75-16.71-6.39
		c-1.41-0.63-4.28-1.98-4.74-3.97c-0.46-1.98,1-2.73,1-2.73s0.46-0.33,0.88,0.31c0.42,0.66,1.34,2.47,1.34,2.47s0.68,0.73,0.51-0.24
		s-0.35-1.96,0.44-1.08c0.78,0.88,1.03,2.4,3.62,3.24c2.61,0.84,12.19,3.32,12.19,3.32s0.97,0.46,1.84-0.58
		c0.88-1.04,4.93-8.85,4.93-8.85L319.29,91.89z"/>
	<path class="st25" d="M319.44,66.68c0,0,1.8-0.52,1.54-3.45c-0.25-2.94-2.02-5.36,0.62-6.86c2.64-1.5,3.5-2.05,4.73-3.3
		s1.96-2.24,6.18-1.83c0,0,3.34-2.72,6.31-0.29c2.97,2.42,2.04,8.73,2.69,9.72c0.65,0.99,4.65,4.91,5.1,8.29
		c0.44,3.38-1.81,5.43-5.1,5.28c-3.27-0.15-7.68,0-7.68,0h-12.07c0,0-4.02,0.24-4.37-3.75C317.16,67.97,319.44,66.68,319.44,66.68z"
		/>
	<path class="st24" d="M329.4,70.23c0,0,0.07,3.3-0.65,4.37c-0.71,1.08-2.04,1.49-2.04,1.49s1.43,4.55,3.78,4.44
		c2.35-0.12,4.96-1.54,5.89-2.08c0.93-0.53,0.69-2.09,0.69-2.09s-1.64-0.44-2.32-2.44c-0.68-1.99-0.66-4.97-0.66-4.97L329.4,70.23z"
		/>
	<path class="st26" d="M347.77,116.01c0,0,3.26,0.16,5.63,0.16c2.36,0,6.12,0.48,6.12,0.48s0.98,0,1.06,1.21
		c0.08,1.21,0.08,1.69,0.08,1.69s0.08,1.45-1.06,1.45c-1.14,0-8.4,0.81-10.04,0.81s-2.86,0.32-2.86-0.81
		C346.69,119.89,346.61,115.93,347.77,116.01z"/>
	<line class="st27" x1="332.4" y1="110.8" x2="320.47" y2="106.94"/>
	<path class="st28" d="M309.41,103.49c0,0,30.52,9.45,37.2,11.79c0,0,2.2,0.56,2.28,1.69c0.08,1.13-0.16,2.74-0.4,3.55
		c-0.24,0.81-0.98,1.45-2.2,1.21s-28.56-5.66-39.42-8.49l-3.09-0.96c0,0-2.28-1.05-1.88-3.79c0.4-2.74,2.44-5.16,3.92-5.33
		C307.29,103.01,309.41,103.49,309.41,103.49z"/>
	<path class="st26" d="M306.63,116.9c0,0,3.84-0.65,6.12-0.73c2.28-0.08,5.3-0.32,5.8,0c0.48,0.32,0.9,4.68,0.9,4.68
		s0.4,1.21-2.61,0.97c-3.02-0.24-9.95-0.48-9.95-0.48s-1.54-0.08-1.64-1.45c-0.09-1.37,0.16-2.02,0.16-2.02
		S305.65,117.08,306.63,116.9z"/>
	<path class="st11" d="M324.84,113.03c0,0,18.53-5.58,25.13-7.52c6.61-1.94,10.28-3.71,12.4-0.65c2.12,3.07,1.96,6.47-0.48,7.44
		c-2.44,0.97-21.71,5.42-29.7,7.03c-8,1.61-13.22,2.66-13.95,2.34c-0.74-0.32-1.54-2.66-1.38-3.95c0.16-1.29,0.24-1.78,1.8-2.42
		C320.18,114.64,324.84,113.03,324.84,113.03z"/>
	<polygon class="st29" points="341.39,104.3 322.66,104.3 320.47,106.94 332.51,110.72 343.37,107.47 	"/>
	<path class="st27" d="M322.18,92.18"/>
	<path class="st27" d="M336.69,75.86"/>
	<path class="st8" d="M350,89.44l-4.33-8.69c0,0-2.61-5.83-9.15-5.19l1.34,3.1l6.76,14.12L350,89.44z"/>
	<path class="st8" d="M314.01,89.14l4.3-8.6c0,0,2.58-5.76,9.11-5.13l-1.33,3.07l-6.71,13.97L314.01,89.14z"/>
	<ellipse class="st30" cx="331.8" cy="63.71" rx="5.48" ry="9.21"/>
	<path class="st27" d="M331.75,54.95"/>
	<path class="st25" d="M331.8,53.99c0,0-1,2.89-3.04,5.8c-2.04,2.89-4.44,4.47-4.69,4.99s-2.09-0.96-1.39-3.26
		c0.69-2.32,4.51-8.69,8.51-8.81c4-0.12,4.88-2.39,6.76,2.24c1.87,4.62,1.54,9.94,1.54,9.94L331.8,53.99z"/>
	<path class="st30" d="M326.71,62.59c0,0-2.08-0.22-2.36,1.03c-0.29,1.25,0.66,2.39,2.36,2.64S326.71,62.59,326.71,62.59z"/>
	<path class="st13" d="M322.66,104.3h18.73c0,0,0.39-16.39-0.31-20.84c-0.47-2.97-1.43-5.93-3.33-7.48c0,0-0.58-0.55-1.22-0.42
		c-0.22,0.05-0.46,0.17-0.68,0.42c-0.88,0.99-2.32,2.76-4.77,2.46c-2.46-0.29-3.01-2.32-3.01-2.32s-0.62-1.46-1.8-0.33
		c-1.18,1.14-4.25,2.35-4.25,11.67L322.66,104.3z"/>
	<path class="st27" d="M74.99,187.06"/>
	<g>
		<path class="st31" d="M121.32,190.4l-59.19-13.86c-6.2-1.45-10.05-7.66-8.6-13.86l13.86-59.19c1.45-6.2,7.66-10.05,13.86-8.6
			l59.19,13.86c6.2,1.45,10.05,7.66,8.6,13.86l-13.86,59.19C133.72,188,127.52,191.85,121.32,190.4z"/>
	</g>
	<path class="st30" d="M73.17,164.57c0,0,2.14,2.73,2.25,7.6c0.1,4.87-0.51,8.35-2.59,8.39s-6.28-1.26-7.01-2.63
		c-0.73-1.37-2.11-1.35-2.18-4.12c-0.06-2.78,3.27-9.11,6.05-9.17C72.48,164.6,73.17,164.57,73.17,164.57z"/>
	<path class="st32" d="M64.7,174.14c0,0-0.62,3.48-1.94,6.99c-1.31,3.5-1.97,4.91-1.97,4.91s4.28,4.77,8.43,3.99
		c4.15-0.78,4.09-3.56,4.09-3.56s-3.89-3.04-3.98-7.21c-0.09-4.16-0.09-4.16-0.09-4.16L64.7,174.14z"/>
	<path class="st33" d="M75.26,164.53c0,0,1.96-5.6,0.55-6.26c-1.41-0.67-4.15,0.78-4.83,1.5c-0.68,0.71-2.06,0.74-2.77,0.75
		c0,0-6.94,0.15-8.3,1.57c-1.36,1.42-1.35,2.11-1.33,2.81c0.01,0.69,0.07,3.41-0.59,4.88c-0.29,0.63-0.62,3.48,0.83,6.24
		c1.45,2.74,2.86,3.41,3.55,3.4s1.33-0.03,1.37-0.73c0.06-0.75,0.31-1.81,0.63-2.79c0.31-0.93,0.63-2.79,0.63-2.79
		s0.62-3.48,1.97-4.91c1.35-1.43,1.36-1.42,4.12-2.18C73.86,165.25,74.61,166.63,75.26,164.53z"/>
	<path class="st30" d="M66,169.81c1.06,1.16-0.29,3.27-0.29,3.27s-2.06,0.74-2.11-1.35C63.56,169.65,64.95,168.64,66,169.81z"/>
	<path class="st30" d="M84.09,193.91l6.31,8.55c0,0,0.45,0.45,0.9,0c0.45-0.45,8.1-9.91,8.55-11.26c0.45-1.35,0-2.7,1.35-4.96
		c1.35-2.26,2.7-3.16,2.7-3.16s1.35-0.9,0.9,0.45c-0.45,1.35-0.9,2.7,0,3.16c0.9,0.46,8.1,1.8,8.1,1.8s-7.21,2.25-9.02,4.96
		c-1.8,2.7-6.76,11.71-9.02,13.96c-2.25,2.25-4.51,3.61-5.86,2.25c-1.35-1.35-10.36-10.36-10.36-10.36L84.09,193.91z"/>
	<path class="st30" d="M80.03,177.24c0,0-3.16,2.25-3.61,4.51c-0.45,2.25-2.25,5.86-2.25,5.86l1.8,2.25c0,0,3.61-2.7,5.86-4.06
		s6.31-3.16,6.31-3.16l-8.1-1.8c0,0-0.45-1.35,0-2.25S80.03,177.24,80.03,177.24z"/>
	<path class="st26" d="M53.24,315.14c0,0-0.4,1.13,1.94,1.12c2.34-0.02,15.05-0.13,15.05-0.13s2.44-0.51,0.17-1.59
		s-9.08-4.07-9.08-4.07s-0.52-0.14-0.52-1.44l-7.7,0.07L53.24,315.14z"/>
	<path class="st26" d="M78.07,315.14c0,0-0.4,1.13,1.94,1.12c2.34-0.02,15.05-0.13,15.05-0.13s2.44-0.51,0.17-1.59
		c-2.27-1.07-9.08-4.07-9.08-4.07s-0.52-0.14-0.52-1.44l-7.7,0.07L78.07,315.14z"/>
	<path class="st34" d="M70.97,184.69c0,0,0.75-0.62,1.61,0.07c0.86,0.68,3.87,2.91,5.34,5.76c1.46,2.86,1.97,6.83,2.47,16.09
		c0.51,9.27,0.43,19.29,0.43,19.29l-28.71,0.63c0,0-0.91-16.86,1.8-27.22s6.76-13.96,7.66-14.41c0.9-0.45,1.8,0.45,1.8,0.45
		S67.32,188.97,70.97,184.69z"/>
	<g>
		<g>
			<polyline class="st35" points="112.22,390.49 100.14,334.32 96.37,316.82 48.81,316.82 65.84,390.49 			"/>
			<line class="st35" x1="52.95" y1="334.72" x2="100.14" y2="334.32"/>
			<line class="st35" x1="56.93" y1="351.99" x2="103.85" y2="351.59"/>
			<line class="st35" x1="61.02" y1="370.29" x2="107.78" y2="369.89"/>
		</g>
		<g>
			<polyline class="st36" points="32.53,390.49 44.62,334.32 48.39,316.82 95.93,316.82 78.91,390.49 			"/>
			<line class="st36" x1="91.8" y1="334.72" x2="44.62" y2="334.32"/>
			<line class="st36" x1="87.83" y1="351.99" x2="40.9" y2="351.59"/>
			<line class="st36" x1="83.73" y1="370.29" x2="36.96" y2="369.89"/>
		</g>
	</g>
	<ellipse class="st15" cx="413.94" cy="429.34" rx="35.6" ry="5.12"/>
	<path class="st30" d="M410.07,298.69l-29.65-23.38c0,0-0.81-0.54-1.98-2.23c-1.18-1.68-3.45-3.38-4.77-3.01l-2.94-2.73
		c0,0-1.03-0.2,0,0.75c1.03,0.96,1.61,2.13,1.61,2.13s-0.92,0.47-0.66,0.84c0,0-0.74,0.22-0.66,0.77c0,0-1.76,0.55-0.03,2.27
		c1.73,1.73,2.32,2.42,4.22,3.26c1.9,0.84,3.34,1.83,5.21,3.6c1.87,1.76,25.91,24.84,25.91,24.84L410.07,298.69z"/>
	<path class="st25" d="M423.93,292.82c0,0,6.73-0.16,7.79-7.71c1.05-7.55-4.06-10.15-6.97-11.68c-2.92-1.54-4.7-1.3-6.01-3.41
		s-1.79-2.67-1.79-2.67s-5.48,5.7-1.65,10.76C419.14,283.16,423.93,292.82,423.93,292.82z"/>
	<path class="st26" d="M434.89,424.31c0.08,0.02,0.08,0.14,0.1,0.22c0.2,0.83,1.22,5.63-1.38,5.68c-2.65,0.06-12.72,0.13-14.11,0.14
		c-0.1,0-0.18-0.06-0.21-0.16c-0.1-0.39-0.29-1.36,0.39-1.67c0,0,5.85-2.72,7.85-4.31C429.36,422.74,434.09,424.06,434.89,424.31z"
		/>
	<path class="st26" d="M409.61,423.59c0.08,0.03,0.09,0.14,0.1,0.22c0.2,0.9,1.22,6.2-1.38,6.33c-2.66,0.13-14.95,0.01-16.54,0
		c-0.12,0-0.21-0.07-0.24-0.17c-0.12-0.36-0.24-1.2,0.82-1.66c0,0,6.79-2.72,9.89-4.62C405.03,421.98,408.88,423.3,409.61,423.59z"
		/>
	<polygon class="st28" points="436.49,339.95 434.96,424.4 427.52,424.2 421.61,370.59 422.32,355.71 426.63,339.78 	"/>
	<path class="st11" d="M428.64,339.81c0,0-7.03,35.88-9.18,40.05l-9.79,43.82h-7.44l4.62-84.01L428.64,339.81z"/>
	<path class="st30" d="M415.31,278.1c0,0-3.72,3.08-3.77,8.42c-0.05,5.34,0.88,5.53,3.03,5.53s3.86-0.2,4.1,0.98
		c0.24,1.18-0.05,5.78-0.54,7.15c-0.48,1.37,8.9,0,8.9,0s-2.59-7.04-2.99-10.12s0.05-6.56-1.81-9.49
		C420.4,277.6,418.2,275.35,415.31,278.1z"/>
	<polygon class="st37" points="417.22,301.82 409.68,297.62 405.57,305.93 413.94,313.08 	"/>
	<path class="st3" d="M428.64,301.14c0,0,4.52,5.12,6.09,17.5c1.57,12.38,1.76,21.31,1.76,21.31h-29.63c0,0,2.25-17.47,4.24-26.71
		c1.99-9.25,5.57-12.98,5.57-12.98s0.93-1.13,2.05-0.39c1.13,0.74,3.82,0.88,6.21-0.25C427.34,298.48,427.88,300.11,428.64,301.14z"
		/>
	<path class="st30" d="M422.65,282.74c0,0,1.61-0.39,2.35,0.44s-0.15,2.64-1.61,3.18C421.91,286.91,422.65,282.74,422.65,282.74z"/>
	<path class="st30" d="M418.44,316.45c0,0-3.38,23.48-5.14,29.87c-1.76,6.39-4.4,12.4-4.4,12.4s-1.18,2.94,0,4.04
		c1.18,1.1,3.95,2.35,4.51,0.37c0.55-1.98,0.55-6.24,1.29-7.19c0.74-0.96,7.11-15.78,9.25-24.66c2.13-8.88,2.49-12.84,2.49-12.84
		L418.44,316.45z"/>
	<ellipse class="st15" cx="316.5" cy="406.21" rx="17.32" ry="5.6"/>
	<path class="st38" d="M284.72,345.28c0,0,4.13-1.68,3.82-6.41c-0.3-4.74-2.74-8.09,2.29-6.72c5.04,1.37,6.73,1.98,10.4,1.22
		c3.65-0.76,6.71-2.29,5.11,2.44c-1.6,4.74-3.33,8.7,0.44,9.47c3.77,0.76,7.82-2.09,8.3,5.33c0.48,7.41-5.5,15.75-15.17,16.06
		c-9.67,0.3-13.95-3.7-13.95-3.7s-2.59-3.65,1.45-4.57c4.05-0.9,8.17-2.62,6.11-4.51s-8.78-2.04-8.78-2.04
		S276.31,350.16,284.72,345.28z"/>
	<path class="st6" d="M328.94,346.5c-0.68-4.73-0.16-8.13,8.62-9.41c8.78-1.28,13.9,3.99,14.43,9.41c0.53,5.42-7.1,7.39-7.1,7.39
		s-5.42,1.54-2.67,6.28c2.74,4.74,4,9.32-2.24,10.01s-13.06-0.96-16.87-3.49c-3.8-2.54-7.7-8.96-3.34-12.31c0,0,1.22-0.84,5.42-1.07
		C329.39,353.07,328.94,346.5,328.94,346.5z"/>
	<path class="st39" d="M298.03,345.74c0,0,7.3,16.5,8.29,27.73"/>
	<path class="st40" d="M338.59,348.45c0,0-12.91,19.17-15.97,25.58"/>
	<path class="st41" d="M301.82,372.16h29.63c0,0,3.25,0.23,2.97,4.66c-0.24,4.08-5.42,3.19-8.09,3.19c-2.67,0-25.16,0-25.16,0
		s-3.64,0.62-3.64-3.5C297.54,372.38,298.92,372.16,301.82,372.16z"/>
	<polygon class="st41" points="301.19,380.02 305.67,406.21 325.57,406.21 328.94,386.55 301.22,380.02 	"/>
	<polygon class="st42" points="301.22,380.02 328.94,386.55 330.06,380.02 	"/>
	<g>
		<path class="st10" d="M313.96,373.15c0,0,1.5-29.05,10.16-47.28"/>
		<path class="st3" d="M331.26,315.39c0,0,0.71,8.92-7.99,12.4C323.26,327.8,321.38,320.18,331.26,315.39z"/>
		<path class="st3" d="M318.19,343.78c0,0,3.21-7.61,13.07-6.59C331.27,337.18,330.5,344.77,318.19,343.78z"/>
		<path class="st3" d="M314.96,362.92c0,0,1.66-8.09,11.53-9.02C326.48,353.9,327.21,361.47,314.96,362.92z"/>
		<path class="st3" d="M314.61,362.96c0,0,1.14-8.17-7.85-12.36C306.76,350.6,303.54,357.51,314.61,362.96z"/>
		<path class="st3" d="M318.3,343.72c0,0,2.18-7.97-6.21-13.26C312.1,330.46,308.01,336.89,318.3,343.72z"/>
	</g>
	<g>
		<path class="st43" d="M117.21,155.5c-0.25-4.35-1.51-8.31-4.46-11.61c-0.53-0.6-1.14-1.14-1.73-1.73
			c-1.46,1.93-3.16,3.44-5.22,4.51c-3.17,1.65-6.33,1.83-9.44-0.15c-2.14-1.37-3.54-3.35-4.45-5.7c-0.37-0.93-0.63-1.91-0.95-2.91
			c-2.01,0.4-4.77,1.89-6.56,3.56c-4.14,3.86-6.19,8.76-7.07,14.24c-0.17,1.08,0.22,1.75,1.25,2.17c0.63,0.25,1.3,0.44,1.97,0.59
			c10.56,2.32,21.11,4.61,31.67,6.92c0.5,0.1,0.99,0.21,1.5,0.28c1.53,0.22,2.35-0.35,2.72-1.84
			C117.09,161.07,117.37,158.3,117.21,155.5z"/>
		<path class="st43" d="M96.05,142.81c1.89,2.39,4.45,3.26,7.1,2.47c1.49-0.45,2.77-1.26,3.91-2.27c2.49-2.23,4.23-4.95,5.26-8.12
			c1.11-3.44,1.01-6.83-0.62-10.09c-2.69-5.33-8.85-6.79-13.64-3.25c-2.59,1.93-4.1,4.55-4.82,7.67c-0.42,1.83-0.46,3.69-0.24,5.56
			C93.35,137.69,94.19,140.46,96.05,142.81z"/>
	</g>
	<g>
		<polygon class="st6" points="127.28,263.81 118.16,258.67 118.16,248.48 127.28,243.58 		"/>
		<polygon class="st18" points="127.28,253.83 136.4,248.48 127.28,243.59 		"/>
	</g>
	<path class="st8" d="M224.75,258.82h-74.31c-2.55,0-4.61-2.06-4.61-4.61v-1.01c0-2.55,2.06-4.61,4.61-4.61h74.31
		c2.55,0,4.61,2.06,4.61,4.61v1.01C229.37,256.76,227.3,258.82,224.75,258.82z"/>
	<path class="st18" d="M364.48,265.06H147.63c-0.99,0-1.8-0.81-1.8-1.8l0,0c0-0.99,0.81-1.8,1.8-1.8h216.86c0.99,0,1.8,0.81,1.8,1.8
		l0,0C366.28,264.25,365.47,265.06,364.48,265.06z"/>
	<path class="st18" d="M279.58,271.38H148.04c-0.99,0-1.8-0.81-1.8-1.8l0,0c0-0.99,0.81-1.8,1.8-1.8h131.54c0.99,0,1.8,0.81,1.8,1.8
		l0,0C281.38,270.57,280.58,271.38,279.58,271.38z"/>
	<path class="st17" d="M85.44,194.36c0,0-4.06-5.86-8.55-7.66s-6.76,1.8-4.51,5.41c2.25,3.61,6.31,8.55,6.31,8.55L85.44,194.36z"/>
	<path class="st37" d="M417.22,317.64c0,0,2.03-12.94,7.46-13c0,0,3.08,0,3.16,4.69c0.08,4.69-0.37,10.26-0.37,10.26L417.22,317.64z
		"/>
</g>
</svg>
