<?xml version="1.0" encoding="utf-8"?>
<!-- Generator: Adobe Illustrator 23.0.1, SVG Export Plug-In . SVG Version: 6.00 Build 0)  -->
<svg version="1.1" id="Layer_1" xmlns="http://www.w3.org/2000/svg" xmlns:xlink="http://www.w3.org/1999/xlink" x="0px" y="0px"
	 viewBox="0 0 150 55" style="enable-background:new 0 0 150 55;" xml:space="preserve">
<style type="text/css">
	.st0{fill:#06727D;}
	.st1{fill:#05606A;}
</style>
<g>
	<g>
		<polygon class="st0" points="14.72,43.82 0,35.53 0,19.07 14.72,11.18 		"/>
		<polygon class="st1" points="14.72,27.71 29.44,19.08 14.72,11.18 		"/>
	</g>
	<path d="M133.77,28.05c0.94-0.69,2.06-1.08,3.37-0.89c1.51,0.22,2.57,0.75,3.53,2.53c0.32-0.48,0.72-0.85,1.04-1.18
		c1.5-1.55,3.32-1.84,5.27-1.08c2.02,0.8,2.86,2.54,2.96,4.56c0.13,2.46,0.05,4.93,0.01,7.4c-0.07,1.39-1.35,1.17-1.35-0.09
		c0.04-2.44,0.05-4.87,0-7.31c-0.04-2.18-1.55-3.78-4.02-3.57c-2.07,0.17-3.14,2.07-3.18,3.74c-0.05,2.12-0.01,4.25-0.01,6.37
		c0,2.71-1.21,1.75-1.21,0.77c-0.05-2.22-0.01-4.43-0.04-6.65c-0.01-1.45-0.32-2.85-1.65-3.66c-0.61-0.37-1.41-0.54-2.13-0.55
		c-2.49-0.04-3.44,1.74-3.46,3.69c-0.03,2.31-0.01,4.62,0,6.93c0,0.54-0.02,1.06-0.71,1.07c-0.68,0.01-0.73-0.49-0.73-1.04
		c0.01-3.47,0-6.93,0.01-10.4c0,0-0.04-1.21,0.46-1.24c0.64-0.05,0.71,0.18,0.78,0.73c0.06,0.49,0.01,0.84,0.01,0.84L133.77,28.05z"
		/>
	<path d="M100.83,29.12c2.55-2.7,6.89-2.84,9.32,0.09c0.64,0.78,1.03,1.96,1.1,2.99c0.16,2.33,0.05,4.68,0.06,7.02
		c-0.03,0.46-0.02,0.92-0.6,0.92c-0.61,0-0.69-0.41-0.7-0.98c0.02-1.97,0.01-3.93,0.01-5.9c0-1.79-0.43-3.43-2.15-4.31
		c-0.7-0.36-1.57-0.48-2.38-0.53c-1.14-0.07-2.27,0.14-3.22,0.85c-1.02,0.76-1.46,1.83-1.48,3.05c-0.04,2.28-0.01,4.56-0.02,6.84
		c0,0.42,0.02,0.97-0.56,0.97c-0.61,0-0.7-0.45-0.69-0.98c0.02-3.59,0.01-7.18,0.01-10.77c0-1.33,1.07-1.13,1.19-0.59
		C100.8,28.19,100.8,28.62,100.83,29.12z"/>
	<path d="M125.82,38.33c-2.11,2.13-4.56,2.21-6.98,1.57c-1.32-0.35-2.41-1.36-3.05-2.77c-0.72-1.58-0.52-3.2-0.55-4.82
		c-0.02-1.37,0.02-2.75-0.02-4.12c0-1.09,1.34-1.28,1.34,0c0.06,2.06,0.02,4.12,0.04,6.18c0.02,2.28,1.22,3.96,3.2,4.5
		c2.24,0.62,4.5-0.18,5.6-2.1c0.32-0.56,0.44-1.29,0.45-1.95c0.05-2.18,0.02-4.37,0.02-6.56c0-0.42-0.02-0.98,0.55-0.98
		c0.66,0,0.67,0.53,0.67,1.01c0,3.59,0,7.18,0,10.77c0,0.47,0.06,1.01-0.61,1.04c-0.71,0.02-0.66-0.54-0.66-1.01
		C125.83,38.92,125.85,38.75,125.82,38.33z"/>
	<path d="M65.1,29.1c-0.54,0-1.04-0.03-1.51-0.03c-1.4,0-1.32-1.28-0.03-1.28c0.49,0,0.98-0.02,1.59-0.02c0-1.27,0-2.44,0-3.62
		c0-0.52,0.01-1.06,0.73-1.06c0.72,0.01,0.73,0.55,0.73,1.07c0,1.15,0,2.3,0,3.61c0.99,0,1.92-0.01,2.84,0.03
		c1.12,0.05,1.06,1.37-0.06,1.33c-0.9-0.04-1.79-0.01-2.74-0.01c0,2.47-0.09,4.84,0.03,7.2c0.08,1.54,1.35,2.41,2.91,2.55
		c1.76,0.16,1.3,1.25,0.46,1.29c-2.82,0.25-4.81-1.61-4.89-4.31c-0.06-1.93-0.01-3.87-0.02-5.81C65.15,29.74,65.12,29.47,65.1,29.1z
		"/>
	<path d="M75.3,29.26c1.21-1.38,2.49-2.15,4.12-2.21c1.68-0.06,2.03,1.25,1.05,1.46c-0.42,0.09-0.87,0.03-1.31,0.03
		c-2.34,0-3.89,1.52-3.92,3.87c-0.02,2.25,0.02,4.5-0.03,6.75c-0.06,1.62-1.22,1.33-1.23,0c0.02-3.6,0.01-7.19,0.02-10.78
		c0-1.52,1.06-1.26,1.26,0C75.3,28.72,75.29,29.06,75.3,29.26z"/>
	<path d="M45.14,24.53c-1.05-1.53-2.3-2.68-4.25-2.73c-1.75-0.04-3.5,0.04-5.25-0.03c-0.9-0.03-1.18,0.23-1.17,1.15
		c0.04,5.37,0.02,10.74,0.02,16.12c0,0.33,0.08,1.07,0.76,1.07c0.71,0,0.67-1.13,0.67-1.44c0-1.71,0-3.42,0-5.22
		c0.8,0,1.48,0.02,2.15,0c1.79-0.07,3.61,0.25,5.27-0.89c1.37-0.95,2.25-2.18,2.47-3.74C46.02,27.37,46.07,25.88,45.14,24.53z
		 M42.4,31.65c-0.43,0.29-1.06,0.39-1.6,0.41c-1.58,0.05-3.17,0.02-4.81,0.02c0-3.1,0-6.05,0-9.16c2.08,0.21,4.16-0.42,6.11,0.59
		c1.43,0.74,2.34,1.86,2.47,3.56C44.7,29.02,43.99,30.56,42.4,31.65z"/>
	<path d="M60.61,33.41c-0.03-2.1-0.75-3.81-2.58-5.09c-2.18-1.51-5.67-1.77-7.7-0.24c-2.22,1.68-3.17,3.98-2.73,6.74
		c0.38,2.41,1.72,4.35,4.02,5.03c2.78,0.82,5.59,0.62,7.78-1.96c0,0.46,0,0.91-0.01,1.38c0,1.25,1.2,1.44,1.2,0.02
		C60.6,37.34,60.64,35.38,60.61,33.41z M54.15,39.04c-2.67,0.05-5.3-1.96-5.23-5.38c0.06-3.08,1.95-5.2,5.13-5.28
		c3.52-0.09,5.34,2.89,5.34,5.28C59.39,36.62,57.06,39.03,54.15,39.04z"/>
	<path d="M89.36,27.07c-4.04,0-6.66,2.79-6.74,6.6c-0.05,2.48,1.48,4.81,3.81,6.04c1.95,1.04,4.86,0.52,6.21-0.26
		c2.08-1.2,3.29-3.57,3.27-5.72C95.87,29.91,93.15,27.07,89.36,27.07z M92.03,38.54c-1.1,0.66-3.49,1.09-5.1,0.22
		c-1.91-1.04-3.16-3.01-3.12-5.1c0.06-3.21,2.22-5.57,5.53-5.57c3.11,0,5.35,2.4,5.38,5.62C94.74,35.53,93.74,37.53,92.03,38.54z"/>
</g>
</svg>
