<?xml version="1.0" encoding="utf-8"?>
<!-- Generator: Adobe Illustrator 23.0.1, SVG Export Plug-In . SVG Version: 6.00 Build 0)  -->
<svg version="1.1" id="Layer_1" xmlns="http://www.w3.org/2000/svg" xmlns:xlink="http://www.w3.org/1999/xlink" x="0px" y="0px"
	 viewBox="0 0 150 55" style="enable-background:new 0 0 150 55;" xml:space="preserve">
<style type="text/css">
	.st0{fill:#FFFFFF;}
	.st1{fill:#BABABA;}
</style>
<g>
	<polygon class="st0" points="14.7,43.8 0,35.5 0,19.1 14.7,11.2 	"/>
	<polygon class="st1" points="14.7,27.7 29.4,19.1 14.7,11.2 	"/>
	<g>
		<path class="st0" d="M133.8,28c0.9-0.7,2.1-1.1,3.4-0.9c1.5,0.2,2.6,0.8,3.5,2.5c0.3-0.5,0.7-0.9,1-1.2c1.5-1.5,3.3-1.8,5.3-1.1
			c2,0.8,2.9,2.5,3,4.6c0.1,2.5,0.1,4.9,0,7.4c-0.1,1.4-1.4,1.2-1.4-0.1c0-2.4,0.1-4.9,0-7.3c0-2.2-1.6-3.8-4-3.6
			c-2.1,0.2-3.1,2.1-3.2,3.7c-0.1,2.1,0,4.2,0,6.4c0,2.7-1.2,1.8-1.2,0.8c-0.1-2.2,0-4.4,0-6.7c0-1.5-0.3-2.9-1.6-3.7
			c-0.6-0.4-1.4-0.5-2.1-0.5c-2.5,0-3.4,1.7-3.5,3.7c0,2.3,0,4.6,0,6.9c0,0.5,0,1.1-0.7,1.1c-0.7,0-0.7-0.5-0.7-1
			c0-3.5,0-6.9,0-10.4c0,0,0-1.2,0.5-1.2c0.6,0,0.7,0.2,0.8,0.7c0.1,0.5,0,0.8,0,0.8L133.8,28z"/>
		<path class="st0" d="M100.8,29.1c2.6-2.7,6.9-2.8,9.3,0.1c0.6,0.8,1,2,1.1,3c0.2,2.3,0.1,4.7,0.1,7c0,0.5,0,0.9-0.6,0.9
			c-0.6,0-0.7-0.4-0.7-1c0-2,0-3.9,0-5.9c0-1.8-0.4-3.4-2.2-4.3c-0.7-0.4-1.6-0.5-2.4-0.5c-1.1-0.1-2.3,0.1-3.2,0.9
			c-1,0.8-1.5,1.8-1.5,3.1c0,2.3,0,4.6,0,6.8c0,0.4,0,1-0.6,1c-0.6,0-0.7-0.5-0.7-1c0-3.6,0-7.2,0-10.8c0-1.3,1.1-1.1,1.2-0.6
			C100.8,28.2,100.8,28.6,100.8,29.1z"/>
		<path class="st0" d="M125.8,38.3c-2.1,2.1-4.6,2.2-7,1.6c-1.3-0.3-2.4-1.4-3.1-2.8c-0.7-1.6-0.5-3.2-0.6-4.8c0-1.4,0-2.8,0-4.1
			c0-1.1,1.3-1.3,1.3,0c0.1,2.1,0,4.1,0,6.2c0,2.3,1.2,4,3.2,4.5c2.2,0.6,4.5-0.2,5.6-2.1c0.3-0.6,0.4-1.3,0.4-2
			c0.1-2.2,0-4.4,0-6.6c0-0.4,0-1,0.6-1c0.7,0,0.7,0.5,0.7,1c0,3.6,0,7.2,0,10.8c0,0.5,0.1,1-0.6,1c-0.7,0-0.7-0.5-0.7-1
			C125.8,38.9,125.8,38.8,125.8,38.3z"/>
		<path class="st0" d="M65.1,29.1c-0.5,0-1,0-1.5,0c-1.4,0-1.3-1.3,0-1.3c0.5,0,1,0,1.6,0c0-1.3,0-2.4,0-3.6c0-0.5,0-1.1,0.7-1.1
			c0.7,0,0.7,0.5,0.7,1.1c0,1.1,0,2.3,0,3.6c1,0,1.9,0,2.8,0c1.1,0,1.1,1.4-0.1,1.3c-0.9,0-1.8,0-2.7,0c0,2.5-0.1,4.8,0,7.2
			c0.1,1.5,1.3,2.4,2.9,2.5c1.8,0.2,1.3,1.2,0.5,1.3c-2.8,0.2-4.8-1.6-4.9-4.3c-0.1-1.9,0-3.9,0-5.8C65.1,29.7,65.1,29.5,65.1,29.1z
			"/>
		<path class="st0" d="M75.3,29.3c1.2-1.4,2.5-2.1,4.1-2.2c1.7-0.1,2,1.2,1.1,1.5c-0.4,0.1-0.9,0-1.3,0c-2.3,0-3.9,1.5-3.9,3.9
			c0,2.2,0,4.5,0,6.8c-0.1,1.6-1.2,1.3-1.2,0c0-3.6,0-7.2,0-10.8c0-1.5,1.1-1.3,1.3,0C75.3,28.7,75.3,29.1,75.3,29.3z"/>
		<path class="st0" d="M45.1,24.5c-1-1.5-2.3-2.7-4.2-2.7c-1.8,0-3.5,0-5.2,0c-0.9,0-1.2,0.2-1.2,1.1c0,5.4,0,10.7,0,16.1
			c0,0.3,0.1,1.1,0.8,1.1c0.7,0,0.7-1.1,0.7-1.4c0-1.7,0-3.4,0-5.2c0.8,0,1.5,0,2.2,0c1.8-0.1,3.6,0.2,5.3-0.9
			c1.4-1,2.2-2.2,2.5-3.7C46,27.4,46.1,25.9,45.1,24.5z M42.4,31.6c-0.4,0.3-1.1,0.4-1.6,0.4c-1.6,0-3.2,0-4.8,0c0-3.1,0-6,0-9.2
			c2.1,0.2,4.2-0.4,6.1,0.6c1.4,0.7,2.3,1.9,2.5,3.6C44.7,29,44,30.6,42.4,31.6z"/>
		<path class="st0" d="M60.6,33.4c0-2.1-0.8-3.8-2.6-5.1c-2.2-1.5-5.7-1.8-7.7-0.2c-2.2,1.7-3.2,4-2.7,6.7c0.4,2.4,1.7,4.3,4,5
			c2.8,0.8,5.6,0.6,7.8-2c0,0.5,0,0.9,0,1.4c0,1.2,1.2,1.4,1.2,0C60.6,37.3,60.6,35.4,60.6,33.4z M54.1,39c-2.7,0-5.3-2-5.2-5.4
			c0.1-3.1,2-5.2,5.1-5.3c3.5-0.1,5.3,2.9,5.3,5.3C59.4,36.6,57.1,39,54.1,39z"/>
		<path class="st0" d="M89.4,27.1c-4,0-6.7,2.8-6.7,6.6c-0.1,2.5,1.5,4.8,3.8,6c1.9,1,4.9,0.5,6.2-0.3c2.1-1.2,3.3-3.6,3.3-5.7
			C95.9,29.9,93.1,27.1,89.4,27.1z M92,38.5c-1.1,0.7-3.5,1.1-5.1,0.2c-1.9-1-3.2-3-3.1-5.1c0.1-3.2,2.2-5.6,5.5-5.6
			c3.1,0,5.3,2.4,5.4,5.6C94.7,35.5,93.7,37.5,92,38.5z"/>
	</g>
</g>
</svg>
