<?xml version="1.0" encoding="utf-8"?>
<!-- Generator: Adobe Illustrator 23.0.1, SVG Export Plug-In . SVG Version: 6.00 Build 0)  -->
<svg version="1.1" id="Layer_1" xmlns="http://www.w3.org/2000/svg" xmlns:xlink="http://www.w3.org/1999/xlink" x="0px" y="0px"
	 viewBox="0 0 600 450" style="enable-background:new 0 0 600 450;" xml:space="preserve">
<style type="text/css">
	.st0{fill:#EEF9FF;}
	.st1{fill:#E9E8EE;}
	.st2{fill:none;stroke:#DE051F;stroke-miterlimit:10;stroke-dasharray:6;}
	.st3{fill:#023EA1;}
	.st4{fill:none;stroke:#FFFFFF;stroke-miterlimit:10;}
	.st5{fill:none;stroke:#EE384E;stroke-miterlimit:10;}
	.st6{fill:none;stroke:#FFFFFF;stroke-linecap:round;stroke-linejoin:round;stroke-miterlimit:10;}
	.st7{fill:#FCBE42;}
	.st8{fill:#EE384E;}
	.st9{fill:none;stroke:#023EA1;stroke-miterlimit:10;}
	.st10{fill:none;stroke:#003EB0;stroke-miterlimit:10;stroke-dasharray:6;}
	.st11{fill:#003EB0;}
	.st12{fill:#0064B7;}
	.st13{fill:#FFFFFF;stroke:#DCE8F5;stroke-miterlimit:10;}
	.st14{fill:#DCE8F5;}
	.st15{fill:none;stroke:#0064B7;stroke-miterlimit:10;}
	.st16{fill:#0064B7;stroke:#0064B7;stroke-miterlimit:10;}
	.st17{fill:#6E839D;}
	.st18{fill:#DE051F;}
	.st19{fill:none;stroke:#003EB0;stroke-miterlimit:10;}
	.st20{fill:#E9E8ED;}
	.st21{fill:#649EEA;}
	.st22{fill:none;stroke:#649EEA;stroke-miterlimit:10;}
	.st23{fill:#0054A5;}
	.st24{fill:#006AD5;}
	.st25{fill:none;stroke:#FCBE42;stroke-miterlimit:10;}
	.st26{fill:#FFBF99;}
	.st27{fill:#0064E1;}
	.st28{fill:none;stroke:#AA3D43;stroke-width:0.5;stroke-miterlimit:10;}
	.st29{fill:#170856;}
	.st30{fill:#F79F03;}
</style>
<g>
	<path class="st0" d="M292.51,69.25c0,0,44,11.71,80.67-11.71s42.77-55.49,93.17-35.13s132.87,59.83,108.43,99.4
		s-71.27,68.6-39.71,102.45c0,0,52.11,27.02,42.76,61.34c-15.66,57.46-50.95,86.88-104.91,96.56
		c-53.96,9.67-331.88,3.22-379.22-31.9s-81.99-97.24-70.79-151.7s61.23-60.07,84.14-50.91c22.91,9.16,61.78-18.84,64.94-49.89
		s15.89-57.02,41.85-62.62S263.73,65.43,292.51,69.25z"/>
	<ellipse class="st1" cx="421.42" cy="440.1" rx="65.78" ry="9.4"/>
	<g>
		<circle class="st2" cx="277.37" cy="120.51" r="65.25"/>
		<g>
			
				<ellipse transform="matrix(0.1866 -0.9824 0.9824 0.1866 174.6055 323.9391)" class="st3" cx="282.94" cy="56.52" rx="10.38" ry="10.43"/>
			<polyline class="st4" points="279.62,52.68 282.35,59.62 287.44,54.17 			"/>
		</g>
	</g>
	<g>
		<path class="st5" d="M406.6,37.75c0,0,4.38-8.99-3.39-12.77c-7.78-3.78-19.22,2.3-18.69,9.34s5.95,9.3,1.4,12.78
			S370.28,62,376.27,67.29c5.99,5.29,14.13,1.37,15.18,11.62c1.05,10.24-14.63,20.41,0.24,27.55c14.86,7.13,43.31,13.08,42.62-12.32
			c-0.69-25.41-20.5-10.07-15.5-29.12s-5.05-14.31-10.71-18.09S406.6,37.75,406.6,37.75z"/>
		<path class="st5" d="M397.34,52.16c0,0,11,24.04,12.85,47.73c1.85,23.69-1.63,29.06-1.63,29.06"/>
	</g>
	<g>
		<path class="st3" d="M454.38,33.61c0,0-5.46,3.79-12.51,10.79v13.64l-5.53-7.79c-18.96,21.36-41.81,61.75-8.76,112.15
			C427.58,162.41,508.26,155.28,454.38,33.61z"/>
		<polyline class="st4" points="424.72,65.69 441.88,112.61 454.38,33.61 		"/>
		<line class="st4" x1="468.46" y1="73.11" x2="441.88" y2="112.61"/>
	</g>
	<g>
		<path class="st3" d="M530.06,158.68c0,0,0.18-8.63,7.69-8.39s13.94,9.48,10.74,14.64s-8.29,4.72-6.15,9.2
			c2.14,4.48,6.17,17.66-0.56,19.29c-6.73,1.63-11.47-4.63-16.34,2.78c-4.87,7.41,3.2,21.47-11.11,20.95
			c-14.32-0.52-38.66-7.39-28.05-26.53c10.61-19.14,19.84,0.53,23.54-16.03s9.58-8.91,15.46-9.52
			C531.15,164.48,530.06,158.68,530.06,158.68z"/>
		<path class="st6" d="M531.51,173.41c0,0-18.04,13.95-28.87,31.31c-10.83,17.36-10.27,22.85-10.27,22.85"/>
	</g>
	<g>
		<path class="st7" d="M220.93,54.05c0,0,2.7-9.63-5.63-11.95c-8.33-2.32-18.5,5.71-16.71,12.55s7.53,8.08,3.67,12.32
			s-12.71,17.46-5.86,21.59s14.15-1.19,17.02,8.7c2.87,9.89-10.72,22.71,5.18,27.06s44.95,5.09,39.72-19.78
			c-5.24-24.87-21.98-6.23-20.48-25.87c1.5-19.64-7.54-13.18-13.79-15.87S220.93,54.05,220.93,54.05z"/>
		<path class="st6" d="M214.4,69.89c0,0,15.14,21.67,21.21,44.64c6.07,22.97,3.62,28.88,3.62,28.88"/>
	</g>
	<g>
		<path class="st5" d="M478.09,246.45c0,0,47.05-22.93,71.14-50.1"/>
		<path class="st5" d="M561.58,177.17c0,0-15.27,5.09-14.91,21.97C546.67,199.13,560.61,196.9,561.58,177.17z"/>
		<path class="st5" d="M523.77,218.77c0,0,10.34-10.67,1.71-26.28C525.48,192.48,513.47,199.1,523.77,218.77z"/>
		<path class="st5" d="M494.36,237.61c0,0,12.23-8.44,6.82-25.44C501.18,212.17,488.11,216.31,494.36,237.61z"/>
		<path class="st5" d="M494.52,238.21c0,0,12.74-7.65,25.99,4.3C520.51,242.51,511.34,252.71,494.52,238.21z"/>
		<path class="st5" d="M523.79,218.56c0,0,11.66-9.21,26.32,0.95C550.11,219.51,542.32,230.79,523.79,218.56z"/>
	</g>
	<g>
		<path class="st8" d="M40.75,191.02c0,0-10.69-0.19-10.51-9.43c0.18-9.24,11.52-17.19,17.98-13.27c6.45,3.92,5.97,10.19,11.49,7.53
			s21.78-7.66,23.91,0.61c2.13,8.28-5.55,14.13,3.69,20.1s26.55-4.02,26.13,13.6s-8.56,47.61-32.43,34.62
			c-23.87-12.99,0.36-24.42-20.22-28.91s-11.18-11.76-12.03-18.99C47.91,189.65,40.75,191.02,40.75,191.02z"/>
		<path class="st6" d="M58.97,189.19c0,0,17.56,22.15,39.23,35.41s28.47,12.56,28.47,12.56"/>
	</g>
	<g>
		<path class="st9" d="M83.9,143.89c0,0-3.15,11.04,5.66,8.79c8.81-2.25,14.01-0.94,14.88,8.14c0.87,9.08,5.42,13.61,10.8,13.57
			s15.19-1.7,15.72,10.71c0.53,12.41,3.26,36.45-10.26,38.63c-13.52,2.18-30.21-10.7-30.65-20.06c-0.43-9.36,4.75-15.81-4.09-21.31
			s-12.89,3.64-19.5-5.17c-6.6-8.81-14.09-17.15-4-28.67C71.52,138.18,84.08,137.4,83.9,143.89z"/>
		<g>
			<path class="st9" d="M78.41,156.13c0,0,41.1,55.62,54.84,67.29"/>
			<polyline class="st9" points="116.27,183.05 112.9,200.75 97.83,202.69 			"/>
			<polyline class="st9" points="94.39,159.21 90.07,171.62 77.68,174.78 			"/>
		</g>
	</g>
	<g>
		<circle class="st10" cx="122.87" cy="281.88" r="65.25"/>
		<g>
			<ellipse class="st7" cx="58.97" cy="288.35" rx="10.38" ry="10.43"/>
			<polyline class="st4" points="54.02,287.21 59,293.42 61.42,286.38 			"/>
		</g>
	</g>
	<g>
		<circle class="st10" cx="478.67" cy="308.68" r="65.25"/>
	</g>
	
		<rect x="538.91" y="303.67" transform="matrix(-0.7071 -0.7071 0.7071 -0.7071 710.2513 911.5581)" class="st8" width="10.02" height="10.02"/>
	
		<rect x="331.44" y="28.6" transform="matrix(-0.7071 -0.7071 0.7071 -0.7071 550.5958 295.2849)" class="st8" width="10.02" height="10.02"/>
	
		<rect x="66.82" y="69.74" transform="matrix(-0.7071 -0.7071 0.7071 -0.7071 69.7745 178.3903)" class="st11" width="10.02" height="10.02"/>
	<path class="st5" d="M533.42,66.57l-18.32-7.46L512,66.53c-0.83-1.2-2.22-1.99-3.79-1.99c-2.55,0-4.61,2.07-4.61,4.61
		c0,2.55,2.07,4.61,4.61,4.61c0.27,0,0.54-0.03,0.8-0.07l-3.08,7.39l7.73,3.19c-0.02-0.18-0.04-0.36-0.04-0.55
		c0-2.55,2.07-4.61,4.61-4.61s4.61,2.07,4.61,4.61c0,1.47-0.69,2.77-1.75,3.61l7.36,3.04c0,0,4.84-11.71,7-17.44
		C537.62,67.21,533.42,66.57,533.42,66.57z"/>
	<path class="st9" d="M539.35,29.95l19.01-5.47l-2.15-7.74c1.4,0.43,2.97,0.19,4.21-0.78c2-1.58,2.35-4.48,0.77-6.48
		c-1.58-2-4.48-2.35-6.48-0.77c-0.21,0.17-0.41,0.35-0.58,0.55l-2.15-7.71l-8.04,2.28c0.13,0.13,0.25,0.26,0.37,0.41
		c1.58,2,1.23,4.9-0.77,6.48s-4.9,1.23-6.48-0.77c-0.91-1.15-1.17-2.6-0.86-3.92l-7.66,2.17c0,0,3.44,12.19,5.28,18.03
		S539.35,29.95,539.35,29.95z"/>
	<rect x="94.06" y="101.89" class="st12" width="416.43" height="284.39"/>
	<rect x="105" y="108.14" class="st13" width="394.55" height="266.42"/>
	<rect x="105" y="108.14" class="st13" width="394.55" height="260.17"/>
	<rect x="105" y="106.82" class="st13" width="394.55" height="254.7"/>
	<path class="st14" d="M180.22,191.35h-42.63c-2.47,0-4.47-2-4.47-4.47v-3.57c0-2.47,2-4.47,4.47-4.47h42.63
		c2.47,0,4.47,2,4.47,4.47v3.57C184.69,189.35,182.69,191.35,180.22,191.35z"/>
	<path class="st14" d="M232.65,157.06h-21.39c-1.21,0-2.19-0.98-2.19-2.19v-1.75c0-1.21,0.98-2.19,2.19-2.19h21.39
		c1.21,0,2.19,0.98,2.19,2.19v1.75C234.85,156.08,233.86,157.06,232.65,157.06z"/>
	<path class="st14" d="M272.73,157.06h-21.39c-1.21,0-2.19-0.98-2.19-2.19v-1.75c0-1.21,0.98-2.19,2.19-2.19h21.39
		c1.21,0,2.19,0.98,2.19,2.19v1.75C274.92,156.08,273.94,157.06,272.73,157.06z"/>
	<path class="st14" d="M312.58,157.06h-21.39c-1.21,0-2.19-0.98-2.19-2.19v-1.75c0-1.21,0.98-2.19,2.19-2.19h21.39
		c1.21,0,2.19,0.98,2.19,2.19v1.75C314.77,156.08,313.79,157.06,312.58,157.06z"/>
	<path class="st14" d="M352.31,157.06h-21.39c-1.21,0-2.19-0.98-2.19-2.19v-1.75c0-1.21,0.98-2.19,2.19-2.19h21.39
		c1.21,0,2.19,0.98,2.19,2.19v1.75C354.5,156.08,353.52,157.06,352.31,157.06z"/>
	<path class="st14" d="M392.38,157.06h-21.39c-1.21,0-2.19-0.98-2.19-2.19v-1.75c0-1.21,0.98-2.19,2.19-2.19h21.39
		c1.21,0,2.19,0.98,2.19,2.19v1.75C394.58,156.08,393.59,157.06,392.38,157.06z"/>
	<path class="st14" d="M432.23,157.06h-21.39c-1.21,0-2.19-0.98-2.19-2.19v-1.75c0-1.21,0.98-2.19,2.19-2.19h21.39
		c1.21,0,2.19,0.98,2.19,2.19v1.75C434.42,156.08,433.44,157.06,432.23,157.06z"/>
	<path class="st14" d="M471.96,157.06h-21.39c-1.21,0-2.19-0.98-2.19-2.19v-1.75c0-1.21,0.98-2.19,2.19-2.19h21.39
		c1.21,0,2.19,0.98,2.19,2.19v1.75C474.15,156.08,473.17,157.06,471.96,157.06z"/>
	<path class="st14" d="M180.22,226.9h-42.63c-2.47,0-4.47-2-4.47-4.47v-3.57c0-2.47,2-4.47,4.47-4.47h42.63c2.47,0,4.47,2,4.47,4.47
		v3.57C184.69,224.9,182.69,226.9,180.22,226.9z"/>
	<path class="st14" d="M180.22,263.23h-42.63c-2.47,0-4.47-2-4.47-4.47v-3.57c0-2.47,2-4.47,4.47-4.47h42.63
		c2.47,0,4.47,2,4.47,4.47v3.57C184.69,261.23,182.69,263.23,180.22,263.23z"/>
	<path class="st14" d="M180.22,298.78h-42.63c-2.47,0-4.47-2-4.47-4.47v-3.57c0-2.47,2-4.47,4.47-4.47h42.63
		c2.47,0,4.47,2,4.47,4.47v3.57C184.69,296.78,182.69,298.78,180.22,298.78z"/>
	<path class="st14" d="M180.22,335.89h-42.63c-2.47,0-4.47-2-4.47-4.47v-3.57c0-2.47,2-4.47,4.47-4.47h42.63
		c2.47,0,4.47,2,4.47,4.47v3.57C184.69,333.89,182.69,335.89,180.22,335.89z"/>
	<circle class="st12" cx="222.19" cy="184.71" r="9.38"/>
	<circle class="st12" cx="262.04" cy="184.71" r="9.38"/>
	<circle class="st12" cx="301.88" cy="184.71" r="9.38"/>
	<circle class="st15" cx="381.57" cy="184.71" r="9.38"/>
	<circle class="st15" cx="421.42" cy="184.71" r="9.38"/>
	<circle class="st15" cx="461.26" cy="184.71" r="9.38"/>
	<circle class="st12" cx="222.19" cy="220.65" r="9.38"/>
	<circle class="st15" cx="262.04" cy="220.65" r="9.38"/>
	<circle class="st12" cx="301.88" cy="220.65" r="9.38"/>
	<circle class="st15" cx="341.73" cy="220.65" r="9.38"/>
	<circle class="st15" cx="381.57" cy="220.65" r="9.38"/>
	<circle class="st15" cx="421.42" cy="220.65" r="9.38"/>
	<circle class="st15" cx="461.26" cy="220.65" r="9.38"/>
	<circle class="st12" cx="222.19" cy="256.59" r="9.38"/>
	<circle class="st12" cx="262.04" cy="256.59" r="9.38"/>
	<circle class="st15" cx="301.88" cy="256.59" r="9.38"/>
	<circle class="st15" cx="341.73" cy="256.59" r="9.38"/>
	<circle class="st15" cx="381.57" cy="256.59" r="9.38"/>
	<circle class="st15" cx="421.42" cy="256.59" r="9.38"/>
	<circle class="st15" cx="461.26" cy="256.59" r="9.38"/>
	<circle class="st15" cx="222.19" cy="292.53" r="9.38"/>
	<circle class="st12" cx="262.04" cy="292.53" r="9.38"/>
	<circle class="st12" cx="301.88" cy="292.53" r="9.38"/>
	<circle class="st15" cx="341.73" cy="292.53" r="9.38"/>
	<circle class="st15" cx="381.57" cy="292.53" r="9.38"/>
	<circle class="st15" cx="421.42" cy="292.53" r="9.38"/>
	<circle class="st15" cx="461.26" cy="292.53" r="9.38"/>
	<circle class="st12" cx="222.19" cy="329.25" r="9.38"/>
	<circle class="st12" cx="262.04" cy="329.25" r="9.38"/>
	<circle class="st16" cx="301.88" cy="329.25" r="9.38"/>
	<circle class="st15" cx="341.73" cy="329.25" r="9.38"/>
	<circle class="st15" cx="381.57" cy="329.25" r="9.38"/>
	<circle class="st15" cx="421.42" cy="329.25" r="9.38"/>
	<circle class="st15" cx="461.26" cy="329.25" r="9.38"/>
	<circle class="st3" cx="166.13" cy="121.81" r="5.86"/>
	<circle class="st3" cx="199.73" cy="121.81" r="5.86"/>
	<circle class="st3" cx="234.1" cy="121.81" r="5.86"/>
	<circle class="st3" cx="267.7" cy="121.81" r="5.86"/>
	<circle class="st3" cx="302.86" cy="121.81" r="5.86"/>
	<circle class="st3" cx="336.45" cy="121.81" r="5.86"/>
	<circle class="st3" cx="370.83" cy="121.81" r="5.86"/>
	<circle class="st3" cx="404.43" cy="121.81" r="5.86"/>
	<circle class="st3" cx="439.58" cy="121.81" r="5.86"/>
	<path class="st17" d="M166.8,122.2h-1.34c-0.92,0-1.67-0.75-1.67-1.67V88.72c0-0.92,0.75-1.67,1.67-1.67h1.34
		c0.92,0,1.67,0.75,1.67,1.67v31.81C168.48,121.45,167.73,122.2,166.8,122.2z"/>
	<path class="st17" d="M200.4,122.2h-1.34c-0.92,0-1.67-0.75-1.67-1.67V88.72c0-0.92,0.75-1.67,1.67-1.67h1.34
		c0.92,0,1.67,0.75,1.67,1.67v31.81C202.07,121.45,201.32,122.2,200.4,122.2z"/>
	<path class="st17" d="M234.77,122.2h-1.34c-0.92,0-1.67-0.75-1.67-1.67V88.72c0-0.92,0.75-1.67,1.67-1.67h1.34
		c0.92,0,1.67,0.75,1.67,1.67v31.81C236.45,121.45,235.7,122.2,234.77,122.2z"/>
	<path class="st17" d="M268.37,122.2h-1.34c-0.92,0-1.67-0.75-1.67-1.67V88.72c0-0.92,0.75-1.67,1.67-1.67h1.34
		c0.92,0,1.67,0.75,1.67,1.67v31.81C270.04,121.45,269.29,122.2,268.37,122.2z"/>
	<path class="st17" d="M303.53,122.2h-1.34c-0.92,0-1.67-0.75-1.67-1.67V88.72c0-0.92,0.75-1.67,1.67-1.67h1.34
		c0.92,0,1.67,0.75,1.67,1.67v31.81C305.2,121.45,304.45,122.2,303.53,122.2z"/>
	<path class="st17" d="M337.12,122.2h-1.34c-0.92,0-1.67-0.75-1.67-1.67V88.72c0-0.92,0.75-1.67,1.67-1.67h1.34
		c0.92,0,1.67,0.75,1.67,1.67v31.81C338.8,121.45,338.05,122.2,337.12,122.2z"/>
	<path class="st17" d="M371.5,122.2h-1.34c-0.92,0-1.67-0.75-1.67-1.67V88.72c0-0.92,0.75-1.67,1.67-1.67h1.34
		c0.92,0,1.67,0.75,1.67,1.67v31.81C373.17,121.45,372.42,122.2,371.5,122.2z"/>
	<path class="st17" d="M405.09,122.2h-1.34c-0.92,0-1.67-0.75-1.67-1.67V88.72c0-0.92,0.75-1.67,1.67-1.67h1.34
		c0.92,0,1.67,0.75,1.67,1.67v31.81C406.77,121.45,406.02,122.2,405.09,122.2z"/>
	<path class="st17" d="M440.25,122.2h-1.34c-0.92,0-1.67-0.75-1.67-1.67V88.72c0-0.92,0.75-1.67,1.67-1.67h1.34
		c0.92,0,1.67,0.75,1.67,1.67v31.81C441.93,121.45,441.18,122.2,440.25,122.2z"/>
	<path class="st15" d="M347.08,177.02c-4.37,3.43-10.02,7.85-14.12,10.99c1.34,3.55,4.75,6.07,8.77,6.07c5.18,0,9.38-4.2,9.38-9.38
		C351.1,181.52,349.51,178.71,347.08,177.02z"/>
	<path class="st16" d="M341.73,175.33c-5.18,0-9.38,4.2-9.38,9.38c0,1.16,0.22,2.27,0.61,3.3c4.1-3.15,9.75-7.56,14.12-10.99
		C345.56,175.96,343.72,175.33,341.73,175.33z"/>
	<g>
		<g>
			<path class="st11" d="M125.22,52.08h-17.9c-0.29,0-0.53,0.23-0.53,0.53v7.37c0,0.14,0.06,0.27,0.15,0.37l2.11,2.11
				c0.1,0.1,0.23,0.15,0.37,0.15h13.69c0.14,0,0.27-0.06,0.37-0.15l2.11-2.11c0.1-0.1,0.15-0.23,0.15-0.37v-7.37
				C125.75,52.32,125.52,52.08,125.22,52.08L125.22,52.08z M124.7,59.76l-1.8,1.8h-13.25l-1.8-1.8v-6.62h16.84V59.76z M124.7,59.76"
				/>
			<path class="st11" d="M126.25,54.19l-20,1.05c-0.29,0.02-0.51,0.26-0.5,0.55c0.01,0.28,0.25,0.5,0.53,0.5c0.01,0,0.02,0,0.03,0
				l20-1.05c0.29-0.01,0.51-0.26,0.5-0.55C126.79,54.4,126.54,54.17,126.25,54.19L126.25,54.19z M126.25,54.19"/>
			<path class="st11" d="M126.25,57.35l-20,1.05c-0.29,0.02-0.51,0.26-0.5,0.55c0.01,0.28,0.25,0.5,0.53,0.5c0.01,0,0.02,0,0.03,0
				l20-1.05c0.29-0.01,0.51-0.26,0.5-0.55C126.79,57.56,126.54,57.32,126.25,57.35L126.25,57.35z M126.25,57.35"/>
			<path class="st11" d="M116.27,16.29c-9.87,0-17.9,8.03-17.9,17.9c0,6.21,3.14,11.86,8.42,15.16v3.26c0,0.29,0.24,0.53,0.53,0.53
				h17.9c0.29,0,0.53-0.24,0.53-0.53v-3.26c5.28-3.3,8.42-8.94,8.42-15.16C134.17,24.32,126.14,16.29,116.27,16.29L116.27,16.29z
				 M124.95,48.6c-0.16,0.09-0.26,0.27-0.26,0.45v3.03h-16.84v-3.03c0-0.18-0.1-0.36-0.26-0.45c-5.11-3.08-8.17-8.47-8.17-14.42
				c0-9.29,7.56-16.84,16.84-16.84c9.29,0,16.84,7.56,16.84,16.84C133.12,40.13,130.07,45.52,124.95,48.6L124.95,48.6z M124.95,48.6
				"/>
			<path class="st11" d="M121.25,61.62c-0.26-0.13-0.57-0.03-0.71,0.23c-0.04,0.07-0.99,1.82-4.27,1.82c-3.27,0-4.23-1.74-4.27-1.82
				c-0.13-0.26-0.44-0.36-0.7-0.23c-0.26,0.13-0.37,0.45-0.24,0.7c0.05,0.1,1.24,2.4,5.21,2.4c3.96,0,5.16-2.3,5.21-2.4
				C121.61,62.06,121.51,61.75,121.25,61.62L121.25,61.62z M121.25,61.62"/>
		</g>
		<g>
			<path class="st18" d="M93.64,33.66H83.11c-0.29,0-0.53,0.23-0.53,0.53c0,0.29,0.24,0.53,0.53,0.53h10.53
				c0.29,0,0.53-0.24,0.53-0.53C94.17,33.9,93.93,33.66,93.64,33.66L93.64,33.66z M93.64,33.66"/>
			<path class="st18" d="M149.44,33.66l-10.53,0c-0.29,0-0.53,0.24-0.53,0.53c0,0.29,0.24,0.53,0.53,0.53h10.53
				c0.29,0,0.53-0.24,0.53-0.53C149.96,33.9,149.73,33.66,149.44,33.66L149.44,33.66z M149.44,33.66"/>
			<path class="st18" d="M97.13,45.24c-0.14-0.25-0.47-0.34-0.72-0.19l-9.12,5.26c-0.25,0.15-0.34,0.47-0.19,0.72
				c0.1,0.17,0.27,0.26,0.46,0.26c0.09,0,0.18-0.02,0.26-0.07l9.12-5.26C97.19,45.82,97.28,45.49,97.13,45.24L97.13,45.24z
				 M97.13,45.24"/>
			<path class="st18" d="M145.45,17.34c-0.15-0.25-0.47-0.34-0.72-0.19l-9.12,5.26c-0.25,0.15-0.34,0.47-0.19,0.72
				c0.1,0.17,0.27,0.26,0.45,0.26c0.09,0,0.18-0.02,0.26-0.07l9.11-5.26C145.51,17.92,145.6,17.6,145.45,17.34L145.45,17.34z
				 M145.45,17.34"/>
			<path class="st18" d="M133.12,5.01c-0.25-0.14-0.57-0.06-0.72,0.19l-5.26,9.12c-0.15,0.25-0.06,0.57,0.19,0.72
				c0.08,0.05,0.17,0.07,0.26,0.07c0.18,0,0.36-0.09,0.46-0.26l5.26-9.12C133.46,5.48,133.37,5.16,133.12,5.01L133.12,5.01z
				 M133.12,5.01"/>
			<path class="st18" d="M116.28,0.5c-0.29,0-0.53,0.24-0.53,0.53v10.53c0,0.29,0.24,0.53,0.53,0.53c0.29,0,0.53-0.24,0.53-0.53
				V1.03C116.8,0.74,116.57,0.5,116.28,0.5L116.28,0.5z M116.28,0.5"/>
			<path class="st18" d="M105.42,14.32l-5.26-9.11c-0.14-0.25-0.47-0.34-0.72-0.19c-0.25,0.15-0.34,0.47-0.19,0.72l5.26,9.12
				c0.1,0.17,0.27,0.26,0.46,0.26c0.09,0,0.18-0.02,0.26-0.07C105.47,14.89,105.56,14.57,105.42,14.32L105.42,14.32z M105.42,14.32"
				/>
			<path class="st18" d="M145.26,50.31l-9.12-5.26c-0.25-0.14-0.57-0.06-0.72,0.19c-0.15,0.25-0.06,0.57,0.19,0.72l9.12,5.26
				c0.08,0.05,0.17,0.07,0.26,0.07c0.18,0,0.36-0.09,0.46-0.26C145.6,50.78,145.51,50.46,145.26,50.31L145.26,50.31z M145.26,50.31"
				/>
			<path class="st18" d="M96.94,22.41l-9.12-5.26c-0.25-0.14-0.57-0.06-0.72,0.19c-0.15,0.25-0.06,0.57,0.19,0.72l9.12,5.26
				c0.08,0.05,0.17,0.07,0.26,0.07c0.18,0,0.36-0.09,0.46-0.26C97.28,22.88,97.19,22.56,96.94,22.41L96.94,22.41z M96.94,22.41"/>
		</g>
		<g>
			<path class="st19" d="M117.81,52.08V35.1c0,0-0.24-8.01,4.13-8.01c4.37,0,2.35,8.33-6.07,8.33"/>
			<path class="st19" d="M113.92,52.08V35.1c0,0,0.24-8.01-4.13-8.01s-2.35,8.33,6.07,8.33"/>
		</g>
	</g>
	<g>
		<ellipse class="st20" cx="174.97" cy="440.66" rx="23.32" ry="7.54"/>
		<path class="st21" d="M132.16,358.62c0,0,5.55-2.26,5.14-8.64c-0.41-6.38-3.7-10.9,3.09-9.05s9.07,2.67,14,1.65
			c4.93-1.03,9.03-3.09,6.88,3.29c-2.16,6.38-4.48,11.72,0.59,12.75c5.07,1.03,10.52-2.81,11.18,7.17
			c0.66,9.99-7.4,21.21-20.43,21.62c-13.03,0.41-18.79-4.99-18.79-4.99s-3.5-4.93,1.95-6.14s11-3.52,8.23-6.07
			s-11.83-2.75-11.83-2.75S120.85,365.21,132.16,358.62z"/>
		<path class="st3" d="M191.72,360.27c-0.92-6.36-0.21-10.95,11.62-12.67c11.83-1.72,18.72,5.37,19.44,12.67
			c0.72,7.3-9.56,9.95-9.56,9.95s-7.3,2.08-3.6,8.46c3.7,6.38,5.38,12.55-3.02,13.47c-8.4,0.93-17.59-1.29-22.72-4.71
			c-5.12-3.42-10.37-12.06-4.5-16.58c0,0,1.65-1.13,7.3-1.44S191.72,360.27,191.72,360.27z"/>
		<path class="st9" d="M150.1,359.24c0,0,9.82,22.21,11.16,37.33"/>
		<path class="st22" d="M204.71,362.88c0,0-17.38,25.81-21.49,34.45"/>
		<path class="st23" d="M155.2,394.83h39.9c0,0,4.37,0.31,4.01,6.27c-0.33,5.49-7.3,4.31-10.9,4.31s-33.87,0-33.87,0
			s-4.9,0.84-4.9-4.72S151.29,394.83,155.2,394.83z"/>
		<polygon class="st23" points="154.34,405.41 160.39,440.66 187.18,440.66 191.72,414.2 154.39,405.41 		"/>
		<polygon class="st24" points="154.39,405.41 191.72,414.2 193.23,405.41 		"/>
		<g>
			<path class="st25" d="M171.55,396.16c0,0,2.02-39.12,13.68-63.66"/>
			<path class="st7" d="M194.83,318.38c0,0,0.96,12.01-10.76,16.7C184.07,335.08,181.53,324.82,194.83,318.38z"/>
			<path class="st7" d="M177.25,356.6c0,0,4.32-10.25,17.6-8.87C194.85,347.72,193.81,357.93,177.25,356.6z"/>
			<path class="st7" d="M172.88,382.37c0,0,2.23-10.89,15.53-12.14C188.41,370.22,189.39,380.44,172.88,382.37z"/>
			<path class="st7" d="M172.42,382.44c0,0,1.54-11.01-10.57-16.64C161.85,365.8,157.51,375.09,172.42,382.44z"/>
			<path class="st7" d="M177.39,356.52c0,0,2.93-10.73-8.36-17.85C169.03,338.67,163.54,347.34,177.39,356.52z"/>
		</g>
	</g>
	<g>
		<path class="st26" d="M445.28,237.71l11.2,12.04c0,0,3.86,4.19,0,7.93c-3.86,3.75-6.53,6.44-6.53,6.44L445.28,237.71z"/>
		<g>
			<path class="st12" d="M347.75,188.98l-3.98-3.16c0,0-0.66-0.6-1.31-0.32c-0.65,0.28-0.7,0.96,0.29,1.71
				c0.98,0.76,3.93,3.17,3.93,3.17L347.75,188.98z"/>
			<polygon class="st21" points="348.34,187.44 345.41,191.28 360.56,210.78 370.96,196.56 			"/>
			<path class="st12" d="M370.96,196.56l35.31,26.68c-2.69,3.69-6.99,9.94-9.9,14.22l-35.81-26.68L370.96,196.56z"/>
			<path class="st21" d="M396.37,237.46c2.91-4.28,7.21-10.54,9.9-14.22l43.52,32.88l-7.14,15.81L396.37,237.46z"/>
			<path class="st12" d="M458.01,262.34l1.16,0.88c0,0,1.88,1.39,0.33,3.34c-1.9,2.39-7.24,10.17-7.24,10.17s-1.25,1.76-2.24,1
				c-0.98-0.77-3.28-2.74-3.28-2.74h0l-4.09-3.04l7.14-15.81L458.01,262.34L458.01,262.34z"/>
		</g>
		<polyline class="st27" points="423.32,292.67 439.75,429.36 451.5,428.22 453.19,289.11 423.32,292.67 		"/>
		<polygon class="st11" points="441.22,292.67 410.36,429.36 398.61,428.22 406.69,289.11 		"/>
		<path class="st26" d="M431.07,207.22c0,0,1.01,5.69,3.15,11.4c2.14,5.71,3.22,8,3.22,8s-6.97,7.78-13.74,6.5
			c-6.77-1.28-6.67-5.81-6.67-5.81s6.34-4.96,6.49-11.75c0.15-6.79,0.15-6.79,0.15-6.79L431.07,207.22z"/>
		<path class="st28" d="M416.02,228.28"/>
		<path class="st26" d="M417.26,191.63c0,0-3.5,4.45-3.67,12.38s0.84,13.61,4.23,13.69c3.4,0.07,10.24-2.04,11.42-4.28
			c1.18-2.24,3.45-2.19,3.55-6.72c0.1-4.53-5.34-14.84-9.87-14.94C418.39,191.65,417.26,191.63,417.26,191.63z"/>
		<path class="st29" d="M413.86,191.55c0,0-3.2-9.13-0.91-10.22c2.29-1.08,6.77,1.28,7.88,2.44c1.11,1.16,3.37,1.21,4.5,1.23
			c0,0,11.32,0.25,13.54,2.56c2.22,2.31,2.19,3.45,2.17,4.58c-0.02,1.13-0.11,5.57,0.96,7.95c0.46,1.03,1.01,5.69-1.35,10.17
			c-2.36,4.48-4.65,5.56-5.79,5.54c-1.13-0.02-2.15-0.05-2.24-1.18c-0.09-1.23-0.5-2.96-1.03-4.55c-0.51-1.52-1.03-4.55-1.03-4.55
			s-1.01-5.69-3.22-8c-2.22-2.31-2.22-2.31-6.72-3.55C416.1,192.74,414.92,194.98,413.86,191.55z"/>
		<path class="st26" d="M428.95,200.15c-1.72,1.89,0.47,5.34,0.47,5.34s3.37,1.21,3.45-2.19S430.67,198.26,428.95,200.15z"/>
		<path class="st29" d="M451.49,437.13c0,0,0.66,1.85-3.15,1.82c-3.81-0.03-24.54-0.22-24.54-0.22s-3.99-0.83-0.28-2.59
			c3.71-1.75,14.82-6.63,14.82-6.63s0.84-0.22,0.85-2.35l12.57,0.11L451.49,437.13z"/>
		<path class="st29" d="M410.99,437.13c0,0,0.66,1.85-3.15,1.82c-3.81-0.03-24.54-0.22-24.54-0.22s-3.99-0.83-0.28-2.59
			c3.71-1.75,14.82-6.63,14.82-6.63s0.84-0.22,0.85-2.35l12.57,0.11L410.99,437.13z"/>
		<path class="st7" d="M422.57,224.42c0,0-1.23-1.01-2.64,0.11c-1.41,1.12-6.31,4.73-8.71,9.41s-3.21,11.14-4.03,26.25
			c-0.82,15.11-0.69,31.45-0.69,31.45l46.82,1.02c0,0,1.48-27.48-2.93-44.38s-11.02-22.77-12.49-23.51
			c-1.47-0.73-2.94,0.73-2.94,0.73S428.53,231.41,422.57,224.42z"/>
		<path class="st26" d="M403.24,238.71l-10.32,11.17c0,0-0.86,1.72-2.58-0.86c-1.72-2.58-8.6-14.61-8.6-18.05
			c0-3.44,0-6.02-0.86-7.74c-0.86-1.72-2.58-4.3-2.58-4.3s-1.72-2.58-1.72-0.86s0,4.3-0.86,4.3s-6.02-5.16-6.02-5.16
			s0,8.6,1.72,9.46c1.72,0.86,4.3,2.58,4.3,5.16s7.74,24.93,9.46,28.37c1.72,3.44,5.16,3.44,8.6,1.72
			c3.44-1.72,18.05-13.75,18.05-13.75L403.24,238.71z"/>
		<path class="st30" d="M400.53,239.09c0,0,15.47-14.61,22.35-9.46c6.88,5.16-12.03,22.35-12.03,22.35S401.39,242.52,400.53,239.09z
			"/>
	</g>
</g>
</svg>
