<?xml version="1.0" encoding="utf-8"?>
<!-- Generator: Adobe Illustrator 23.0.1, SVG Export Plug-In . SVG Version: 6.00 Build 0)  -->
<svg version="1.1" id="Layer_1" xmlns="http://www.w3.org/2000/svg" xmlns:xlink="http://www.w3.org/1999/xlink" x="0px" y="0px"
	 viewBox="0 0 400 400" style="enable-background:new 0 0 400 400;" xml:space="preserve">
<style type="text/css">
	.st0{fill:#EEF9FF;}
	.st1{fill:none;stroke:#003EB0;stroke-miterlimit:10;stroke-dasharray:6;}
	.st2{fill:#023EA1;}
	.st3{fill:none;stroke:#FFFFFF;stroke-linecap:round;stroke-linejoin:round;stroke-miterlimit:10;}
	.st4{fill:none;stroke:#DE051F;stroke-miterlimit:10;}
	.st5{fill:#FCBE42;}
	.st6{fill:#D7DDEA;}
	.st7{fill:#FF7D8E;}
	.st8{fill:#FFA6B2;}
	.st9{fill:#EE384E;}
	.st10{fill:#ECECEC;}
	.st11{fill:#BD4149;}
	.st12{fill:#0064E1;}
	.st13{fill:#003EB0;}
	.st14{fill:#BDBDBD;}
	.st15{fill:#BA3E45;}
	.st16{fill:#E9E8EE;}
	.st17{fill:#DE051F;}
	.st18{fill:#FFBF99;}
	.st19{fill:#FFB48F;}
	.st20{fill:none;stroke:#FFBF99;stroke-width:0.25;stroke-miterlimit:10;}
	.st21{fill:#0064B7;}
	.st22{fill:#0083F9;}
	.st23{fill:#170856;}
	.st24{fill:#FFFFFF;}
	.st25{fill:#90A7CB;}
	.st26{fill:#EA4E59;}
	.st27{fill:#F79F03;}
	.st28{fill:#000036;}
	.st29{fill:#180756;}
	.st30{fill:none;stroke:#003EB0;stroke-miterlimit:10;}
	.st31{fill:#E9E8ED;}
	.st32{fill:#649EEA;}
	.st33{fill:none;stroke:#023EA1;stroke-miterlimit:10;}
	.st34{fill:none;stroke:#649EEA;stroke-miterlimit:10;}
	.st35{fill:#0054A5;}
	.st36{fill:#006AD5;}
	.st37{fill:none;stroke:#FCBE42;stroke-miterlimit:10;}
</style>
<g>
	<path class="st0" d="M214.01,41.6c0,0,28.55,12.94,57.52-4.14s70.37-22.67,93.66,26.7c23.29,49.37-13.45,83-30.53,87.66
		c-17.08,4.66-41.4,8.28-38.81,39.84s-28.98,35.18-36.74,43.59c-7.76,8.41-11.13,19.94-12.94,28.92
		c-1.81,8.98-22.61,38.22-49.34,36.93s-14.57-27.94-40.7-39.07c-26.13-11.13-39.07-4.05-43.21-23.5s-8.82-43.25-36.23-49.2
		c-27.41-5.95-52.25-16.56-43.97-50.97S70.25,84.55,77.49,78.6c7.24-5.95,16.01-25.1,16.29-34.93s-0.76-35.45,37.53-29.24
		S214.01,41.6,214.01,41.6z"/>
	<circle class="st1" cx="130.41" cy="133.74" r="53.1"/>
	<circle class="st1" cx="241.05" cy="154.83" r="71.55"/>
	<path class="st2" d="M364.69,292.31c0,0-1.68,5.05,0.65,9.32c2.33,4.27,3.68,7.11-0.62,8.28s-8.57,2.07-8.57,6.86
		s5.17,16.17-2.59,19.28c-7.76,3.1-19.92,5.56-22.77-4.27s-6.04-10.74-4.05-17.98c1.98-7.24,9.49-3.23,11.04-9.57
		c1.55-6.34-2.07-9.96,5.17-10.48c7.24-0.52,7.76,1.94,7.5-5.95c-0.26-7.89,8.8-5.82,12.29-3.1S364.69,292.31,364.69,292.31z"/>
	<path class="st3" d="M354.47,298.91c0,0-16.82,22.12-22.77,38.94"/>
	<g>
		<path class="st4" d="M340.02,277.39c0,0-5.69,5,0,6.9c5.69,1.9,8.11,4.48,5.35,9.83c-2.76,5.35-1.85,9.49,1.14,11.38
			s9.03,4.48,4.89,11.56c-4.14,7.07-11.21,21.39-19.49,17.77c-8.28-3.62-12.94-16.73-9.83-22.08c3.1-5.35,8.28-7.07,5.35-13.28
			c-2.93-6.21-8.45-2.59-8.97-9.83c-0.52-7.24-1.69-14.55,8.02-17.33C335.19,269.8,342.44,273.85,340.02,277.39z"/>
		<g>
			<path class="st4" d="M332.61,282.22c0,0,2.93,45.54,6.38,56.92"/>
			<polyline class="st4" points="343.99,310.68 335.8,319.29 326.74,314.99 			"/>
			<polyline class="st4" points="340.37,289.64 333.54,294.98 325.53,292.31 			"/>
		</g>
	</g>
	<path class="st2" d="M119.81,288.98c0,0-2.46-5.42,1.81-7.75s10.61,1.29,10.35,5.56c-0.26,4.27-3.24,5.67-0.71,7.75
		c2.53,2.08,8.69,8.94,5.41,12.18c-3.28,3.23-7.79,0.91-8.31,7.12c-0.53,6.21,8.16,12.29,0,16.69c-8.16,4.4-23.81,8.15-23.55-7.24
		c0.26-15.39,11.25-6.21,8.41-17.72s2.72-8.7,5.82-11.01C122.13,292.22,119.81,288.98,119.81,288.98z"/>
	<path class="st3" d="M124.98,297.66c0,0-5.95,14.62-6.86,28.98s1.03,17.59,1.03,17.59"/>
	<g>
		<path class="st4" d="M126.09,337.34c0,0,9.59-27.59,23.04-42.74"/>
		<path class="st4" d="M158.95,286.48c0,0-1.81,8.8-11.18,9.72C147.77,296.2,148.08,288.32,158.95,286.48z"/>
		<path class="st4" d="M138.41,310.19c0,0,5.22-6.44,14.45-2.69C152.86,307.49,149.99,314.59,138.41,310.19z"/>
		<path class="st4" d="M129.91,327.73c0,0,3.87-7.34,13.65-5.47C143.56,322.27,142.14,329.78,129.91,327.73z"/>
		<path class="st4" d="M129.57,327.68c0,0,3.4-7.56-4.11-14.12C125.47,313.57,120.42,319.32,129.57,327.68z"/>
		<path class="st4" d="M138.52,310.16c0,0,4.33-7.07-2.27-14.52C136.25,295.64,130.52,300.7,138.52,310.16z"/>
	</g>
	<path class="st5" d="M47.88,288.98c0,0,11.9-4,12.03,2.99c0.13,6.99,2.98,7.63,5.95,8.15s8.67-0.78,8.41,6.6
		c-0.26,7.37-3.23,11.05-0.91,14.19c2.33,3.14,7.52,18.92,0.91,19.31s-12.04-7.37-13.46-11.25c-1.42-3.88-6.6-5.69-10.87-6.08
		s-8.93-4.11-5.69-8.85c3.23-4.74,2.24-10.95-1.08-13.27C39.86,298.43,39.86,291.81,47.88,288.98z"/>
	<line class="st3" x1="51.37" y1="296.88" x2="74.66" y2="346.04"/>
	<polyline class="st3" points="67.03,305.68 60.83,316.85 48.53,315.48 	"/>
	<path class="st6" d="M357.5,325.51c-14.83-8.11-30.36,4.48-30.36,4.48c-18.46-15.52-42.26-2.59-42.26-2.59
		c-6.55-8.45-18.28-3.45-18.28-3.45c-7.07-8.28-21.47-6.81-21.47-6.81c-6.47-14.23-21.22-11.13-21.22-11.13
		c0-12.42-12.16-13.2-12.16-13.2V249.1l-15.83,7.37l-11.64-7.37v43.72c0,0-12.16,0.78-12.16,13.2c0,0-14.75-3.1-21.22,11.13
		c0,0-14.4-1.47-21.47,6.81c0,0-11.73-5-18.28,3.45c0,0-23.8-12.94-42.26,2.59c0,0-15.52-12.59-30.36-4.48
		c-14.83,8.11-14.14,25.12-2.76,25.32h324.5C371.64,350.63,372.33,333.62,357.5,325.51z"/>
	<path class="st7" d="M176.36,221.69l11.91,53.21c0,0,3.97,13.5,10.32,13.5s9.53-11.12,10.32-15.88
		c0.79-4.76,11.12-52.41,11.12-52.41L176.36,221.69z"/>
	<path class="st8" d="M184.74,224.66l5.03,22.48l1.58,7.07c0,0,1.16,4.43,1.95,5.81c1.09,1.9,2.87,4.16,5.14,4.16
		c3.92,0,5.87-5.26,6.36-8.2c0.49-2.94,6.85-32.3,6.85-32.3L184.74,224.66z"/>
	<g>
		<path class="st9" d="M155.19,201.84c-6.35,23.82-7.15,40.5-7.15,40.5s0,8.74,4.76,3.18c3.17-3.7,11.97-10.92,19.15-16.27
			c-1.71-15.11-2.71-43.35-3.11-56.69C165.3,176.96,159.38,186.11,155.19,201.84z"/>
		<path class="st9" d="M179.01,188.34l-7.15-19.06c0,0-1.19,1.01-3.02,3.28c0.4,13.34,1.4,41.58,3.11,56.69
			c3.6-2.69,6.79-4.9,8.65-5.97C186.16,220.1,179.01,188.34,179.01,188.34z"/>
	</g>
	<g>
		<path class="st9" d="M242.32,201.84c6.35,23.82,7.15,40.5,7.15,40.5s0,8.74-4.76,3.18c-3.17-3.7-11.97-10.92-19.15-16.27
			c1.71-15.11,2.71-43.35,3.11-56.69C232.21,176.96,238.13,186.11,242.32,201.84z"/>
		<path class="st9" d="M218.5,188.34l7.15-19.06c0,0,1.19,1.01,3.02,3.28c-0.4,13.34-1.4,41.58-3.11,56.69
			c-3.6-2.69-6.79-4.9-8.65-5.97C211.35,220.1,218.5,188.34,218.5,188.34z"/>
	</g>
	<path class="st10" d="M210.57,75.57h-29.63c-5.47,10.04-10.77,23.3-12.92,39.31c-3.6,26.88,2.85,73.18,6.65,96.49h42.84
		c7.5-40.49,7.76-59.15,8.45-72.74C227.23,113.89,218.77,91.25,210.57,75.57z"/>
	<circle class="st9" cx="199.39" cy="120.04" r="20.65"/>
	<path class="st9" d="M194.84,63.34l-9.74,5.2c-1.36,2.13-2.77,4.48-4.16,7.04h34.13c-0.14-0.26-0.27-0.51-0.41-0.76
		c-3.93-3.58-9.26-8.46-11.49-10.64C199.44,60.51,194.84,63.34,194.84,63.34z"/>
	<path class="st11" d="M196.62,53.73c0,0-5.36,5.19-11.51,14.8l9.74-5.2c0,0,4.6-2.83,8.34,0.83c2.23,2.19,7.56,7.07,11.49,10.64
		c-6.5-12.27-12.73-20.12-13.69-21.08C198.8,51.55,196.62,53.73,196.62,53.73z"/>
	<path class="st12" d="M183.55,119.38l14.72-15.16C190.24,104.78,183.88,111.29,183.55,119.38z"/>
	<path class="st12" d="M205.05,105.21l-20.32,20.92c0.2,0.47,0.42,0.93,0.66,1.38l21.06-21.69
		C205.99,105.6,205.53,105.39,205.05,105.21z"/>
	<path class="st12" d="M207.37,106.32l-21.45,22.09c2.8,4.5,7.78,7.51,13.48,7.51c8.77,0,15.88-7.11,15.88-15.88
		C215.28,114.18,212.09,109.07,207.37,106.32z"/>
	<path class="st13" d="M199.39,104.16c-0.38,0-0.75,0.03-1.13,0.06l-14.72,15.16c-0.01,0.22-0.03,0.44-0.03,0.66
		c0,2.16,0.44,4.22,1.22,6.09l20.32-20.92C203.29,104.54,201.39,104.16,199.39,104.16z"/>
	<path class="st13" d="M206.45,105.83l-21.06,21.69c0.16,0.31,0.35,0.6,0.53,0.9l21.45-22.09
		C207.07,106.15,206.76,105.98,206.45,105.83z"/>
	<path class="st12" d="M217.25,211.37h-42.57c0.92,5.64,1.68,9.93,2.11,12.28c0.24,1.31,0.37,2.01,0.37,2.01h41.68l-4.05-0.4
		C215.67,220.52,216.49,215.88,217.25,211.37z"/>
	<path class="st14" d="M215.08,75.57h-4.5c8.19,15.68,16.65,38.32,15.39,63.06c-0.61,12-3.01,38.78-8.72,72.74h4.52
		c5.67-33.85,8.09-60.79,8.7-72.74C231.73,113.89,223.27,91.25,215.08,75.57z"/>
	<path class="st2" d="M214.72,225.66h4.12c0.9-4.88,2.15-9.65,2.93-14.29h-4.52C216.49,215.88,215.6,220.91,214.72,225.66z"/>
	<path class="st15" d="M201.34,177.37c-0.01-0.06-0.02-0.12-0.04-0.18c-0.2-1-1.11-4.73-2.7-4.73c-0.75,0-1.32,0.01-1.8,0.42
		c1.04,1,1.65,3.52,1.81,4.31c0.01,0.06,0.02,0.12,0.04,0.18c1.09,5.52,4.28,23.03,3.62,35.59c-0.79,15.09-3.19,27.08-3.97,30.97
		c-0.46,2.29-0.92,3.52-1.53,4.15c0.3,0.37,0.64,0.61,1.04,0.61c1.59,0,2.38-0.79,3.18-4.76c0.78-3.89,3.18-15.88,3.97-30.97
		C205.61,200.4,202.42,182.89,201.34,177.37z"/>
	<path class="st9" d="M198.3,243.93c0.78-3.89,3.18-15.88,3.97-30.97c0.66-12.56-2.53-30.07-3.62-35.59
		c-0.01-0.06-0.02-0.12-0.04-0.18c-0.16-0.79-0.77-3.31-1.81-4.31c-0.54,0.47-0.96,1.45-1.38,3.55c0,0-5.56,23.03-3.97,38.91
		c1.19,11.91,2.83,22.48,3.57,27.03c0.25,1.51,0.4,2.36,0.4,2.36s0.45,2.24,1.35,3.36C197.38,247.45,197.84,246.22,198.3,243.93z"/>
	<ellipse class="st16" cx="81.72" cy="378.41" rx="48.05" ry="5.58"/>
	<ellipse class="st16" cx="287.47" cy="379.18" rx="60.27" ry="7"/>
	<path class="st17" d="M99.86,273.65c0,0-3.56,49.62-4.07,58.42c-0.52,8.8-2.39,38.44-2.39,38.44h-8.73l-5.89-97.41L99.86,273.65z"
		/>
	<path class="st9" d="M67,274.17c0,0,1.03,25,1.49,31.34c0.45,6.34-4.53,28.01-7.37,37.64c-2.85,9.64-6.86,20.31-6.86,20.31
		l6.86,3.95c0,0,14.81-26.52,20.12-42.17c5.3-15.65,9.25-39.07,8.6-52.26L67,274.17z"/>
	<path class="st18" d="M104.16,238.67l6.66,8.86c0,0,0.52,0.71,1.75,0.39s14.04-4.98,14.04-4.98s1.79-0.8,2.26-2.22
		s0.69-1.77,0.97-2.16s0.69-0.34,0.45-1.29s-0.37-1.34-0.37-1.34s-0.28-0.67,0.28-0.67s1.16,0.13,1.47,0.78
		c0.3,0.65,0.22,2.22,0.22,2.22l2.74,0.11c0,0,1.68,0.06,1.68,1.81s0,4.68,0,4.68s0.24,0.91-0.99,0.91c-1.23,0-2.52-0.04-2.52-0.04
		s-1.03-0.11-2.72,1.12s-14.53,8.58-14.53,8.58s-4.44,2.65-7.35-0.13c-2.91-2.78-9.31-9.66-9.31-9.66l-0.32-2.18L104.16,238.67z"/>
	<path class="st19" d="M82.73,214.94c0,0-0.79,3.97-2.38,7.94c-1.59,3.97-2.38,5.56-2.38,5.56s4.76,5.56,9.53,4.76
		c4.76-0.79,4.76-3.97,4.76-3.97s-4.37-3.57-4.37-8.34s0-4.76,0-4.76L82.73,214.94z"/>
	<path class="st20" d="M94.17,229.96"/>
	<path class="st21" d="M93.23,228.32c0,0,3.95,2.2,5.59,3.59c1.65,1.39,6.4,6.86,6.4,6.86l-6.5,6.31l-4.53-5.14L93.23,228.32z"/>
	<path class="st22" d="M79.98,226.46c0,0,2.38,3.18,5.56,3.97c3.18,0.79,4.76-1.59,4.76-1.59l0.87-1.14c0,0,0.88-0.69,1.85,0.12
		c0.97,0.8,2.82,2.86,4.43,6.18s2.08,7.86,2.42,18.47s0,22.06,0,22.06H67.03l-0.39-16.49c0,0,3.49-21.93,6.92-26.39
		c3.43-4.46,4.43-5.43,4.43-5.43S78.78,225.14,79.98,226.46z"/>
	<path class="st18" d="M92.66,204.22c0,0,2.38,3.18,2.38,8.74c0,5.56-0.79,9.53-3.18,9.53s-7.15-1.59-7.94-3.18
		s-2.38-1.59-2.38-4.76s3.97-10.32,7.15-10.32S92.66,204.22,92.66,204.22z"/>
	<path class="st23" d="M95.04,204.22c0,0,2.38-6.35,0.79-7.15c-1.59-0.79-4.76,0.79-5.56,1.59c-0.79,0.79-2.38,0.79-3.18,0.79
		c0,0-7.94,0-9.53,1.59s-1.59,2.38-1.59,3.18c0,0.79-0.01,3.91-0.79,5.56c-0.34,0.72-0.79,3.97,0.79,7.15s3.18,3.97,3.97,3.97
		s1.51,0,1.59-0.79c0.09-0.86,0.4-2.07,0.79-3.18c0.38-1.06,0.79-3.18,0.79-3.18s0.79-3.97,2.38-5.56s1.59-1.59,4.76-2.38
		C93.45,205.02,94.25,206.6,95.04,204.22z"/>
	<path class="st18" d="M84.33,210.02c1.18,1.35-0.41,3.73-0.41,3.73s-2.38,0.79-2.38-1.59C81.54,209.78,83.15,208.66,84.33,210.02z"
		/>
	<path class="st18" d="M68.43,243.44c0,0-2.98,11.47-2.46,18.65c0.52,7.18,2.65,13.4,4.2,17.73c1.55,4.33,2.46,5.37,2.52,8.09
		s1.33,5.95,2.91,7.57c1.58,1.62,2.85,2.43,2.85,2.43s1.88,0.87,1.58-0.87c0,0,1.26,0.1,0.78-0.87c0,0,1.68,0.03,0.45-1.29
		c-1.23-1.33-3.49-2.62-3.49-2.62s-1.29-2.07,0.55-1.03c1.84,1.03,3.46,1.07,1.75-0.61c-1.71-1.68-3.69-4.62-5.14-9.99
		s-3.17-15.98-1.12-24.13c2.05-8.15,4.64-10.87,4.64-10.87L68.43,243.44z"/>
	<path class="st23" d="M61.41,366.88c0,0,1.58,4.44,3.33,6.48c1.75,2.04,3.14,3.53,3.14,3.53s2.04,3.27-0.26,2.3
		s-15.01-9.51-15.01-9.51s-1.81-0.94-0.97-2.49c0.84-1.55,2.97-4.54,2.97-4.54L61.41,366.88z"/>
	<path class="st23" d="M84.75,376.78c0,0-0.47,1.29,2.2,1.29c2.67,0,17.21,0,17.21,0s2.8-0.56,0.22-1.81
		c-2.59-1.25-10.35-4.74-10.35-4.74s-0.59-0.16-0.58-1.65h-8.81L84.75,376.78z"/>
	<path class="st21" d="M80.87,235.8c0,0,0.56-5.33-3.32-5.84s-6.34,4.66-7.63,8.02c-1.29,3.36-1.94,5.82-1.94,5.82
		s8.34,3.36,10.54,3.36C78.52,247.16,80.37,241.58,80.87,235.8z"/>
	<g>
		<path class="st12" d="M323.42,237.98c0,0,2.98-1.68,1.16-8.73c-1.81-7.05-3.62-8.22-1.16-13.26c2.46-5.05,10.35-6.48,21.6-6.02
			c11.25,0.46,14.23,11.56,12.94,16.42c-1.29,4.87-11.52,10.43-17.73,9.65s-9.05-1.16-9.05-1.16S329.11,238.37,323.42,237.98z"/>
		<circle class="st24" cx="335.95" cy="222.74" r="1.66"/>
		<circle class="st24" cx="341.03" cy="222.74" r="1.66"/>
		<circle class="st24" cx="346.08" cy="222.74" r="1.66"/>
	</g>
	<polygon class="st18" points="302.23,301.73 286.31,311.87 304.44,304.9 	"/>
	<path class="st25" d="M309.64,326.25c0,0,17.78,1.05,10.04,2.09c-7.74,1.05-18.4,1.05-22.17,0.63
		C293.75,328.55,306.72,326.46,309.64,326.25z"/>
	<path class="st13" d="M306.29,307.47l-4.97-1.73l-32.77,12.04c0,0-4.18,2.3-4.5,7.11s-1.88,47.58-1.88,47.58h6.17l4.18-34.4
		l1.67-12.97l7.53-4.29l19.24-9.83L306.29,307.47z"/>
	<path class="st12" d="M319.55,308.19c1.09,3.83,2.76,15.07-2.71,17.68c-0.23,0.11-0.48,0.19-0.73,0.23l-30.05,4.72
		c-0.14,0.02-0.27,0.04-0.41,0.04c-0.52,0-2.12,0.17-1.41,2.2c0.71,2.05,9.57,26.4,12.16,33.51c0.41,1.14,2.01,4.4,1,5.07
		l-2.95,2.88c-1.27,0.84-3.51-3.48-4.25-4.81l-19.67-35.25c-0.06-0.11-0.12-0.23-0.16-0.36c-0.46-1.22-2.46-7.57,3.95-10.77
		c6.41-3.21,25.74-13.12,29.48-15.05c0.41-0.21,2.15-1.23,2.61-1.21l10.65,1.61C318.16,308.75,319.24,307.11,319.55,308.19z"/>
	<path class="st21" d="M250.67,304.43c0-0.02-0.01-0.04-0.01-0.06c-0.04-0.25-0.32-2.06,0.95-2.06h6.57c0.24,0,0.43-0.19,0.43-0.43
		v-4.62c0-0.27-0.22-0.49-0.49-0.49l-12.66-0.1c-0.03,0-0.05,0-0.08-0.01c-0.25-0.04-1.47-0.36-1.94-2.59c0-0.01,0-0.02-0.01-0.04
		l-2.57-17.7c-0.05-0.38-0.04-0.76,0.08-1.12c0.23-0.73,0.9-1.66,2.81-1.66c2.8,0,23.2-0.08,27.61-0.1c0.98,0,1.9,0.51,2.37,1.37
		c0.32,0.58,0.61,1.42,0.77,2.6c0.48,3.42,2.07,14.44,2.36,16.42c0.03,0.24,0.03,0.48-0.02,0.72c-0.17,0.77-0.73,2.33-2.55,2.41
		c-2.09,0.09-10.34-0.21-12.46-0.29c-0.28-0.01-0.5,0.21-0.51,0.48l-0.04,4.86c0,0.27,0.22,0.49,0.49,0.49l7.05,0.05
		c0.03,0,0.07,0,0.1,0.01c0.19,0.05,0.79,0.29,0.78,1.03c-0.02,1.38-0.05,1.1-0.05,1.1l-18.5,0.15c-0.24,0-0.44-0.18-0.47-0.42
		L250.67,304.43z"/>
	<path class="st23" d="M316.62,263.86c0,0,4.95-2.16,7.11,4.46c0,0,1.46,4.53,2.51,5.86c1.05,1.32,3.83,2.23,3.83,2.23
		s2.58,1.32,2.44,5.16c-0.14,3.83-0.49,7.32-1.88,9.69c-1.05,1.78-0.48,2.97-0.14,3.45c0.17,0.24,0.24,0.53,0.22,0.82
		c-0.06,0.75-0.46,1.96-2.38,2.01c-2.79,0.07-6.4,1.22-5.84-1.49c0.56-2.72,1.58-16.21,1.58-16.21l-2.09-5.3l-3.21-2.09l-1.53-1.05
		c0,0-3.68-4.74-3.68-5.84C313.57,264.45,316.62,263.86,316.62,263.86"/>
	<path id="face_2_" class="st18" d="M313.27,264l-3.97-2.02l-0.14-6.27l-1.81-2.23l-3.35,0.98l-4.46-0.14h-3.49
		c0,0,0.42,9.62,3.9,13.38c0,0,4.11,0.84,5.65-0.21c0,0,1.81-1.6,1.81,1.19s0.28,6.07,0.28,6.07s1.25,2.23,6,0.14
		c0,0,2.58-1.39,3.56-3.49"/>
	<path class="st23" d="M298.56,246.88c0,0,9.31-7.74,15.06,0c5.75,7.74,4.71,13.49,3.14,15.16c0,0-4.99,5.36-8.84-0.37
		c0,0-0.75-0.96-0.26-2.91c0,0,1.46-4.29-2.2-3.28c-3.66,1.01-6.8,0.98-8.16-0.52c-1.36-1.5-1.92,0.14-1.85,0.63
		c0.07,0.49-0.56,3.63-2.41,0.77c-1.85-2.86,0.49-7.95,2.54-9.31C295.6,247.06,297.37,246.08,298.56,246.88z"/>
	<path class="st26" d="M316.31,262.13c0,0,0.49,1.57,0.38,1.88c0,0-2.13,1.57-2.68,1.64c0,0-0.8-1.29-0.66-1.81
		C313.34,263.84,316.06,262.2,316.31,262.13z"/>
	<path class="st5" d="M317.11,271.38c0.06-0.06,0.16,0.01,0.24,0c0.87-0.1,6.62-0.43,7.3,7.3c0.64,7.28-3.65,26.46-4.78,30.88
		l-20.35-3.13c0.38-1.87,0.93-6.15,0.93-6.99c0,0,0.9-8.24,1.07-10.63c0.03-0.36-0.1-0.72-0.35-0.98c-0.92-0.99-3.06-3.82-1.09-6.89
		c0,0,4.29-7.11,7.32-8.63C307.4,272.29,310.56,277.78,317.11,271.38z"/>
	<path class="st18" d="M313.79,289.47L313.79,289.47c0.24-0.89,1.22-1.36,2.06-0.97l3.26,1.48c0.43,0.19,0.74,0.57,0.84,1.03
		l0.14,0.59c0.08,0.33,0.04,0.68-0.11,0.99l-3.46,7.15c-0.1,0.21-0.18,0.43-0.23,0.65c-0.17,0.71-0.93,2.44-4.13,1.6l-20.19-5.1
		c-0.06-0.02-4.37-1.58-4.42-1.6c-0.44-0.17-0.86,0-0.97,1.4c-0.05,0.59-1.56-1.17-1.21-2.41c0,0,1.06-2.43,6.71-1.07l15.51,3.12
		c0.04,0.01,0.08,0.02,0.12,0.03c0.41,0.12,2.93,0.75,3.6-1.27l2.39-5.4C313.74,289.61,313.76,289.54,313.79,289.47z"/>
	<path class="st27" d="M323.02,274.03c0.39,0.28,0.61,0.74,0.72,1.19c0.27,1.03,0.32,2.29,0.09,3.33
		c-0.41,1.88-2.56,11.55-3.63,13.56c0,0-3.43-2.45-6.43-2.59c0,0,1.64-6.73,3.29-11.28C317.07,278.23,319.58,271.53,323.02,274.03z"
		/>
	<path class="st23" d="M268.34,372.47l0.21,5.28c0,0,0.15,0.8-3.09,0.8c-3.24,0-11.65-0.01-11.65-0.01s-1.99-0.84,0.31-1.57
		c0,0,5.12-1.57,8.05-4.5H268.34z"/>
	<path class="st9" d="M290.98,301.68l-8.05,0.05v-3.56c0,0-0.37-0.99,1.2-1.1c1.57-0.1,5.75,0.1,5.75,0.1s1.15,0.1,1.15,1.46
		S290.98,301.68,290.98,301.68z"/>
	<path class="st28" d="M290.37,301.43c0,0,3-0.26,3.22,1.24c0.26,1.71-0.57,2.12-2.03,2.17c-1.46,0.05-10.2-0.13-10.2-0.13
		s-1.69-0.24-1.62-1.46c0.07-1.25,0.42-1.73,2.04-1.73S290.37,301.43,290.37,301.43z"/>
	<path class="st2" d="M270.26,304.57l22.48,0.14c0.09,0,0.17,0.01,0.26,0.02c0.6,0.01,2.22,0.36,2.22,1.66
		c0,1.53-1.12,1.95-3.07,1.95h-51.76c-0.61,0-1.19-0.23-1.65-0.64c-0.59-0.53-1.25-2.13,0.04-2.94c0.36-0.23,0.79-0.32,1.22-0.32
		L270.26,304.57z"/>
	<path class="st2" d="M256.31,308.19l-14.78,12.97c0,0-2.65,2.37-2.79,7.81c-0.14,5.44-0.98,49.91-0.98,49.91s-0.28,2.51,4.6,2.51
		h31.79c0,0,1.25,0,1.39-1.53c0.14-1.53-1.12-1.39-2.09-1.39l-32.49,0.14l0.28-48.94c0,0-0.84-4.18,5.16-9.06l13.4-12.39
		L256.31,308.19z"/>
	<path class="st2" d="M308.13,329.13l0.05,45.85c0,0,7.11,0.21,8.37,1.88c1.25,1.67-0.21,2.72-7.53,2.51s-11.71-0.21-11.71-0.21
		s-3.56-0.42,0.63-2.51c4.18-2.09,7.53-1.46,7.53-1.46l0.42-46.01L308.13,329.13z"/>
	<path class="st29" d="M297.1,368.5c0,0,4.08,3.87,1.67,5.65l-10.67,8.47c0,0-1.57,0.42-1.25-1.36l4.71-9.1L297.1,368.5z"/>
	<g>
		<circle class="st30" cx="147.9" cy="46.13" r="6.69"/>
		<line class="st30" x1="144.98" y1="40.16" x2="123.27" y2="34.08"/>
		<line class="st30" x1="141.15" y1="46.78" x2="118.08" y2="48.27"/>
		<line class="st30" x1="145.14" y1="52.4" x2="124.25" y2="62.29"/>
	</g>
	<g>
		<circle class="st4" cx="307.92" cy="133.61" r="9.7"/>
		<path class="st4" d="M301.25,126.45c0,0-16.93-4.52-11.07,1.44c5.86,5.96,25.61,14.54,29.58,15.44c3.97,0.89,6.45-0.74,5.21-2.88
			c-1.24-2.13-7.45-5.61-7.45-5.61"/>
	</g>
	<polygon class="st13" points="249.07,148.28 251.19,143.32 254.04,147.68 258.6,148.35 255.83,151.72 256.22,156.88 251.92,154.63 
		247.69,157.28 248.15,151.92 244.11,148.68 	"/>
	<polygon class="st4" points="256.52,17.46 258.63,12.5 261.48,16.87 266.05,17.53 263.27,20.9 263.66,26.07 259.36,23.82 
		255.13,26.46 255.59,21.1 251.55,17.86 	"/>
	<g>
		<circle class="st4" cx="81.72" cy="105.21" r="7.99"/>
		<circle class="st4" cx="79.25" cy="108" r="1.82"/>
		<circle class="st4" cx="83.8" cy="103.93" r="1.37"/>
		<circle class="st4" cx="79.58" cy="101.67" r="1.07"/>
	</g>
	<g>
		<circle class="st30" cx="129.61" cy="133.74" r="12.98"/>
		<path class="st30" d="M122.62,122.77c0,0,0.79,2.98,4.37-0.4c0,0,1.99-1.69,2.38,0.3c0.4,1.99-0.79,2.48-1.19,2.68
			c-0.4,0.2-2.68,0.6-2.68,0.6s-1.79,1.69-0.2,2.38c1.59,0.69,2.18-0.4,2.18-0.4s1.69-0.3,1.99,0.79c0.3,1.09,1.39,1.24,2.28,0.05
			c0.89-1.19,1.39,0,1.59,0.84c0.2,0.84,0.55,1.04,1.34,0.69c0.79-0.35,1.14-0.79,1.34-0.65c0.2,0.15,0.74,0.55,0.94,1.49
			c0.2,0.94,1.79,0,2.23-0.25c0.45-0.25,1.59-0.79,1.59-0.79l0.69-0.89l0.2-0.45"/>
		<path class="st30" d="M117.45,129.57c0,0,1.19,1.54,1.94,1.74c0.74,0.2,1.59-0.45,1.84-0.6c0.25-0.15,1.34,0.05,1.54,0.84
			c0.2,0.79,0.69,1.14,1.39,0.84c0.69-0.3,1.09-1.59,2.08-0.94c0.99,0.65,1.14,1.14,0.99,1.69s-2.23,1.64-2.88,1.74
			c-0.65,0.1-1.64,0.79-1.64,0.79s-1.19,0.84-0.25,1.89s1.74,0.6,1.74,0.6s1.39-1.24,2.18-1.49s1.99-0.69,2.33,0.35
			s-0.2,1.94-1.04,2.23c-0.84,0.3-2.18,0.5-2.53,0.74c-0.35,0.25-1.94,0.45-1.49,1.69c0.45,1.24,1.69,1.34,2.68,1.14
			c0.99-0.2,0.99-0.05,0.99,0.89s-0.1,2.53-0.1,2.53"/>
		<path class="st30" d="M142.6,133.74c0,0-5.54,1.44-6.04,2.33c0,0-1.24,0.89-0.55,1.79c0,0,0.3,1.39,1.89,0.6
			c1.59-0.79,3.42-0.69,3.57-0.25c0.15,0.45,0.35-0.05,0.35-0.05"/>
	</g>
	<g>
		<g>
			<path class="st30" d="M330.82,73.28c-5.88-2.14-10.08-7.78-10.08-14.4"/>
			<path class="st30" d="M351.09,55.81c0.2,0.99,0.31,2.02,0.31,3.07c0,7.37-5.2,13.52-12.13,14.99"/>
			<path class="st30" d="M322.9,51.03c2.68-4.48,7.57-7.48,13.17-7.48c4.45,0,8.45,1.89,11.25,4.92"/>
		</g>
		<g>
			<path class="st30" d="M326.74,61.12c-0.98-3.81,0.45-7.99,3.88-10.35"/>
			<path class="st30" d="M343,65.41c-0.44,0.46-0.94,0.88-1.48,1.25c-3.82,2.62-8.86,2.11-12.08-0.95"/>
			<path class="st30" d="M335.45,49.1c3.27-0.21,6.57,1.26,8.56,4.17c1.58,2.3,2.02,5.05,1.45,7.58"/>
		</g>
		<circle class="st30" cx="336.07" cy="58.71" r="5.91"/>
	</g>
	<g>
		<ellipse class="st31" cx="214.07" cy="386.42" rx="14.66" ry="4.74"/>
		<path class="st32" d="M187.16,334.85c0,0,3.49-1.42,3.23-5.43c-0.26-4.01-2.33-6.85,1.94-5.69s5.7,1.68,8.8,1.03
			c3.1-0.65,5.68-1.94,4.32,2.07c-1.36,4.01-2.82,7.37,0.37,8.02s6.61-1.77,7.03,4.51c0.41,6.28-4.65,13.33-12.84,13.59
			c-8.19,0.26-11.81-3.13-11.81-3.13s-2.2-3.1,1.23-3.86c3.43-0.76,6.92-2.22,5.17-3.82s-7.43-1.73-7.43-1.73
			S180.05,338.99,187.16,334.85z"/>
		<path class="st2" d="M224.6,335.89c-0.58-4-0.13-6.88,7.3-7.97c7.43-1.08,11.77,3.38,12.22,7.97s-6.01,6.26-6.01,6.26
			s-4.59,1.31-2.26,5.32c2.33,4.01,3.38,7.89-1.9,8.47c-5.28,0.58-11.06-0.81-14.28-2.96c-3.22-2.15-6.52-7.58-2.83-10.42
			c0,0,1.03-0.71,4.59-0.91C224.98,341.45,224.6,335.89,224.6,335.89z"/>
		<path class="st33" d="M198.44,335.24c0,0,6.17,13.96,7.02,23.47"/>
		<path class="st34" d="M232.76,337.53c0,0-10.93,16.23-13.51,21.66"/>
		<path class="st35" d="M201.64,357.61h25.08c0,0,2.75,0.19,2.52,3.94c-0.21,3.45-4.59,2.71-6.85,2.71s-21.29,0-21.29,0
			s-3.08,0.53-3.08-2.97C198.02,357.8,199.18,357.61,201.64,357.61z"/>
		<polygon class="st35" points="201.1,364.26 204.9,386.42 221.74,386.42 224.6,369.79 201.13,364.26 		"/>
		<polygon class="st36" points="201.13,364.26 224.6,369.79 225.54,364.26 		"/>
		<g>
			<path class="st37" d="M211.92,358.45c0,0,1.27-24.59,8.6-40.02"/>
			<path class="st5" d="M226.55,309.55c0,0,0.61,7.55-6.77,10.5C219.79,320.05,218.19,313.61,226.55,309.55z"/>
			<path class="st5" d="M215.5,333.58c0,0,2.71-6.44,11.06-5.58C226.57,328,225.91,334.42,215.5,333.58z"/>
			<path class="st5" d="M212.75,349.78c0,0,1.4-6.85,9.76-7.63C222.51,342.15,223.13,348.57,212.75,349.78z"/>
			<path class="st5" d="M212.47,349.82c0,0,0.97-6.92-6.64-10.46C205.82,339.36,203.1,345.21,212.47,349.82z"/>
			<path class="st5" d="M215.59,333.53c0,0,1.84-6.74-5.26-11.22C210.33,322.31,206.88,327.76,215.59,333.53z"/>
		</g>
	</g>
</g>
</svg>
