<?xml version="1.0" encoding="utf-8"?>
<!-- Generator: Adobe Illustrator 23.0.1, SVG Export Plug-In . SVG Version: 6.00 Build 0)  -->
<svg version="1.1" id="Layer_1" xmlns="http://www.w3.org/2000/svg" xmlns:xlink="http://www.w3.org/1999/xlink" x="0px" y="0px"
	 viewBox="0 0 600 450" style="enable-background:new 0 0 600 450;" xml:space="preserve">
<style type="text/css">
	.st0{fill:#EEF9FF;}
	.st1{fill:none;stroke:#003EB0;stroke-miterlimit:10;stroke-dasharray:6;}
	.st2{fill:#180857;}
	.st3{fill:#FFB07E;}
	.st4{fill:#FFBE9B;}
	.st5{fill:none;stroke:#B70B28;stroke-width:0.25;stroke-miterlimit:10;}
	.st6{fill:#EE384E;}
	.st7{fill:#FCBE42;}
	.st8{fill:#023EA1;}
	.st9{fill:none;stroke:#FFFFFF;stroke-width:2;stroke-miterlimit:10;}
	.st10{fill:#FFFFFF;}
	.st11{fill:none;stroke:#EB4B57;stroke-miterlimit:10;}
	.st12{fill:#003EB0;}
	.st13{fill:none;stroke:#FFFFFF;stroke-linecap:round;stroke-linejoin:round;stroke-miterlimit:10;}
	.st14{fill:none;stroke:#FCBE42;stroke-miterlimit:10;}
	.st15{fill:#E9E8EE;}
	.st16{fill:#170856;}
	.st17{fill:#FFBF99;}
	.st18{fill:#DE051F;}
	.st19{fill:#004B89;}
	.st20{fill:#0064E1;}
	.st21{fill:#0054A3;}
	.st22{fill:#0064B7;}
	.st23{fill:#569ED4;}
	.st24{fill:none;stroke:#003EB0;stroke-miterlimit:10;}
</style>
<g>
	<path class="st0" d="M220.25,58.12c0,0,44.92,35.94,95.24,7.19c69.32-39.61,118.6-34.14,134.77,10.78s0.9,72.78,42.23,111.41
		c0,0,30.48,31.22,35.49,84.91c6.29,67.39-169.81,119.5-220.13,125.79c-50.32,6.29-102.43-8.98-130.28-6.29
		c-27.85,2.7-77.27-18.87-84.46-63.79s38.63-62.89,35.04-108.72c-3.59-45.82-49.42-28.75-44.03-101.53
		C89.52,45.09,195.55,28.92,220.25,58.12z"/>
	<circle class="st1" cx="194.33" cy="206.36" r="106.15"/>
	<g>
		<path class="st2" d="M230.57,129.31c0,0,8.74-2.5,7.49-16.77s-9.81-26.04,3.03-33.35c12.84-7.31,17.03-9.99,22.96-16.05
			s9.5-10.88,30.01-8.92c0,0,16.23-13.2,30.68-1.43s9.91,42.45,13.07,47.27c3.16,4.82,22.6,23.9,24.74,40.31
			c2.14,16.41-8.82,26.4-24.74,25.68c-15.92-0.71-37.33,0-37.33,0h-58.68c0,0-19.54,1.18-21.23-18.19
			C219.51,135.55,230.57,129.31,230.57,129.31z"/>
		<path class="st3" d="M279.34,153.05c0,0,0,11.88-5.09,16.97s-11.88,13.58-11.88,13.58s11.88,18.67,35.64,16.12s28-19.52,28-19.52
			s-22.49-2.97-25.03-24.18c-2.55-21.21-5.94-21.21-5.94-21.21L279.34,153.05z"/>
		<g>
			<ellipse class="st4" cx="290.66" cy="114.86" rx="26.6" ry="44.77"/>
			<path class="st5" d="M290.44,72.23"/>
			<path class="st2" d="M290.66,67.59c0,0-4.88,14.09-14.78,28.18s-21.58,21.76-22.83,24.26s-10.17-4.64-6.78-15.87
				s21.94-42.27,41.38-42.81c19.44-0.54,23.72-11.59,32.82,10.88s7.49,48.3,7.49,48.3L290.66,67.59z"/>
			<path class="st4" d="M265.98,109.38c0,0-10.08-1.07-11.5,4.99c-1.43,6.06,3.21,11.59,11.5,12.84S265.98,109.38,265.98,109.38z"/>
		</g>
	</g>
	
		<rect x="268.77" y="10.5" transform="matrix(0.7071 0.7071 -0.7071 0.7071 90.6404 -188.8354)" class="st6" width="8.98" height="8.98"/>
	<path class="st7" d="M164.08,136.54c0,0,37.57-12.62,37.98,9.43c0.41,22.05,9.39,24.09,18.78,25.73
		c9.39,1.63,27.36-2.45,26.54,20.83s-10.21,34.89-2.86,44.81s23.74,59.73,2.89,60.95s-38-23.28-42.49-35.53
		c-4.49-12.25-20.83-17.97-34.3-19.19c-13.48-1.22-28.18-12.98-17.97-27.93s7.06-34.55-3.41-41.9
		C138.76,166.38,138.76,145.49,164.08,136.54z"/>
	<path class="st8" d="M109.89,269.36c0,0-6.65-18.08-21.79-13.75c-15.13,4.33-21.51,27.08-11.22,36.34
		c10.3,9.25,20.34,5.7,19.24,16.24c-1.1,10.54,0.28,40.36,15.19,40.36s20.01-15.6,35.33-2.49s9.11,46.87,37.92,38.47
		s73.41-35.32,37.84-70.22s-40.05,11.26-59.65-21.75s-26.02-13.88-38.44-12.16C111.89,282.14,109.89,269.36,109.89,269.36z"/>
	<circle class="st1" cx="420.75" cy="249.49" r="106.15"/>
	<circle class="st6" cx="94.47" cy="170.43" r="17.97"/>
	<circle class="st7" cx="505.07" cy="191.1" r="17.97"/>
	<polyline class="st9" points="88.18,166.84 95.37,177.62 100.76,168.64 	"/>
	<polygon class="st10" points="500.58,183.91 512.26,192 500.58,198.29 	"/>
	<g>
		<path class="st11" d="M225.25,328.52c0,0-41.97-69.07-87.17-102.25"/>
		<path class="st11" d="M106.81,210.01c0,0,10.01,22.76,35.9,19.8C142.72,229.81,137.29,208.69,106.81,210.01z"/>
		<path class="st11" d="M176.17,262.22c0,0-17.88-14.38-40.66,1.11C135.51,263.33,147.39,280.86,176.17,262.22z"/>
		<path class="st11" d="M209.34,304.75c0,0-14.72-17.6-40.09-6.86C169.24,297.9,177.47,317.4,209.34,304.75z"/>
		<path class="st11" d="M210.24,304.43c0,0-13.58-18.49,2.91-40.57C213.14,263.86,230.13,276.5,210.24,304.43z"/>
		<path class="st11" d="M175.84,262.22c0,0-15.83-16.61-2.29-40.61C173.55,221.61,192.01,231.98,175.84,262.22z"/>
	</g>
	<g>
		<path class="st12" d="M487.67,80.01c-0.21-0.18-0.49-0.27-0.77-0.24l-4.97,0.62c-0.64,0.08-1.24-0.35-1.39-0.99
			c-0.54-2.27-1.43-4.42-2.65-6.41c-0.34-0.56-0.22-1.28,0.29-1.68l3.6-2.8c0.22-0.17,0.36-0.43,0.37-0.71
			c0.02-0.28-0.09-0.55-0.28-0.75l-5.51-5.51c-0.2-0.2-0.47-0.31-0.75-0.28c-0.28,0.02-0.54,0.15-0.71,0.37l-2.8,3.6
			c-0.39,0.51-1.11,0.63-1.68,0.29c-1.99-1.21-4.14-2.1-6.41-2.65c-0.65-0.15-1.07-0.75-0.99-1.39l0.62-4.97
			c0.03-0.28-0.05-0.56-0.24-0.76c-0.18-0.21-0.45-0.33-0.73-0.33h-7.79c-0.28,0-0.55,0.12-0.73,0.33
			c-0.18,0.21-0.27,0.49-0.24,0.76l0.62,4.97c0.08,0.64-0.35,1.23-0.99,1.39c-2.27,0.54-4.42,1.43-6.41,2.65
			c-0.56,0.34-1.28,0.22-1.67-0.29l-2.8-3.6c-0.17-0.22-0.43-0.36-0.71-0.37c-0.28-0.02-0.55,0.09-0.75,0.28l-5.51,5.51
			c-0.2,0.2-0.3,0.47-0.28,0.75c0.02,0.28,0.15,0.54,0.37,0.71l3.6,2.8c0.51,0.39,0.63,1.11,0.29,1.67
			c-1.21,1.99-2.1,4.14-2.65,6.41c-0.15,0.65-0.75,1.07-1.39,0.99l-4.97-0.62c-0.28-0.04-0.56,0.05-0.77,0.24
			c-0.21,0.18-0.33,0.45-0.33,0.73v7.79c0,0.28,0.12,0.55,0.33,0.73c0.21,0.18,0.49,0.27,0.77,0.24l4.97-0.62
			c0.64-0.08,1.24,0.35,1.39,0.99c0.54,2.27,1.43,4.42,2.65,6.41c0.34,0.56,0.22,1.28-0.29,1.67l-3.6,2.8
			c-0.22,0.17-0.36,0.43-0.37,0.71c-0.02,0.28,0.09,0.55,0.28,0.75l5.51,5.51c0.2,0.2,0.47,0.3,0.75,0.28
			c0.28-0.02,0.54-0.15,0.71-0.37l2.8-3.6c0.39-0.51,1.11-0.63,1.68-0.29c1.99,1.21,4.14,2.1,6.41,2.65
			c0.65,0.15,1.07,0.75,0.99,1.39l-0.62,4.97c-0.03,0.28,0.05,0.56,0.24,0.76c0.18,0.21,0.45,0.33,0.73,0.33h7.79
			c0.28,0,0.55-0.12,0.73-0.33c0.18-0.21,0.27-0.49,0.24-0.77l-0.62-4.97c-0.08-0.64,0.35-1.24,0.99-1.39
			c2.27-0.54,4.42-1.43,6.41-2.65c0.56-0.34,1.28-0.22,1.67,0.29l2.8,3.6c0.17,0.22,0.43,0.36,0.71,0.37
			c0.28,0.02,0.55-0.09,0.75-0.28l5.51-5.51c0.2-0.2,0.3-0.47,0.28-0.75c-0.02-0.28-0.15-0.54-0.37-0.71l-3.6-2.8
			c-0.51-0.39-0.63-1.11-0.29-1.68c1.21-1.99,2.1-4.14,2.65-6.41c0.15-0.64,0.76-1.07,1.39-0.99l4.97,0.62
			c0.28,0.04,0.56-0.05,0.77-0.24c0.21-0.18,0.33-0.45,0.33-0.73v-7.79C488,80.45,487.88,80.19,487.67,80.01L487.67,80.01z
			 M486.05,87.42l-3.88-0.48c-1.63-0.2-3.14,0.86-3.53,2.47c-0.49,2.07-1.31,4.03-2.41,5.85c-0.86,1.41-0.54,3.22,0.75,4.23
			l2.73,2.12l-3.95,3.95l-2.12-2.73c-1-1.29-2.82-1.61-4.23-0.75c-1.81,1.11-3.78,1.92-5.85,2.41c-1.61,0.39-2.67,1.9-2.47,3.53
			l0.49,3.88h-5.58l0.48-3.88c0.2-1.62-0.86-3.14-2.47-3.52c-2.07-0.5-4.04-1.31-5.85-2.41c-1.41-0.86-3.22-0.54-4.23,0.75
			l-2.12,2.73l-3.95-3.95l2.73-2.12c1.29-1,1.61-2.82,0.75-4.23c-1.11-1.81-1.92-3.78-2.41-5.85c-0.39-1.61-1.9-2.67-3.53-2.47
			l-3.88,0.48v-5.58l3.88,0.48c1.62,0.2,3.14-0.86,3.53-2.47c0.49-2.07,1.31-4.03,2.41-5.85c0.86-1.41,0.54-3.22-0.75-4.23
			l-2.73-2.12l3.95-3.95l2.12,2.73c1,1.29,2.82,1.61,4.23,0.75c1.81-1.11,3.78-1.92,5.85-2.41c1.61-0.39,2.67-1.9,2.47-3.52
			l-0.48-3.88h5.58l-0.48,3.88c-0.2,1.62,0.86,3.14,2.47,3.52c2.07,0.5,4.04,1.31,5.85,2.41c1.41,0.86,3.22,0.54,4.23-0.75
			l2.12-2.73l3.95,3.95l-2.73,2.12c-1.29,1-1.61,2.82-0.75,4.23c1.11,1.81,1.92,3.78,2.41,5.85c0.39,1.61,1.91,2.67,3.53,2.47
			l3.88-0.48V87.42z M486.05,87.42"/>
		<path class="st12" d="M458.8,71c-7.51,0-13.63,6.11-13.63,13.63s6.11,13.63,13.63,13.63c7.51,0,13.63-6.11,13.63-13.63
			C472.43,77.11,466.32,71,458.8,71L458.8,71z M458.8,96.31c-6.44,0-11.68-5.24-11.68-11.68s5.24-11.68,11.68-11.68
			c6.44,0,11.68,5.24,11.68,11.68S465.24,96.31,458.8,96.31L458.8,96.31z M458.8,96.31"/>
	</g>
	<g>
		<path class="st6" d="M403.34,31.4c-0.13-0.12-0.31-0.17-0.48-0.15l-3.13,0.39c-0.41,0.05-0.78-0.22-0.88-0.62
			c-0.34-1.43-0.9-2.79-1.67-4.04c-0.22-0.35-0.14-0.81,0.18-1.06l2.27-1.77c0.14-0.11,0.22-0.27,0.24-0.45
			c0.01-0.18-0.05-0.35-0.18-0.47l-3.47-3.47c-0.12-0.12-0.3-0.19-0.47-0.18c-0.18,0.01-0.34,0.1-0.45,0.24l-1.77,2.27
			c-0.25,0.32-0.7,0.4-1.06,0.18c-1.25-0.77-2.61-1.33-4.04-1.67c-0.41-0.1-0.68-0.47-0.62-0.88l0.39-3.14
			c0.02-0.17-0.03-0.35-0.15-0.48c-0.12-0.13-0.28-0.21-0.46-0.21h-4.91c-0.18,0-0.34,0.08-0.46,0.21
			c-0.12,0.13-0.17,0.31-0.15,0.48l0.39,3.14c0.05,0.4-0.22,0.78-0.63,0.88c-1.43,0.34-2.79,0.9-4.04,1.67
			c-0.35,0.22-0.81,0.14-1.06-0.18l-1.77-2.27c-0.11-0.14-0.27-0.22-0.45-0.24c-0.18-0.01-0.35,0.05-0.47,0.18l-3.47,3.47
			c-0.12,0.12-0.19,0.3-0.18,0.47c0.01,0.18,0.1,0.34,0.24,0.45l2.27,1.77c0.32,0.25,0.4,0.7,0.18,1.06
			c-0.77,1.25-1.33,2.61-1.67,4.04c-0.1,0.41-0.47,0.68-0.88,0.62l-3.14-0.39c-0.18-0.02-0.35,0.03-0.48,0.15
			c-0.13,0.12-0.21,0.28-0.21,0.46v4.91c0,0.18,0.08,0.34,0.21,0.46c0.13,0.12,0.31,0.17,0.48,0.15l3.14-0.39
			c0.4-0.05,0.78,0.22,0.88,0.63c0.34,1.43,0.9,2.79,1.67,4.04c0.22,0.35,0.14,0.81-0.18,1.06l-2.27,1.77
			c-0.14,0.11-0.22,0.27-0.24,0.45c-0.01,0.18,0.05,0.35,0.18,0.47l3.47,3.47c0.12,0.12,0.3,0.19,0.47,0.18
			c0.18-0.01,0.34-0.1,0.45-0.24l1.77-2.27c0.25-0.32,0.7-0.4,1.06-0.18c1.25,0.77,2.61,1.33,4.04,1.67
			c0.41,0.1,0.68,0.47,0.63,0.88l-0.39,3.14c-0.02,0.17,0.03,0.35,0.15,0.48c0.12,0.13,0.28,0.21,0.46,0.21h4.91
			c0.18,0,0.34-0.08,0.46-0.21c0.12-0.13,0.17-0.31,0.15-0.48l-0.39-3.13c-0.05-0.4,0.22-0.78,0.63-0.88
			c1.43-0.34,2.79-0.9,4.04-1.67c0.35-0.22,0.81-0.14,1.06,0.18l1.77,2.27c0.11,0.14,0.27,0.22,0.45,0.24
			c0.18,0.01,0.35-0.05,0.47-0.18l3.47-3.47c0.12-0.12,0.19-0.3,0.18-0.47c-0.01-0.18-0.1-0.34-0.24-0.45l-2.27-1.77
			c-0.32-0.25-0.4-0.7-0.18-1.06c0.77-1.25,1.33-2.61,1.67-4.04c0.1-0.41,0.48-0.67,0.88-0.62l3.13,0.39
			c0.18,0.02,0.35-0.03,0.48-0.15c0.13-0.12,0.21-0.28,0.21-0.46v-4.91C403.54,31.68,403.47,31.51,403.34,31.4L403.34,31.4z
			 M402.32,36.07l-2.45-0.31c-1.03-0.13-1.98,0.54-2.22,1.56c-0.31,1.3-0.82,2.54-1.52,3.69c-0.54,0.89-0.34,2.03,0.47,2.67
			l1.72,1.34l-2.49,2.49l-1.34-1.72c-0.63-0.81-1.78-1.02-2.67-0.47c-1.14,0.7-2.38,1.21-3.69,1.52c-1.02,0.24-1.69,1.2-1.56,2.22
			l0.31,2.45h-3.52l0.31-2.45c0.13-1.02-0.54-1.98-1.56-2.22c-1.3-0.31-2.55-0.82-3.69-1.52c-0.89-0.54-2.03-0.34-2.67,0.47
			l-1.34,1.72l-2.49-2.49l1.72-1.34c0.81-0.63,1.02-1.78,0.47-2.67c-0.7-1.14-1.21-2.38-1.52-3.69c-0.24-1.02-1.2-1.69-2.22-1.56
			l-2.45,0.31v-3.52l2.45,0.31c1.02,0.13,1.98-0.54,2.22-1.56c0.31-1.3,0.82-2.54,1.52-3.69c0.54-0.89,0.34-2.03-0.47-2.67
			l-1.72-1.34l2.49-2.49l1.34,1.72c0.63,0.81,1.78,1.02,2.67,0.47c1.14-0.7,2.38-1.21,3.69-1.52c1.02-0.24,1.69-1.2,1.56-2.22
			l-0.31-2.45h3.52l-0.3,2.45c-0.13,1.02,0.54,1.98,1.56,2.22c1.3,0.31,2.55,0.82,3.69,1.52c0.89,0.54,2.03,0.34,2.67-0.47
			l1.34-1.72l2.49,2.49l-1.72,1.34c-0.81,0.63-1.02,1.78-0.47,2.67c0.7,1.14,1.21,2.38,1.52,3.69c0.24,1.02,1.2,1.69,2.22,1.56
			l2.44-0.31V36.07z M402.32,36.07"/>
		<path class="st6" d="M385.13,25.72c-4.74,0-8.6,3.86-8.6,8.6s3.86,8.6,8.6,8.6c4.74,0,8.6-3.86,8.6-8.6
			C393.72,29.57,389.87,25.72,385.13,25.72L385.13,25.72z M385.13,41.68c-4.06,0-7.37-3.3-7.37-7.37s3.31-7.37,7.37-7.37
			c4.06,0,7.37,3.31,7.37,7.37S389.19,41.68,385.13,41.68L385.13,41.68z M385.13,41.68"/>
	</g>
	
		<rect x="89.97" y="377.08" transform="matrix(0.7071 0.7071 -0.7071 0.7071 297.4836 44.9631)" class="st6" width="8.98" height="8.98"/>
	
		<rect x="372.1" y="109.34" transform="matrix(0.7071 0.7071 -0.7071 0.7071 190.7894 -232.9501)" class="st12" width="8.98" height="8.98"/>
	
		<rect x="499.68" y="377.08" transform="matrix(0.7071 0.7071 -0.7071 0.7071 417.4844 -244.7444)" class="st12" width="8.98" height="8.98"/>
	<path class="st6" d="M483.69,269.36c0,0,6.65-18.08,21.79-13.75c15.13,4.33,21.51,27.08,11.22,36.34
		c-10.3,9.25-20.34,5.7-19.24,16.24c1.1,10.54-0.28,40.36-15.19,40.36s-20.01-15.6-35.33-2.49c-15.32,13.12-9.11,46.87-37.92,38.47
		s-73.41-35.32-37.84-70.22s40.05,11.26,59.65-21.75c19.6-33.01,26.02-13.88,38.44-12.16C481.68,282.14,483.69,269.36,483.69,269.36
		z"/>
	<path class="st13" d="M475.9,301.13c0,0-46.93,20.18-81.64,51.22s-37.59,42.91-37.59,42.91"/>
	<line class="st13" x1="175.1" y1="152.25" x2="248.6" y2="307.42"/>
	<polyline class="st13" points="224.51,180.02 204.97,215.3 166.12,210.95 	"/>
	<path class="st8" d="M437.94,156.44c0,0-4.65,13.97,1.79,25.78c6.44,11.81,10.19,19.69-1.71,22.91
		c-11.89,3.22-23.71,5.73-23.71,18.97c0,13.24,14.32,44.74-7.16,53.33c-21.48,8.59-55.12,15.39-63-11.81
		c-7.87-27.2-16.7-29.71-11.22-49.76s26.25-8.95,30.55-26.49s-5.73-27.56,14.32-28.99c20.05-1.43,21.48,5.37,20.76-16.47
		c-0.72-21.83,24.34-16.11,34.01-8.59C442.24,142.85,437.94,156.44,437.94,156.44z"/>
	<path class="st13" d="M409.66,174.7c0,0-46.53,61.21-63,107.74"/>
	<g>
		<path class="st14" d="M478.22,222.13c0,0-18.05-1.03-11.55,11.73c6.5,12.76,6.27,21.2-7.38,25.67s-19.04,13.02-17.12,21.26
			c1.92,8.24,7.85,22.75-11.03,27.84c-18.88,5.09-54.88,17.58-62.88-2.44c-8.01-20.02,6.03-50.1,20.26-53.99
			c14.23-3.89,25.92,1.84,31.33-13.62c5.41-15.47-10.03-18.55,1.22-31.73s21.5-27.55,42.66-16.03
			C482.72,201.14,488.25,220.16,478.22,222.13z"/>
		<g>
			<path class="st14" d="M457.53,217.91c0,0-71.28,82.31-84.48,107.44"/>
			<polyline class="st14" points="429.22,285.35 400.87,286.27 392.68,263.79 			"/>
			<polyline class="st14" points="458.3,243.52 437.74,241.16 428.61,223.22 			"/>
		</g>
	</g>
	<path class="st13" d="M117.67,301.13c0,0,46.93,20.18,81.64,51.22s37.59,42.91,37.59,42.91"/>
	<ellipse class="st15" cx="296.52" cy="430.19" rx="166.33" ry="19.31"/>
	<path class="st16" d="M364.14,404c0,0,15.86,0.79,27.36,0.79c11.5,0,29.73,2.38,29.73,2.38s4.76,0,5.15,5.95s0.4,8.33,0.4,8.33
		s0.4,7.14-5.15,7.14s-40.83,3.96-48.76,3.96s-13.88,1.59-13.88-3.96S358.59,403.6,364.14,404z"/>
	<path class="st17" d="M377.22,236.3c0,0,10.31,57.09,11.1,72.15c0.79,15.07,2.38,26.56-7.53,32.51
		c-9.91,5.95-26.17,11.5-26.17,11.5l-20.22-101.89v-11.89L377.22,236.3z"/>
	<path class="st17" d="M202.39,233.13c0,0-5.55,25.77-7.14,38.85c-1.59,13.08-5.15,38.46-5.55,44.4s-1.19,15.86,9.51,23.39
		s22.2,11.89,22.2,11.89l21.81-118.54H202.39z"/>
	<path class="st18" d="M266.41,173.07c0,0-16.25-1.98-24.98,0.4c-8.72,2.38-11.5,0.79-9.12,7.53c2.38,6.74,14.27,37.66,8.72,57.09
		c-5.55,19.43-13.08,118.94-13.08,118.94s60.26,2.38,83.65,3.57c23.39,1.19,40.83-3.17,40.83-3.17s5.15-42.82,0-61.45
		c-5.15-18.63-11.89-50.35-11.89-50.35s-4.36-43.61,1.59-54.31s10.31-11.1,2.78-13.88s-15.86-5.15-21.81-5.15s-9.12,0-12.69,3.57
		c-3.57,3.57-10.7,10.7-20.62,9.12c-9.91-1.59-17.44-8.33-17.44-8.33S269.19,173.46,266.41,173.07z"/>
	<path class="st6" d="M237.67,176.43c0,0-5.55-2.78-13.88,4.36c-8.95,7.67-15.46,24.18-18.63,34.49s-5.15,20.62-5.15,20.62
		s11.5,5.95,23.39,6.34s19.82,1.19,19.82,1.19s5.15-30.92,3.96-44.8S244.02,180,237.67,176.43z"/>
	<path class="st6" d="M337.58,187.93c0,0,4.76-13.08,15.46-7.14s18.63,28.54,21.01,35.68c2.38,7.14,5.55,21.41,5.55,21.41
		s-12.69,5.55-23.39,6.34c-10.7,0.79-18.24,1.59-18.24,1.59s-4.36-28.15-3.57-39.25C335.2,195.46,337.58,187.93,337.58,187.93z"/>
	<polygon class="st19" points="250.13,365.52 331.45,365.52 289.52,378.4 	"/>
	<path class="st20" d="M177.81,342.55c0,0,148.27,46.39,180.78,57.88c0,0,10.7,2.78,11.1,8.33c0.4,5.55-0.79,13.48-1.98,17.44
		c-1.19,3.96-4.76,7.14-10.7,5.95c-5.95-1.19-138.76-27.75-191.49-41.63l-15.07-4.76c0,0-11.1-5.15-9.12-18.63
		s11.89-25.37,19.03-26.17C167.5,340.17,177.81,342.55,177.81,342.55z"/>
	<path class="st16" d="M164.33,408.36c0,0,18.63-3.17,29.73-3.57c11.1-0.4,25.77-1.59,28.15,0c2.38,1.59,4.36,22.99,4.36,22.99
		s1.98,5.95-12.69,4.76c-14.67-1.19-48.37-2.38-48.37-2.38s-7.53-0.4-7.93-7.14s0.79-9.91,0.79-9.91S159.57,409.15,164.33,408.36z"
		/>
	<path class="st21" d="M252.74,389.33c0,0,90-27.36,122.11-36.87c32.11-9.51,49.95-18.24,60.26-3.17
		c10.31,15.07,9.51,31.72-2.38,36.47c-11.89,4.76-105.46,26.56-144.31,34.49s-64.23,13.08-67.79,11.5
		c-3.57-1.59-7.53-13.08-6.74-19.43s1.19-8.72,8.72-11.89C230.14,397.26,252.74,389.33,252.74,389.33z"/>
	<path class="st22" d="M242.43,258.5h108.23c0,0,5.95-0.79,5.95,7.14c0,7.93,0,93.56,0,93.56s0.4,6.34-4.36,6.34s-127.26,0-127.26,0
		s-5.15,1.59-5.15-7.14s0-95.15,0-95.15s-0.4-4.76,5.95-4.76S242.43,258.5,242.43,258.5z"/>
	
		<rect x="283.36" y="307.16" transform="matrix(0.7807 0.6249 -0.6249 0.7807 258.2089 -111.7006)" class="st23" width="9.8" height="9.8"/>
	<g>
		<g>
			<path class="st12" d="M147.98,57.85h-19.9c-0.32,0-0.59,0.26-0.59,0.59v8.19c0,0.16,0.06,0.3,0.17,0.41l2.34,2.34
				c0.11,0.11,0.26,0.17,0.41,0.17h15.22c0.16,0,0.3-0.06,0.41-0.17l2.34-2.34c0.11-0.11,0.17-0.26,0.17-0.41v-8.19
				C148.57,58.12,148.31,57.85,147.98,57.85L147.98,57.85z M147.4,66.39l-2,2h-14.73l-2-2v-7.37h18.73V66.39z M147.4,66.39"/>
			<path class="st12" d="M149.12,60.2l-22.24,1.17c-0.32,0.02-0.57,0.29-0.55,0.61c0.02,0.31,0.27,0.56,0.58,0.56
				c0.01,0,0.02,0,0.03,0l22.24-1.17c0.32-0.02,0.57-0.29,0.55-0.61C149.72,60.43,149.45,60.17,149.12,60.2L149.12,60.2z
				 M149.12,60.2"/>
			<path class="st12" d="M149.12,63.71l-22.24,1.17c-0.32,0.02-0.57,0.29-0.55,0.61c0.02,0.31,0.27,0.56,0.58,0.56
				c0.01,0,0.02,0,0.03,0l22.24-1.17c0.32-0.02,0.57-0.29,0.55-0.62C149.72,63.94,149.45,63.68,149.12,63.71L149.12,63.71z
				 M149.12,63.71"/>
			<path class="st12" d="M138.03,18.06c-10.97,0-19.9,8.93-19.9,19.9c0,6.91,3.49,13.19,9.36,16.86v3.63c0,0.32,0.26,0.59,0.59,0.59
				h19.9c0.32,0,0.58-0.26,0.58-0.59v-3.63c5.87-3.67,9.36-9.94,9.36-16.86C157.93,26.98,149,18.06,138.03,18.06L138.03,18.06z
				 M147.68,53.98c-0.18,0.11-0.28,0.3-0.28,0.5v3.37h-18.73v-3.37c0-0.2-0.11-0.4-0.28-0.5c-5.69-3.43-9.08-9.42-9.08-16.03
				c0-10.33,8.4-18.73,18.73-18.73c10.33,0,18.73,8.4,18.73,18.73C156.76,44.56,153.36,50.55,147.68,53.98L147.68,53.98z
				 M147.68,53.98"/>
			<path class="st12" d="M143.56,68.46c-0.29-0.15-0.64-0.03-0.79,0.25c-0.04,0.08-1.1,2.02-4.75,2.02c-3.64,0-4.7-1.93-4.75-2.02
				c-0.15-0.29-0.49-0.4-0.78-0.26c-0.29,0.14-0.41,0.5-0.26,0.78c0.05,0.11,1.38,2.67,5.79,2.67c4.41,0,5.74-2.56,5.79-2.67
				C143.97,68.95,143.85,68.6,143.56,68.46L143.56,68.46z M143.56,68.46"/>
		</g>
		<g>
			<path class="st18" d="M112.87,37.37h-11.71c-0.32,0-0.59,0.26-0.59,0.59c0,0.32,0.26,0.59,0.59,0.59h11.71
				c0.32,0,0.59-0.26,0.59-0.59C113.45,37.63,113.19,37.37,112.87,37.37L112.87,37.37z M112.87,37.37"/>
			<path class="st18" d="M174.9,37.37l-11.7,0c-0.32,0-0.59,0.26-0.59,0.58c0,0.33,0.26,0.59,0.59,0.59h11.7
				c0.32,0,0.59-0.26,0.59-0.59C175.49,37.63,175.22,37.37,174.9,37.37L174.9,37.37z M174.9,37.37"/>
			<path class="st18" d="M116.75,50.25c-0.16-0.28-0.52-0.38-0.8-0.21l-10.14,5.85c-0.28,0.16-0.38,0.52-0.21,0.8
				c0.11,0.19,0.3,0.29,0.51,0.29c0.1,0,0.2-0.03,0.29-0.08l10.14-5.85C116.81,50.88,116.91,50.52,116.75,50.25L116.75,50.25z
				 M116.75,50.25"/>
			<path class="st18" d="M170.47,19.23c-0.16-0.28-0.52-0.38-0.8-0.21l-10.13,5.85c-0.28,0.16-0.37,0.52-0.21,0.8
				c0.11,0.19,0.3,0.29,0.5,0.29c0.1,0,0.2-0.03,0.29-0.08l10.13-5.85C170.54,19.87,170.63,19.51,170.47,19.23L170.47,19.23z
				 M170.47,19.23"/>
			<path class="st18" d="M156.76,5.52c-0.28-0.16-0.64-0.07-0.8,0.21l-5.85,10.14c-0.16,0.28-0.07,0.64,0.21,0.8
				c0.09,0.05,0.19,0.08,0.29,0.08c0.2,0,0.4-0.11,0.51-0.29l5.85-10.14C157.14,6.04,157.04,5.68,156.76,5.52L156.76,5.52z
				 M156.76,5.52"/>
			<path class="st18" d="M138.03,0.5c-0.32,0-0.59,0.26-0.59,0.58v11.7c0,0.32,0.26,0.58,0.59,0.58c0.32,0,0.58-0.26,0.58-0.58V1.08
				C138.62,0.76,138.36,0.5,138.03,0.5L138.03,0.5z M138.03,0.5"/>
			<path class="st18" d="M125.96,15.87L120.1,5.73c-0.16-0.28-0.52-0.38-0.8-0.21c-0.28,0.16-0.38,0.52-0.21,0.8l5.85,10.13
				c0.11,0.19,0.31,0.29,0.51,0.29c0.1,0,0.2-0.03,0.29-0.08C126.02,16.5,126.12,16.15,125.96,15.87L125.96,15.87z M125.96,15.87"/>
			<path class="st18" d="M170.26,55.88l-10.14-5.85c-0.28-0.16-0.64-0.07-0.8,0.22c-0.16,0.28-0.07,0.64,0.21,0.8l10.14,5.85
				c0.09,0.06,0.19,0.08,0.29,0.08c0.2,0,0.4-0.11,0.51-0.29C170.63,56.4,170.54,56.04,170.26,55.88L170.26,55.88z M170.26,55.88"/>
			<path class="st18" d="M116.53,24.86l-10.14-5.85c-0.28-0.16-0.64-0.06-0.8,0.21c-0.16,0.28-0.07,0.64,0.21,0.8l10.14,5.85
				c0.09,0.05,0.19,0.08,0.29,0.08c0.2,0,0.4-0.11,0.51-0.29C116.91,25.38,116.81,25.02,116.53,24.86L116.53,24.86z M116.53,24.86"
				/>
		</g>
		<g>
			<path class="st24" d="M139.73,57.85V38.97c0,0-0.27-8.9,4.59-8.9s2.61,9.26-6.74,9.26"/>
			<path class="st24" d="M135.42,57.85V38.97c0,0,0.27-8.9-4.59-8.9c-4.86,0-2.61,9.26,6.74,9.26"/>
		</g>
	</g>
</g>
</svg>
